<svg id="Layer_1" data-name="Layer 1" xmlns="http://www.w3.org/2000/svg" viewBox="0 0 300 200"><defs><style>.cls-1,.cls-2{fill:none;}.cls-1,.cls-2,.cls-3{stroke:#186399;stroke-miterlimit:10;}.cls-1,.cls-3{stroke-width:2px;}.cls-2{stroke-width:1.91px;}.cls-3{fill:#186399;}</style></defs><title>1</title><line class="cls-1" x1="138.8" y1="137.7" x2="195.1" y2="137.7"/><line class="cls-1" x1="138.8" y1="148.1" x2="195.1" y2="148.1"/><rect class="cls-1" x="91.6" y="85.1" width="119.8" height="78.79"/><rect class="cls-1" x="98" y="91.1" width="107.1" height="66.81"/><rect class="cls-1" x="86.3" y="163.9" width="130.4" height="10.47" rx="5.2" ry="5.2"/><path class="cls-2" d="M211.5,41.2V53.3a14.1,14.1,0,0,1-14.1,14H112.1L93.9,75.8A1.4,1.4,0,0,1,92.1,74l8.5-18.7v-16a13.7,13.7,0,0,1,13.6-13.7H196A15.6,15.6,0,0,1,211.5,41.2Z"/><path class="cls-3" d="M74.8,75.4a3.1,3.1,0,0,0-.9,4.2,3.1,3.1,0,0,0,4.2.8,3,3,0,0,0,.8-4.1A2.9,2.9,0,0,0,74.8,75.4Z"/><path class="cls-3" d="M76.5,58.7a3,3,0,1,0,4.1.9A2.9,2.9,0,0,0,76.5,58.7Z"/><path class="cls-3" d="M57.4,75.9A3,3,0,0,0,60.7,81a3.1,3.1,0,0,0,.8-4.2A2.9,2.9,0,0,0,57.4,75.9Z"/><polyline class="cls-1" points="59 78.4 76.4 77.9 78.1 61.2"/><path class="cls-3" d="M226.8,56.7a3.1,3.1,0,0,0-4.2-.9,2.9,2.9,0,0,0-.9,4.1,3.1,3.1,0,0,0,4.2.9A2.9,2.9,0,0,0,226.8,56.7Z"/><path class="cls-3" d="M243.5,58.4a3.1,3.1,0,0,0-4.2-.9,3,3,0,0,0-.8,4.1,3,3,0,0,0,5-3.2Z"/><path class="cls-3" d="M226.2,39.3a3,3,0,1,0-5,3.2,3.1,3.1,0,0,0,4.2.9A3,3,0,0,0,226.2,39.3Z"/><polyline class="cls-1" points="223.7 40.9 224.2 58.3 241 60"/><path class="cls-1" d="M240.2,99.6l-.4.5-2.6-2.9a1,1,0,0,0-1.3-.1.1.1,0,0,1-.1.1l-1.6,1.9a1.5,1.5,0,0,1-2.1.2l-.2-.2-1.6-1.9a1,1,0,0,0-1.3-.1.1.1,0,0,1-.1.1l-1.6,1.9a1.5,1.5,0,0,1-2.1.2l-.2-.2-1.6-1.9a1,1,0,0,0-1.3-.1.1.1,0,0,1-.1.1l-2.5,3-.5-.4,2.5-2.9a1.5,1.5,0,0,1,2.2-.2.3.3,0,0,1,.1.2l1.6,1.8c.4.4,1,.5,1.3.1h.1l1.7-1.8a1.4,1.4,0,0,1,2.1-.2.3.3,0,0,1,.1.2l1.7,1.8a.8.8,0,0,0,1.2.1h.1l1.7-1.8a1.4,1.4,0,0,1,2.1-.2.3.3,0,0,1,.1.2S240.1,99.6,240.2,99.6Z"/><path class="cls-1" d="M240.2,88.8l-.4.4c-.1,0-2.6-2.8-2.6-2.8a.9.9,0,0,0-1.3-.1h-.1l-1.6,1.9a1.4,1.4,0,0,1-2.1.1h-.2l-1.6-1.9a.9.9,0,0,0-1.3-.1h-.1l-1.6,1.9a1.4,1.4,0,0,1-2.1.1H225l-1.6-1.9a.9.9,0,0,0-1.3-.1H222l-2.5,3L219,89l2.5-3a1.7,1.7,0,0,1,2.2-.2.3.3,0,0,0,.1.2l1.6,1.9a.9.9,0,0,0,1.3.1h.1l1.7-1.9a1.5,1.5,0,0,1,2.1-.2.3.3,0,0,0,.1.2l1.7,1.9a.8.8,0,0,0,1.2.1h.1l1.7-1.9a1.6,1.6,0,0,1,2.1-.2.3.3,0,0,0,.1.2Z"/><path class="cls-1" d="M85.2,41.6l-.4.5-2.6-2.9a1,1,0,0,0-1.3-.1.1.1,0,0,1-.1.1l-1.6,1.9a1.5,1.5,0,0,1-2.1.2l-.2-.2-1.6-1.9a1,1,0,0,0-1.3-.1.1.1,0,0,1-.1.1l-1.6,1.9a1.5,1.5,0,0,1-2.1.2l-.2-.2-1.6-1.9a1,1,0,0,0-1.3-.1.1.1,0,0,1-.1.1l-2.5,3-.5-.4,2.5-2.9a1.5,1.5,0,0,1,2.2-.2.3.3,0,0,1,.1.2l1.6,1.8c.4.4,1,.5,1.3.1h.1l1.7-1.8a1.4,1.4,0,0,1,2.1-.2.3.3,0,0,1,.1.2l1.7,1.8a.8.8,0,0,0,1.2.1h.1l1.7-1.8a1.4,1.4,0,0,1,2.1-.2.3.3,0,0,1,.1.2S85.1,41.6,85.2,41.6Z"/><path class="cls-1" d="M85.2,30.8l-.4.4c-.1,0-2.6-2.8-2.6-2.8a.9.9,0,0,0-1.3-.1h-.1l-1.6,1.9a1.4,1.4,0,0,1-2.1.1h-.2l-1.6-1.9a.9.9,0,0,0-1.3-.1h-.1l-1.6,1.9a1.4,1.4,0,0,1-2.1.1H70l-1.6-1.9a.9.9,0,0,0-1.3-.1H67l-2.5,3L64,31l2.5-3a1.7,1.7,0,0,1,2.2-.2V28l1.6,1.9a.9.9,0,0,0,1.3.1.1.1,0,0,0,.1-.1L73.5,28a1.5,1.5,0,0,1,2.1-.2V28l1.7,1.9a.8.8,0,0,0,1.2.1.1.1,0,0,0,.1-.1L80.4,28a1.6,1.6,0,0,1,2.1-.2V28Z"/></svg>