<svg id="Layer_1" data-name="Layer 1" xmlns="http://www.w3.org/2000/svg" viewBox="0 0 300 200"><defs><style>.cls-1{fill:none;}.cls-1,.cls-2{stroke:#186399;stroke-miterlimit:10;stroke-width:2px;}.cls-2{fill:#186399;}</style></defs><title>2</title><rect class="cls-1" x="56.6" y="94" width="18.9" height="18.95"/><rect class="cls-1" x="86.8" y="94" width="18.9" height="18.95"/><rect class="cls-1" x="116" y="94" width="18.9" height="18.95" rx="9.5" ry="9.5"/><rect class="cls-1" x="56.6" y="94" width="18.9" height="18.95"/><rect class="cls-1" x="86.8" y="94" width="18.9" height="18.95"/><rect class="cls-1" x="116" y="94" width="18.9" height="18.95" rx="9.5" ry="9.5"/><rect class="cls-1" x="56.6" y="123.7" width="18.9" height="18.95" rx="9.5" ry="9.5"/><rect class="cls-1" x="86.8" y="123.7" width="18.9" height="18.95"/><rect class="cls-1" x="116" y="123.7" width="18.9" height="18.95"/><rect class="cls-1" x="56.6" y="154" width="18.9" height="18.95"/><rect class="cls-1" x="86.8" y="154" width="18.9" height="18.95" rx="9.5" ry="9.5"/><rect class="cls-1" x="116" y="154" width="18.9" height="18.95"/><path class="cls-2" d="M243.2,33.9V85h0a7,7,0,0,0-14,0V33.8a7.1,7.1,0,0,1,7-6.9A7,7,0,0,1,243.2,33.9Z"/><path class="cls-1" d="M243.1,85a7,7,0,0,1-6.7,7H166V33.8h63.2V85a7,7,0,0,1,14,0Z"/><rect class="cls-1" x="175.2" y="54.9" width="5" height="24.08"/><rect class="cls-1" x="185.6" y="63" width="5" height="15.95"/><rect class="cls-1" x="196" y="55.2" width="5" height="23.82"/><rect class="cls-1" x="206.3" y="51.5" width="5" height="27.45"/><rect class="cls-1" x="216.7" y="46.4" width="5" height="32.58"/><path class="cls-2" d="M139,68.8a3.3,3.3,0,1,0,4.6,1A3.3,3.3,0,0,0,139,68.8Z"/><path class="cls-2" d="M140.9,50a3.4,3.4,0,1,0,4.6,1A3.4,3.4,0,0,0,140.9,50Z"/><path class="cls-2" d="M119.4,69.4a3.4,3.4,0,1,0,4.7,1A3.4,3.4,0,0,0,119.4,69.4Z"/><polyline class="cls-1" points="121.3 72.2 140.8 71.6 142.7 52.8"/><path class="cls-1" d="M90.7,35.7a5.5,5.5,0,0,1,1.6,4h10.9V50.6a5.7,5.7,0,0,0-4,1.6,5.8,5.8,0,0,0,4,9.7V72.8H92.3a5.6,5.6,0,0,1-9.6,4,5.8,5.8,0,0,1-1.7-4H70.1V61.9a5.6,5.6,0,0,0,4-1.7,5.7,5.7,0,0,0,0-8,5.5,5.5,0,0,0-4-1.6V39.7H81a5.6,5.6,0,0,1,1.7-4A5.5,5.5,0,0,1,90.7,35.7Z"/><path class="cls-2" d="M160.6,141.2a3.4,3.4,0,0,0-4.7-1,3.5,3.5,0,0,0-1,4.7,3.4,3.4,0,0,0,5.7-3.7Z"/><path class="cls-2" d="M179.3,143.1a3.3,3.3,0,1,0-1,4.6A3.2,3.2,0,0,0,179.3,143.1Z"/><path class="cls-2" d="M160,121.7a3.3,3.3,0,1,0-1,4.6A3.3,3.3,0,0,0,160,121.7Z"/><polyline class="cls-1" points="157.2 123.5 157.8 143 176.5 144.9"/><path class="cls-1" d="M217.7,118.7a5.5,5.5,0,0,1,1.6,4h10.9v10.9a5.7,5.7,0,0,0-4,1.6,5.8,5.8,0,0,0,4,9.7v10.9H219.3a5.6,5.6,0,0,1-9.6,4,5.8,5.8,0,0,1-1.7-4H197.1V144.9a5.6,5.6,0,0,0,4-1.7,5.7,5.7,0,0,0,0-8,5.5,5.5,0,0,0-4-1.6V122.7H208a5.6,5.6,0,0,1,1.7-4A5.5,5.5,0,0,1,217.7,118.7Z"/></svg>