<svg id="Layer_1" data-name="Layer 1" xmlns="http://www.w3.org/2000/svg" viewBox="0 0 300 200"><defs><style>.cls-1{fill:none;}.cls-1,.cls-2{stroke:#186399;stroke-miterlimit:10;stroke-width:2px;}.cls-2,.cls-3{fill:#186399;}</style></defs><title>3</title><path class="cls-1" d="M161.7,35a57.9,57.9,0,0,1,11,21.9,29.2,29.2,0,0,0-27.6-3.3C149.8,45.7,155.5,39.3,161.7,35Z"/><path class="cls-1" d="M165.8,87.7a11,11,0,1,1-9.5-12.4A11,11,0,0,1,165.8,87.7Z"/><path class="cls-1" d="M133.6,113.4a73.4,73.4,0,0,0,6.7,23.1c-10.6-.8-20.4-.3-27.8,1.4A35.5,35.5,0,0,1,133.6,113.4Z"/><path class="cls-1" d="M182.7,147.3c-6.7-3.6-16.1-6.7-27-8.8a73.8,73.8,0,0,0,12.6-20.7A35.7,35.7,0,0,1,182.7,147.3Z"/><path class="cls-1" d="M172.7,56.9a29.2,29.2,0,0,0-27.6-3.3,92.7,92.7,0,0,0-10.9,30.8,111.3,111.3,0,0,0-1.4,13.8,93.7,93.7,0,0,0,.8,15.2,73.4,73.4,0,0,0,6.7,23.1c4.1.3,8.4.8,12.7,1.5l2.7.5a73.8,73.8,0,0,0,12.6-20.7,88,88,0,0,0,4.5-13.7c.6-2.3,1-4.6,1.4-7A94,94,0,0,0,172.7,56.9ZM143.9,84.8a11,11,0,0,1,12.4-9.5,11,11,0,1,1-12.4,9.5Z"/><path class="cls-1" d="M165.8,87.7a11,11,0,1,1-9.5-12.4A11,11,0,0,1,165.8,87.7Z"/><line class="cls-1" x1="146.8" y1="148.6" x2="144.7" y2="164.1"/><line class="cls-1" x1="142" y1="147.4" x2="133.5" y2="160.6"/><line class="cls-1" x1="151.8" y1="148.7" x2="156.5" y2="163.7"/><path class="cls-2" d="M224.4,149.2a4.4,4.4,0,0,0,0,6.2,4.3,4.3,0,0,0,6.1,0,4.4,4.4,0,0,0,0-6.2A4.3,4.3,0,0,0,224.4,149.2Z"/><path class="cls-2" d="M221.8,125a4.4,4.4,0,0,0,0,6.2,4.3,4.3,0,0,0,6.1,0,4.4,4.4,0,0,0,0-6.2A4.3,4.3,0,0,0,221.8,125Z"/><path class="cls-2" d="M199.9,155.2a4.3,4.3,0,1,0,6.1,0A4.3,4.3,0,0,0,199.9,155.2Z"/><polyline class="cls-1" points="203 158.3 227.5 152.3 224.8 128.1"/><circle class="cls-3" cx="89.3" cy="40.7" r="3.7"/><circle class="cls-3" cx="89.3" cy="77" r="3.7"/><circle class="cls-3" cx="76.1" cy="45.6" r="3.7"/><circle class="cls-3" cx="102.6" cy="45.6" r="3.7"/><circle class="cls-3" cx="76.1" cy="72.2" r="3.7"/><circle class="cls-3" cx="71.1" cy="58.9" r="3.7"/><circle class="cls-3" cx="107.5" cy="58.9" r="3.7"/><circle class="cls-3" cx="102.6" cy="72.2" r="3.7"/><polygon class="cls-1" points="76 45.6 107.4 58.9 76 72.2 89.2 40.7 102.6 72.7 71.1 59.1 102.6 45.6 89.2 77 76 45.6"/><path class="cls-1" d="M230,73.9l-.6.6-3.6-4a1.3,1.3,0,0,0-1.8-.1h-.1l-2.3,2.7a2.1,2.1,0,0,1-3,.2l-.2-.2-2.3-2.7a1.3,1.3,0,0,0-1.8-.1h-.2l-2.2,2.7a2.1,2.1,0,0,1-3,.2l-.3-.2-2.2-2.7a1.4,1.4,0,0,0-1.9-.1h-.1l-3.6,4.2-.6-.5,3.6-4.2a2.1,2.1,0,0,1,3-.2l.2.2,2.3,2.7a1.3,1.3,0,0,0,1.8.1h.1l2.3-2.7a2.1,2.1,0,0,1,3-.2c.1,0,.1.1.2.2l2.3,2.7a1.3,1.3,0,0,0,1.8.1h.1l2.3-2.7a2.1,2.1,0,0,1,3-.2.2.2,0,0,1,.2.2Z"/><path class="cls-1" d="M230,58.7l-.6.6-3.6-4a1.3,1.3,0,0,0-1.8-.2v.2l-2.3,2.6a2.2,2.2,0,0,1-3,.3c-.1-.1-.2-.2-.2-.3l-2.3-2.6a1.3,1.3,0,0,0-1.8-.2l-.2.2-2.2,2.6a2.2,2.2,0,0,1-3,.3l-.3-.3-2.2-2.6a1.4,1.4,0,0,0-1.9-.2c0,.1-.1.1-.1.2l-3.6,4.2-.6-.6,3.6-4.2a2.2,2.2,0,0,1,3-.2.2.2,0,0,0,.2.2l2.3,2.7a1.3,1.3,0,0,0,1.8.1h.1l2.3-2.7a2.2,2.2,0,0,1,3-.2c.1.1.1.2.2.2l2.3,2.7a1.3,1.3,0,0,0,1.8.1.1.1,0,0,0,.1-.1l2.3-2.7a2.2,2.2,0,0,1,3-.2l.2.2Z"/><path class="cls-1" d="M98,147.9l-.6.6-3.6-4a1.3,1.3,0,0,0-1.8-.1h-.1l-2.3,2.7a2.1,2.1,0,0,1-3,.2.2.2,0,0,1-.2-.2l-2.3-2.7a1.3,1.3,0,0,0-1.8-.1h-.2l-2.2,2.7a2.1,2.1,0,0,1-3,.2l-.3-.2-2.2-2.7a1.4,1.4,0,0,0-1.9-.1h-.1l-3.6,4.2-.6-.5,3.6-4.2a2.1,2.1,0,0,1,3-.2l.2.2,2.3,2.7a1.3,1.3,0,0,0,1.8.1h.1l2.3-2.7a2.1,2.1,0,0,1,3-.2l.2.2,2.3,2.7a1.3,1.3,0,0,0,1.8.1.1.1,0,0,0,.1-.1l2.3-2.7a2.1,2.1,0,0,1,3-.2l.2.2Z"/><path class="cls-1" d="M98,132.7l-.6.6c0-.1-3.6-4-3.6-4a1.3,1.3,0,0,0-1.8-.2c-.1.1-.1.1-.1.2l-2.3,2.6a2.2,2.2,0,0,1-3,.3l-.2-.3-2.3-2.6a1.3,1.3,0,0,0-1.8-.2l-.2.2-2.2,2.6a2.2,2.2,0,0,1-3,.3l-.3-.3-2.2-2.6a1.4,1.4,0,0,0-1.9-.2c0,.1-.1.1-.1.2l-3.6,4.2-.6-.6,3.6-4.2a2.2,2.2,0,0,1,3-.2l.2.2,2.3,2.7a1.3,1.3,0,0,0,1.8.1h.1l2.3-2.7a2.2,2.2,0,0,1,3-.2l.2.2,2.3,2.7a1.3,1.3,0,0,0,1.8.1h.1l2.3-2.7a2.2,2.2,0,0,1,3-.2l.2.2Z"/></svg>