<svg xmlns="http://www.w3.org/2000/svg" id="Layer_1" data-name="Layer 1" viewBox="0 0 356.7 218.3">
  <defs>
    <style>
      .cls-1{fill:#186399}.cls-2{fill:#73c2fb}.cls-3{fill:#42a6ed}.cls-4{fill:#44a4eb}.cls-5{fill:#ffa514}.cls-6{fill:#166395}.cls-7{fill:#9ed6ff}.cls-10,.cls-11,.cls-12{fill:none;stroke-miterlimit:10}.cls-10{stroke-width:2.91px}.cls-11,.cls-12{stroke:#186399}.cls-10{stroke:#ed4250}.cls-11{stroke-width:3.01px}.cls-12{stroke-width:2px}
    </style>
  </defs>
  <path d="M260 129.3h60.8v7.03H260z" class="cls-1" transform="matrix(.08 -1 1 .08 35.7 370.21)"/>
  <path d="M319.6 69h36.8v6.92h-36.8z" class="cls-1" transform="rotate(-32.4 218.23900793 220.7312516)"/>
  <path d="M364.7 112.3l-7 .2v-4.6a6.4 6.4 0 0 0 4.7-.6h.1a8.2 8.2 0 0 0 2.2-1.9z" class="cls-1" transform="translate(-98.1 -40.9)"/>
  <path d="M166.5 197.6h43.4v9.84h-43.4z" class="cls-1"/>
  <path d="M317.3 244h-61.1v-57.8a30.7 30.7 0 0 1 30.6-30.6 30.6 30.6 0 0 1 30.5 30.5v58z" class="cls-2" transform="translate(-98.1 -40.9)"/>
  <rect width="45" height="29.82" x="281" y="188.4" class="cls-2" rx="7.8" ry="7.8"/>
  <rect width="62.8" height="29.61" x="273.5" y="88.8" class="cls-3" rx="11.6" ry="11.6" transform="rotate(-47.3 209.13625193 195.13625299)"/>
  <path d="M382.4 98.8h1.9v9.68h-1.9z" class="cls-1" transform="rotate(-16.8 196.11790688 415.07686032)"/>
  <path d="M378.1 117.9a2.2 2.2 0 0 1-3.1-1l-3.3-6.2a2.2 2.2 0 0 1 .9-3 2.3 2.3 0 0 1 3.1.9l3.3 6.2a2.3 2.3 0 0 1-.9 3.1zM372.4 121a2.2 2.2 0 0 1-3-1l-3.3-6.2a2.3 2.3 0 0 1 .9-3.1 2.2 2.2 0 0 1 3 1l3.3 6.2a2.3 2.3 0 0 1-.9 3.1zM366.6 123.9a2.3 2.3 0 0 1-3.1-1l-3.3-6.2a2.3 2.3 0 0 1 .9-3.1 2.3 2.3 0 0 1 3.1 1l3.3 6.2a2.3 2.3 0 0 1-.9 3.1zM360.9 126.9a2.2 2.2 0 0 1-3-.9l-3.3-6.2a2.3 2.3 0 0 1 .9-3.1 2.1 2.1 0 0 1 3 1l3.3 6.2a2.2 2.2 0 0 1-.9 3z" class="cls-3" transform="translate(-98.1 -40.9)"/>
  <rect width="7" height="13.9" x="375.3" y="93.8" class="cls-4" rx="3.2" ry="3.2" transform="rotate(-67.4 299.17054431 153.81188469)"/>
  <rect width="5.1" height="10.19" x="382.8" y="106.4" class="cls-4" rx="2.4" ry="2.4" transform="rotate(-13.3 161.16046783 511.72631993)"/>
  <path d="M343.7 109.7a17.7 17.7 0 0 0 31.2-16.6v-.2" class="cls-4" transform="translate(-98.1 -40.9)"/>
  <path d="M364.6 105.4a8.2 8.2 0 0 1-2.2 1.9h-.1a6.4 6.4 0 0 1-4.7.6 6.4 6.4 0 0 1-4.3-3.4l4.2-2.3-.3-26.7h7l.3 23 .7-.4a7.1 7.1 0 0 1-.6 7.3zM411.7 171.4a5.5 5.5 0 0 0-.1-1.8 3.7 3.7 0 0 0-2.5-2.8c-5.6-2.1-23.6-9.2-26.1-14.9l12.5-6.7a3.6 3.6 0 0 0 1.6-4.7h-.1l-15.9-29.7a3.6 3.6 0 0 0-4.8-1.5l-24.3 13a3.6 3.6 0 0 0-1.4 4.8l15.9 29.7.3.6.2.2.3.2a38 38 0 0 0 20.3 8.3c12.6 1.3 20.4 2.1 23.5 5.7a.4.4 0 0 0 .5-.1zm-35.9-46.3l-21.3-.7 15-8.5 8.4-4.7 3.9 7 4 7z" class="cls-1" transform="translate(-98.1 -40.9)"/>
  <path d="M378.5 118.7a2.3 2.3 0 0 1-3.1-1l-3.2-6.2a2.3 2.3 0 0 1 .9-3.1 2.2 2.2 0 0 1 3 1l3.3 6.2a2.3 2.3 0 0 1-.9 3.1zM373.4 123.1a2.4 2.4 0 0 1-3.1-1l-3.2-6.2a2.3 2.3 0 0 1 .9-3.1 2.2 2.2 0 0 1 3 1l3.3 6.2a2.3 2.3 0 0 1-.9 3.1z" class="cls-2" transform="translate(-98.1 -40.9)"/>
  <rect width="4.3" height="10.97" x="362.7" y="114.9" class="cls-2" rx="2.1" ry="2.1" transform="rotate(-28 233.82892245 296.65319323)"/>
  <path d="M361.7 127.8a2.1 2.1 0 0 1-2.7-.8l-3-5.6a2 2 0 0 1 .9-2.7 2 2 0 0 1 2.7.8l2.9 5.6a1.9 1.9 0 0 1-.8 2.7z" class="cls-2" transform="translate(-98.1 -40.9)"/>
  <circle cx="259" cy="26.3" r="13.2" class="cls-3"/>
  <path d="M155.4 206h67.5v8.84h-67.5z" class="cls-3"/>
  <path d="M264 164.4l-3.2-4.4c-.8-1.1-2.1-1.5-2.8-.9l-1.1.9c-.8.7-.5 2.1.6 2.9l4.3 3.5a1.7 1.7 0 0 0 2.4.2c.5-.5.4-1.4-.2-2.2z" class="cls-5" transform="translate(-98.1 -40.9)"/>
  <path d="M411.4 174.1s-2.1 4.1-2.1 5.5a2.2 2.2 0 0 0 1.8 2.7 2.3 2.3 0 0 0 2.7-1.7 1.7 1.7 0 0 0 0-1c0-1.4-2.4-5.5-2.4-5.5zM418.3 182.5s-2 4.1-2 5.5a2.2 2.2 0 0 0 1.8 2.7 2.3 2.3 0 0 0 2.7-1.7 1.7 1.7 0 0 0 0-1c0-1.4-2.5-5.5-2.5-5.5z" class="cls-2" transform="translate(-98.1 -40.9)"/>
  <path d="M258.1 164.1h9.3v3.54h-9.3z" class="cls-2" transform="rotate(-43 161.60548527 269.81694707)"/>
  <path d="M118.1 199.4l.4.3h-.4zM121.7 199.4v.3h-.4z" class="cls-6" transform="translate(-98.1 -40.9)"/>
  <path d="M125.5 197.4a5.5 5.5 0 0 1-6.2 4.7 5.4 5.4 0 0 1-4.7-4.7" class="cls-3" transform="translate(-98.1 -40.9)"/>
  <path d="M122.1 206.1c3.9-2.3 2.4-8.6-2.3-8.3s-5.4 6.6-1.3 8.4c.9.4 1.7-.9.8-1.3-2.6-1.2-2.6-5 .4-5.5s4.2 3.8 1.6 5.3a.8.8 0 0 0 .8 1.4z" class="cls-4" transform="translate(-98.1 -40.9)"/>
  <path d="M129.9 137v3.6a8.2 8.2 0 0 0-8.2 8.2v48.6h.9a2.5 2.5 0 0 1-.9 2l-.4.3a2.3 2.3 0 0 1-1.4.4h-.1a2.8 2.8 0 0 1-1.3-.4l-.4-.3a2.8 2.8 0 0 1-.8-2h.8v-48.6a11.8 11.8 0 0 1 11.8-11.8zM251.8 163.4z" class="cls-6" transform="translate(-98.1 -40.9)"/>
  <path d="M247.7 157.4a5.5 5.5 0 0 1 2.1 10.7h-.1" class="cls-3" transform="translate(-98.1 -40.9)"/>
  <path d="M257.8 159.8c-2.3-3.9-8.6-2.4-8.2 2.3s6.6 5.4 8.4 1.3c.4-.9-1-1.7-1.4-.8-1.1 2.6-5 2.6-5.4-.4s3.7-4.3 5.3-1.6c.5.8 1.8 0 1.3-.8z" class="cls-4" transform="translate(-98.1 -40.9)"/>
  <path d="M251.8 162.6a1.7 1.7 0 0 1-.1.7 2.8 2.8 0 0 1-2.6 1.9c-4 2.6-11.8 7.2-17.7 7.5h-.3c-10.2 0-12.6-25.1-13-30.2l3.6-.2c.9 11.2 4.3 26.8 9.4 26.8h.1c5.7-.3 14.1-5.7 17.2-7.8l-.2-1.3h1a2.6 2.6 0 0 1 2.6 2.6zM174.8 251.6c-9.6 0-17.2-3.1-22.6-9.2-11-12.5-8.4-33.3-8.3-34.1l3.6.4c0 .2-2.5 20 7.5 31.4 4.6 5.2 11.3 7.9 19.8 7.9s15.4-2.7 20.3-8c10.3-11.3 8.6-30.8 8.6-31l3.6-.4c.1.9 1.8 21.3-9.5 33.8-5.6 6.1-13.3 9.2-23 9.2z" class="cls-1" transform="translate(-98.1 -40.9)"/>
  <rect width="4.4" height="10.9" x="68" y="202.2" class="cls-3" rx="2.2" ry="2.2"/>
  <rect width="4.4" height="10.9" x="81.4" y="202.2" class="cls-3" rx="2.2" ry="2.2"/>
  <rect width="14" height="20.3" x="69.9" y="197.5" class="cls-1" rx="5.4" ry="5.4"/>
  <path d="M137.4 76a42.6 42.6 0 0 1 49.2-34.5 42.5 42.5 0 0 1 34.5 49.1" class="cls-7" transform="translate(-98.1 -40.9)"/>
  <path d="M154.2 209.4a8.3 8.3 0 1 1-12.6-10.8l.9-.9" class="cls-3" transform="translate(-98.1 -40.9)"/>
  <path d="M149.1 206.8a2.8 2.8 0 0 1-4 0 3 3 0 0 1 0-4.1" class="cls-1" transform="translate(-98.1 -40.9)"/>
  <path d="M206.9 198.1a8.4 8.4 0 0 1-.9 11.7 8.5 8.5 0 0 1-10.8 0" class="cls-3" transform="translate(-98.1 -40.9)"/>
  <path d="M204.2 203.3a2.8 2.8 0 0 1 0 4 2.8 2.8 0 0 1-4 .1h-.1" class="cls-1" transform="translate(-98.1 -40.9)"/>
  <path d="M132.1 132.7h85.7v40.1a42.6 42.6 0 0 1-42.6 42.6h-.3a42.7 42.7 0 0 1-42.7-42.7v-40h-.1z" class="cls-2" transform="translate(-98.1 -40.9)"/>
  <path d="M217.8 132.7a8.3 8.3 0 0 1 0 16.6" class="cls-3" transform="translate(-98.1 -40.9)"/>
  <path d="M217.8 138.3a2.7 2.7 0 0 1 0 5.4" class="cls-1" transform="translate(-98.1 -40.9)"/>
  <path d="M132.2 149.3a8.3 8.3 0 1 1 0-16.6" class="cls-3" transform="translate(-98.1 -40.9)"/>
  <path d="M201.9 67.2a28.5 28.5 0 0 0-50.1 11.6l2.4.6a18.2 18.2 0 0 1 .7-2.5L167 79h.8a7 7 0 0 0 3.9-1.3 7.9 7.9 0 0 0 1.9-2.5 3.5 3.5 0 0 0 3.4-3.5 3.5 3.5 0 1 0-5.8 2.7 4.5 4.5 0 0 1-1.1 1.3 3.9 3.9 0 0 1-2.7.8l-11.6-2.1a25.8 25.8 0 0 1 18.2-15 7.3 7.3 0 0 0 .9 4.4c1.3 2.2 4 3.5 8 3.9a3.5 3.5 0 0 0 3.5 2.9 3.6 3.6 0 0 0 0-7.1 3.8 3.8 0 0 0-3.1 1.7c-3.2-.3-5.4-1.2-6.3-2.7a4.9 4.9 0 0 1-.3-3.5 29.1 29.1 0 0 1 5.9 0 25.8 25.8 0 0 1 21.1 16.2l-13-2.3a6.1 6.1 0 0 0-4.9 1 5.5 5.5 0 0 0-1.4 1.7 3.6 3.6 0 1 0 3.6 3.6 3.6 3.6 0 0 0-1.2-2.7 2 2 0 0 1 .6-.7 3.5 3.5 0 0 1 2.8-.4l14.4 2.6a24.7 24.7 0 0 1 .7 9.8v.4h2.5V88a28 28 0 0 0-5.9-20.8zm-28.4 3.6a1 1 0 1 1-1 1 .9.9 0 0 1 1-1zm12.9-4.7a1.1 1.1 0 0 1 1 1.1 1 1 0 0 1-1 1 1 1 0 0 1-1.1-1 1.1 1.1 0 0 1 1.1-1.1zm-1.9 14.2a1.1 1.1 0 0 1-1.1-1 1.1 1.1 0 0 1 1.1-1.1 1.1 1.1 0 0 1 1 1.1 1.1 1.1 0 0 1-1 1z" class="cls-1" transform="translate(-98.1 -40.9)"/>
  <path d="M185.5 79.3a1.1 1.1 0 0 1-1 1 1.1 1.1 0 0 1-1.1-1 1.1 1.1 0 0 1 1.1-1.1 1.1 1.1 0 0 1 1 1.1z" class="cls-5" transform="translate(-98.1 -40.9)"/>
  <ellipse cx="75.4" cy="30.9" class="cls-5" rx="1" ry="1"/>
  <path d="M187.4 67.2a1 1 0 0 1-1 1 1 1 0 0 1-1.1-1 1.1 1.1 0 0 1 1.1-1.1 1.1 1.1 0 0 1 1 1.1z" class="cls-5" transform="translate(-98.1 -40.9)"/>
  <path d="M221.2 90.3l-4.8 27.6a14.7 14.7 0 0 1-17 11.9l-54.9-9.5a14.7 14.7 0 0 1-11.9-17l4.8-27.3z" class="cls-2" transform="translate(-98.1 -40.9)"/>
  <path d="M220.2 96l-3 17.1-54.8-9.6a5.6 5.6 0 0 1-4.5-6.4l1-6.1a5.7 5.7 0 0 1 6.5-4.6z" class="cls-3" transform="translate(-98.1 -40.9)"/>
  <path d="M173.3 92.7l-1.3 7.5c-.4 2.1 2.8 2.9 3.1.9l1.3-7.5c.4-2.1-2.8-2.9-3.1-.9zM211.5 99l-1.3 7.5c-.3 2.1 2.8 2.9 3.2.9l1.3-7.5c.4-2.1-2.8-2.9-3.2-.9z" class="cls-1" transform="translate(-98.1 -40.9)"/>
  <path d="M140.4 140H209a32.2 32.2 0 0 1-32.2 32.2h-4.2a32.2 32.2 0 0 1-32.2-32.2z" class="cls-3" transform="translate(-98.1 -40.9)"/>
  <path d="M191.9 113.6c-1.2 5.3-8.7 3.9-8.1-1.5.1-1-1.4-1-1.6 0a5.7 5.7 0 1 0 11.3 1.9.8.8 0 0 0-1.6-.4z" class="cls-1" transform="translate(-98.1 -40.9)"/>
  <path d="M157.9 109.7a5 5 0 0 0 8.3 5.4 5.1 5.1 0 0 0-.5-7.1 4.9 4.9 0 0 0-7 .5 8.3 8.3 0 0 0-.8 1.2zM201.6 117.6a5 5 0 0 0 8.3 5.4 5 5 0 0 0-1.4-6.9 5.1 5.1 0 0 0-6.9 1.5z" class="cls-7" transform="translate(-98.1 -40.9)"/>
  <path d="M132.2 138.2a2.7 2.7 0 1 0-1 5.3h1M176.1 151.1a2.5 2.5 0 0 1 2.1 2.8 2.2 2.2 0 0 1-.5 1.2l-1.3 1.6-2.6 3.1-2.5-3.2-1.2-1.5a2.6 2.6 0 0 1 .4-3.5 3.1 3.1 0 0 1 1.2-.5h.2a3 3 0 0 1 2 .8 2.7 2.7 0 0 1 1.9-.8z" class="cls-1" transform="translate(-98.1 -40.9)"/>
  <path d="M142.8 81.3a3 3 0 0 1 2.4 3.5l-3.2 18.4a3 3 0 0 1-3.5 2.5 3 3 0 0 1-2.4-3.5l3.2-18.5a3 3 0 0 1 3.5-2.4z" class="cls-3" transform="translate(-98.1 -40.9)"/>
  <path d="M287 199.8v-44.2a30.6 30.6 0 0 0-30.7 30.5v13.7" class="cls-7" transform="translate(-98.1 -40.9)"/>
  <path fill="none" stroke="#ffa514" stroke-miterlimit="10" stroke-width="2.91" d="M180.2 127.3a5.6 5.6 0 0 0-7.9 0"/>
  <path fill="none" stroke="#186399" stroke-miterlimit="10" stroke-width="2.91" d="M172.3 127.3a5.6 5.6 0 1 0 7.9 0"/>
  <path d="M167.8 142.7h15.7" class="cls-10"/>
  <path d="M167.8 142.7h7" class="cls-11"/>
  <path d="M167.8 149.4h15.7" class="cls-10"/>
  <path d="M177.9 149.4h5.6" class="cls-11"/>
  <path d="M401.8 176.6a1.1 1.1 0 1 1-1.1-1.1 1.1 1.1 0 0 1 1.1 1.1z" class="cls-5" transform="translate(-98.1 -40.9)"/>
  <path d="M400.7 172.9a3.7 3.7 0 0 0-3.7 3.7 3.8 3.8 0 0 0 2.4 3.5v51.3h2.6v-51.3a3.8 3.8 0 0 0 2.4-3.5 3.6 3.6 0 0 0-3.7-3.7zm0 4.8a1.1 1.1 0 1 1 1.1-1.1 1.1 1.1 0 0 1-1.1 1.1z" class="cls-1" transform="translate(-98.1 -40.9)"/>
  <path d="M390 185.1a1.1 1.1 0 1 1-1.1-1.1 1.1 1.1 0 0 1 1.1 1.1z" class="cls-5" transform="translate(-98.1 -40.9)"/>
  <path d="M392.5 186.2a4.1 4.1 0 0 0 .1-1.1 3.7 3.7 0 1 0-3.7 3.7 3.8 3.8 0 0 0 1.9-.5l5 5v15.5h2.6v-16.6zm-4.7-1.1a1.1 1.1 0 1 1 1.1 1.1 1.1 1.1 0 0 1-1.1-1.1z" class="cls-1" transform="translate(-98.1 -40.9)"/>
  <path d="M410.7 192.7a1.1 1.1 0 1 1-1.1-1.1 1.1 1.1 0 0 1 1.1 1.1z" class="cls-5" transform="translate(-98.1 -40.9)"/>
  <path d="M409.6 189a3.7 3.7 0 0 0-3.7 3.7 2.8 2.8 0 0 0 .1.9l-3 3.1v12.1h2.6v-11.1l1.9-1.9a3.7 3.7 0 0 0 2.1.6 3.6 3.6 0 0 0 3.7-3.7 3.7 3.7 0 0 0-3.7-3.7zm0 4.8a1.1 1.1 0 1 1 1.1-1.1 1.1 1.1 0 0 1-1.1 1.1z" class="cls-1" transform="translate(-98.1 -40.9)"/>
  <path d="M410.2 204.6a3.8 3.8 0 0 0-3.7 3.7 3.7 3.7 0 0 0 .3 1.5l-3.8 3.9v17.7h2.6v-16.6l3.1-3.1a3.7 3.7 0 0 0 1.5.3 3.7 3.7 0 0 0 0-7.4zm0 4.8a1.1 1.1 0 1 1 1.1-1.1 1.1 1.1 0 0 1-1.1 1.1z" class="cls-1" transform="translate(-98.1 -40.9)"/>
  <circle cx="312.1" cy="167.4" r="1.1" class="cls-5"/>
  <circle cx="285.6" cy="160.8" r="1.1" class="cls-5"/>
  <path d="M387.3 202.6a2.8 2.8 0 0 0 .1-.9 3.7 3.7 0 0 0-3.7-3.7 3.8 3.8 0 0 0-3.7 3.7 3.8 3.8 0 0 0 5.8 3.1l10 10v16.6h2.6v-17.7zm-4.7-.9a1.1 1.1 0 1 1 1.1 1.1 1.1 1.1 0 0 1-1.1-1.1z" class="cls-1" transform="translate(-98.1 -40.9)"/>
  <path d="M277 187.6h52.9v6.84H277z" class="cls-3"/>
  <circle cx="22" cy="41.4" r="1.8" class="cls-12"/>
  <circle cx="153.9" cy="58.6" r="1.8" class="cls-12"/>
  <circle cx="132.8" cy="164.6" r="1.8" class="cls-12"/>
  <circle cx="250.3" cy="130.2" r="1.8" class="cls-12"/>
  <circle cx="320.4" cy="63" r="1.8" class="cls-12"/>
  <path d="M100.2 133a3.4 3.4 0 0 1-2-4.1 3.2 3.2 0 0 1 3.4-2.1h.7a4.1 4.1 0 0 1 1.1.7l9.3-7.9a3.4 3.4 0 0 1-.4-2.8 3 3 0 0 1 1-1.4l-6.4-9.8a3.4 3.4 0 0 1-2 .1 3.2 3.2 0 0 1-2.3-3.9 3.2 3.2 0 0 1 6 2 3 3 0 0 1-1 1.4l6.3 9.8a2.9 2.9 0 0 1 1.8-.3h.7a3.3 3.3 0 0 1 2 4 3.3 3.3 0 0 1-4.1 2.1 4.1 4.1 0 0 1-1.1-.7l-9.3 7.9a3.4 3.4 0 0 1 .4 2.8 3.2 3.2 0 0 1-4.1 2.2zM237.4 44.5a3.2 3.2 0 0 1 5.4 3.4l-.4.6a2.8 2.8 0 0 1-1 .9l4.2 11.4a3.6 3.6 0 0 1 2.8.6 4.5 4.5 0 0 1 1 1.4l11.4-2.6a2.9 2.9 0 0 1 .5-2 3.3 3.3 0 0 1 4.5-.8 3.2 3.2 0 0 1 .5 4.5 3.3 3.3 0 0 1-4.5.5 3.8 3.8 0 0 1-.9-1.5l-11.4 2.7a2.6 2.6 0 0 1-.3 1.7l-.3.6a3.2 3.2 0 0 1-5-4 1.9 1.9 0 0 1 1-.8l-4.2-11.5a2.9 2.9 0 0 1-2.8-.6 3.2 3.2 0 0 1-.5-4.5zM425.1 139.3a3.2 3.2 0 0 1 4.5-.5 3.3 3.3 0 0 1 .9 3.9l-.4.6a1.9 1.9 0 0 1-1 .8l4.2 11.5a3.2 3.2 0 0 1 2.8.6 4.5 4.5 0 0 1 1 1.4l11.4-2.6a2.9 2.9 0 0 1 .5-2 3.2 3.2 0 0 1 4.5-.8 3.1 3.1 0 0 1 .5 4.4 3.2 3.2 0 0 1-4.5.6 3.8 3.8 0 0 1-.9-1.5l-11.4 2.6a2.9 2.9 0 0 1-.3 1.8l-.3.6a3.2 3.2 0 0 1-5-4 2.8 2.8 0 0 1 1-.9l-4.2-11.4a3.1 3.1 0 0 1-2.8-.6 3.2 3.2 0 0 1-.5-4.5zM361 183.3l-1 1-3.1-3.5a.8.8 0 0 0-1-.1h-.2l-1.8 2.1a2.1 2.1 0 0 1-2.9.3h-.1l-.2-.2-1.8-2.1c-.2-.3-.6-.3-1-.1L346 183a2.1 2.1 0 0 1-2.9.2h-.1v-.2l-1.9-2.1a.8.8 0 0 0-1-.1l-3.2 3.6-1-.8 3.1-3.7a2.1 2.1 0 0 1 2.9-.2l.2.2 1.9 2.2c.1.2.3.2.5.2s.3 0 .5-.1h.1l1.8-2.1a2.1 2.1 0 0 1 2.9-.3h.1v.2l1.9 2.1a.5.5 0 0 0 .5.3l.5-.2h.1l1.8-2.1a2.1 2.1 0 0 1 2.9-.3h.1l.2.2zM361 192.7l-1 1-3.1-3.5a.8.8 0 0 0-1-.2l-.2.2-1.8 2.1a2.2 2.2 0 0 1-2.9.3h-.1l-.2-.3-1.8-2a.8.8 0 0 0-1-.2l-1.9 2.2a1.7 1.7 0 0 1-1.4.7 2 2 0 0 1-1.5-.4h-.1v-.2l-1.9-2.1a.8.8 0 0 0-1-.2l-3.2 3.7-1-.9 3.1-3.6a2.1 2.1 0 0 1 2.9-.3l.2.3 1.9 2.1a.5.5 0 0 0 .5.3l.5-.2h.1l1.8-2.2a2.2 2.2 0 0 1 2.9-.2h.1v.2l1.9 2.1a.5.5 0 0 0 .5.3h.5v-.2l1.8-2.1a2.2 2.2 0 0 1 2.9-.2h.1l.2.2z" class="cls-1" transform="translate(-98.1 -40.9)"/>
</svg>
