<svg id="Layer_1" data-name="Layer 1" xmlns="http://www.w3.org/2000/svg" viewBox="0 0 356.7 218.3"><defs><style>.cls-1{fill:#186399;}.cls-2{fill:#73c2fb;}.cls-3{fill:#42a6ed;}.cls-4{fill:#44a4eb;}.cls-5{fill:#ffa514;}.cls-6{fill:#166395;}.cls-7{fill:#9ed6ff;}.cls-10,.cls-11,.cls-12,.cls-8,.cls-9{fill:none;stroke-miterlimit:10;}.cls-8{stroke:#ffa514;}.cls-10,.cls-8,.cls-9{stroke-width:2.91px;}.cls-11,.cls-12,.cls-9{stroke:#186399;}.cls-10{stroke:#ed4250;}.cls-11{stroke-width:3.01px;}.cls-12{stroke-width:2px;}</style></defs><title>Artificial Intelligence Laibre AI</title><rect class="cls-1" x="260" y="129.3" width="60.8" height="7.03" transform="matrix(0.08, -1, 1, 0.08, 35.7, 370.21)"/><rect class="cls-1" x="319.6" y="69" width="36.8" height="6.92" transform="translate(-84.3 151.3) rotate(-32.4)"/><path class="cls-1" d="M364.7,112.3l-7,.2v-4.6a6.4,6.4,0,0,0,4.7-.6h.1a8.2,8.2,0,0,0,2.2-1.9Z" transform="translate(-98.1 -40.9)"/><rect class="cls-1" x="166.5" y="197.6" width="43.4" height="9.84"/><path class="cls-2" d="M317.3,244H256.2V186.2a30.7,30.7,0,0,1,30.6-30.6h0a30.6,30.6,0,0,1,30.5,30.5h0v58Z" transform="translate(-98.1 -40.9)"/><rect class="cls-2" x="281" y="188.4" width="45" height="29.82" rx="7.8" ry="7.8"/><rect class="cls-3" x="273.5" y="88.8" width="62.8" height="29.61" rx="11.6" ry="11.6" transform="translate(-76.1 216.5) rotate(-47.3)"/><rect class="cls-1" x="382.4" y="98.8" width="1.9" height="9.68" transform="translate(-111.6 74.4) rotate(-16.8)"/><path class="cls-3" d="M378.1,117.9h0a2.2,2.2,0,0,1-3.1-1l-3.3-6.2a2.2,2.2,0,0,1,.9-3h0a2.3,2.3,0,0,1,3.1.9l3.3,6.2A2.3,2.3,0,0,1,378.1,117.9Z" transform="translate(-98.1 -40.9)"/><path class="cls-3" d="M372.4,121h0a2.2,2.2,0,0,1-3-1l-3.3-6.2a2.3,2.3,0,0,1,.9-3.1h0a2.2,2.2,0,0,1,3,1l3.3,6.2A2.3,2.3,0,0,1,372.4,121Z" transform="translate(-98.1 -40.9)"/><path class="cls-3" d="M366.6,123.9h0a2.3,2.3,0,0,1-3.1-1l-3.3-6.2a2.3,2.3,0,0,1,.9-3.1h0a2.3,2.3,0,0,1,3.1,1l3.3,6.2A2.3,2.3,0,0,1,366.6,123.9Z" transform="translate(-98.1 -40.9)"/><path class="cls-3" d="M360.9,126.9h0a2.2,2.2,0,0,1-3-.9l-3.3-6.2a2.3,2.3,0,0,1,.9-3.1h0a2.1,2.1,0,0,1,3,1l3.3,6.2A2.2,2.2,0,0,1,360.9,126.9Z" transform="translate(-98.1 -40.9)"/><rect class="cls-4" x="375.3" y="93.8" width="7" height="13.9" rx="3.2" ry="3.2" transform="translate(42.2 370.9) rotate(-67.4)"/><rect class="cls-4" x="382.8" y="106.4" width="5.1" height="10.19" rx="2.4" ry="2.4" transform="translate(-113.4 50.8) rotate(-13.3)"/><path class="cls-4" d="M343.7,109.7a17.7,17.7,0,0,0,31.2-16.6v-.2" transform="translate(-98.1 -40.9)"/><path class="cls-1" d="M364.6,105.4a8.2,8.2,0,0,1-2.2,1.9h-.1a6.4,6.4,0,0,1-4.7.6,6.4,6.4,0,0,1-4.3-3.4l4.2-2.3-.3-26.7h7l.3,23,.7-.4A7.1,7.1,0,0,1,364.6,105.4Z" transform="translate(-98.1 -40.9)"/><path class="cls-1" d="M411.7,171.4a5.5,5.5,0,0,0-.1-1.8,3.7,3.7,0,0,0-2.5-2.8c-5.6-2.1-23.6-9.2-26.1-14.9l12.5-6.7a3.6,3.6,0,0,0,1.6-4.7H397l-15.9-29.7a3.6,3.6,0,0,0-4.8-1.5l-24.3,13a3.6,3.6,0,0,0-1.4,4.8l15.9,29.7.3.6.2.2.3.2h0a38,38,0,0,0,20.3,8.3c12.6,1.3,20.4,2.1,23.5,5.7a.4.4,0,0,0,.5-.1Zm-35.9-46.3-21.3-.7,15-8.5,8.4-4.7,3.9,7,4,7Z" transform="translate(-98.1 -40.9)"/><path class="cls-2" d="M378.5,118.7h0a2.3,2.3,0,0,1-3.1-1l-3.2-6.2a2.3,2.3,0,0,1,.9-3.1h0a2.2,2.2,0,0,1,3,1l3.3,6.2A2.3,2.3,0,0,1,378.5,118.7Z" transform="translate(-98.1 -40.9)"/><path class="cls-2" d="M373.4,123.1h0a2.4,2.4,0,0,1-3.1-1l-3.2-6.2a2.3,2.3,0,0,1,.9-3.1h0a2.2,2.2,0,0,1,3,1l3.3,6.2A2.3,2.3,0,0,1,373.4,123.1Z" transform="translate(-98.1 -40.9)"/><rect class="cls-2" x="362.7" y="114.9" width="4.3" height="10.97" rx="2.1" ry="2.1" transform="translate(-111.9 144.5) rotate(-28)"/><path class="cls-2" d="M361.7,127.8h0a2.1,2.1,0,0,1-2.7-.8l-3-5.6a2,2,0,0,1,.9-2.7h0a2,2,0,0,1,2.7.8l2.9,5.6A1.9,1.9,0,0,1,361.7,127.8Z" transform="translate(-98.1 -40.9)"/><circle class="cls-3" cx="259" cy="26.3" r="13.2"/><rect class="cls-3" x="155.4" y="206" width="67.5" height="8.84"/><path class="cls-5" d="M264,164.4l-3.2-4.4c-.8-1.1-2.1-1.5-2.8-.9l-1.1.9c-.8.7-.5,2.1.6,2.9l4.3,3.5a1.7,1.7,0,0,0,2.4.2h0C264.7,166.1,264.6,165.2,264,164.4Z" transform="translate(-98.1 -40.9)"/><path class="cls-2" d="M411.4,174.1s-2.1,4.1-2.1,5.5a2.2,2.2,0,0,0,1.8,2.7,2.3,2.3,0,0,0,2.7-1.7,1.7,1.7,0,0,0,0-1C413.8,178.2,411.4,174.1,411.4,174.1Z" transform="translate(-98.1 -40.9)"/><path class="cls-2" d="M418.3,182.5s-2,4.1-2,5.5a2.2,2.2,0,0,0,1.8,2.7,2.3,2.3,0,0,0,2.7-1.7,1.7,1.7,0,0,0,0-1C420.8,186.6,418.3,182.5,418.3,182.5Z" transform="translate(-98.1 -40.9)"/><rect class="cls-2" x="258.1" y="164.1" width="9.3" height="3.54" transform="translate(-140.6 182.7) rotate(-43)"/><path class="cls-6" d="M118.1,199.4l.4.3h-.4Z" transform="translate(-98.1 -40.9)"/><path class="cls-6" d="M121.7,199.4v.3h-.4Z" transform="translate(-98.1 -40.9)"/><path class="cls-3" d="M125.5,197.4a5.5,5.5,0,0,1-6.2,4.7,5.4,5.4,0,0,1-4.7-4.7" transform="translate(-98.1 -40.9)"/><path class="cls-4" d="M122.1,206.1c3.9-2.3,2.4-8.6-2.3-8.3s-5.4,6.6-1.3,8.4c.9.4,1.7-.9.8-1.3-2.6-1.2-2.6-5,.4-5.5s4.2,3.8,1.6,5.3a.8.8,0,0,0,.8,1.4Z" transform="translate(-98.1 -40.9)"/><path class="cls-6" d="M129.9,137v3.6a8.2,8.2,0,0,0-8.2,8.2v48.6h.9a2.5,2.5,0,0,1-.9,2l-.4.3a2.3,2.3,0,0,1-1.4.4h-.1a2.8,2.8,0,0,1-1.3-.4l-.4-.3a2.8,2.8,0,0,1-.8-2h.8V148.8A11.8,11.8,0,0,1,129.9,137Z" transform="translate(-98.1 -40.9)"/><path class="cls-6" d="M251.8,163.4h0Z" transform="translate(-98.1 -40.9)"/><path class="cls-3" d="M247.7,157.4a5.5,5.5,0,0,1,2.1,10.7h-.1" transform="translate(-98.1 -40.9)"/><path class="cls-4" d="M257.8,159.8c-2.3-3.9-8.6-2.4-8.2,2.3s6.6,5.4,8.4,1.3c.4-.9-1-1.7-1.4-.8-1.1,2.6-5,2.6-5.4-.4s3.7-4.3,5.3-1.6C257,161.4,258.3,160.6,257.8,159.8Z" transform="translate(-98.1 -40.9)"/><path class="cls-1" d="M251.8,162.6a1.7,1.7,0,0,1-.1.7h0a2.8,2.8,0,0,1-2.6,1.9h0c-4,2.6-11.8,7.2-17.7,7.5h-.3c-10.2,0-12.6-25.1-13-30.2l3.6-.2c.9,11.2,4.3,26.8,9.4,26.8h.1c5.7-.3,14.1-5.7,17.2-7.8l-.2-1.3h1A2.6,2.6,0,0,1,251.8,162.6Z" transform="translate(-98.1 -40.9)"/><path class="cls-1" d="M174.8,251.6c-9.6,0-17.2-3.1-22.6-9.2-11-12.5-8.4-33.3-8.3-34.1l3.6.4c0,.2-2.5,20,7.5,31.4,4.6,5.2,11.3,7.9,19.8,7.9s15.4-2.7,20.3-8c10.3-11.3,8.6-30.8,8.6-31l3.6-.4c.1.9,1.8,21.3-9.5,33.8C192.2,248.5,184.5,251.6,174.8,251.6Z" transform="translate(-98.1 -40.9)"/><rect class="cls-3" x="68" y="202.2" width="4.4" height="10.9" rx="2.2" ry="2.2"/><rect class="cls-3" x="81.4" y="202.2" width="4.4" height="10.9" rx="2.2" ry="2.2"/><rect class="cls-1" x="69.9" y="197.5" width="14" height="20.3" rx="5.4" ry="5.4"/><path class="cls-7" d="M137.4,76a42.6,42.6,0,0,1,49.2-34.5h0a42.5,42.5,0,0,1,34.5,49.1" transform="translate(-98.1 -40.9)"/><path class="cls-3" d="M154.2,209.4a8.3,8.3,0,1,1-12.6-10.8l.9-.9" transform="translate(-98.1 -40.9)"/><path class="cls-1" d="M149.1,206.8a2.8,2.8,0,0,1-4,0h0a3,3,0,0,1,0-4.1" transform="translate(-98.1 -40.9)"/><path class="cls-3" d="M206.9,198.1a8.4,8.4,0,0,1-.9,11.7,8.5,8.5,0,0,1-10.8,0" transform="translate(-98.1 -40.9)"/><path class="cls-1" d="M204.2,203.3a2.8,2.8,0,0,1,0,4h0a2.8,2.8,0,0,1-4,.1h-.1" transform="translate(-98.1 -40.9)"/><path class="cls-2" d="M132.1,132.7h85.7v40.1a42.6,42.6,0,0,1-42.6,42.6h-.3a42.7,42.7,0,0,1-42.7-42.7v-40h-.1Z" transform="translate(-98.1 -40.9)"/><path class="cls-3" d="M217.8,132.7a8.3,8.3,0,0,1,0,16.6" transform="translate(-98.1 -40.9)"/><path class="cls-1" d="M217.8,138.3a2.7,2.7,0,0,1,0,5.4" transform="translate(-98.1 -40.9)"/><path class="cls-3" d="M132.2,149.3a8.3,8.3,0,1,1,0-16.6" transform="translate(-98.1 -40.9)"/><path class="cls-1" d="M201.9,67.2a28.5,28.5,0,0,0-50.1,11.6l2.4.6a18.2,18.2,0,0,1,.7-2.5L167,79h.8a7,7,0,0,0,3.9-1.3,7.9,7.9,0,0,0,1.9-2.5,3.5,3.5,0,0,0,3.4-3.5,3.5,3.5,0,1,0-5.8,2.7,4.5,4.5,0,0,1-1.1,1.3,3.9,3.9,0,0,1-2.7.8l-11.6-2.1a25.8,25.8,0,0,1,18.2-15,7.3,7.3,0,0,0,.9,4.4c1.3,2.2,4,3.5,8,3.9a3.5,3.5,0,0,0,3.5,2.9,3.6,3.6,0,0,0,0-7.1,3.8,3.8,0,0,0-3.1,1.7c-3.2-.3-5.4-1.2-6.3-2.7a4.9,4.9,0,0,1-.3-3.5,29.1,29.1,0,0,1,5.9,0,25.8,25.8,0,0,1,21.1,16.2l-13-2.3a6.1,6.1,0,0,0-4.9,1,5.5,5.5,0,0,0-1.4,1.7,3.6,3.6,0,1,0,3.6,3.6,3.6,3.6,0,0,0-1.2-2.7,2,2,0,0,1,.6-.7,3.5,3.5,0,0,1,2.8-.4l14.4,2.6a24.7,24.7,0,0,1,.7,9.8v.4h2.5v-.2A28,28,0,0,0,201.9,67.2Zm-28.4,3.6a1,1,0,1,1-1,1A.9.9,0,0,1,173.5,70.8Zm12.9-4.7a1.1,1.1,0,0,1,1,1.1,1,1,0,0,1-1,1,1,1,0,0,1-1.1-1A1.1,1.1,0,0,1,186.4,66.1Zm-1.9,14.2a1.1,1.1,0,0,1-1.1-1,1.1,1.1,0,0,1,1.1-1.1,1.1,1.1,0,0,1,1,1.1A1.1,1.1,0,0,1,184.5,80.3Z" transform="translate(-98.1 -40.9)"/><path class="cls-5" d="M185.5,79.3a1.1,1.1,0,0,1-1,1,1.1,1.1,0,0,1-1.1-1,1.1,1.1,0,0,1,1.1-1.1A1.1,1.1,0,0,1,185.5,79.3Z" transform="translate(-98.1 -40.9)"/><ellipse class="cls-5" cx="75.4" cy="30.9" rx="1" ry="1"/><path class="cls-5" d="M187.4,67.2a1,1,0,0,1-1,1,1,1,0,0,1-1.1-1,1.1,1.1,0,0,1,1.1-1.1A1.1,1.1,0,0,1,187.4,67.2Z" transform="translate(-98.1 -40.9)"/><path class="cls-2" d="M221.2,90.3l-4.8,27.6a14.7,14.7,0,0,1-17,11.9l-54.9-9.5a14.7,14.7,0,0,1-11.9-17L137.4,76Z" transform="translate(-98.1 -40.9)"/><path class="cls-3" d="M220.2,96l-3,17.1-54.8-9.6a5.6,5.6,0,0,1-4.5-6.4l1-6.1a5.7,5.7,0,0,1,6.5-4.6Z" transform="translate(-98.1 -40.9)"/><path class="cls-1" d="M173.3,92.7l-1.3,7.5c-.4,2.1,2.8,2.9,3.1.9l1.3-7.5C176.8,91.5,173.6,90.7,173.3,92.7Z" transform="translate(-98.1 -40.9)"/><path class="cls-1" d="M211.5,99l-1.3,7.5c-.3,2.1,2.8,2.9,3.2.9l1.3-7.5C215.1,97.8,211.9,97,211.5,99Z" transform="translate(-98.1 -40.9)"/><path class="cls-3" d="M140.4,140H209a32.2,32.2,0,0,1-32.2,32.2h-4.2A32.2,32.2,0,0,1,140.4,140Z" transform="translate(-98.1 -40.9)"/><path class="cls-1" d="M191.9,113.6c-1.2,5.3-8.7,3.9-8.1-1.5.1-1-1.4-1-1.6,0a5.7,5.7,0,1,0,11.3,1.9h0a.8.8,0,0,0-1.6-.4Z" transform="translate(-98.1 -40.9)"/><path class="cls-7" d="M157.9,109.7a5,5,0,0,0,8.3,5.4,5.1,5.1,0,0,0-.5-7.1,4.9,4.9,0,0,0-7,.5A8.3,8.3,0,0,0,157.9,109.7Z" transform="translate(-98.1 -40.9)"/><path class="cls-7" d="M201.6,117.6a5,5,0,0,0,8.3,5.4,5,5,0,0,0-1.4-6.9A5.1,5.1,0,0,0,201.6,117.6Z" transform="translate(-98.1 -40.9)"/><path class="cls-1" d="M132.2,138.2a2.7,2.7,0,1,0-1,5.3h1" transform="translate(-98.1 -40.9)"/><path class="cls-1" d="M176.1,151.1a2.5,2.5,0,0,1,2.1,2.8,2.2,2.2,0,0,1-.5,1.2l-1.3,1.6-2.6,3.1-2.5-3.2-1.2-1.5a2.6,2.6,0,0,1,.4-3.5,3.1,3.1,0,0,1,1.2-.5h.2a3,3,0,0,1,2,.8,2.7,2.7,0,0,1,1.9-.8Z" transform="translate(-98.1 -40.9)"/><path class="cls-3" d="M142.8,81.3h0a3,3,0,0,1,2.4,3.5L142,103.2a3,3,0,0,1-3.5,2.5h0a3,3,0,0,1-2.4-3.5l3.2-18.5A3,3,0,0,1,142.8,81.3Z" transform="translate(-98.1 -40.9)"/><path class="cls-7" d="M287,199.8V155.6h0a30.6,30.6,0,0,0-30.7,30.5v13.7" transform="translate(-98.1 -40.9)"/><path class="cls-8" d="M278.3,168.2a5.6,5.6,0,0,0-7.9,0" transform="translate(-98.1 -40.9)"/><path class="cls-9" d="M270.4,168.2a5.6,5.6,0,1,0,7.9,0h0" transform="translate(-98.1 -40.9)"/><line class="cls-10" x1="167.8" y1="142.7" x2="183.5" y2="142.7"/><line class="cls-11" x1="167.8" y1="142.7" x2="174.8" y2="142.7"/><line class="cls-10" x1="167.8" y1="149.4" x2="183.5" y2="149.4"/><line class="cls-11" x1="177.9" y1="149.4" x2="183.5" y2="149.4"/><path class="cls-5" d="M401.8,176.6a1.1,1.1,0,1,1-1.1-1.1A1.1,1.1,0,0,1,401.8,176.6Z" transform="translate(-98.1 -40.9)"/><path class="cls-1" d="M400.7,172.9a3.7,3.7,0,0,0-3.7,3.7,3.8,3.8,0,0,0,2.4,3.5v51.3H402V180.1a3.8,3.8,0,0,0,2.4-3.5A3.6,3.6,0,0,0,400.7,172.9Zm0,4.8a1.1,1.1,0,1,1,1.1-1.1A1.1,1.1,0,0,1,400.7,177.7Z" transform="translate(-98.1 -40.9)"/><path class="cls-5" d="M390,185.1a1.1,1.1,0,1,1-1.1-1.1A1.1,1.1,0,0,1,390,185.1Z" transform="translate(-98.1 -40.9)"/><path class="cls-1" d="M392.5,186.2h0a4.1,4.1,0,0,0,.1-1.1,3.7,3.7,0,1,0-3.7,3.7,3.8,3.8,0,0,0,1.9-.5l5,5v15.5h2.6V192.2Zm-4.7-1.1a1.1,1.1,0,1,1,1.1,1.1A1.1,1.1,0,0,1,387.8,185.1Z" transform="translate(-98.1 -40.9)"/><path class="cls-5" d="M410.7,192.7a1.1,1.1,0,1,1-1.1-1.1A1.1,1.1,0,0,1,410.7,192.7Z" transform="translate(-98.1 -40.9)"/><path class="cls-1" d="M409.6,189a3.7,3.7,0,0,0-3.7,3.7,2.8,2.8,0,0,0,.1.9l-3,3.1v12.1h2.6V197.7l1.9-1.9a3.7,3.7,0,0,0,2.1.6,3.6,3.6,0,0,0,3.7-3.7A3.7,3.7,0,0,0,409.6,189Zm0,4.8a1.1,1.1,0,1,1,1.1-1.1A1.1,1.1,0,0,1,409.6,193.8Z" transform="translate(-98.1 -40.9)"/><path class="cls-1" d="M410.2,204.6a3.8,3.8,0,0,0-3.7,3.7,3.7,3.7,0,0,0,.3,1.5l-3.8,3.9v17.7h2.6V214.8l3.1-3.1a3.7,3.7,0,0,0,1.5.3,3.7,3.7,0,0,0,0-7.4Zm0,4.8a1.1,1.1,0,1,1,1.1-1.1A1.1,1.1,0,0,1,410.2,209.4Z" transform="translate(-98.1 -40.9)"/><circle class="cls-5" cx="312.1" cy="167.4" r="1.1"/><circle class="cls-5" cx="285.6" cy="160.8" r="1.1"/><path class="cls-1" d="M387.3,202.6a2.8,2.8,0,0,0,.1-.9,3.7,3.7,0,0,0-3.7-3.7,3.8,3.8,0,0,0-3.7,3.7,3.8,3.8,0,0,0,5.8,3.1l10,10v16.6h2.6V213.7Zm-4.7-.9a1.1,1.1,0,1,1,1.1,1.1A1.1,1.1,0,0,1,382.6,201.7Z" transform="translate(-98.1 -40.9)"/><rect class="cls-3" x="277" y="187.6" width="52.9" height="6.84"/><circle class="cls-12" cx="22" cy="41.4" r="1.8"/><circle class="cls-12" cx="153.9" cy="58.6" r="1.8"/><circle class="cls-12" cx="132.8" cy="164.6" r="1.8"/><circle class="cls-12" cx="250.3" cy="130.2" r="1.8"/><circle class="cls-12" cx="320.4" cy="63" r="1.8"/><path class="cls-1" d="M100.2,133a3.4,3.4,0,0,1-2-4.1,3.2,3.2,0,0,1,3.4-2.1h.7a4.1,4.1,0,0,1,1.1.7l9.3-7.9a3.4,3.4,0,0,1-.4-2.8,3,3,0,0,1,1-1.4l-6.4-9.8a3.4,3.4,0,0,1-2,.1,3.2,3.2,0,0,1-2.3-3.9h0a3.2,3.2,0,0,1,6,2,3,3,0,0,1-1,1.4l6.3,9.8a2.9,2.9,0,0,1,1.8-.3h.7a3.3,3.3,0,0,1,2,4,3.3,3.3,0,0,1-4.1,2.1,4.1,4.1,0,0,1-1.1-.7h0l-9.3,7.9a3.4,3.4,0,0,1,.4,2.8A3.2,3.2,0,0,1,100.2,133Z" transform="translate(-98.1 -40.9)"/><path class="cls-1" d="M237.4,44.5a3.2,3.2,0,0,1,5.4,3.4l-.4.6a2.8,2.8,0,0,1-1,.9l4.2,11.4a3.6,3.6,0,0,1,2.8.6,4.5,4.5,0,0,1,1,1.4l11.4-2.6a2.9,2.9,0,0,1,.5-2,3.3,3.3,0,0,1,4.5-.8h0a3.2,3.2,0,0,1,.5,4.5,3.3,3.3,0,0,1-4.5.5,3.8,3.8,0,0,1-.9-1.5l-11.4,2.7a2.6,2.6,0,0,1-.3,1.7l-.3.6a3.2,3.2,0,0,1-5-4,1.9,1.9,0,0,1,1-.8h0l-4.2-11.5a2.9,2.9,0,0,1-2.8-.6A3.2,3.2,0,0,1,237.4,44.5Z" transform="translate(-98.1 -40.9)"/><path class="cls-1" d="M425.1,139.3a3.2,3.2,0,0,1,4.5-.5,3.3,3.3,0,0,1,.9,3.9l-.4.6a1.9,1.9,0,0,1-1,.8l4.2,11.5a3.2,3.2,0,0,1,2.8.6,4.5,4.5,0,0,1,1,1.4l11.4-2.6a2.9,2.9,0,0,1,.5-2,3.2,3.2,0,0,1,4.5-.8h0a3.1,3.1,0,0,1,.5,4.4,3.2,3.2,0,0,1-4.5.6,3.8,3.8,0,0,1-.9-1.5l-11.4,2.6a2.9,2.9,0,0,1-.3,1.8l-.3.6a3.2,3.2,0,0,1-5-4,2.8,2.8,0,0,1,1-.9h0l-4.2-11.4a3.1,3.1,0,0,1-2.8-.6A3.2,3.2,0,0,1,425.1,139.3Z" transform="translate(-98.1 -40.9)"/><path class="cls-1" d="M361,183.3l-1,1-3.1-3.5a.8.8,0,0,0-1-.1h-.2l-1.8,2.1a2.1,2.1,0,0,1-2.9.3h-.1l-.2-.2-1.8-2.1c-.2-.3-.6-.3-1-.1h0L346,183a2.1,2.1,0,0,1-2.9.2H343v-.2l-1.9-2.1a.8.8,0,0,0-1-.1h0l-3.2,3.6-1-.8,3.1-3.7a2.1,2.1,0,0,1,2.9-.2l.2.2,1.9,2.2c.1.2.3.2.5.2s.3,0,.5-.1h.1l1.8-2.1a2.1,2.1,0,0,1,2.9-.3h.1v.2l1.9,2.1a.5.5,0,0,0,.5.3l.5-.2h.1l1.8-2.1a2.1,2.1,0,0,1,2.9-.3h.1l.2.2Z" transform="translate(-98.1 -40.9)"/><path class="cls-1" d="M361,192.7l-1,1-3.1-3.5a.8.8,0,0,0-1-.2l-.2.2-1.8,2.1a2.2,2.2,0,0,1-2.9.3h-.1l-.2-.3-1.8-2a.8.8,0,0,0-1-.2h0l-1.9,2.2a1.7,1.7,0,0,1-1.4.7,2,2,0,0,1-1.5-.4H343v-.2l-1.9-2.1a.8.8,0,0,0-1-.2h0l-3.2,3.7-1-.9,3.1-3.6a2.1,2.1,0,0,1,2.9-.3l.2.3,1.9,2.1a.5.5,0,0,0,.5.3l.5-.2h.1l1.8-2.2a2.2,2.2,0,0,1,2.9-.2h.1v.2l1.9,2.1a.5.5,0,0,0,.5.3h.5v-.2l1.8-2.1a2.2,2.2,0,0,1,2.9-.2h.1l.2.2Z" transform="translate(-98.1 -40.9)"/></svg>