<svg id="Layer_1" data-name="Layer 1" xmlns="http://www.w3.org/2000/svg" viewBox="0 0 540 300"><defs><style>.cls-1,.cls-11,.cls-13,.cls-14,.cls-15,.cls-16,.cls-17,.cls-2,.cls-20,.cls-8,.cls-9{fill:none;}.cls-1,.cls-11,.cls-12,.cls-14,.cls-16,.cls-17,.cls-18,.cls-19,.cls-2,.cls-20,.cls-9{stroke:#186399;}.cls-1,.cls-11,.cls-12,.cls-13,.cls-14,.cls-15,.cls-16,.cls-17,.cls-18,.cls-19,.cls-2,.cls-20,.cls-8,.cls-9{stroke-miterlimit:10;}.cls-1{stroke-width:7.03px;}.cls-2{stroke-width:6.92px;}.cls-19,.cls-3{fill:#186399;}.cls-4{fill:#73c2fb;}.cls-5{fill:#42a6ed;}.cls-6{fill:#44a4eb;}.cls-12,.cls-18,.cls-7{fill:#ffa514;}.cls-8{stroke:#166395;}.cls-8,.cls-9{stroke-width:3.64px;}.cls-10{fill:#9ed6ff;}.cls-11,.cls-12{stroke-width:2.51px;}.cls-13{stroke:#ffa514;}.cls-13,.cls-14,.cls-15{stroke-width:2.91px;}.cls-15{stroke:#ed4250;}.cls-16{stroke-width:3.01px;}.cls-17,.cls-18{stroke-width:2.63px;}.cls-19,.cls-20{stroke-width:0.6px;}</style></defs><title>AI</title><line class="cls-1" x1="287.9" y1="163.1" x2="293" y2="102.5"/><line class="cls-2" x1="353.6" y1="62.6" x2="322.5" y2="82.3"/><line class="cls-1" x1="361.2" y1="112.4" x2="360.7" y2="75.5"/><rect class="cls-3" x="264.5" y="238.5" width="43.4" height="9.84" transform="translate(572.5 486.8) rotate(-180)"/><path class="cls-4" d="M256.2,155.6h61.1a0,0,0,0,1,0,0v57.8A30.7,30.7,0,0,1,286.7,244h0a30.5,30.5,0,0,1-30.5-30.5v-58A0,0,0,0,1,256.2,155.6Z" transform="translate(573.5 399.6) rotate(-180)"/><rect class="cls-4" x="379.1" y="229.3" width="45" height="29.82" rx="7.8" ry="7.8"/><rect class="cls-5" x="273.4" y="88.8" width="62.8" height="29.61" rx="11.6" ry="11.6" transform="translate(587.7 -50.1) rotate(132.7)"/><rect class="cls-3" x="382.5" y="99.1" width="1.9" height="9.68" transform="translate(780.5 92.3) rotate(163.2)"/><rect class="cls-5" x="373.1" y="106.7" width="4.5" height="11.61" rx="2.3" ry="2.3" transform="translate(759.6 35.9) rotate(152)"/><rect class="cls-5" x="367.4" y="109.7" width="4.5" height="11.61" rx="2.3" ry="2.3" transform="translate(750.3 44.3) rotate(152)"/><rect class="cls-5" x="361.7" y="112.8" width="4.5" height="11.61" rx="2.3" ry="2.3" transform="translate(740.9 52.6) rotate(152)"/><rect class="cls-5" x="356" y="115.8" width="4.5" height="11.61" rx="2.3" ry="2.3" transform="translate(731.6 61) rotate(152)"/><rect class="cls-6" x="375.1" y="93.6" width="7" height="13.9" rx="3.2" ry="3.2" transform="translate(140.5 411.6) rotate(-67.4)"/><rect class="cls-6" x="382.8" y="106.4" width="5.1" height="10.19" rx="2.4" ry="2.4" transform="translate(-15.3 91.6) rotate(-13.3)"/><path class="cls-6" d="M343.7,109.7a17.7,17.7,0,0,0,31.2-16.6v-.2"/><path class="cls-3" d="M353.3,104.5a6.7,6.7,0,0,0,9.1,2.8,6.9,6.9,0,0,0,2.8-9.2h0"/><path class="cls-3" d="M411.7,171.4a5.7,5.7,0,0,0-.1-1.8,3.9,3.9,0,0,0-2.5-2.8c-5.6-2.1-23.6-9.2-26.1-14.9l12.5-6.7a3.5,3.5,0,0,0,1.5-4.8l-15.9-29.7a3.6,3.6,0,0,0-4.8-1.5l-24.3,13a3.6,3.6,0,0,0-1.4,4.8l15.9,29.7.3.6.2.2.3.2h0a38.6,38.6,0,0,0,20.3,8.3c12.6,1.3,20.4,2.1,23.5,5.7A.4.4,0,0,0,411.7,171.4Zm-35.9-46.3-21.3-.7,15-8.5,8.4-4.7,3.9,7,4,7Z"/><rect class="cls-4" x="373.5" y="107.4" width="4.5" height="11.61" rx="2.3" ry="2.3" transform="translate(760.7 37.1) rotate(152)"/><rect class="cls-4" x="368.5" y="111.9" width="4.5" height="11.61" rx="2.3" ry="2.3" transform="translate(753.3 47.8) rotate(152)"/><rect class="cls-4" x="362.7" y="114.7" width="4.3" height="10.97" rx="2.1" ry="2.1" transform="translate(743.4 55.2) rotate(152)"/><rect class="cls-4" x="357.3" y="117.9" width="4" height="10.32" rx="2" ry="2" transform="translate(734.3 63.2) rotate(152)"/><circle class="cls-5" cx="357.1" cy="67.2" r="13.2"/><rect class="cls-5" x="253.5" y="246.9" width="67.5" height="8.84" transform="translate(574.5 502.6) rotate(-180)"/><path class="cls-7" d="M264,164.4l-3.2-4.4c-.8-1.1-2.1-1.5-2.8-.9l-1.1.9c-.8.7-.5,2.1.6,2.9l4.3,3.5a1.7,1.7,0,0,0,2.4.2h0C264.7,166.1,264.6,165.2,264,164.4Z"/><path class="cls-4" d="M411.4,174.1s-2.1,4.1-2.1,5.5a2.3,2.3,0,1,0,4.5,0C413.8,178.2,411.4,174.1,411.4,174.1Z"/><path class="cls-4" d="M418.3,182.5s-2,4.1-2,5.5a2.3,2.3,0,1,0,4.5,0C420.8,186.6,418.3,182.5,418.3,182.5Z"/><rect class="cls-4" x="258.9" y="164.6" width="9.3" height="3.55" transform="matrix(0.73, -0.68, 0.68, 0.73, -42.8, 223.64)"/><path class="cls-8" d="M219.9,142.4s2.2,28.9,11.4,28.5c7.7-.4,19.4-9,19.4-9"/><path class="cls-9" d="M145.7,208.5s-5.4,41.3,29.1,41.3,30.7-41,30.7-41"/><rect class="cls-5" x="162.8" y="246.3" width="10.9" height="4.43" rx="2.2" ry="2.2" transform="translate(416.8 80.3) rotate(90)"/><rect class="cls-5" x="176.2" y="246.3" width="10.9" height="4.43" rx="2.2" ry="2.2" transform="translate(430.2 66.9) rotate(90)"/><rect class="cls-3" x="164.7" y="241.6" width="20.3" height="13.96" rx="5.4" ry="5.4" transform="translate(423.5 73.7) rotate(90)"/><path class="cls-10" d="M137.4,76a42.6,42.6,0,0,1,49.2-34.5h0a42.5,42.5,0,0,1,34.5,49.1"/><path class="cls-5" d="M154.2,209.4a8.3,8.3,0,1,1-11.7-11.7"/><path class="cls-3" d="M149.1,206.8a2.8,2.8,0,0,1-4,0,3,3,0,0,1,0-4.1"/><path class="cls-5" d="M206.9,198.1a8.3,8.3,0,0,1-11.7,11.7"/><path class="cls-3" d="M204.2,203.3a2.8,2.8,0,0,1,0,4,2.8,2.8,0,0,1-4.1,0"/><path class="cls-4" d="M132.1,132.7h85.7a0,0,0,0,1,0,0v40.1a42.6,42.6,0,0,1-42.6,42.6h-.3a42.7,42.7,0,0,1-42.7-42.7V132.7a0,0,0,0,1,0,0Z"/><path class="cls-8" d="M119.9,199.7V148.8a10,10,0,0,1,10-10"/><path class="cls-5" d="M217.8,132.7a8.3,8.3,0,0,1,0,16.6"/><path class="cls-3" d="M217.8,138.3a2.7,2.7,0,0,1,0,5.4"/><path class="cls-5" d="M125.5,197.4a5.5,5.5,0,0,1-10.9,0"/><path class="cls-5" d="M132.2,149.3a8.3,8.3,0,1,1,0-16.6"/><path class="cls-11" d="M206.6,88.3V88A27.2,27.2,0,0,0,153,79.1"/><path class="cls-11" d="M176,56.7s-4.1,8.5,8.7,9"/><path class="cls-11" d="M185.7,77.7s.2-4.7,5.4-3.8l15.6,2.8"/><path class="cls-11" d="M154.3,75.5l12.9,2.3a5,5,0,0,0,5.6-4.5"/><circle class="cls-12" cx="185.1" cy="78.9" r="2.3"/><circle class="cls-12" cx="173.5" cy="71.8" r="2.3"/><circle class="cls-12" cx="186.5" cy="66.2" r="2.3"/><path class="cls-4" d="M221.2,90.3l-4.8,27.6a14.7,14.7,0,0,1-17,11.9l-54.9-9.5a14.7,14.7,0,0,1-11.9-17L137.4,76Z"/><path class="cls-5" d="M220.2,96l-3,17.1-54.8-9.6a5.6,5.6,0,0,1-4.5-6.4l1-6.1a5.7,5.7,0,0,1,6.5-4.6Z"/><path class="cls-3" d="M173.3,92.7l-1.3,7.5c-.4,2.1,2.8,2.9,3.1.9l1.3-7.5c.4-2.1-2.8-2.9-3.1-.9Z"/><path class="cls-3" d="M211.5,99l-1.3,7.5c-.3,2.1,2.8,2.9,3.2.9l1.3-7.5c.4-2.1-2.8-2.9-3.2-.9Z"/><path class="cls-5" d="M140.4,140H209a0,0,0,0,1,0,0v0a32.2,32.2,0,0,1-32.2,32.2h-4.2A32.2,32.2,0,0,1,140.4,140v0A0,0,0,0,1,140.4,140Z"/><path class="cls-3" d="M191.9,113.6c-1.2,5.3-8.7,3.9-8.1-1.5.1-1-1.4-1-1.6,0a5.7,5.7,0,0,0,11.3,1.9.8.8,0,0,0-1.6-.4Z"/><path class="cls-10" d="M157.9,109.7a5,5,0,0,0,8.3,5.4,5,5,0,1,0-8.3-5.4Z"/><path class="cls-10" d="M201.6,117.6a5,5,0,0,0,8.3,5.4,5,5,0,0,0-1.4-6.9A5.1,5.1,0,0,0,201.6,117.6Z"/><path class="cls-6" d="M122.1,206.1c3.9-2.3,2.4-8.6-2.3-8.3s-5.4,6.6-1.3,8.4c.9.4,1.7-.9.8-1.3-2.6-1.2-2.6-5,.4-5.5s4.2,3.8,1.6,5.3a.8.8,0,0,0,.8,1.4Z"/><path class="cls-3" d="M132.2,138.2a2.7,2.7,0,1,0,0,5.3"/><path class="cls-3" d="M117.3,197.4a2.6,2.6,0,0,0,2.6,2.7,2.7,2.7,0,0,0,2.7-2.7"/><path class="cls-3" d="M176.1,151.1a2.5,2.5,0,0,1,1.6,4l-1.3,1.6-2.6,3.1-2.5-3.2-1.2-1.5a2.5,2.5,0,0,1,1.6-4h.2a2.8,2.8,0,0,1,2,.8,2.7,2.7,0,0,1,1.9-.8Z"/><rect class="cls-5" x="137.7" y="81" width="6" height="24.76" rx="3" ry="3" transform="translate(18.1 -22.7) rotate(9.9)"/><path class="cls-5" d="M248.6,156.8a5.5,5.5,0,0,1,5.5,5.4,5.4,5.4,0,0,1-5.4,5.5"/><path class="cls-6" d="M257.8,159.8c-2.3-3.9-8.6-2.4-8.2,2.3s6.6,5.4,8.4,1.3c.4-.9-1-1.7-1.4-.8-1.1,2.6-5,2.6-5.4-.4s3.7-4.3,5.3-1.6c.5.8,1.8,0,1.3-.8Z"/><path class="cls-3" d="M248.6,164.8a2.7,2.7,0,1,0,0-5.3"/><path class="cls-10" d="M287,199.8V155.6h0a30.6,30.6,0,0,0-30.7,30.7v13.5"/><path class="cls-13" d="M278.3,168.2a5.6,5.6,0,0,0-7.9,0"/><path class="cls-14" d="M270.4,168.2a5.6,5.6,0,1,0,7.9,0"/><line class="cls-15" x1="265.9" y1="183.6" x2="281.6" y2="183.6"/><line class="cls-16" x1="265.9" y1="183.6" x2="272.9" y2="183.6"/><line class="cls-15" x1="265.9" y1="190.3" x2="281.6" y2="190.3"/><line class="cls-16" x1="276" y1="190.3" x2="281.6" y2="190.3"/><line class="cls-17" x1="400.7" y1="179" x2="400.7" y2="231.4"/><polyline class="cls-17" points="404.3 208.8 404.3 197.2 407.5 193.9"/><polyline class="cls-17" points="397.1 208.8 397.1 192.7 390.9 186.5"/><polyline class="cls-17" points="404.3 231.4 404.3 214.2 408.5 210"/><polyline class="cls-17" points="397.1 231.4 397.1 214.2 385.8 203"/><circle class="cls-18" cx="400.7" cy="176.6" r="2.4"/><circle class="cls-18" cx="388.9" cy="185.1" r="2.4"/><circle class="cls-18" cx="409.6" cy="192.7" r="2.4"/><circle class="cls-18" cx="410.2" cy="208.3" r="2.4"/><circle class="cls-18" cx="383.7" cy="201.7" r="2.4"/><path class="cls-19" d="M240.5,66.9a2.5,2.5,0,1,0,0,3.6A2.5,2.5,0,0,0,240.5,66.9Z"/><path class="cls-19" d="M254.7,65.3a2.5,2.5,0,1,0,0,3.6A2.5,2.5,0,0,0,254.7,65.3Z"/><path class="cls-19" d="M237,52.5a2.5,2.5,0,1,0,0,3.6A2.5,2.5,0,0,0,237,52.5Z"/><polyline class="cls-20" points="235.2 54.3 238.7 68.7 252.9 67.1"/><path class="cls-19" d="M428.5,160.9a2.5,2.5,0,1,0,0,3.6A2.5,2.5,0,0,0,428.5,160.9Z"/><path class="cls-19" d="M442.8,159.3a2.7,2.7,0,0,0-3.7,0,2.5,2.5,0,0,0,0,3.6,2.7,2.7,0,0,0,3.7,0A2.5,2.5,0,0,0,442.8,159.3Z"/><path class="cls-19" d="M425,146.5a2.5,2.5,0,1,0,0,3.6A2.5,2.5,0,0,0,425,146.5Z"/><polyline class="cls-20" points="423.2 148.3 426.7 162.7 441 161.1"/><path class="cls-19" d="M111.7,115.7a2.5,2.5,0,1,0,3.6,0A2.5,2.5,0,0,0,111.7,115.7Z"/><path class="cls-19" d="M110.1,101.4a2.7,2.7,0,0,0,0,3.7,2.7,2.7,0,0,0,3.6,0,2.7,2.7,0,0,0,0-3.7A2.5,2.5,0,0,0,110.1,101.4Z"/><path class="cls-19" d="M97.2,119.2a2.5,2.5,0,0,0,0,3.6,2.7,2.7,0,0,0,3.7,0,2.5,2.5,0,0,0,0-3.6A2.7,2.7,0,0,0,97.2,119.2Z"/><polyline class="cls-20" points="99 121 113.5 117.5 111.9 103.2"/><path class="cls-20" d="M241.9,255.5l-.5.5-2.6-2.9a1.1,1.1,0,0,0-1.4-.2v.2l-1.6,1.9a1.7,1.7,0,0,1-2.2.2l-.2-.2-1.7-1.9a.9.9,0,0,0-1.3-.2v.2l-1.7,1.9a1.7,1.7,0,0,1-2.2.2V255l-1.7-1.9a.9.9,0,0,0-1.3-.2v.2l-2.7,3-.4-.4,2.6-3a1.5,1.5,0,0,1,2.2-.2l.2.2,1.6,1.9a1.1,1.1,0,0,0,1.4.1h.1l1.6-1.9a1.5,1.5,0,0,1,2.2-.2l.2.2,1.7,1.9a.9.9,0,0,0,1.3.1h.1l1.7-1.9a1.4,1.4,0,0,1,2.1-.2l.2.2S241.8,255.5,241.9,255.5Z"/><path class="cls-20" d="M241.9,244.3l-.5.5-2.6-2.9a1,1,0,0,0-1.4-.1h-.1l-1.6,1.9a1.6,1.6,0,0,1-2.2.2l-.2-.2-1.7-1.9a.9.9,0,0,0-1.3-.1h-.1l-1.7,1.9a1.6,1.6,0,0,1-2.2.2v-.2l-1.7-1.9a.9.9,0,0,0-1.3-.1h-.1l-2.7,3-.4-.4,2.6-3a1.5,1.5,0,0,1,2.2-.2l.2.2,1.6,1.9a1,1,0,0,0,1.4.1h.1l1.6-1.9a1.5,1.5,0,0,1,2.2-.2l.2.2,1.7,1.9a.9.9,0,0,0,1.3.1h.1l1.7-1.9a1.4,1.4,0,0,1,2.1-.2l.2.2S241.8,244.3,241.9,244.3Z"/><path class="cls-20" d="M364.2,204.4l-.4.4c-.1,0-2.7-2.9-2.7-2.9a.9.9,0,0,0-1.3-.1h-.1l-1.7,2a1.6,1.6,0,0,1-2.2.1h-.1l-1.7-2a1.1,1.1,0,0,0-1.4-.1h-.1l-1.6,2a1.6,1.6,0,0,1-2.2.1h-.2l-1.6-2a1.1,1.1,0,0,0-1.4-.1h-.1l-2.6,3.1-.5-.4,2.7-3.1a1.4,1.4,0,0,1,2.1-.1h.2l1.7,2a.9.9,0,0,0,1.3.1h.1l1.7-2a1.6,1.6,0,0,1,2.2-.1h.1l1.7,2a.9.9,0,0,0,1.3.1h.1l1.7-2a1.6,1.6,0,0,1,2.2-.1h.2Z"/><path class="cls-20" d="M364.2,193.2l-.4.4c-.1,0-2.7-2.9-2.7-2.9a.9.9,0,0,0-1.3-.1h-.1l-1.7,2a1.6,1.6,0,0,1-2.2.1h-.1l-1.7-2a1.1,1.1,0,0,0-1.4-.1h-.1l-1.6,2a1.6,1.6,0,0,1-2.2.1h-.2l-1.6-2a1.1,1.1,0,0,0-1.4-.1h-.1l-2.6,3.1-.5-.4,2.7-3.1a1.4,1.4,0,0,1,2.1-.1h.2l1.7,2a.9.9,0,0,0,1.3.1h.1l1.7-2a1.6,1.6,0,0,1,2.2-.1h.1l1.7,2a.9.9,0,0,0,1.3.1h.1l1.7-2a1.6,1.6,0,0,1,2.2-.1h.2Z"/><rect class="cls-5" x="375.1" y="228.4" width="52.9" height="6.84" transform="translate(803.1 463.7) rotate(-180)"/><circle class="cls-20" cx="120.1" cy="82.3" r="1.8"/><circle class="cls-20" cx="252" cy="99.5" r="1.8"/><circle class="cls-20" cx="230.9" cy="205.5" r="1.8"/><circle class="cls-20" cx="354.5" cy="169.3" r="1.8"/><circle class="cls-20" cx="418.5" cy="103.9" r="1.8"/></svg>