<svg xmlns="http://www.w3.org/2000/svg" id="Layer_1" data-name="Layer 1" viewBox="0 0 331.6 215.4">
  <defs>
    <style>
      .cls-10,.cls-12,.cls-14,.cls-6{fill:none}.cls-14,.cls-15{stroke:#186399}.cls-10,.cls-12,.cls-14,.cls-15,.cls-6{stroke-miterlimit:10}.cls-6{stroke-width:3.6px}.cls-2{fill:#42a6ed}.cls-15,.cls-3{fill:#186399}.cls-4{fill:#9ed6ff}.cls-5{fill:#73c2fb}.cls-6{stroke:#166395}.cls-7{fill:#ffa514}.cls-8{fill:#44a4eb}.cls-9{fill:#ed4250}.cls-10,.cls-12{stroke:#ffa514;stroke-width:.99px}.cls-12{stroke-dasharray:4.1 4.1}
    </style>
    <linearGradient id="linear-gradient" x1="392.53" x2="97.14" y1="-687.02" y2="-698.93" gradientTransform="matrix(1 0 0 -1 -105.6 -601.39)" gradientUnits="userSpaceOnUse">
      <stop offset="0" stop-color="#fff" stop-opacity="0"/>
      <stop offset="1" stop-color="#ffce80"/>
    </linearGradient>
  </defs>
  <path fill="none" stroke="#186399" stroke-miterlimit="10" stroke-width="3.6" d="M44.9 165.7s-5.4 40.9 28.8 40.9 30.4-40.7 30.4-40.7"/>
  <path d="M69.4 202.1v6.4a2.2 2.2 0 0 1-2.2 2.2 2.2 2.2 0 0 1-2.2-2.2v-6.4a2.2 2.2 0 0 1 2.2-2.2 2.2 2.2 0 0 1 2.2 2.2zM82.6 202.1v6.4a2.2 2.2 0 0 1-2.2 2.2 2.2 2.2 0 0 1-2.2-2.2v-6.4a2.2 2.2 0 0 1 2.2-2.2 2.2 2.2 0 0 1 2.2 2.2z" class="cls-2"/>
  <rect width="13.8" height="20.1" x="66.9" y="195.3" class="cls-3" rx="5.3" ry="5.3"/>
  <path d="M31.1 47.8A42.2 42.2 0 0 1 67.1.4a42 42 0 0 1 47.4 35.8" class="cls-4"/>
  <path d="M53.3 166.6A8.2 8.2 0 1 1 41.7 155" class="cls-2"/>
  <path d="M48.3 163.9a2.8 2.8 0 0 1-4-4" class="cls-3"/>
  <path d="M105.4 155.3a8.2 8.2 0 1 1-11.6 11.6" class="cls-2"/>
  <path d="M102.8 160.5a2.8 2.8 0 0 1 0 4 3 3 0 0 1-4.1 0" class="cls-3"/>
  <path d="M31.4 90.6h84.8v39.7A42.2 42.2 0 0 1 74 172.5h-.3a42.3 42.3 0 0 1-42.3-42.3z" class="cls-5"/>
  <path d="M118.5 97.2a9.9 9.9 0 0 1 9.9 9.9v50.4" class="cls-6"/>
  <path d="M116.2 90.6a8.2 8.2 0 0 1 0 16.4" class="cls-2"/>
  <path d="M116.2 96.2a2.6 2.6 0 1 1 0 5.2M45.7 46.1l-.3-1.9a28.1 28.1 0 0 1 6-20.7 28.6 28.6 0 0 1 18.8-10.4 28.2 28.2 0 0 1 31.1 24.8v.4h-2.4v-.2a25.7 25.7 0 0 0-45.6-13 25.1 25.1 0 0 0-5.4 18.8 11 11 0 0 0 .2 1.8z" class="cls-3"/>
  <path d="M67.8 24.7a7.6 7.6 0 0 1-5.2-1.7 7.4 7.4 0 0 1-2.2-6.3l2.4.4-1.2-.2 1.2.2s-.3 2.6 1.4 4 4.3 1.5 8.1.4l.6 2.4a22.6 22.6 0 0 1-5.1.8zM76 35a5.1 5.1 0 0 1 .6-4.3 5.8 5.8 0 0 1 4.3-2.4l15.6-2.1.4 2.4-15.6 2.1a2.8 2.8 0 0 0-3 2.5 2.5 2.5 0 0 0 .1 1.2zM47.1 43.4l-.4-2.4 12.8-1.8a4 4 0 0 0 2.4-1.6 3.5 3.5 0 0 0 .6-2.8l2.4-.5a6.2 6.2 0 0 1-5 7.2z" class="cls-3"/>
  <circle cx="76.9" cy="36" r="2.3" class="cls-7"/>
  <path d="M76.9 39.5a3.5 3.5 0 1 1 3.5-3.5 3.4 3.4 0 0 1-3.3 3.5h-.2zm0-4.6A1.1 1.1 0 1 0 78 36a1.1 1.1 0 0 0-1.1-1.1z" class="cls-3"/>
  <circle cx="63.8" cy="32.9" r="2.3" class="cls-7"/>
  <path d="M63.8 36.4a3.5 3.5 0 1 1 3.5-3.5 3.4 3.4 0 0 1-3.3 3.5h-.2zm0-4.6a1.1 1.1 0 1 0 1.1 1.1 1.1 1.1 0 0 0-1.1-1.1z" class="cls-3"/>
  <circle cx="74.5" cy="22.6" r="2.3" class="cls-7"/>
  <path d="M74.5 26.1a3.5 3.5 0 1 1 3.5-3.5 3.4 3.4 0 0 1-3.3 3.5h-.2zm0-4.6a1.1 1.1 0 1 0 1.1 1.1 1.1 1.1 0 0 0-1.1-1.1z" class="cls-3"/>
  <path d="M114.4 35.9l3.8 27.5A14.4 14.4 0 0 1 106 79.7h-.1l-54.7 7.6A14.5 14.5 0 0 1 34.8 75l-3.7-27.2z" class="cls-5"/>
  <path d="M115.2 41.5l2.4 17L63 66.1a5.5 5.5 0 0 1-6.2-4.7l-.9-6.1a5.5 5.5 0 0 1 4.7-6.2h.1z" class="cls-2"/>
  <path d="M70 53l1.1 7.5c.3 2 3.4 1.1 3.1-.9l-1-7.4c-.3-2.1-3.4-1.2-3.2.8zM108 47.4l1.1 7.4c.3 2.1 3.4 1.2 3.1-.8l-1-7.5c-.3-2-3.5-1.1-3.2.9z" class="cls-3"/>
  <path d="M70.3 54.9l.4 2.8a1.4 1.4 0 0 0 1.6 1.2h.4a1.4 1.4 0 0 0 1.2-1.7V57l-.4-2.9a1.8 1.8 0 0 0-2.1-1.2 1.6 1.6 0 0 0-1.2 1.8.3.3 0 0 1 .1.2zM108.3 49.5l.4 2.8a1.4 1.4 0 0 0 1.6 1.2h.4a1.4 1.4 0 0 0 1.2-1.7v-.2l-.4-2.9a1.7 1.7 0 0 0-2.1-1.2 1.8 1.8 0 0 0-1.1 2.1z" class="cls-7"/>
  <path d="M39.6 97.8h67.9a31.9 31.9 0 0 1-31.9 31.9h-4.1a31.9 31.9 0 0 1-31.9-31.9z" class="cls-2"/>
  <path d="M93.9 66.7A4.1 4.1 0 0 1 90 71a4 4 0 0 1-4.2-3.2c-.2-1-1.7-.6-1.5.4a5.7 5.7 0 0 0 6.3 4.7 5.7 5.7 0 0 0 4.9-6.2c-.1-1-1.7-1-1.6 0z" class="cls-3"/>
  <path d="M60.6 73.2a5 5 0 0 0 3.5 6.1 4.9 4.9 0 0 0 6-3.5 4.9 4.9 0 0 0-3.4-6 5 5 0 0 0-6.1 3.4zM104.2 67.5a4.9 4.9 0 0 0 3.5 6 4.9 4.9 0 0 0 6-3.3 4.9 4.9 0 0 0-3.4-6 5 5 0 0 0-6.1 3.3z" class="cls-4"/>
  <path d="M133.7 155.1a5.4 5.4 0 1 1-10.8 0" class="cls-2"/>
  <path d="M130.7 164.2c3.9-2.2 2.4-8.5-2.2-8.1a4.3 4.3 0 0 0-4.1 4.5 4.1 4.1 0 0 0 2.7 3.8c.9.4 1.7-1 .8-1.4-2.5-1.1-2.5-4.9.5-5.4s4.1 3.8 1.5 5.3c-.8.5 0 1.8.8 1.3z" class="cls-8"/>
  <path d="M125.8 155.1a2.7 2.7 0 0 0 2.5 2.7 2.7 2.7 0 0 0 2.7-2.6M74.9 108.8a2.5 2.5 0 0 1 2.1 2.8 1.8 1.8 0 0 1-.5 1.2l-1.2 1.5-2.6 3.1-2.5-3.1-1.2-1.5a2.6 2.6 0 0 1 .4-3.5l1.2-.5h.3a2.7 2.7 0 0 1 1.9.8 2.7 2.7 0 0 1 1.9-.8z" class="cls-3"/>
  <path d="M38.2 52.1a3.3 3.3 0 0 1 3.4 2.6L44.2 73a3.3 3.3 0 0 1-2.6 3.4 3.3 3.3 0 0 1-3.4-2.6l-2.6-18.3a3.1 3.1 0 0 1 2.5-3.4z" class="cls-2"/>
  <path d="M45 145.3v17.8a4.9 4.9 0 0 1-4.9 4.9 5.6 5.6 0 0 1-5.6-5.6V151a5.9 5.9 0 0 0-5.7-5.7zM23.5 168v17.7a5 5 0 0 1-5 5 5.6 5.6 0 0 1-5.6-5.6V168z" class="cls-7"/>
  <path d="M85.9 122.6v40.5a4.9 4.9 0 0 1-4.8 4.9h-41a4.9 4.9 0 0 0 4.9-4.9v-40.5z" class="cls-9"/>
  <path d="M64.4 168v17.9a4.7 4.7 0 0 1-4.6 4.8H18.5a5 5 0 0 0 5-5v-35.3a5 5 0 0 1 4.9-5.1h.4a5.9 5.9 0 0 1 5.7 5.7v11.4a5.6 5.6 0 0 0 5.6 5.6h24.3z" class="cls-9"/>
  <path d="M27 151a5.4 5.4 0 0 1-1.1 7.6h-.1a5.4 5.4 0 0 1-7.5-1.2" class="cls-2"/>
  <path d="M29.3 160a4.2 4.2 0 0 0-1.6-5.7h-.1a4.2 4.2 0 0 0-4.8.4c-3.6 3-.5 8.5 3.9 7.5 1-.2.5-1.7-.4-1.4-2.7.6-4.8-2.8-2.7-4.7a2.7 2.7 0 0 1 3.8.2h.1a2.8 2.8 0 0 1 .5 2.9c-.4.9.9 1.7 1.3.8z" class="cls-8"/>
  <path d="M20.4 155.8a2.6 2.6 0 0 0 3.6.7h.1a2.7 2.7 0 0 0 .6-3.7" class="cls-3"/>
  <path d="M23.1 155l-3.8-48.8a9.9 9.9 0 0 1 9.9-9.9" class="cls-6"/>
  <path d="M31.4 107a8.2 8.2 0 1 1 0-16.4" class="cls-2"/>
  <path d="M31.4 96a2.7 2.7 0 0 0 0 5.3" class="cls-3"/>
  <path d="M48.7 129.7h32.6" class="cls-10"/>
  <path fill="none" stroke="#ffa514" stroke-miterlimit="10" stroke-width=".95" d="M68.7 136.4h12.6"/>
  <path d="M48.7 136.3h11.5M48.7 142.9h32.6M48.7 149.5h1.9" class="cls-10"/>
  <path d="M54.7 149.5h22.6" class="cls-12"/>
  <path d="M79.4 149.5h1.9M27.7 175.2h9.9M50.4 175.2h10M27 183.8h2" class="cls-10"/>
  <path d="M33.1 183.8h22.6" class="cls-12"/>
  <path d="M57.7 183.8h2M48.7 156.2h32.6" class="cls-10"/>
  <path fill="url(#linear-gradient)" d="M310.9 0L70 52.8l1.1 7.8 239.8 108.7V0z" opacity=".5" style="isolation:isolate"/>
  <path d="M290.3 118.6c0 1.1-1.3 2-3.4 2.6a17.9 17.9 0 0 1-8.6 0c-2-.6-3.4-1.5-3.4-2.6s3.5-3.1 7.7-3.1 7.7 1.4 7.7 3.1z" class="cls-14"/>
  <path d="M290.3 118.6v5.1c0 .9-.8 1.7-2.2 2.2a12.8 12.8 0 0 1-5.5.9 14.8 14.8 0 0 1-5.5-.9c-1.3-.5-2.2-1.3-2.2-2.2v-5.1c0 1.1 1.4 2 3.4 2.6a17.9 17.9 0 0 0 8.6 0c2.1-.6 3.4-1.5 3.4-2.6z" class="cls-14"/>
  <path d="M290.3 123.7v4.4c0 .9-.9 1.7-2.4 2.3a15.9 15.9 0 0 1-5.3.8 15.3 15.3 0 0 1-5.2-.8c-1.5-.6-2.5-1.4-2.5-2.3v-4.4c0 .9.9 1.7 2.2 2.2a14.8 14.8 0 0 0 5.5.9 12.8 12.8 0 0 0 5.5-.9c1.4-.5 2.2-1.3 2.2-2.2z" class="cls-14"/>
  <path d="M290.3 128.1v4.5c0 1.8-3.4 3.2-7.7 3.2s-7.7-1.4-7.7-3.2v-4.5c0 .9 1 1.7 2.5 2.3a15.3 15.3 0 0 0 5.2.8 15.9 15.9 0 0 0 5.3-.8c1.5-.6 2.4-1.4 2.4-2.3zM297.9 100.7h-27V79.8M286.2 84.2a6 6 0 0 1 4.9-4.4h6.8" class="cls-14"/>
  <path d="M282.6 96.3a5.9 5.9 0 0 1-4.9 4.3h-6.8M286.3 83.9l-3.8 12.7M224.9 84.8V87h-15.5v15.5h-2.2V84.8h17.7z" class="cls-14"/>
  <path d="M227.1 87v2.3h-15.4v15.4h-2.3V87h17.7z" class="cls-14"/>
  <path d="M229.4 89.3v1.9h-15.7V107h-2V89.3h17.7z" class="cls-14"/>
  <path d="M213.7 91.2h17.7v17.66h-17.7zM223.3 65.6h3.5v9.77h-3.5zM215.9 67.7h3.5v7.6h-3.5zM208.4 70.5h3.5v4.88h-3.5zM205.5 75.3h24.1" class="cls-14"/>
  <rect width="12.2" height="12.16" x="213.2" y="40.2" class="cls-14" rx="2.9" ry="2.9"/>
  <rect width="12.2" height="12.16" x="207.1" y="46.3" class="cls-14" rx="2.9" ry="2.9"/>
  <path d="M281 26.2h8.4v8.37H281zM269.5 41.7h8.4v8.37h-8.4zM281 41.7h8.4v8.37H281zM292.6 41.7h8.4v8.37h-8.4zM275.1 57.2h8.4v8.37h-8.4zM264.9 57.2h8.4v8.37h-8.4zM297.8 57.2h8.4v8.37h-8.4zM287.6 57.2h8.4v8.37h-8.4zM285.2 34.6v7.1M296.6 41.7l-11.1-7.1M274.4 41.7l10.3-7.1M269.5 57.2l4.6-7.1M274.3 50.1l4.6 7.1M292.1 57.2l4.6-7.1M296.9 50.1l4.6 7.1" class="cls-14"/>
  <path d="M244.1 76.7l1.9-3.4h1.3l-2.5 4.3 2.6 4.4h-1.3l-2-3.5-1.9 3.5h-1.3l2.6-4.4-2.5-4.3h1.3zM314.1 27.4l1.2-2.1h.7l-1.5 2.6 1.6 2.7h-.8l-1.2-2.1-1.1 2.1h-.8l1.5-2.7-1.5-2.6h.8z" class="cls-15"/>
  <path d="M197.7 56.4l-4 8.7-.4.5a1.3 1.3 0 0 1-.7.6l-.9.2h-1.4l.4-1.9h1.3l.2-.3.2-.4.3-.5-3-6.6h2.3l1.7 3.9 1.7-4.1z" class="cls-3"/>
  <path d="M306.1 113.6v.4l1.1-2.6h.6l-1.7 3.9-.2.3-.2.3-.3.2h-.8v-.4h.5l.2-.2h.1v-.2l.3-.5-1.5-3.2h.6z" class="cls-15"/>
  <path d="M250.7 102v-4.9a4.7 4.7 0 0 0-3 1 4.9 4.9 0 0 0 6 7.8 5.1 5.1 0 0 0 1.9-3.9z" class="cls-14"/>
  <path d="M257.1 100.6a4.7 4.7 0 0 0-1-3 5.1 5.1 0 0 0-3.9-1.9v4.9zM242.1 47.8a7.2 7.2 0 1 0 7.2-7.2" class="cls-14"/>
  <path d="M255 48a5.9 5.9 0 0 1-5.7 5.7 6.3 6.3 0 0 1-1.9-.3l2-5.4v-5.8A5.9 5.9 0 0 1 255 48z" class="cls-3"/>
  <path d="M197.6 99h-.3a.9.9 0 0 1-1.2-.5l-2.7-7v-.2a4.7 4.7 0 0 1-5.1-4.2 4.6 4.6 0 0 1 4.2-5 4.7 4.7 0 0 1 5 4.1 4.5 4.5 0 0 1-2 4.3v.2l2.7 7a1 1 0 0 1-.5 1.3z" class="cls-14"/>
  <circle cx="193" cy="86.6" r="3.6" class="cls-3"/>
  <path d="M182 75.9l-1.2.3h-13.3a2.9 2.9 0 0 1-3.1-2.7v-.2a2.9 2.9 0 0 1 2.6-3h.2a4.1 4.1 0 0 1 7.5-3.1 2.9 2.9 0 0 1 3.9-.8 2.8 2.8 0 0 1 .8 3.9 3.1 3.1 0 0 1 4.1 1.6 3 3 0 0 1-1.5 4z" class="cls-14"/>
  <path d="M322.7 79.8a2.6 2.6 0 0 1-2.6 2.6 2.6 2.6 0 0 1-2.5-2.6 2.5 2.5 0 0 1 2.5-2.5l1.2.3a.8.8 0 0 0-.2.5.8.8 0 0 0 .8.7h.5a1.7 1.7 0 0 1 .3 1z" class="cls-3"/>
  <path d="M330.9 79.8a14.1 14.1 0 0 1-19.9 1.6 12.1 12.1 0 0 1-1.6-1.6 14.1 14.1 0 0 1 19.9-1.6z" class="cls-14"/>
  <circle cx="320.1" cy="79.8" r="5" class="cls-14"/>
  <circle cx="144.4" cy="14" r="1.5" class="cls-14"/>
  <circle cx="175.9" cy="172.5" r="2.3" class="cls-14"/>
  <circle cx="326.7" cy="193.3" r="2.3" class="cls-14"/>
  <circle cx="7.6" cy="199.1" r="2.3" class="cls-14"/>
  <path d="M187.1 185.4l-.8.9-2.9-3.1a.8.8 0 0 0-.9-.2v.2l-1.6 1.8a1.8 1.8 0 0 1-2.5.3h-.1l-.2-.2-1.6-1.8a.8.8 0 0 0-.9-.2h-.2l-1.6 2a2.3 2.3 0 0 1-1.2.6 1.8 1.8 0 0 1-1.4-.4h-.1v-.2l-1.7-1.8a.8.8 0 0 0-.8-.2h-.2l-2.8 3.3-.9-.8 2.7-3.2a1.8 1.8 0 0 1 2.5-.3h.1l.2.2 1.7 1.9.4.2h.6l1.6-1.9a2 2 0 0 1 2.6-.2l.2.2 1.6 1.9.5.2c.1.1.3 0 .4-.1h.1l1.6-1.9a2 2 0 0 1 2.6-.2h.1v.2zM187.1 194.8l-.8.9-2.9-3.2a.7.7 0 0 0-.9-.1h-.1l-1.6 1.9a1.8 1.8 0 0 1-2.5.3h-.1l-.2-.2-1.6-1.9a.7.7 0 0 0-.9-.1h-.1l-1.6 1.9a1.9 1.9 0 0 1-1.2.7 2.3 2.3 0 0 1-1.4-.4h-.1v-.2l-1.7-1.9a.6.6 0 0 0-.8-.1h-.2l-2.8 3.2-.9-.7 2.7-3.3a2 2 0 0 1 2.6-.2l.2.2 1.7 2 .4.2h.6l1.6-1.9a1.9 1.9 0 0 1 2.6-.3l.2.2 1.6 1.9.5.2h.5l1.6-1.9a1.9 1.9 0 0 1 2.6-.3h.1v.2zM22.3 72l-.9.9-2.8-3.1a.8.8 0 0 0-.8-.2h-.2L16 71.5a2 2 0 0 1-2.6.2l-.2-.3-1.6-1.8a.8.8 0 0 0-.8-.2h-.2L9 71.3a1.6 1.6 0 0 1-1.3.6 1.5 1.5 0 0 1-1.3-.4h-.1v-.2l-1.7-1.9a.8.8 0 0 0-.8-.2h-.1L.9 72.4l-.9-.8 2.7-3.2a2 2 0 0 1 2.6-.2l.2.2 1.7 1.9c.1.2.2.2.4.2h.5l1.7-2a2 2 0 0 1 2.6-.2l.2.2 1.6 1.8c.1.2.2.3.4.3h.5l1.6-1.9a2 2 0 0 1 2.6-.2h.1v.2zM8.6 36.4a2.1 2.1 0 0 1-1.9-2.1 2 2 0 0 1 1.6-1.8h.4l.8.2 4.1-6.2a2.1 2.1 0 0 1-.7-1.5 1.7 1.7 0 0 1 .3-1l-5.3-4.6a1.7 1.7 0 0 1-1.2.4 2.1 2.1 0 0 1-2-1.9 2.1 2.1 0 0 1 2-1.9 2.1 2.1 0 0 1 1.9 2.1 1.5 1.5 0 0 1-.4.9l5.3 4.6a1.8 1.8 0 0 1 1-.4h.4a2.1 2.1 0 0 1 1.9 2.1 2 2 0 0 1-2 1.8l-.8-.2L9.9 33a2 2 0 0 1 .2 2.8 2.1 2.1 0 0 1-1.5.7zM278.8 185.8a2 2 0 0 1-1.6 2.3 2.1 2.1 0 0 1-2.1-1.2c0-.1-.1-.2-.1-.4v-.8l-6.9-2.6a1.7 1.7 0 0 1-1.3 1 2 2 0 0 1-1.1-.1l-3.3 6.2a2.4 2.4 0 0 1 .6 1.1 1.9 1.9 0 0 1-1.1 2.3h-.3a1.9 1.9 0 0 1-2.2-1.5 1.8 1.8 0 0 1 1.1-2.2h.1a1.7 1.7 0 0 1 1.4.1l3.3-6.2a2.2 2.2 0 0 1-.7-.9c0-.1-.1-.2-.1-.4a1.9 1.9 0 1 1 3.8-.6 1.1 1.1 0 0 1 0 .8l6.9 2.6a2.1 2.1 0 0 1 1.4-1 1.9 1.9 0 0 1 2.2 1.5z" class="cls-3"/>
</svg>
