<svg id="Layer_1" data-name="Layer 1" xmlns="http://www.w3.org/2000/svg" xmlns:xlink="http://www.w3.org/1999/xlink" viewBox="0 0 540 300"><defs><style>.cls-1,.cls-10,.cls-11,.cls-12,.cls-14,.cls-6{fill:none;}.cls-1,.cls-14,.cls-15{stroke:#186399;}.cls-1,.cls-10,.cls-11,.cls-12,.cls-14,.cls-15,.cls-6{stroke-miterlimit:10;}.cls-1,.cls-6{stroke-width:3.6px;}.cls-2{fill:#42a6ed;}.cls-15,.cls-3{fill:#186399;}.cls-4{fill:#9ed6ff;}.cls-5{fill:#73c2fb;}.cls-6{stroke:#166395;}.cls-7{fill:#ffa514;}.cls-8{fill:#44a4eb;}.cls-9{fill:#ed4250;}.cls-10,.cls-11,.cls-12{stroke:#ffa514;}.cls-10,.cls-12{stroke-width:0.99px;}.cls-11{stroke-width:0.95px;}.cls-12{stroke-dasharray:4.1 4.1;}.cls-13{opacity:0.5;isolation:isolate;fill:url(#linear-gradient);}</style><linearGradient id="linear-gradient" x1="392.53" y1="174.98" x2="97.14" y2="163.07" gradientTransform="matrix(1, 0, 0, -1, 0, 302)" gradientUnits="userSpaceOnUse"><stop offset="0" stop-color="#fff"/><stop offset="1" stop-color="#ffce80"/></linearGradient></defs><title>Data science Libre AI</title><path class="cls-1" d="M150.5,207.1S145.1,248,179.3,248s30.4-40.7,30.4-40.7"/><path class="cls-2" d="M175,243.5v6.4a2.2,2.2,0,0,1-2.2,2.2h0a2.2,2.2,0,0,1-2.2-2.2v-6.4a2.2,2.2,0,0,1,2.2-2.2h0A2.2,2.2,0,0,1,175,243.5Z"/><path class="cls-2" d="M188.2,243.5v6.4a2.2,2.2,0,0,1-2.2,2.2h0a2.2,2.2,0,0,1-2.2-2.2v-6.4a2.2,2.2,0,0,1,2.2-2.2h0A2.2,2.2,0,0,1,188.2,243.5Z"/><rect class="cls-3" x="172.5" y="236.7" width="13.8" height="20.1" rx="5.3" ry="5.3"/><path class="cls-4" d="M136.7,89.2a42.2,42.2,0,0,1,36-47.4h0a42,42,0,0,1,47.4,35.8h0"/><path class="cls-2" d="M158.9,208a8.2,8.2,0,0,1-11.6-11.6h0"/><path class="cls-3" d="M153.9,205.3a2.8,2.8,0,0,1-4-4"/><path class="cls-2" d="M211,196.7a8.2,8.2,0,0,1-11.6,11.6"/><path class="cls-3" d="M208.4,201.9a2.8,2.8,0,0,1,0,4h0a3,3,0,0,1-4.1,0"/><path class="cls-5" d="M137,132h84.8v39.7a42.2,42.2,0,0,1-42.2,42.2h-.3A42.3,42.3,0,0,1,137,171.6V132Z"/><path class="cls-6" d="M224.1,138.6h0a9.9,9.9,0,0,1,9.9,9.9v50.4h0"/><path class="cls-2" d="M221.8,132a8.2,8.2,0,0,1,0,16.4"/><path class="cls-3" d="M221.8,137.6a2.6,2.6,0,1,1,0,5.2h0"/><path class="cls-3" d="M151.3,87.5l-.3-1.9a28.2,28.2,0,0,1,6-20.7,28.6,28.6,0,0,1,18.8-10.4,28.2,28.2,0,0,1,31.1,24.9v.4h-2.4v-.2a25.7,25.7,0,0,0-45.6-13.1,25,25,0,0,0-5.4,18.8,11,11,0,0,0,.2,1.8Z"/><path class="cls-3" d="M173.4,66.1a7.7,7.7,0,0,1-5.2-1.7,7.2,7.2,0,0,1-2.2-6.3l2.4.4-1.2-.2,1.2.2s-.3,2.6,1.4,4,4.3,1.5,8.1.4l.6,2.4A20.5,20.5,0,0,1,173.4,66.1Z"/><path class="cls-3" d="M181.6,76.4a5.1,5.1,0,0,1,.6-4.3,5.4,5.4,0,0,1,4.3-2.4l15.6-2.1.4,2.4-15.6,2.1a3.6,3.6,0,0,0-2.6,1.3,3.2,3.2,0,0,0-.3,2.4Z"/><path class="cls-3" d="M152.7,84.8l-.4-2.4,12.8-1.8a4,4,0,0,0,2.4-1.6,3.5,3.5,0,0,0,.6-2.8l2.4-.5h0a6.2,6.2,0,0,1-5,7.2Z"/><circle class="cls-7" cx="182.5" cy="77.4" r="2.3"/><path class="cls-3" d="M182.5,80.9a3.5,3.5,0,1,1,3.5-3.5A3.4,3.4,0,0,1,182.5,80.9Zm0-4.6a1.1,1.1,0,1,0,1.1,1.1A1.1,1.1,0,0,0,182.5,76.3Z"/><circle class="cls-7" cx="169.4" cy="74.3" r="2.3"/><path class="cls-3" d="M169.4,77.8a3.5,3.5,0,1,1,3.5-3.5A3.4,3.4,0,0,1,169.4,77.8Zm0-4.6a1.1,1.1,0,1,0,1.1,1.1A1.1,1.1,0,0,0,169.4,73.2Z"/><circle class="cls-7" cx="180.1" cy="64" r="2.3"/><path class="cls-3" d="M180.1,67.5a3.5,3.5,0,1,1,3.5-3.5A3.4,3.4,0,0,1,180.1,67.5Zm0-4.6a1.1,1.1,0,1,0,1.1,1.1A1.1,1.1,0,0,0,180.1,62.9Z"/><path class="cls-5" d="M220,77.3l3.8,27.5a14.4,14.4,0,0,1-12.2,16.3h-.1l-54.7,7.6a14.5,14.5,0,0,1-16.4-12.3h0l-3.7-27.2Z"/><path class="cls-2" d="M220.8,82.9l2.4,17-54.6,7.6a5.5,5.5,0,0,1-6.2-4.7h0l-.9-6.1a5.5,5.5,0,0,1,4.7-6.2h.1Z"/><path class="cls-3" d="M175.6,94.4l1.1,7.5c.3,2,3.4,1.1,3.1-.9l-1-7.4c-.3-2.1-3.4-1.2-3.2.8Z"/><path class="cls-3" d="M213.6,88.8l1.1,7.4c.3,2.1,3.4,1.2,3.1-.8l-1-7.5c-.3-2-3.5-1.1-3.2.9Z"/><path class="cls-7" d="M175.9,96.3l.4,2.8a1.5,1.5,0,0,0,1.9,1.2h.1a1.6,1.6,0,0,0,1.2-2l-.4-2.9a1.8,1.8,0,0,0-2.1-1.2,1.6,1.6,0,0,0-1.1,2.1Z"/><path class="cls-7" d="M213.9,90.9l.4,2.8a1.5,1.5,0,0,0,1.9,1.2h.1a1.6,1.6,0,0,0,1.2-2l-.4-2.9a1.7,1.7,0,0,0-2.1-1.2h0a1.8,1.8,0,0,0-1.1,2.1Z"/><path class="cls-2" d="M145.2,139.2h67.9a31.9,31.9,0,0,1-31.9,31.9h-4.1a31.9,31.9,0,0,1-31.9-31.9Z"/><path class="cls-3" d="M199.5,108.1a4.1,4.1,0,0,1-3.9,4.3,4,4,0,0,1-4.2-3.2c-.2-1-1.7-.6-1.5.4a5.7,5.7,0,0,0,6.3,4.7,5.7,5.7,0,0,0,4.9-6.2c-.1-1-1.7-1-1.6,0Z"/><path class="cls-4" d="M166.2,114.6a5,5,0,0,0,3.5,6.1,4.9,4.9,0,0,0,6-3.5h0a4.9,4.9,0,0,0-3.4-6A5,5,0,0,0,166.2,114.6Z"/><path class="cls-4" d="M209.8,108.9a4.9,4.9,0,0,0,3.5,6h0a4.9,4.9,0,0,0,6-3.3h0a4.9,4.9,0,0,0-3.4-6A5,5,0,0,0,209.8,108.9Z"/><path class="cls-2" d="M239.3,196.5a5.4,5.4,0,0,1-10.8,0"/><path class="cls-8" d="M236.3,205.6c3.9-2.2,2.4-8.5-2.2-8.1a4.3,4.3,0,0,0-1.4,8.3c.9.4,1.7-1,.8-1.4-2.5-1.1-2.5-4.9.5-5.4s4.1,3.8,1.5,5.3c-.8.5,0,1.8.8,1.3Z"/><path class="cls-3" d="M231.4,196.5a2.6,2.6,0,1,0,5.2.1h0"/><path class="cls-3" d="M180.5,150.2a2.5,2.5,0,0,1,2.1,2.8,2.2,2.2,0,0,1-.5,1.2l-1.2,1.5-2.6,3.1-2.5-3.1-1.2-1.5a2.6,2.6,0,0,1,.4-3.5,3.1,3.1,0,0,1,1.2-.5h.3a2.7,2.7,0,0,1,1.9.8,2.7,2.7,0,0,1,1.9-.8Z"/><path class="cls-2" d="M143.8,93.5h0a3.1,3.1,0,0,1,3.4,2.6l2.6,18.3a3.1,3.1,0,0,1-2.6,3.4h0a3.1,3.1,0,0,1-3.4-2.6l-2.6-18.3A3,3,0,0,1,143.8,93.5Z"/><path class="cls-7" d="M150.6,186.7v17.8a4.9,4.9,0,0,1-4.9,4.9,5.6,5.6,0,0,1-5.6-5.6h0V192.4a5.9,5.9,0,0,0-5.7-5.7Z"/><path class="cls-7" d="M129.1,209.4v17.7a5,5,0,0,1-5,5,5.6,5.6,0,0,1-5.6-5.6h0V209.4Z"/><path class="cls-9" d="M191.5,164v40.5a4.9,4.9,0,0,1-4.8,4.9h-41a4.9,4.9,0,0,0,4.9-4.9V164Z"/><path class="cls-9" d="M170,209.4v17.9a4.7,4.7,0,0,1-4.8,4.8H124.1a5,5,0,0,0,5-5h0V191.8a5,5,0,0,1,4.9-5.1h.4a5.9,5.9,0,0,1,5.7,5.7v11.4a5.6,5.6,0,0,0,5.6,5.6H170Z"/><path class="cls-2" d="M132.6,192.4a5.4,5.4,0,0,1-1.1,7.6h-.1a5.4,5.4,0,0,1-7.5-1.2"/><path class="cls-8" d="M134.9,201.4a4.2,4.2,0,0,0-1.7-5.8,4.2,4.2,0,0,0-4.8.4c-3.6,3-.5,8.5,3.9,7.5,1-.2.5-1.7-.4-1.4-2.7.6-4.8-2.8-2.7-4.7a2.7,2.7,0,0,1,3.9.3,2.8,2.8,0,0,1,.5,2.9c-.4.9.9,1.7,1.3.8Z"/><path class="cls-3" d="M126,197.2a2.6,2.6,0,0,0,3.6.7h.1a2.7,2.7,0,0,0,.6-3.7"/><path class="cls-6" d="M128.7,196.4l-3.8-48.8a9.9,9.9,0,0,1,9.9-9.9"/><path class="cls-2" d="M137,148.4a8.2,8.2,0,1,1,0-16.4h0"/><path class="cls-3" d="M137,137.4a2.7,2.7,0,0,0,0,5.3"/><line class="cls-10" x1="154.3" y1="171.1" x2="186.9" y2="171.1"/><line class="cls-11" x1="174.3" y1="177.8" x2="186.9" y2="177.8"/><line class="cls-10" x1="154.3" y1="177.7" x2="165.8" y2="177.7"/><line class="cls-10" x1="154.3" y1="184.3" x2="186.9" y2="184.3"/><line class="cls-10" x1="154.3" y1="190.9" x2="156.2" y2="190.9"/><line class="cls-12" x1="160.3" y1="190.9" x2="182.9" y2="190.9"/><line class="cls-10" x1="185" y1="190.9" x2="186.9" y2="190.9"/><line class="cls-10" x1="133.3" y1="216.6" x2="143.2" y2="216.6"/><line class="cls-10" x1="156" y1="216.6" x2="166" y2="216.6"/><line class="cls-10" x1="132.6" y1="225.2" x2="134.6" y2="225.2"/><line class="cls-12" x1="138.7" y1="225.2" x2="161.3" y2="225.2"/><line class="cls-10" x1="163.3" y1="225.2" x2="165.3" y2="225.2"/><line class="cls-10" x1="154.3" y1="197.6" x2="186.9" y2="197.6"/><polygon class="cls-13" points="416.5 41.4 175.6 94.2 176.7 102 416.5 210.7 416.5 41.4"/><path class="cls-14" d="M395.9,160c0,1.1-1.3,2-3.4,2.6a17.9,17.9,0,0,1-8.6,0c-2-.6-3.4-1.5-3.4-2.6s3.5-3.1,7.7-3.1S395.9,158.3,395.9,160Z"/><path class="cls-14" d="M395.9,160v5.1c0,.9-.8,1.7-2.2,2.2h0a13,13,0,0,1-5.5.9,14.8,14.8,0,0,1-5.5-.9h0c-1.3-.5-2.2-1.3-2.2-2.2V160c0,1.1,1.4,2,3.4,2.6a17.9,17.9,0,0,0,8.6,0C394.6,162,395.9,161.1,395.9,160Z"/><path class="cls-14" d="M395.9,165.1v4.4c0,.9-.9,1.7-2.4,2.3a15.9,15.9,0,0,1-5.3.8,15.3,15.3,0,0,1-5.2-.8c-1.5-.6-2.5-1.4-2.5-2.3v-4.4c0,.9.9,1.7,2.2,2.2h0a14.8,14.8,0,0,0,5.5.9,13,13,0,0,0,5.5-.9h0C395.1,166.8,395.9,166,395.9,165.1Z"/><path class="cls-14" d="M395.9,169.5V174c0,1.8-3.4,3.2-7.7,3.2s-7.7-1.4-7.7-3.2v-4.5c0,.9,1,1.7,2.5,2.3a15.3,15.3,0,0,0,5.2.8,15.9,15.9,0,0,0,5.3-.8C395,171.2,395.9,170.4,395.9,169.5Z"/><polyline class="cls-14" points="403.5 142.1 376.5 142.1 376.5 121.2"/><path class="cls-14" d="M391.8,125.6a6,6,0,0,1,4.9-4.4h6.8"/><path class="cls-14" d="M388.2,137.7a5.9,5.9,0,0,1-4.9,4.3h-6.8"/><line class="cls-14" x1="391.9" y1="125.3" x2="388.1" y2="138"/><polygon class="cls-14" points="330.5 126.2 330.5 128.4 315 128.4 315 143.9 312.8 143.9 312.8 126.2 330.5 126.2"/><polygon class="cls-14" points="332.7 128.4 332.7 130.7 317.3 130.7 317.3 146.1 315 146.1 315 128.4 332.7 128.4"/><polygon class="cls-14" points="335 130.7 335 132.6 319.3 132.6 319.3 148.4 317.3 148.4 317.3 130.7 335 130.7"/><rect class="cls-14" x="319.3" y="132.6" width="17.7" height="17.66"/><rect class="cls-14" x="328.9" y="107" width="3.5" height="9.77"/><rect class="cls-14" x="321.5" y="109.1" width="3.5" height="7.6"/><rect class="cls-14" x="314" y="111.9" width="3.5" height="4.88"/><line class="cls-14" x1="311.1" y1="116.7" x2="335.2" y2="116.7"/><rect class="cls-14" x="318.8" y="81.6" width="12.2" height="12.16" rx="2.9" ry="2.9"/><rect class="cls-14" x="312.7" y="87.7" width="12.2" height="12.16" rx="2.9" ry="2.9"/><rect class="cls-14" x="386.6" y="67.6" width="8.4" height="8.37"/><rect class="cls-14" x="375.1" y="83.1" width="8.4" height="8.37"/><rect class="cls-14" x="386.6" y="83.1" width="8.4" height="8.37"/><rect class="cls-14" x="398.2" y="83.1" width="8.4" height="8.37"/><rect class="cls-14" x="380.7" y="98.6" width="8.4" height="8.37"/><rect class="cls-14" x="370.5" y="98.6" width="8.4" height="8.37"/><rect class="cls-14" x="403.4" y="98.6" width="8.4" height="8.37"/><rect class="cls-14" x="393.2" y="98.6" width="8.4" height="8.37"/><line class="cls-14" x1="390.8" y1="76" x2="390.8" y2="83.1"/><path class="cls-14" d="M402.2,83.1,391.1,76"/><line class="cls-14" x1="380" y1="83.1" x2="390.3" y2="76"/><line class="cls-14" x1="375.1" y1="98.6" x2="379.7" y2="91.5"/><line class="cls-14" x1="379.9" y1="91.5" x2="384.5" y2="98.6"/><line class="cls-14" x1="397.7" y1="98.6" x2="402.3" y2="91.5"/><line class="cls-14" x1="402.5" y1="91.5" x2="407.1" y2="98.6"/><path class="cls-15" d="M349.7,118.1l1.9-3.4h1.3l-2.5,4.3,2.6,4.4h-1.3l-2-3.5-1.9,3.5h-1.3l2.6-4.4-2.5-4.3h1.3Z"/><path class="cls-15" d="M419.7,68.8l1.2-2.1h.7l-1.5,2.6,1.6,2.7h-.8l-1.2-2.1L418.6,72h-.8l1.5-2.7-1.5-2.6h.8Z"/><path class="cls-3" d="M303.3,97.8l-4,8.7-.4.5a1.3,1.3,0,0,1-.7.6l-.9.2h-1.4l.4-1.9h1.3l.2-.3.2-.4.3-.5-3-6.6h2.3l1.7,3.9,1.7-4.1Z"/><path class="cls-15" d="M411.7,155v.4l1.1-2.6h.6l-1.7,3.9-.2.3-.2.3-.3.2h-.8v-.4h.5l.2-.2h.1v-.2l.3-.5-1.5-3.2h.6Z"/><path class="cls-14" d="M356.3,143.4v-4.9a4.7,4.7,0,0,0-3,1,4.9,4.9,0,0,0,6,7.8,5.1,5.1,0,0,0,1.9-3.9Z"/><path class="cls-14" d="M362.7,142a4.7,4.7,0,0,0-1-3,5.1,5.1,0,0,0-3.9-1.9V142Z"/><path class="cls-14" d="M347.7,89.2a7.2,7.2,0,1,0,7.2-7.2"/><path class="cls-3" d="M360.6,89.4a5.8,5.8,0,0,1-5.7,5.7h0a6.3,6.3,0,0,1-1.9-.3l2-5.4V83.6A5.9,5.9,0,0,1,360.6,89.4Z"/><path class="cls-14" d="M303.2,140.4h-.3a.9.9,0,0,1-1.2-.5h0l-2.7-7v-.2h0a4.7,4.7,0,0,1-5.1-4.2,4.6,4.6,0,0,1,4.2-5h0a4.6,4.6,0,0,1,5,4.1,4.5,4.5,0,0,1-2,4.3v.2l2.7,7a1,1,0,0,1-.5,1.3Z"/><circle class="cls-3" cx="298.6" cy="128" r="3.6"/><path class="cls-14" d="M287.6,117.3a2.7,2.7,0,0,1-1.2.3H273.1a2.9,2.9,0,0,1-3.1-2.9h0a2.9,2.9,0,0,1,2.6-3h.2a4.1,4.1,0,0,1,7.5-3.1,2.9,2.9,0,0,1,3.9-.8,2.8,2.8,0,0,1,.8,3.9h0a3.1,3.1,0,0,1,4.1,1.6h0a3,3,0,0,1-1.5,4Z"/><path class="cls-3" d="M428.3,121.2a2.6,2.6,0,0,1-2.6,2.6h0a2.6,2.6,0,0,1-2.5-2.6,2.5,2.5,0,0,1,2.5-2.5,2.7,2.7,0,0,1,1.2.3.8.8,0,0,0-.2.5.8.8,0,0,0,.8.7h.5A1.7,1.7,0,0,1,428.3,121.2Z"/><path class="cls-14" d="M436.5,121.2a14.1,14.1,0,0,1-19.9,1.6,12.1,12.1,0,0,1-1.6-1.6,14.1,14.1,0,0,1,19.9-1.6A12.1,12.1,0,0,1,436.5,121.2Z"/><circle class="cls-14" cx="425.7" cy="121.2" r="5"/><circle class="cls-14" cx="250" cy="55.4" r="1.5"/><circle class="cls-14" cx="281.5" cy="213.9" r="2.3"/><circle class="cls-14" cx="432.3" cy="234.7" r="2.3"/><circle class="cls-14" cx="113.2" cy="240.5" r="2.3"/><path class="cls-3" d="M292.7,226.8l-.8.9-2.9-3.1a.8.8,0,0,0-.9-.2v.2l-1.6,1.8a1.8,1.8,0,0,1-2.5.3h-.1a.2.2,0,0,1-.2-.2l-1.6-1.8a.8.8,0,0,0-.9-.2H281l-1.6,2a2,2,0,0,1-1.2.6,1.8,1.8,0,0,1-1.4-.4h-.1v-.2l-1.7-1.8a.7.7,0,0,0-.8-.2H274l-2.8,3.3-.9-.8,2.7-3.2a1.8,1.8,0,0,1,2.6-.2l.2.2,1.7,1.9.4.2h.6l1.6-1.9a2,2,0,0,1,2.6-.2h0l.2.2,1.6,1.9.5.2c.1.1.3,0,.4-.1h.1l1.6-1.9a2,2,0,0,1,2.6-.2h.1v.2Z"/><path class="cls-3" d="M292.7,236.2l-.8.9-2.9-3.2a.7.7,0,0,0-.9-.1H288l-1.6,1.9a1.8,1.8,0,0,1-2.5.3h-.1l-.2-.2-1.6-1.9a.7.7,0,0,0-.9-.1H281l-1.6,1.9a2.1,2.1,0,0,1-1.2.7,2.3,2.3,0,0,1-1.4-.4h-.1v-.2l-1.7-1.9a.6.6,0,0,0-.8-.1H274l-2.8,3.2-.9-.7,2.7-3.3a2,2,0,0,1,2.6-.2l.2.2,1.7,2,.4.2h.6l1.6-1.9a1.9,1.9,0,0,1,2.6-.3h0l.2.2,1.6,1.9.5.2h.5l1.6-1.9a1.9,1.9,0,0,1,2.6-.3h.1v.2Z"/><path class="cls-3" d="M127.9,113.4l-.9.9-2.8-3.1a.6.6,0,0,0-.9-.1h-.1l-1.6,1.9a1.9,1.9,0,0,1-2.6.2h0l-.2-.3-1.6-1.8a.6.6,0,0,0-.9-.1h-.1l-1.6,1.9a1.8,1.8,0,0,1-1.3.6,1.4,1.4,0,0,1-1.3-.4h-.1v-.2l-1.7-1.9a.6.6,0,0,0-.9-.1h0l-2.8,3.2-.9-.8,2.7-3.2a2,2,0,0,1,2.6-.2l.2.2,1.7,1.9c.1.2.2.2.4.2s.3,0,.4-.1h.1l1.7-2a2,2,0,0,1,2.6-.2h0l.2.2,1.6,1.8a.5.5,0,0,0,.4.3h.5v-.2l1.6-1.9a2,2,0,0,1,2.6-.2h.1v.2Z"/><path class="cls-3" d="M114.2,77.8a2.1,2.1,0,0,1-1.9-2.1,2.1,2.1,0,0,1,1.6-1.8h.4l.8.2,4.1-6.2a2,2,0,0,1-.7-1.5,1.7,1.7,0,0,1,.3-1l-5.3-4.6a2.1,2.1,0,0,1-1.2.4,2.1,2.1,0,0,1-2-1.9h0a2.1,2.1,0,0,1,2-1.9,2.1,2.1,0,0,1,1.9,2.1,1.5,1.5,0,0,1-.4.9l5.3,4.6a1.8,1.8,0,0,1,1-.4h.4a2.1,2.1,0,0,1,1.9,2.1,2,2,0,0,1-2,1.8l-.8-.2-4.1,6.1a2,2,0,0,1-1.3,3.5Z"/><path class="cls-3" d="M384.4,227.2a2,2,0,0,1-1.6,2.3,2.1,2.1,0,0,1-2.1-1.2c0-.1-.1-.2-.1-.4h0v-.8l-6.9-2.6a1.7,1.7,0,0,1-1.3,1,2,2,0,0,1-1.1-.1l-3.3,6.2a2,2,0,0,1,.6,1.1,1.8,1.8,0,0,1-1.3,2.3h-.1a1.9,1.9,0,0,1-2.2-1.5,1.8,1.8,0,0,1,2.6-2.1l3.3-6.2a2.2,2.2,0,0,1-.7-.9c0-.1-.1-.2-.1-.4h0a1.9,1.9,0,1,1,3.8-.6,1.1,1.1,0,0,1,0,.8l6.9,2.6a1.9,1.9,0,0,1,1.4-1A1.9,1.9,0,0,1,384.4,227.2Z"/></svg>