<svg id="Layer_1" data-name="Layer 1" xmlns="http://www.w3.org/2000/svg" xmlns:xlink="http://www.w3.org/1999/xlink" viewBox="0 0 540 300"><defs><style>.cls-1,.cls-12,.cls-13,.cls-14,.cls-16,.cls-17,.cls-20,.cls-22,.cls-6,.cls-7{fill:none;}.cls-1,.cls-16,.cls-17,.cls-18,.cls-19,.cls-20,.cls-21,.cls-22,.cls-7,.cls-8{stroke:#186399;}.cls-1,.cls-12,.cls-13,.cls-14,.cls-16,.cls-17,.cls-18,.cls-19,.cls-20,.cls-21,.cls-22,.cls-6,.cls-7,.cls-8{stroke-miterlimit:10;}.cls-1,.cls-6{stroke-width:3.6px;}.cls-2{fill:#42a6ed;}.cls-18,.cls-19,.cls-21,.cls-3{fill:#186399;}.cls-4{fill:#9ed6ff;}.cls-5{fill:#73c2fb;}.cls-6{stroke:#166395;}.cls-7,.cls-8{stroke-width:2.49px;}.cls-8,.cls-9{fill:#ffa514;}.cls-10{fill:#44a4eb;}.cls-11{fill:#ed4250;}.cls-12,.cls-13,.cls-14{stroke:#ffa514;}.cls-12,.cls-14{stroke-width:0.99px;}.cls-13{stroke-width:0.95px;}.cls-14{stroke-dasharray:4.1 4.1;}.cls-15{opacity:0.5;fill:url(#linear-gradient);}.cls-17{stroke-width:0.66px;}.cls-19,.cls-20{stroke-width:0.64px;}.cls-21,.cls-22{stroke-width:0.48px;}</style><linearGradient id="linear-gradient" x1="392.53" y1="126.99" x2="97.14" y2="138.9" gradientUnits="userSpaceOnUse"><stop offset="0" stop-color="#fff"/><stop offset="1" stop-color="#ffce80"/></linearGradient></defs><title>DS</title><path class="cls-1" d="M150.5,207.1S145.1,248,179.3,248s30.4-40.7,30.4-40.7"/><rect class="cls-2" x="167.4" y="244.5" width="10.8" height="4.38" rx="2.2" ry="2.2" transform="translate(419.5 73.9) rotate(90)"/><rect class="cls-2" x="180.7" y="244.5" width="10.8" height="4.38" rx="2.2" ry="2.2" transform="translate(432.7 60.6) rotate(90)"/><rect class="cls-3" x="169.3" y="239.8" width="20.1" height="13.82" rx="5.3" ry="5.3" transform="translate(426.1 67.4) rotate(90)"/><path class="cls-4" d="M136.7,89.2a42.1,42.1,0,0,1,36-47.4h0a42,42,0,0,1,47.4,35.8"/><path class="cls-2" d="M158.9,208a8.2,8.2,0,0,1-11.6-11.6"/><path class="cls-3" d="M153.9,205.3a2.8,2.8,0,0,1-4-4"/><path class="cls-2" d="M211,196.7a8.2,8.2,0,0,1-11.6,11.6"/><path class="cls-3" d="M208.4,201.9a2.8,2.8,0,0,1,0,4,3,3,0,0,1-4.1,0"/><path class="cls-5" d="M137,132h84.8a0,0,0,0,1,0,0v39.7a42.2,42.2,0,0,1-42.2,42.2h-.3A42.3,42.3,0,0,1,137,171.6V132A0,0,0,0,1,137,132Z"/><path class="cls-6" d="M224.1,138.6h0a9.9,9.9,0,0,1,9.9,9.9v50.4h0"/><path class="cls-2" d="M221.8,132a8.2,8.2,0,0,1,0,16.4"/><path class="cls-3" d="M221.8,137.6a2.6,2.6,0,1,1,0,5.2"/><path class="cls-7" d="M205.7,79.8v-.3a26.9,26.9,0,1,0-53.2,7.8"/><path class="cls-7" d="M167.2,59.3s-1.2,9.2,11,5.8"/><path class="cls-7" d="M182.8,76.1s-1.3-4.5,3.9-5.2l15.6-2.1"/><path class="cls-7" d="M152.5,83.6l12.8-1.8a5,5,0,0,0,4-5.9"/><circle class="cls-8" cx="182.5" cy="77.4" r="2.3"/><circle class="cls-8" cx="169.4" cy="74.3" r="2.3"/><circle class="cls-8" cx="180.1" cy="65" r="2.3"/><path class="cls-5" d="M220,77.3l3.8,27.5a14.4,14.4,0,0,1-12.3,16.3l-54.7,7.6a14.5,14.5,0,0,1-16.4-12.4l-3.7-27.2Z"/><path class="cls-2" d="M220.8,82.9l2.4,17-54.6,7.6a5.5,5.5,0,0,1-6.2-4.7l-.9-6.1a5.5,5.5,0,0,1,4.8-6.2Z"/><path class="cls-3" d="M175.6,94.4l1.1,7.5c.3,2,3.4,1.1,3.1-.9l-1-7.4c-.3-2.1-3.4-1.2-3.2.8Z"/><path class="cls-3" d="M213.6,88.8l1.1,7.4c.3,2.1,3.4,1.2,3.1-.8l-1-7.5c-.3-2-3.5-1.1-3.2.9Z"/><path class="cls-9" d="M175.9,96.3l.4,2.8a1.6,1.6,0,0,0,2,1.2,1.7,1.7,0,0,0,1.2-2l-.4-2.9a1.8,1.8,0,0,0-2.1-1.2,1.7,1.7,0,0,0-1.1,2.1Z"/><path class="cls-9" d="M213.9,90.9l.4,2.8a1.6,1.6,0,0,0,2,1.2,1.7,1.7,0,0,0,1.2-2l-.4-2.9a1.7,1.7,0,0,0-2.1-1.2,1.8,1.8,0,0,0-1.1,2.1Z"/><path class="cls-2" d="M145.2,139.2h67.9a0,0,0,0,1,0,0v0a31.9,31.9,0,0,1-31.9,31.9h-4.1a31.9,31.9,0,0,1-31.9-31.9v0A0,0,0,0,1,145.2,139.2Z"/><path class="cls-3" d="M199.5,108.1a4.1,4.1,0,0,1-8.1,1.1c-.2-1-1.7-.6-1.5.4a5.7,5.7,0,0,0,6.3,4.7,5.7,5.7,0,0,0,4.9-6.2c-.1-1-1.7-1-1.6,0Z"/><path class="cls-4" d="M166.2,114.6a5,5,0,0,0,3.5,6.1,4.9,4.9,0,0,0,6-3.5,4.9,4.9,0,0,0-3.4-6A5,5,0,0,0,166.2,114.6Z"/><path class="cls-4" d="M209.8,108.9a4.9,4.9,0,0,0,3.5,6,4.8,4.8,0,0,0,6-3.4,4.9,4.9,0,0,0-3.4-6A5,5,0,0,0,209.8,108.9Z"/><path class="cls-2" d="M239.3,196.5a5.4,5.4,0,0,1-10.8,0"/><path class="cls-10" d="M236.3,205.6c3.9-2.2,2.4-8.5-2.2-8.1s-5.4,6.5-1.4,8.3c.9.4,1.7-1,.8-1.4-2.5-1.1-2.5-4.9.5-5.4s4.1,3.8,1.5,5.3c-.8.5,0,1.8.8,1.3Z"/><path class="cls-3" d="M231.4,196.5a2.7,2.7,0,0,0,2.6,2.7,2.6,2.6,0,0,0,2.6-2.7"/><path class="cls-3" d="M180.5,150.2a2.5,2.5,0,0,1,1.6,4l-1.2,1.5-2.6,3.1-2.5-3.1-1.2-1.5a2.5,2.5,0,0,1,1.6-4h.3a2.7,2.7,0,0,1,1.9.8,2.7,2.7,0,0,1,1.9-.8Z"/><rect class="cls-2" x="142.3" y="93.8" width="6" height="24.52" rx="3" ry="3" transform="matrix(0.99, -0.14, 0.14, 0.99, -13.2, 20.98)"/><path class="cls-9" d="M150.6,186.7v17.8a4.9,4.9,0,0,1-4.9,4.9,5.6,5.6,0,0,1-5.6-5.6V192.4a5.8,5.8,0,0,0-5.7-5.7Z"/><path class="cls-9" d="M129.1,209.4v17.7a5,5,0,0,1-5,5,5.6,5.6,0,0,1-5.6-5.6V209.4Z"/><path class="cls-11" d="M191.5,164v40.5a4.9,4.9,0,0,1-4.8,4.9h-41a4.9,4.9,0,0,0,4.9-4.9V164Z"/><path class="cls-11" d="M170,209.4v17.9a4.8,4.8,0,0,1-4.8,4.8H124.1a5,5,0,0,0,5-5V191.8a5,5,0,0,1,5-5.1h.3a5.8,5.8,0,0,1,5.7,5.7v11.4a5.6,5.6,0,0,0,5.6,5.6Z"/><path class="cls-2" d="M132.6,192.4a5.4,5.4,0,0,1-1.2,7.6,5.4,5.4,0,0,1-7.5-1.2"/><path class="cls-10" d="M134.9,201.4a4.3,4.3,0,0,0-6.5-5.4c-3.6,3-.5,8.5,3.9,7.5,1-.2.5-1.7-.4-1.4-2.7.6-4.8-2.8-2.7-4.7a2.8,2.8,0,0,1,4.4,3.2c-.4.9.9,1.7,1.3.8Z"/><path class="cls-3" d="M126,197.2a2.6,2.6,0,0,0,3.7.6,2.7,2.7,0,0,0,.6-3.7"/><path class="cls-6" d="M128.7,196.4l-3.8-48.8a9.9,9.9,0,0,1,9.9-9.9"/><path class="cls-2" d="M137,148.4a8.2,8.2,0,1,1,0-16.4"/><path class="cls-3" d="M137,137.4a2.7,2.7,0,0,0,0,5.3"/><line class="cls-12" x1="154.3" y1="171.1" x2="186.9" y2="171.1"/><line class="cls-13" x1="174.3" y1="177.8" x2="186.9" y2="177.8"/><line class="cls-12" x1="154.3" y1="177.7" x2="165.8" y2="177.7"/><line class="cls-12" x1="154.3" y1="184.3" x2="186.9" y2="184.3"/><line class="cls-12" x1="154.3" y1="190.9" x2="156.2" y2="190.9"/><line class="cls-14" x1="160.3" y1="190.9" x2="182.9" y2="190.9"/><line class="cls-12" x1="185" y1="190.9" x2="186.9" y2="190.9"/><line class="cls-12" x1="133.3" y1="216.6" x2="143.2" y2="216.6"/><line class="cls-12" x1="156" y1="216.6" x2="166" y2="216.6"/><line class="cls-12" x1="132.6" y1="225.2" x2="134.6" y2="225.2"/><line class="cls-14" x1="138.7" y1="225.2" x2="161.3" y2="225.2"/><line class="cls-12" x1="163.3" y1="225.2" x2="165.3" y2="225.2"/><line class="cls-12" x1="154.3" y1="197.6" x2="186.9" y2="197.6"/><polygon class="cls-15" points="416.5 41.4 175.6 94.2 176.7 102 416.5 210.7 416.5 41.4"/><path class="cls-16" d="M395.9,160c0,1.1-1.3,2-3.4,2.6a18.7,18.7,0,0,1-8.6,0c-2-.6-3.4-1.5-3.4-2.6s3.5-3.1,7.7-3.1S395.9,158.3,395.9,160Z"/><path class="cls-16" d="M395.9,160v5.1c0,.9-.8,1.7-2.2,2.2h0a14.4,14.4,0,0,1-5.5.9,14.7,14.7,0,0,1-5.5-.9h0c-1.3-.5-2.2-1.3-2.2-2.2V160c0,1.1,1.4,2,3.4,2.6a18.7,18.7,0,0,0,8.6,0C394.6,162,395.9,161.1,395.9,160Z"/><path class="cls-16" d="M395.9,165.1v4.4c0,.9-.9,1.7-2.4,2.3a16.4,16.4,0,0,1-5.3.8,15.8,15.8,0,0,1-5.2-.8c-1.5-.6-2.5-1.4-2.5-2.3v-4.4c0,.9.9,1.7,2.2,2.2h0a14.7,14.7,0,0,0,5.5.9,14.4,14.4,0,0,0,5.5-.9h0C395.1,166.8,395.9,166,395.9,165.1Z"/><path class="cls-16" d="M395.9,169.5V174c0,1.8-3.4,3.2-7.7,3.2s-7.7-1.4-7.7-3.2v-4.5c0,.9,1,1.7,2.5,2.3a15.8,15.8,0,0,0,5.2.8,16.4,16.4,0,0,0,5.3-.8C395,171.2,395.9,170.4,395.9,169.5Z"/><polyline class="cls-16" points="403.5 142.1 376.5 142.1 376.5 121.2"/><path class="cls-16" d="M391.8,125.6a6,6,0,0,1,4.9-4.4h6.8"/><path class="cls-16" d="M388.2,137.7a5.9,5.9,0,0,1-4.9,4.3h-6.8"/><line class="cls-16" x1="391.9" y1="125.3" x2="388.1" y2="138"/><circle class="cls-16" cx="374.8" cy="121.2"/><circle class="cls-16" cx="374.8" cy="125.3"/><circle class="cls-16" cx="374.8" cy="129.5"/><circle class="cls-16" cx="374.8" cy="133.8"/><circle class="cls-16" cx="374.7" cy="138"/><circle class="cls-16" cx="374.8" cy="142.1"/><circle class="cls-16" cx="383.2" cy="144"/><circle class="cls-16" cx="377.2" cy="144"/><circle class="cls-16" cx="390" cy="144"/><circle class="cls-16" cx="396.7" cy="144"/><circle class="cls-16" cx="403.5" cy="144"/><polygon class="cls-16" points="330.5 126.2 330.5 128.4 315 128.4 315 143.9 312.8 143.9 312.8 126.2 330.5 126.2"/><polygon class="cls-16" points="332.7 128.4 332.7 130.7 317.3 130.7 317.3 146.1 315 146.1 315 128.4 332.7 128.4"/><polygon class="cls-16" points="335 130.7 335 132.6 319.3 132.6 319.3 148.4 317.3 148.4 317.3 130.7 335 130.7"/><rect class="cls-16" x="319.3" y="132.6" width="17.7" height="17.66"/><path class="cls-17" d="M294.4,237.2l-.5.5-2.9-3.2a1,1,0,0,0-1.4-.1h-.1l-1.9,2.1a1.7,1.7,0,0,1-2.4.2v-.2l-1.9-2.1a1,1,0,0,0-1.4-.1h-.1l-1.8,2.1a1.9,1.9,0,0,1-2.5.2v-.2l-1.9-2.1a1,1,0,0,0-1.4-.1h-.1l-2.9,3.3-.5-.4,2.9-3.3a1.7,1.7,0,0,1,2.4-.2v.2l1.9,2.1a1,1,0,0,0,1.4.1.1.1,0,0,0,.1-.1l1.9-2.1a1.7,1.7,0,0,1,2.4-.2v.2l1.9,2.1a1,1,0,0,0,1.4.1.1.1,0,0,0,.1-.1l1.9-2.1a1.7,1.7,0,0,1,2.4-.2v.2Z"/><path class="cls-17" d="M294.4,226.7l-.5.5L291,224a1,1,0,0,0-1.4-.1h-.1l-1.9,2.1a1.6,1.6,0,0,1-2.4.2v-.2l-1.9-2.1a1,1,0,0,0-1.4-.1h-.1l-1.8,2.1a1.8,1.8,0,0,1-2.5.2v-.2l-1.9-2.1a1,1,0,0,0-1.4-.1h-.1l-2.9,3.4-.5-.5,2.9-3.3a1.7,1.7,0,0,1,2.4-.2v.2l1.9,2.1a1,1,0,0,0,1.4.1.1.1,0,0,0,.1-.1l1.9-2.1a1.7,1.7,0,0,1,2.4-.2v.2l1.9,2.1a1,1,0,0,0,1.4.1.1.1,0,0,0,.1-.1l1.9-2.1a1.7,1.7,0,0,1,2.4-.2v.2Z"/><path class="cls-17" d="M130.5,115.9l-.5.4-2.9-3.2a1.1,1.1,0,0,0-1.4-.1h-.1l-1.9,2.2a1.7,1.7,0,0,1-2.4.2.2.2,0,0,0-.2-.2l-1.8-2.2a1.1,1.1,0,0,0-1.4-.1h-.1l-1.9,2.2a1.7,1.7,0,0,1-2.4.2v-.2l-1.9-2.2a1.1,1.1,0,0,0-1.4-.1H110l-2.9,3.4-.5-.4,2.8-3.4a1.7,1.7,0,0,1,2.4-.2c.1.1.2.1.2.2l1.8,2.1a1,1,0,0,0,1.5.1.1.1,0,0,0,.1-.1l1.8-2.1a1.7,1.7,0,0,1,2.4-.2c.1.1.2.1.2.2l1.8,2.1a1,1,0,0,0,1.5.1.1.1,0,0,0,.1-.1l1.8-2.1a1.7,1.7,0,0,1,2.4-.2c.1.1.2.1.2.2Z"/><rect class="cls-16" x="328.9" y="107" width="3.5" height="9.77"/><rect class="cls-16" x="321.5" y="109.1" width="3.5" height="7.6"/><rect class="cls-16" x="314" y="111.9" width="3.5" height="4.88"/><line class="cls-16" x1="311.1" y1="116.7" x2="335.2" y2="116.7"/><rect class="cls-16" x="318.8" y="81.6" width="12.2" height="12.16" rx="2.9" ry="2.9"/><rect class="cls-16" x="312.7" y="87.7" width="12.2" height="12.16" rx="2.9" ry="2.9"/><rect class="cls-16" x="386.6" y="67.6" width="8.4" height="8.37"/><rect class="cls-16" x="375.1" y="83.1" width="8.4" height="8.37"/><rect class="cls-16" x="386.6" y="83.1" width="8.4" height="8.37"/><rect class="cls-16" x="398.2" y="83.1" width="8.4" height="8.37"/><rect class="cls-16" x="380.7" y="98.6" width="8.4" height="8.37"/><rect class="cls-16" x="370.5" y="98.6" width="8.4" height="8.37"/><rect class="cls-16" x="403.4" y="98.6" width="8.4" height="8.37"/><rect class="cls-16" x="393.2" y="98.6" width="8.4" height="8.37"/><line class="cls-16" x1="390.8" y1="76" x2="390.8" y2="83.1"/><path class="cls-16" d="M402.2,83.1,391.1,76"/><line class="cls-16" x1="380" y1="83.1" x2="390.3" y2="76"/><line class="cls-16" x1="375.1" y1="98.6" x2="379.7" y2="91.5"/><line class="cls-16" x1="379.9" y1="91.5" x2="384.5" y2="98.6"/><line class="cls-16" x1="397.7" y1="98.6" x2="402.3" y2="91.5"/><line class="cls-16" x1="402.5" y1="91.5" x2="407.1" y2="98.6"/><path class="cls-18" d="M349.7,118.1l1.9-3.4h1.3l-2.5,4.3,2.6,4.4h-1.3l-2-3.5-1.9,3.5h-1.3l2.6-4.4-2.5-4.3h1.3Z"/><path class="cls-18" d="M419.7,68.8l1.2-2.1h.7l-1.5,2.6,1.6,2.7h-.8l-1.2-2.1L418.6,72h-.8l1.5-2.7-1.5-2.6h.8Z"/><path class="cls-18" d="M299,102.4l.3.8,2-4.9h1.2l-3.3,7.4-.2.5-.5.5a1,1,0,0,1-.5.4l-.8.2h-.7l.2-.9h.9l.4-.3c.1-.1.1-.2.2-.4l.2-.3.4-.8-2.7-6.1h1.2Z"/><path class="cls-18" d="M411.7,155v.4l1.1-2.6h.6l-1.7,3.9-.2.3-.2.3-.3.2h-.8v-.4h.5l.2-.2h.1v-.2l.3-.5-1.5-3.2h.6Z"/><path class="cls-16" d="M356.3,143.4v-4.9a4.7,4.7,0,0,0-3,1,4.9,4.9,0,0,0,6,7.8,5.2,5.2,0,0,0,1.9-3.9Z"/><path class="cls-16" d="M362.2,142.3a4.9,4.9,0,0,0-1-3,5.1,5.1,0,0,0-3.9-1.9v4.9Z"/><path class="cls-16" d="M347.7,89.2a7.2,7.2,0,1,0,7.2-7.2"/><path class="cls-3" d="M360.6,89.4a5.7,5.7,0,0,1-5.7,5.7,5.8,5.8,0,0,1-1.9-.3l2-5.4V83.6A5.9,5.9,0,0,1,360.6,89.4Z"/><path class="cls-16" d="M303.2,140.4h-.3a.9.9,0,0,1-1.2-.6l-2.7-7v-.2h0a4.7,4.7,0,0,1-5.1-4.2,4.6,4.6,0,0,1,4.2-5,4.6,4.6,0,0,1,3,8.4v.2l2.7,7A1,1,0,0,1,303.2,140.4Z"/><circle class="cls-3" cx="298.4" cy="128.1" r="3.6"/><path class="cls-16" d="M287.6,117.3a2.7,2.7,0,0,1-1.2.3H273.1a3,3,0,0,1-3.1-2.9,2.8,2.8,0,0,1,2.8-3,4.1,4.1,0,0,1,7.5-3.1,2.9,2.9,0,0,1,3.9-.8,2.8,2.8,0,0,1,.8,3.9,3.1,3.1,0,0,1,4.1,1.6A3,3,0,0,1,287.6,117.3Z"/><path class="cls-3" d="M428.3,121.2a2.6,2.6,0,0,1-2.6,2.6,2.6,2.6,0,0,1-2.5-2.6,2.5,2.5,0,0,1,2.5-2.5,2.7,2.7,0,0,1,1.2.3.8.8,0,0,0-.2.5.8.8,0,0,0,.8.7h.5A2,2,0,0,1,428.3,121.2Z"/><path class="cls-16" d="M436.5,121.2a14.1,14.1,0,0,1-21.5,0,14.1,14.1,0,0,1,21.5,0Z"/><circle class="cls-16" cx="425.7" cy="121.2" r="5"/><path class="cls-19" d="M384.1,232.9a2.7,2.7,0,0,0,3.2-2,2.8,2.8,0,0,0-2.1-3.3,2.7,2.7,0,0,0-3.2,2.1A2.7,2.7,0,0,0,384.1,232.9Z"/><path class="cls-19" d="M372.4,242.5a2.8,2.8,0,0,0,3.2-2.1,2.8,2.8,0,0,0-2.1-3.2,2.7,2.7,0,1,0-1.1,5.3Z"/><path class="cls-19" d="M395.5,243.7a2.7,2.7,0,0,0,1.1-5.3,2.7,2.7,0,1,0-1.1,5.3Z"/><polyline class="cls-20" points="396.1 241 384.6 230.3 372.9 239.9"/><path class="cls-21" d="M123.3,59.5a2,2,0,1,0,3.9-1.1,2,2,0,0,0-2.5-1.4A1.9,1.9,0,0,0,123.3,59.5Z"/><path class="cls-21" d="M112.7,55.1a2,2,0,0,0,2.5,1.4,2,2,0,0,0,1.4-2.5,1.9,1.9,0,0,0-2.5-1.4A2,2,0,0,0,112.7,55.1Z"/><path class="cls-21" d="M120.1,71a2.1,2.1,0,0,0,2.6,1.4,2.1,2.1,0,0,0-1.2-4A2.2,2.2,0,0,0,120.1,71Z"/><polyline class="cls-22" points="122.1 70.4 125.2 59 114.6 54.5"/><circle class="cls-16" cx="250" cy="55.4" r="1.5"/><circle class="cls-16" cx="281.5" cy="213.9" r="2.3"/><circle class="cls-16" cx="432.3" cy="234.7" r="2.3"/><circle class="cls-16" cx="113.2" cy="240.5" r="2.3"/></svg>