<svg id="Layer_1" data-name="Layer 1" xmlns="http://www.w3.org/2000/svg" viewBox="0 0 540 300"><defs><style>.cls-1{fill:#186399;}.cls-2{fill:#42a6ed;}.cls-3{fill:#44a4eb;}.cls-4{fill:#9ed6ff;}.cls-5{fill:#73c2fb;}.cls-6{fill:#ffa514;}.cls-7{fill:#faf8f5;}.cls-8{fill:none;stroke:#186399;stroke-miterlimit:10;stroke-width:2px;}</style></defs><title>About Libre AI</title><path class="cls-1" d="M218.2,280.8c-12,0-21.5-3.9-28.1-11.5-13.7-15.6-10.5-41.3-10.3-42.4l4.4.6c0,.2-3.1,24.8,9.3,38.9,5.7,6.5,14.1,9.8,24.7,9.8s19.2-3.3,25.3-10c12.7-14,10.6-38.2,10.6-38.5l4.4-.4c.2,1.1,2.4,26.5-11.7,42C239.9,276.9,230.3,280.8,218.2,280.8Z"/><path class="cls-2" d="M324.1,127.8a6.8,6.8,0,0,1,9.6-1h0a6.9,6.9,0,0,1,1.5,8.8"/><path class="cls-3" d="M333.6,120.6c-5.5-.5-8.4,6.9-3.6,9.9s10.4-2.7,7.4-7.6c-.6-1-2.3,0-1.7,1,2,3.2-1.5,7.1-4.7,5s-.9-6.7,2.6-6.4c1.2.2,1.2-1.8,0-1.9Z"/><path class="cls-1" d="M332.2,133.5l-.9-.6-16.5,31.6a11.7,11.7,0,0,1-4.4,4.7h-.1a12.6,12.6,0,0,1-6.8,2,12.3,12.3,0,0,1-10.7-5.8l-6.2-9.8-1.9-3c-3.1-5-5.8-9.2-10.3-9.2v-4.6c7,0,10.8,6.1,14.1,11.4.6,1,1.2,2,1.9,3l6.2,9.8a8.2,8.2,0,0,0,11.2,2.4h.2a7.3,7.3,0,0,0,2.8-3l16.8-32.2-.8-.5a3,3,0,0,1,1.7-1.2h0a1.8,1.8,0,0,1,1-.2,3.3,3.3,0,0,1,1.9.6,3.3,3.3,0,0,1,.8,4.6Z"/><path class="cls-2" d="M156.8,213.3a6.9,6.9,0,0,1-5.7,7.8,7,7,0,0,1-7.8-5.8,12.9,12.9,0,0,1,0-2Z"/><path class="cls-3" d="M152.6,224.1c4.9-2.8,3-10.7-2.8-10.2a5.4,5.4,0,0,0-1.7,10.4c1.1.5,2.1-1.2,1-1.7-3.2-1.4-3.2-6.2.6-6.8s5.2,4.7,1.9,6.6C150.5,223,151.5,224.7,152.6,224.1Z"/><path class="cls-1" d="M162.3,138.1v4.6a10.2,10.2,0,0,0-10.1,10.2v60.4h1a3.5,3.5,0,0,1-1,2.4l-.7.5a3.6,3.6,0,0,1-3.2,0l-.7-.5a3.5,3.5,0,0,1-1-2.4h1V152.9A14.9,14.9,0,0,1,162.3,138.1Z"/><path class="cls-2" d="M212.8,272.9v8a3,3,0,0,1-2.8,2.8h0a2.8,2.8,0,0,1-2.7-2.8v-8a2.8,2.8,0,0,1,2.7-2.8h0A3,3,0,0,1,212.8,272.9Z"/><path class="cls-2" d="M229.4,272.9v8a3,3,0,0,1-2.8,2.8h0a2.8,2.8,0,0,1-2.7-2.8v-8a2.8,2.8,0,0,1,2.7-2.8h0A3,3,0,0,1,229.4,272.9Z"/><rect class="cls-1" x="209.5" y="264.4" width="17.4" height="25.2" rx="6.7" ry="6.7"/><path class="cls-4" d="M164.2,71.8a53,53,0,0,1,53-52.8h0a52.7,52.7,0,0,1,52.7,52.7"/><path class="cls-2" d="M192.5,228.3a10.3,10.3,0,1,1-14.6-14.6h0"/><path class="cls-1" d="M186.2,225a3.5,3.5,0,0,1-4.9.1h-.1a3.6,3.6,0,0,1,0-5.1h0"/><path class="cls-2" d="M258,214.2a10.3,10.3,0,0,1,0,14.5,10.4,10.4,0,0,1-14.6,0"/><path class="cls-1" d="M254.6,220.6a3.6,3.6,0,0,1,0,5.1h0a3.5,3.5,0,0,1-4.9.1h-.1"/><path class="cls-5" d="M165,132.9H271.6v49.8a53,53,0,0,1-53,53h-.4a53.1,53.1,0,0,1-53.2-53h0V132.9Z"/><path class="cls-2" d="M271.5,132.9a10.3,10.3,0,1,1,0,20.6"/><path class="cls-1" d="M271.5,139.9a3.3,3.3,0,1,1,0,6.6"/><path class="cls-2" d="M266,71.4A10.3,10.3,0,1,1,266,92h0"/><path class="cls-2" d="M168.1,92.3a10.3,10.3,0,1,1,0-20.6h0"/><path class="cls-1" d="M164.2,84.3a2.3,2.3,0,0,1-2.3-2.3h0a2.3,2.3,0,0,1,2.2-2.4h.1"/><path class="cls-1" d="M269.9,79.1a2.3,2.3,0,1,1,0,4.6h0"/><path class="cls-2" d="M165.1,153.5a10.3,10.3,0,1,1,0-20.6"/><path class="cls-6" d="M224.5,65.1a1.2,1.2,0,1,1-1.2-1.2h0A1.2,1.2,0,0,1,224.5,65.1Z"/><path class="cls-6" d="M208.7,58.9a1.2,1.2,0,1,1-1.2-1.2h0A1.2,1.2,0,0,1,208.7,58.9Z"/><path class="cls-6" d="M223.5,46.5a1.3,1.3,0,0,1-2.5.1h0a1.3,1.3,0,0,1,1.3-1.3h0a1.2,1.2,0,0,1,1.2,1.2Z"/><path class="cls-1" d="M220.5,33.9a35.4,35.4,0,0,0-37.9,32.5h0c0,.7-.1,1.3-.1,2a24.1,24.1,0,0,0,0,3.8l3.2-.2c-.1-1-.1-2-.1-3h15.6a8,8,0,0,0,5.4-2.5,7.5,7.5,0,0,0,1.8-3.4,4.4,4.4,0,1,0-5.2-3.4,4.5,4.5,0,0,0,2.1,2.9,4,4,0,0,1-1,1.8,4.3,4.3,0,0,1-3.2,1.4H185.8a32.2,32.2,0,0,1,19.7-26.5,8.5,8.5,0,0,0,2,5.5c1.8,2.1,4.8,3.2,8.8,3.2h1.9a4.3,4.3,0,0,0,5.4,2.8,4.2,4.2,0,0,0,3-4.3,4.3,4.3,0,0,0-8.4-1.6c-4,.3-6.9-.4-8.4-2a5.8,5.8,0,0,1-1.1-4.6,32.1,32.1,0,0,1,38.7,17.8H229.6a7.1,7.1,0,0,0-5.8,2.3,5.6,5.6,0,0,0-1.3,2.4,4.4,4.4,0,1,0,5.2,4.4,4.5,4.5,0,0,0-2.1-3.8,3.1,3.1,0,0,1,.5-1,4.9,4.9,0,0,1,3.5-1.1h19A31.5,31.5,0,0,1,250,71.6V72h3.2v-.2A35.5,35.5,0,0,0,220.5,33.9Zm-13,23.8a1.2,1.2,0,1,1-1.2,1.2h0A1.2,1.2,0,0,1,207.5,57.7Zm16-11.2a1.3,1.3,0,0,1-2.5.1h0a1.3,1.3,0,0,1,1.3-1.3h0a1.2,1.2,0,0,1,1.2,1.2Zm-.2,19.8a1.2,1.2,0,1,1,1.2-1.2h0A1.2,1.2,0,0,1,223.3,66.3Z"/><path class="cls-5" d="M269.9,71.4v34.8a18.1,18.1,0,0,1-18,18.2H182.4a18.1,18.1,0,0,1-18.2-18h0V71.7"/><rect class="cls-2" x="172.6" y="79.8" width="88.8" height="21.55" rx="6.9" ry="6.9"/><path class="cls-1" d="M190.5,86v9.4c0,2.6,4.1,2.6,4.1,0V86C194.6,83.4,190.5,83.4,190.5,86Z"/><path class="cls-1" d="M238.7,85.6V95c0,2.6,4.1,2.6,4.1,0V85.6a2.2,2.2,0,0,0-2.5-1.6A2.2,2.2,0,0,0,238.7,85.6Z"/><path class="cls-2" d="M175.3,142h85.3a40.1,40.1,0,0,1-40,40h-5.2a40.1,40.1,0,0,1-40.1-40Z"/><path class="cls-1" d="M222.4,105.8c-.3,6.6-9.9,6.7-10.3,0,0-1.2-2-1.2-1.9,0a7.1,7.1,0,1,0,14.2,0h0C224.4,104.6,222.5,104.6,222.4,105.8Z"/><path class="cls-4" d="M174.1,108.6a5.9,5.9,0,0,0,3.2,7.8h.2a6,6,0,0,0,7.9-3.2h0a6.2,6.2,0,0,0-3.2-7.9A6.3,6.3,0,0,0,174.1,108.6Z"/><path class="cls-4" d="M250.1,108.6a6.1,6.1,0,0,0,11.3,4.8h0a6.1,6.1,0,1,0-11.3-4.8Z"/><path class="cls-1" d="M165.1,139.7a3.3,3.3,0,1,0,0,6.6h0"/><path class="cls-1" d="M219.7,155.8a3.2,3.2,0,0,1,2.7,3.3,3.3,3.3,0,0,1-.7,1.6l-1.6,2-3.2,3.9-3.1-4-1.5-1.9a3,3,0,0,1,2-4.9h.3a3.6,3.6,0,0,1,2.4.9,3.6,3.6,0,0,1,2.4-.9Z"/><path class="cls-7" d="M438.6,59a32.1,32.1,0,0,1-32,32H340.8a32,32,0,0,1-16-4.3C306,99.4,291,91.2,291,91.2a35.5,35.5,0,0,0,21.4-17.5,32,32,0,0,1,13.7-43.1A31.6,31.6,0,0,1,340.8,27h65.8a32,32,0,0,1,32,32Z"/><path d="M345.8,52.2h-.9V48.8h-3.1v3.4h-.9V44.8h.9V48h3.1V44.8h.9Z"/><path d="M348.1,46.7h2.8v4.7h1.8v.8h-4.6v-.8h1.8V47.5h-1.8Zm1.7-1.5a.8.8,0,0,1,.2-.4h.8a.6.6,0,0,1,.1.4c0,.2,0,.3-.1.4h-.4c-.2,0-.4,0-.4-.1Z"/><path d="M357.1,52v.5l-.2.5-.3.5-.4.4-.6-.3a2,2,0,0,0,.4-.8,2.2,2.2,0,0,0,.1-.8v-.9h1Z"/><path d="M373,52.2h-.9V48.8h-3v3.4h-.9V44.8h.9V48h3V44.8h.9Z"/><path d="M378.7,51.4c-.1.3-.4.5-.6.7l-1,.2h-.8l-.6-.5c-.2-.1-.3-.4-.4-.7a3.4,3.4,0,0,1-.1-1V46.7h.9V50c0,.3.1.5.1.7a.8.8,0,0,0,.2.5l.4.2h.4l1-.2a1.8,1.8,0,0,0,.5-.7V46.7h1v5.5h-.9Z"/><path d="M382.4,46.7v.5l.5-.5h.6a1.1,1.1,0,0,1,1.1.6,1,1,0,0,1,.4-.5h.6a1.7,1.7,0,0,1,1,.3,2.7,2.7,0,0,1,.3,1.2v4.1H386V48.1c0-.5-.2-.7-.6-.7h-.5c-.1.1-.1.2-.2.2v4.5h-.9V48c0-.2-.1-.3-.2-.5h-.9l-.2.3v4.4h-.9V46.7Z"/><path d="M392.4,52.2a.4.4,0,0,0-.1-.3v-.3l-.3.3-.4.2h-1.8l-.6-.4a1,1,0,0,1-.4-.5,1.3,1.3,0,0,1-.1-.6,1.9,1.9,0,0,1,.2-.8,1,1,0,0,1,.5-.6,1.1,1.1,0,0,1,.8-.3l1-.2h1.1v-.4c0-.2-.1-.3-.1-.4l-.3-.4-.4-.2h-1a.5.5,0,0,0-.4.2l-.3.3v.3h-1a1.4,1.4,0,0,1,.2-.6,1,1,0,0,1,.4-.5l.7-.4h1.8l.7.3.4.6a1.1,1.1,0,0,1,.2.8V51a1.3,1.3,0,0,0,.1.6.7.7,0,0,0,.1.5h-1Zm-1.7-.7h.6l.4-.2.3-.3.3-.3V49.5h-.9a2.8,2.8,0,0,0-1.3.3.8.8,0,0,0-.5.7c0,.2.1.3.1.4l.2.3.4.2Z"/><path d="M396.4,46.7v.8a2.7,2.7,0,0,1,.8-.7,1.5,1.5,0,0,1,.9-.2h.8a.7.7,0,0,1,.6.4c.2.1.3.4.4.6a3.6,3.6,0,0,1,.2,1v3.5h-1V48.7a1.3,1.3,0,0,0-.1-.6.5.5,0,0,0-.2-.4l-.4-.3H398a1.5,1.5,0,0,0-.9.2l-.6.6v4h-.9V46.7Z"/><path d="M404,51.7a.5.5,0,0,1,.2-.4c0-.1.2-.2.4-.2a.6.6,0,0,1,.6.6h0c-.1.2-.1.3-.2.4l-.4.2c-.2,0-.4-.1-.4-.2A.5.5,0,0,1,404,51.7Zm1-1.9h-.9v-5h.9Z"/><path d="M341.1,62.3h4.5v.8h-1.8v5.8h1.8v.8h-4.5v-.8h1.7V63.1h-1.7Z"/><path d="M350.4,62.4l-.2,1.9h-.7V61.8h.9Z"/><path d="M355.2,64.2v.5a1,1,0,0,1,.4-.5h.7a1.1,1.1,0,0,1,1,.6l.4-.5h.7l.9.3a2.7,2.7,0,0,1,.3,1.2v4.1h-.9V65.6c0-.5-.2-.7-.6-.7h-.5v4.7h-.9V65.5a.9.9,0,0,0-.1-.5h-1l-.2.3v4.4h-.9V64.2Z"/><path d="M369.4,68.9h3.7v.8h-4.6V62.3h.9Z"/><path d="M378.8,69.7c0-.1-.1-.2-.1-.3v-.3l-.4.3-.4.2h-1.7a.7.7,0,0,1-.6-.4,1,1,0,0,1-.4-.5,1.3,1.3,0,0,1-.1-.6,2.2,2.2,0,0,1,.1-.8c.2-.3.3-.5.6-.6a1.1,1.1,0,0,1,.8-.3l1-.2h1v-.4c0-.2,0-.3-.1-.4a.5.5,0,0,0-.2-.4l-.4-.2h-1.1l-.3.2-.3.3c0,.1-.1.2-.1.3h-.9a1.3,1.3,0,0,1,.1-.6,1.2,1.2,0,0,1,.5-.5l.7-.4h1.8l.7.3.4.6a1.9,1.9,0,0,1,.2.8V69c.1.2.1.4.2.5h-1Zm-1.7-.7h.5l.5-.2.3-.3.2-.3V67h-.8a2.8,2.8,0,0,0-1.3.3.8.8,0,0,0-.5.7c0,.2,0,.3.1.4l.2.3.3.2Z"/><path d="M382.1,64.2h2.8v4.7h1.9v.8h-4.7v-.8H384V65h-1.9Zm1.8-1.5a.6.6,0,0,1,.1-.4h.9a.6.6,0,0,1,.1.4c0,.2,0,.3-.1.4H384C383.9,63,383.9,62.9,383.9,62.7Z"/><path d="M388.9,61.8h2.9v7.1h1.8v.8h-4.7v-.8h1.9V62.7h-1.9Z"/><path d="M399.2,69.7a.4.4,0,0,0-.1-.3v-.3l-.3.3-.4.2h-1.8l-.6-.4-.4-.5a1.3,1.3,0,0,1-.1-.6,1.9,1.9,0,0,1,.2-.8,1,1,0,0,1,.5-.6,1.1,1.1,0,0,1,.8-.3l1-.2h1.1v-.4c0-.2-.1-.3-.1-.4l-.3-.4-.4-.2h-1l-.4.2-.2.3a.4.4,0,0,0-.1.3h-1a1.4,1.4,0,0,1,.2-.6,1,1,0,0,1,.4-.5l.7-.4h1.8l.7.3.5.6a2.2,2.2,0,0,1,.1.8v2.6a1.3,1.3,0,0,0,.1.6c0,.2.1.3.1.5h-1Zm-1.6-.7h.5l.4-.2.4-.3.2-.3V67h-.9a2.8,2.8,0,0,0-1.3.3.8.8,0,0,0-.5.7c0,.2.1.3.1.4l.2.3a.5.5,0,0,0,.4.2Z"/><path class="cls-1" d="M149,33.6h-.2l-.5.2-.4.2-1.8,8.8a3.9,3.9,0,0,1,1.5,1.6,2.8,2.8,0,0,1,0,2.5,3.5,3.5,0,0,1-1.7,1.9,3.1,3.1,0,0,1-1.3.3,2.7,2.7,0,0,1-1.2-.3,3.5,3.5,0,0,1-1.9-1.7,1.4,1.4,0,0,0-.2-.6l-9.3-.7a3.4,3.4,0,0,1-2,1.7h-.8a3.7,3.7,0,0,1-2.7-1.3,3.3,3.3,0,0,1,.6-4.6,2.4,2.4,0,0,1,1.1-.6,3.3,3.3,0,0,1,4.1,2.3h0c0,.2.1.3.1.5l9.1.6A2.9,2.9,0,0,1,143,43l.3-.2.8-.2,1.8-8.8a3,3,0,0,1-1.7-1.8,3.4,3.4,0,0,1,1.9-4.1h.1a2.9,2.9,0,0,1,2.4-.1,2.5,2.5,0,0,1,1.7,1.6,3.1,3.1,0,0,1-1.1,4.1Z"/><path class="cls-1" d="M417.8,111.1v.2a3.3,3.3,0,0,1-2.8,1.6,2.3,2.3,0,0,1-1.4-.4l-.6-.3-8.3,5.2a2.9,2.9,0,0,1-.3,2.2,1.8,1.8,0,0,1-.6.9l3.8,8.3a2.5,2.5,0,0,1,1.7.3h.2a3.3,3.3,0,0,1,1.1,4.5,3.5,3.5,0,0,1-2.6,1.6,3.2,3.2,0,0,1-1.4-.3,3.3,3.3,0,0,1-1.5-4.4l.7-.9h0l-3.8-8.3h-.5a3.1,3.1,0,0,1-1.3-.3H400a3.1,3.1,0,0,1-1.6-4.1l.2-.3a3.5,3.5,0,0,1,1.9-1.7,3.7,3.7,0,0,1,2.5.3,1.8,1.8,0,0,1,.7.5l8.2-5.2a3.2,3.2,0,0,1,1.9-4,3,3,0,0,1,2.6.3A3.2,3.2,0,0,1,417.8,111.1Z"/><path class="cls-1" d="M396.7,232.3a3.4,3.4,0,0,1-3.4,2.7h-.4a3.3,3.3,0,0,1-2.7-3.8,1.9,1.9,0,0,1,.2-.7l-7.4-6.2a3.4,3.4,0,0,1-1.7.5h-.5l-1.1-.4-6.9,6.3a2.8,2.8,0,0,1,.3,1.8h0a3.6,3.6,0,0,1-1.3,2.1,3.7,3.7,0,0,1-1.8.5h-.5a3.2,3.2,0,0,1-2.7-3.6h0a3.3,3.3,0,0,1,3.5-2.7l1.2.4,6.9-6.2a3.2,3.2,0,0,1,1-4,3.5,3.5,0,0,1,2.4-.6,3.3,3.3,0,0,1,2.7,3.7,1.9,1.9,0,0,1-.2.7l7.3,6.2a3.3,3.3,0,0,1,4.5.8A4,4,0,0,1,396.7,232.3Z"/><circle class="cls-8" cx="141" cy="118" r="3"/><circle class="cls-8" cx="309" cy="201" r="3"/><circle class="cls-8" cx="291" cy="52" r="3"/><circle class="cls-8" cx="421" cy="219" r="3"/><circle class="cls-8" cx="380" cy="264" r="3"/><path class="cls-1" d="M325.2,224.3l-1.3,1.3-4.1-4.5a.9.9,0,0,0-1.3-.2h0l-.2.2-2.3,2.7a2.8,2.8,0,0,1-3.8.4h-.1l-.2-.3-2.4-2.7a.9.9,0,0,0-1.3-.2h-.1l-2.4,2.9a3.1,3.1,0,0,1-1.8.9,2.2,2.2,0,0,1-1.9-.6h-.2l-.2-.3-2.4-2.7a.9.9,0,0,0-1.3-.2h0l-4.1,4.8-1.4-1.2,4.1-4.7a2.7,2.7,0,0,1,3.7-.3l.3.3,2.5,2.8a.7.7,0,0,0,.6.3.7.7,0,0,0,.6-.1h.2l2.3-2.8a2.8,2.8,0,0,1,3.8-.3h.1l.2.3,2.4,2.7a.7.7,0,0,0,.6.4.8.8,0,0,0,.7-.2l.2-.2L317,220a2.8,2.8,0,0,1,3.8-.3h.1l.2.3Z"/><path class="cls-1" d="M396.2,191.2l-1.3,1.3-4.1-4.6a1.2,1.2,0,0,0-1.3-.2l-.2.2-2.3,2.7a2.7,2.7,0,0,1-3.8.4h-.1l-.2-.3-2.4-2.7a1.2,1.2,0,0,0-1.3-.2v.2l-2.4,2.8a3.1,3.1,0,0,1-1.8.9,2.2,2.2,0,0,1-1.9-.6h-.2l-.2-.3-2.4-2.7a.9.9,0,0,0-1.3-.2v.2l-4.1,4.7-1.4-1.1,4.1-4.8a2.9,2.9,0,0,1,3.7-.3l.3.3,2.5,2.9a.7.7,0,0,0,.6.3l.6-.2h.2l2.3-2.8a2.8,2.8,0,0,1,3.8-.3h.1l.2.2,2.4,2.8.6.3a.8.8,0,0,0,.7-.2h.2l2.3-2.8a2.8,2.8,0,0,1,3.8-.3h.1l.2.2Z"/><path class="cls-1" d="M166.4,256.9l-1.2,1.3-4.2-4.5a.9.9,0,0,0-1.3-.2h0v.2l-2.4,2.7a2.7,2.7,0,0,1-3.7.4h-.1l-.3-.3-2.3-2.7a.9.9,0,0,0-1.3-.2h-.1l-2.4,2.9a3.1,3.1,0,0,1-1.8.9,2.4,2.4,0,0,1-2-.6h-.1l-.2-.3-2.4-2.7a.9.9,0,0,0-1.3-.2h-.1l-4.1,4.8-1.3-1.2,4-4.7a2.8,2.8,0,0,1,3.8-.3l.3.3,2.4,2.8.6.3a.9.9,0,0,0,.7-.1h.1l2.4-2.8a2.7,2.7,0,0,1,3.8-.3h.1l.2.3,2.4,2.7a.7.7,0,0,0,.6.4l.7-.2v-.2l2.4-2.7a2.6,2.6,0,0,1,3.7-.3h.1l.2.3Z"/><path class="cls-1" d="M325.2,238.1l-1.3,1.3-4.1-4.5a.9.9,0,0,0-1.3-.2h0l-.2.2-2.3,2.7a2.8,2.8,0,0,1-3.8.4h-.1l-.2-.3-2.4-2.7a.9.9,0,0,0-1.3-.2h-.1l-2.4,2.9a3.1,3.1,0,0,1-1.8.9,2.2,2.2,0,0,1-1.9-.6h-.2l-.2-.3-2.4-2.7a.9.9,0,0,0-1.3-.2h0l-4.1,4.8-1.4-1.2,4.1-4.7a2.7,2.7,0,0,1,3.7-.3l.3.3,2.5,2.8a.7.7,0,0,0,.6.3.7.7,0,0,0,.6-.1h.2l2.3-2.8a2.7,2.7,0,0,1,3.8-.3h.1l.2.3,2.4,2.7c.2.2.4.4.6.4l.7-.2.2-.2,2.3-2.7a2.7,2.7,0,0,1,3.8-.3h.1l.2.3Z"/></svg>