<svg xmlns="http://www.w3.org/2000/svg" id="Layer_1" data-name="Layer 1" viewBox="0 0 540 300">
  <defs>
    <style>
      .cls-1{fill:#186399}.cls-2{fill:#42a6ed}.cls-3{fill:#44a4eb}.cls-4{fill:#9ed6ff}.cls-5{fill:#73c2fb}.cls-6{fill:#ffa514}.cls-8{fill:none;stroke:#186399;stroke-miterlimit:10;stroke-width:2px}
    </style>
  </defs>
  <path d="M218.2 280.8c-12 0-21.5-3.9-28.1-11.5-13.7-15.6-10.5-41.3-10.3-42.4l4.4.6c0 .2-3.1 24.8 9.3 38.9 5.7 6.5 14.1 9.8 24.7 9.8s19.2-3.3 25.3-10c12.7-14 10.6-38.2 10.6-38.5l4.4-.4c.2 1.1 2.4 26.5-11.7 42-6.9 7.6-16.5 11.5-28.6 11.5z" class="cls-1"/>
  <path d="M324.1 127.8a6.8 6.8 0 0 1 9.6-1 6.9 6.9 0 0 1 1.5 8.8" class="cls-2"/>
  <path d="M333.6 120.6c-5.5-.5-8.4 6.9-3.6 9.9s10.4-2.7 7.4-7.6c-.6-1-2.3 0-1.7 1 2 3.2-1.5 7.1-4.7 5s-.9-6.7 2.6-6.4c1.2.2 1.2-1.8 0-1.9z" class="cls-3"/>
  <path d="M332.2 133.5l-.9-.6-16.5 31.6a11.7 11.7 0 0 1-4.4 4.7h-.1a12.6 12.6 0 0 1-6.8 2 12.3 12.3 0 0 1-10.7-5.8l-6.2-9.8-1.9-3c-3.1-5-5.8-9.2-10.3-9.2v-4.6c7 0 10.8 6.1 14.1 11.4.6 1 1.2 2 1.9 3l6.2 9.8a8.2 8.2 0 0 0 11.2 2.4h.2a7.3 7.3 0 0 0 2.8-3l16.8-32.2-.8-.5a3 3 0 0 1 1.7-1.2 1.8 1.8 0 0 1 1-.2 3.3 3.3 0 0 1 1.9.6 3.3 3.3 0 0 1 .8 4.6z" class="cls-1"/>
  <path d="M156.8 213.3a6.9 6.9 0 0 1-5.7 7.8 7 7 0 0 1-7.8-5.8 6.7 6.7 0 0 1 0-2z" class="cls-2"/>
  <path d="M152.6 224.1c4.9-2.8 3-10.7-2.8-10.2a5.4 5.4 0 0 0-1.7 10.4c1.1.5 2.1-1.2 1-1.7-3.2-1.4-3.2-6.2.6-6.8s5.2 4.7 1.9 6.6c-1.1.6-.1 2.3 1 1.7z" class="cls-3"/>
  <path d="M162.3 138.1v4.6a10.2 10.2 0 0 0-10.1 10.2v60.4h1a3.5 3.5 0 0 1-1 2.4l-.7.5a3.6 3.6 0 0 1-3.2 0l-.7-.5a3.5 3.5 0 0 1-1-2.4h1v-60.4a14.9 14.9 0 0 1 14.7-14.8z" class="cls-1"/>
  <path d="M212.8 272.9v8a3 3 0 0 1-2.8 2.8 2.8 2.8 0 0 1-2.7-2.8v-8a2.8 2.8 0 0 1 2.7-2.8 3 3 0 0 1 2.8 2.8zM229.4 272.9v8a3 3 0 0 1-2.8 2.8 2.8 2.8 0 0 1-2.7-2.8v-8a2.8 2.8 0 0 1 2.7-2.8 3 3 0 0 1 2.8 2.8z" class="cls-2"/>
  <rect width="17.4" height="25.2" x="209.5" y="264.4" class="cls-1" rx="6.7" ry="6.7"/>
  <path d="M164.2 71.8a53 53 0 0 1 53-52.8 52.7 52.7 0 0 1 52.7 52.7" class="cls-4"/>
  <path d="M192.5 228.3a10.3 10.3 0 1 1-14.6-14.6" class="cls-2"/>
  <path d="M186.2 225a3.5 3.5 0 0 1-4.9.1h-.1a3.6 3.6 0 0 1 0-5.1" class="cls-1"/>
  <path d="M258 214.2a10.3 10.3 0 0 1 0 14.5 10.4 10.4 0 0 1-14.6 0" class="cls-2"/>
  <path d="M254.6 220.6a3.6 3.6 0 0 1 0 5.1 3.5 3.5 0 0 1-4.9.1h-.1" class="cls-1"/>
  <path d="M165 132.9h106.6v49.8a53 53 0 0 1-53 53h-.4a53.1 53.1 0 0 1-53.2-53v-49.8z" class="cls-5"/>
  <path d="M271.5 132.9a10.3 10.3 0 1 1 0 20.6" class="cls-2"/>
  <path d="M271.5 139.9a3.3 3.3 0 1 1 0 6.6" class="cls-1"/>
  <path d="M165.1 153.5a10.3 10.3 0 1 1 0-20.6" class="cls-2"/>
  <path d="M224.5 65.1a1.2 1.2 0 1 1-1.2-1.2 1.2 1.2 0 0 1 1.2 1.2zM208.7 58.9a1.2 1.2 0 1 1-1.2-1.2 1.2 1.2 0 0 1 1.2 1.2zM223.5 46.5a1.4 1.4 0 0 1-1.6 1 1.4 1.4 0 0 1-.9-.9 1.3 1.3 0 0 1 1.3-1.3 1.2 1.2 0 0 1 1.2 1.2z" class="cls-6"/>
  <path d="M220.5 33.9a35.4 35.4 0 0 0-37.9 32.5c0 .7-.1 1.3-.1 2a24.1 24.1 0 0 0 0 3.8l3.2-.2c-.1-1-.1-2-.1-3h15.6a7.8 7.8 0 0 0 5.4-2.5 7.5 7.5 0 0 0 1.8-3.4 4.4 4.4 0 1 0-5.2-3.4 4.5 4.5 0 0 0 2.1 2.9 4 4 0 0 1-1 1.8 4.3 4.3 0 0 1-3.2 1.4h-15.3a32.2 32.2 0 0 1 19.7-26.5 8.5 8.5 0 0 0 2 5.5c1.8 2.1 4.8 3.2 8.8 3.2h1.9a4.3 4.3 0 0 0 5.4 2.8 4.2 4.2 0 0 0 3-4.3 4.3 4.3 0 0 0-8.4-1.6c-4 .3-6.9-.4-8.4-2a5.8 5.8 0 0 1-1.1-4.6 32.1 32.1 0 0 1 38.7 17.8h-17.8a7.1 7.1 0 0 0-5.8 2.3 5.6 5.6 0 0 0-1.3 2.4 4.3 4.3 0 0 0-3.5 5.1 4.4 4.4 0 0 0 8.7-.7 4.5 4.5 0 0 0-2.1-3.8 3.1 3.1 0 0 1 .5-1 4.9 4.9 0 0 1 3.5-1.1h19a30.2 30.2 0 0 1 1.4 12.3v.4h3.2v-.2a35.5 35.5 0 0 0-32.7-37.9zm-13 23.8a1.2 1.2 0 1 1-1.2 1.2 1.2 1.2 0 0 1 1.2-1.2zm16-11.2a1.4 1.4 0 0 1-1.6 1 1.4 1.4 0 0 1-.9-.9 1.3 1.3 0 0 1 1.3-1.3 1.2 1.2 0 0 1 1.2 1.2zm-.2 19.8a1.2 1.2 0 1 1 1.2-1.2 1.2 1.2 0 0 1-1.2 1.2z" class="cls-1"/>
  <path d="M269.9 71.4v34.8a18.1 18.1 0 0 1-18 18.2h-69.5a18.1 18.1 0 0 1-18.2-18V71.7" class="cls-5"/>
  <rect width="88.8" height="21.55" x="172.6" y="79.8" class="cls-2" rx="6.9" ry="6.9"/>
  <path d="M190.5 86v9.4c0 2.6 4.1 2.6 4.1 0V86c0-2.6-4.1-2.6-4.1 0zM238.7 85.6V95c0 2.6 4.1 2.6 4.1 0v-9.4a2.2 2.2 0 0 0-2.5-1.6 2.2 2.2 0 0 0-1.6 1.6z" class="cls-1"/>
  <path d="M175.3 142h85.3a40.1 40.1 0 0 1-40 40h-5.2a40.1 40.1 0 0 1-40.1-40z" class="cls-2"/>
  <path d="M222.4 105.8c-.3 6.6-9.9 6.7-10.3 0 0-1.2-2-1.2-1.9 0a7.1 7.1 0 1 0 14.2 0c0-1.2-1.9-1.2-2 0z" class="cls-1"/>
  <path d="M174.1 108.6a5.9 5.9 0 0 0 3.1 7.8h.3a6 6 0 0 0 7.9-3.2 6.2 6.2 0 0 0-3.2-7.9 6.3 6.3 0 0 0-8.1 3.3zM250.1 108.6a6.1 6.1 0 0 0 11.3 4.8 6.1 6.1 0 1 0-11.3-4.8z" class="cls-4"/>
  <path d="M165.1 139.7a3.3 3.3 0 1 0 0 6.6M219.7 155.8a3.2 3.2 0 0 1 2.7 3.3 3.3 3.3 0 0 1-.7 1.6l-1.6 2-3.2 3.9-3.1-4-1.5-1.9a3 3 0 0 1 2-4.9h.3a3.6 3.6 0 0 1 2.4.9 3.6 3.6 0 0 1 2.4-.9z" class="cls-1"/>
  <path fill="#faf8f5" d="M438.6 59a32.1 32.1 0 0 1-32 32h-65.8a32.2 32.2 0 0 1-16-4.3C306 99.4 291 91.2 291 91.2a35.5 35.5 0 0 0 21.4-17.5 32 32 0 0 1 13.7-43.1 31.3 31.3 0 0 1 14.7-3.6h65.8a32 32 0 0 1 32 32z"/>
  <path d="M345.8 52.2h-.9v-3.4h-3.1v3.4h-.9v-7.4h.9V48h3.1v-3.2h.9zM348.1 46.7h2.8v4.7h1.8v.8h-4.6v-.8h1.8v-3.9h-1.8zm1.7-1.5a.8.8 0 0 1 .2-.4h.8a.6.6 0 0 1 .1.4c0 .2 0 .3-.1.4h-.4c-.2 0-.4 0-.4-.1zM357.1 52v.5l-.2.5-.3.5-.4.4-.6-.3a2 2 0 0 0 .4-.8 2.2 2.2 0 0 0 .1-.8v-.9h1zM373 52.2h-.9v-3.4h-3v3.4h-.9v-7.4h.9V48h3v-3.2h.9zM378.7 51.4c-.1.3-.4.5-.6.7l-1 .2h-.8l-.6-.5c-.2-.1-.3-.4-.4-.7a3.4 3.4 0 0 1-.1-1v-3.4h.9V50c0 .3.1.5.1.7a.8.8 0 0 0 .2.5l.4.2h.4l1-.2a1.8 1.8 0 0 0 .5-.7v-3.8h1v5.5h-.9zM382.4 46.7v.5l.5-.5h.6a1.1 1.1 0 0 1 1.1.6 1 1 0 0 1 .4-.5h.6a1.7 1.7 0 0 1 1 .3 2.7 2.7 0 0 1 .3 1.2v4.1h-.9v-4.3c0-.5-.2-.7-.6-.7h-.5c-.1.1-.1.2-.2.2v4.5h-.9V48c0-.2-.1-.3-.2-.5h-.9l-.2.3v4.4h-.9v-5.5zM392.4 52.2a.4.4 0 0 0-.1-.3v-.3l-.3.3-.4.2h-1.8l-.6-.4a1 1 0 0 1-.4-.5 1.3 1.3 0 0 1-.1-.6 1.9 1.9 0 0 1 .2-.8 1 1 0 0 1 .5-.6 1.1 1.1 0 0 1 .8-.3l1-.2h1.1v-.4c0-.2-.1-.3-.1-.4l-.3-.4-.4-.2h-1a.5.5 0 0 0-.4.2l-.3.3v.3h-1a1.4 1.4 0 0 1 .2-.6 1 1 0 0 1 .4-.5l.7-.4h1.8l.7.3.4.6a1.1 1.1 0 0 1 .2.8V51a1.3 1.3 0 0 0 .1.6.7.7 0 0 0 .1.5h-1zm-1.7-.7h.6l.4-.2.3-.3.3-.3v-1.2h-.9a2.8 2.8 0 0 0-1.3.3.8.8 0 0 0-.5.7c0 .2.1.3.1.4l.2.3.4.2zM396.4 46.7v.8a2.7 2.7 0 0 1 .8-.7 1.5 1.5 0 0 1 .9-.2h.8a.7.7 0 0 1 .6.4c.2.1.3.4.4.6a3.6 3.6 0 0 1 .2 1v3.5h-1v-3.4a1.3 1.3 0 0 0-.1-.6.5.5 0 0 0-.2-.4l-.4-.3h-.4a1.5 1.5 0 0 0-.9.2l-.6.6v4h-.9v-5.5zM404 51.7a.5.5 0 0 1 .2-.4c0-.1.2-.2.4-.2a.6.6 0 0 1 .6.6c-.1.2-.1.3-.2.4l-.4.2c-.2 0-.4-.1-.4-.2a.5.5 0 0 1-.2-.4zm1-1.9h-.9v-5h.9zM341.1 62.3h4.5v.8h-1.8v5.8h1.8v.8h-4.5v-.8h1.7v-5.8h-1.7zM350.4 62.4l-.2 1.9h-.7v-2.5h.9zM355.2 64.2v.5a1 1 0 0 1 .4-.5h.7a1.1 1.1 0 0 1 1 .6l.4-.5h.7l.9.3a2.7 2.7 0 0 1 .3 1.2v4.1h-.9v-4.3c0-.5-.2-.7-.6-.7h-.5v4.7h-.9v-4.1a.9.9 0 0 0-.1-.5h-1l-.2.3v4.4h-.9v-5.5zM369.4 68.9h3.7v.8h-4.6v-7.4h.9zM378.8 69.7c0-.1-.1-.2-.1-.3v-.3l-.4.3-.4.2h-1.7a.7.7 0 0 1-.6-.4 1 1 0 0 1-.4-.5 1.3 1.3 0 0 1-.1-.6 2.2 2.2 0 0 1 .1-.8c.2-.3.3-.5.6-.6a1.1 1.1 0 0 1 .8-.3l1-.2h1v-.4c0-.2 0-.3-.1-.4a.5.5 0 0 0-.2-.4l-.4-.2h-1.1l-.3.2-.3.3c0 .1-.1.2-.1.3h-.9a1.3 1.3 0 0 1 .1-.6 1.2 1.2 0 0 1 .5-.5l.7-.4h1.8l.7.3.4.6a1.9 1.9 0 0 1 .2.8V69c.1.2.1.4.2.5h-1zm-1.7-.7h.5l.5-.2.3-.3.2-.3V67h-.8a2.8 2.8 0 0 0-1.3.3.8.8 0 0 0-.5.7c0 .2 0 .3.1.4l.2.3.3.2zM382.1 64.2h2.8v4.7h1.9v.8h-4.7v-.8h1.9V65h-1.9zm1.8-1.5a.6.6 0 0 1 .1-.4h.9a.6.6 0 0 1 .1.4c0 .2 0 .3-.1.4h-.9c-.1-.1-.1-.2-.1-.4zM388.9 61.8h2.9v7.1h1.8v.8h-4.7v-.8h1.9v-6.2h-1.9zM399.2 69.7a.4.4 0 0 0-.1-.3v-.3l-.3.3-.4.2h-1.8l-.6-.4-.4-.5a1.3 1.3 0 0 1-.1-.6 1.9 1.9 0 0 1 .2-.8 1 1 0 0 1 .5-.6 1.1 1.1 0 0 1 .8-.3l1-.2h1.1v-.4c0-.2-.1-.3-.1-.4l-.3-.4-.4-.2h-1l-.4.2-.2.3a.4.4 0 0 0-.1.3h-1a1.4 1.4 0 0 1 .2-.6 1 1 0 0 1 .4-.5l.7-.4h1.8l.7.3.5.6a2.2 2.2 0 0 1 .1.8v2.6a1.3 1.3 0 0 0 .1.6c0 .2.1.3.1.5h-1zm-1.6-.7h.5l.4-.2.4-.3.2-.3V67h-.9a2.8 2.8 0 0 0-1.3.3.8.8 0 0 0-.5.7c0 .2.1.3.1.4l.2.3a.5.5 0 0 0 .4.2z"/>
  <path d="M149 33.6h-.2l-.5.2-.4.2-1.8 8.8a3.9 3.9 0 0 1 1.5 1.6 2.8 2.8 0 0 1 0 2.5 3.5 3.5 0 0 1-1.7 1.9 3.1 3.1 0 0 1-1.3.3 2.7 2.7 0 0 1-1.2-.3 3.5 3.5 0 0 1-1.9-1.7 1.4 1.4 0 0 0-.2-.6l-9.3-.7a3.4 3.4 0 0 1-2 1.7h-.8a3.7 3.7 0 0 1-2.7-1.3 3.3 3.3 0 0 1 .6-4.6 2.4 2.4 0 0 1 1.1-.6 3.3 3.3 0 0 1 4.1 2.3c0 .2.1.3.1.5l9.1.6A2.9 2.9 0 0 1 143 43l.3-.2.8-.2 1.8-8.8a3 3 0 0 1-1.7-1.8 3.4 3.4 0 0 1 1.9-4.1h.1a2.9 2.9 0 0 1 2.4-.1 2.5 2.5 0 0 1 1.7 1.6 3.1 3.1 0 0 1-1.1 4.1zM417.8 111.1v.2a3.3 3.3 0 0 1-2.8 1.6 2.3 2.3 0 0 1-1.4-.4l-.6-.3-8.3 5.2a2.9 2.9 0 0 1-.3 2.2 1.5 1.5 0 0 1-.6.9l3.8 8.3a2.5 2.5 0 0 1 1.7.3h.2a3.4 3.4 0 0 1 1.1 4.5 3.5 3.5 0 0 1-2.6 1.6 3.2 3.2 0 0 1-1.4-.3 3.3 3.3 0 0 1-1.5-4.4l.7-.9-3.8-8.3h-.5a3.1 3.1 0 0 1-1.3-.3h-.2a3.1 3.1 0 0 1-1.6-4.1l.2-.3a3.5 3.5 0 0 1 1.9-1.7 3.7 3.7 0 0 1 2.5.3 1.8 1.8 0 0 1 .7.5l8.2-5.2a3.2 3.2 0 0 1 1.9-4 3 3 0 0 1 2.6.3 3.2 3.2 0 0 1 1.4 4.3zM396.7 232.3a3.4 3.4 0 0 1-3.4 2.7h-.4a3.3 3.3 0 0 1-2.7-3.8 1.9 1.9 0 0 1 .2-.7l-7.4-6.2a3.4 3.4 0 0 1-1.7.5h-.5l-1.1-.4-6.9 6.3a2.8 2.8 0 0 1 .3 1.8 3.6 3.6 0 0 1-1.3 2.1 3.7 3.7 0 0 1-1.8.5h-.5a3.3 3.3 0 0 1-2.7-3.6 3.3 3.3 0 0 1 3.5-2.7l1.2.4 6.9-6.2a3.1 3.1 0 0 1 1-4 3.5 3.5 0 0 1 2.4-.6 3.3 3.3 0 0 1 2.7 3.7 1.9 1.9 0 0 1-.2.7l7.3 6.2a3.3 3.3 0 0 1 4.5.8 3.6 3.6 0 0 1 .6 2.5z" class="cls-1"/>
  <circle cx="141" cy="118" r="3" class="cls-8"/>
  <circle cx="309" cy="201" r="3" class="cls-8"/>
  <circle cx="291" cy="52" r="3" class="cls-8"/>
  <circle cx="421" cy="219" r="3" class="cls-8"/>
  <circle cx="380" cy="264" r="3" class="cls-8"/>
  <path d="M325.2 224.3l-1.3 1.3-4.1-4.5a.9.9 0 0 0-1.3-.2l-.2.2-2.3 2.7a2.8 2.8 0 0 1-3.8.4h-.1l-.2-.3-2.4-2.7a.9.9 0 0 0-1.3-.2h-.1l-2.4 2.9a3.1 3.1 0 0 1-1.8.9 2.2 2.2 0 0 1-1.9-.6h-.2l-.2-.3-2.4-2.7a.9.9 0 0 0-1.3-.2l-4.1 4.8-1.4-1.2 4.1-4.7a2.7 2.7 0 0 1 3.7-.3l.3.3 2.5 2.8a.7.7 0 0 0 .6.3.7.7 0 0 0 .6-.1h.2l2.3-2.8a2.8 2.8 0 0 1 3.8-.3h.1l.2.3 2.4 2.7a.7.7 0 0 0 .6.4.8.8 0 0 0 .7-.2l.2-.2 2.3-2.8a2.8 2.8 0 0 1 3.8-.3h.1l.2.3zM396.2 191.2l-1.3 1.3-4.1-4.6a1.3 1.3 0 0 0-1.3-.2l-.2.2-2.3 2.7a2.7 2.7 0 0 1-3.8.4h-.1l-.2-.3-2.4-2.7a1.3 1.3 0 0 0-1.3-.2v.2l-2.4 2.8a3.1 3.1 0 0 1-1.8.9 2.2 2.2 0 0 1-1.9-.6h-.2l-.2-.3-2.4-2.7a.9.9 0 0 0-1.3-.2v.2l-4.1 4.7-1.4-1.1 4.1-4.8a2.9 2.9 0 0 1 3.7-.3l.3.3 2.5 2.9a.7.7 0 0 0 .6.3l.6-.2h.2l2.3-2.8a2.8 2.8 0 0 1 3.8-.3h.1l.2.2 2.4 2.8.6.3a.8.8 0 0 0 .7-.2h.2l2.3-2.8a2.8 2.8 0 0 1 3.8-.3h.1l.2.2zM166.4 256.9l-1.2 1.3-4.2-4.5a.9.9 0 0 0-1.3-.2v.2l-2.4 2.7a2.7 2.7 0 0 1-3.7.4h-.1l-.3-.3-2.3-2.7a.9.9 0 0 0-1.3-.2h-.1l-2.4 2.9a3.1 3.1 0 0 1-1.8.9 2.4 2.4 0 0 1-2-.6h-.1l-.2-.3-2.4-2.7a.9.9 0 0 0-1.3-.2h-.1l-4.1 4.8-1.3-1.2 4-4.7a2.8 2.8 0 0 1 3.8-.3l.3.3 2.4 2.8.6.3a.9.9 0 0 0 .7-.1h.1l2.4-2.8a2.7 2.7 0 0 1 3.8-.3h.1l.2.3 2.4 2.7a.7.7 0 0 0 .6.4l.7-.2v-.2l2.4-2.7a2.6 2.6 0 0 1 3.7-.3h.1l.2.3zM325.2 238.1l-1.3 1.3-4.1-4.5a.9.9 0 0 0-1.3-.2l-.2.2-2.3 2.7a2.8 2.8 0 0 1-3.8.4h-.1l-.2-.3-2.4-2.7a.9.9 0 0 0-1.3-.2h-.1l-2.4 2.9a3.1 3.1 0 0 1-1.8.9 2.2 2.2 0 0 1-1.9-.6h-.2l-.2-.3-2.4-2.7a.9.9 0 0 0-1.3-.2l-4.1 4.8-1.4-1.2 4.1-4.7a2.7 2.7 0 0 1 3.7-.3l.3.3 2.5 2.8a.7.7 0 0 0 .6.3.7.7 0 0 0 .6-.1h.2l2.3-2.8a2.7 2.7 0 0 1 3.8-.3h.1l.2.3 2.4 2.7c.2.2.4.4.6.4l.7-.2.2-.2 2.3-2.7a2.7 2.7 0 0 1 3.8-.3h.1l.2.3z" class="cls-1"/>
</svg>
