<svg id="Layer_1" data-name="Layer 1" xmlns="http://www.w3.org/2000/svg" viewBox="0 0 540 300"><defs><style>.cls-1,.cls-12,.cls-6,.cls-7{fill:none;}.cls-1,.cls-12,.cls-13,.cls-7,.cls-8{stroke:#186399;}.cls-1,.cls-12,.cls-13,.cls-6,.cls-7,.cls-8{stroke-miterlimit:10;}.cls-1,.cls-6{stroke-width:4.52px;}.cls-2{fill:#42a6ed;}.cls-13,.cls-3{fill:#186399;}.cls-4{fill:#9ed6ff;}.cls-5{fill:#73c2fb;}.cls-6{stroke:#166395;}.cls-7,.cls-8{stroke-width:3.12px;}.cls-8{fill:#ffa514;}.cls-9{fill:#44a4eb;}.cls-10{fill:#faf8f5;}.cls-11{isolation:isolate;}.cls-12{stroke-width:2px;}</style></defs><title>Laila-01</title><path class="cls-1" d="M182,227.2s-6.8,51.3,36.2,51.3,38.1-51,38.1-51"/><path class="cls-2" d="M212.8,272.9v8a2.8,2.8,0,0,1-2.8,2.8h0a2.8,2.8,0,0,1-2.7-2.8v-8a2.8,2.8,0,0,1,2.7-2.8h0A2.8,2.8,0,0,1,212.8,272.9Z"/><path class="cls-2" d="M229.4,272.9v8a2.8,2.8,0,0,1-2.8,2.8h0a2.8,2.8,0,0,1-2.7-2.8v-8a2.8,2.8,0,0,1,2.7-2.8h0A2.8,2.8,0,0,1,229.4,272.9Z"/><rect class="cls-3" x="209.5" y="264.4" width="17.4" height="25.2" rx="6.7" ry="6.7"/><path class="cls-4" d="M164.2,71.8a53,53,0,0,1,53-52.8h0a52.7,52.7,0,0,1,52.7,52.7"/><path class="cls-2" d="M192.5,228.3a10.3,10.3,0,1,1-14.6-14.6h0"/><path class="cls-3" d="M186.2,225a3.5,3.5,0,0,1-4.9.1h-.1a3.6,3.6,0,0,1,0-5.1h0"/><path class="cls-2" d="M258,214.2a10.3,10.3,0,0,1,0,14.5,10.4,10.4,0,0,1-14.6,0"/><path class="cls-3" d="M254.6,220.6a3.6,3.6,0,0,1,0,5.1h0a3.5,3.5,0,0,1-4.9.1h-.1"/><path class="cls-5" d="M165,132.9H271.6v49.8a53,53,0,0,1-53,53h-.4a53.1,53.1,0,0,1-53.2-53h0V132.9Z"/><path class="cls-6" d="M149.9,216.2V152.9a12.5,12.5,0,0,1,12.4-12.5"/><path class="cls-6" d="M274.4,141.2h0c6.9,0,10.1,7.3,14.1,13.3l6.2,9.8a10.4,10.4,0,0,0,14.5,3,9.7,9.7,0,0,0,3.6-3.9l17.7-33.9"/><path class="cls-2" d="M271.5,132.9a10.3,10.3,0,1,1,0,20.6"/><path class="cls-3" d="M271.5,139.9a3.3,3.3,0,1,1,0,6.6"/><path class="cls-2" d="M266,71.4A10.3,10.3,0,1,1,266,92h0"/><path class="cls-2" d="M168.1,92.3a10.3,10.3,0,1,1,0-20.6h0"/><path class="cls-3" d="M164.2,84.3a2.3,2.3,0,0,1-2.3-2.3h0a2.3,2.3,0,0,1,2.2-2.4h.1"/><path class="cls-3" d="M269.9,79.1a2.3,2.3,0,1,1,0,4.6h0"/><path class="cls-2" d="M156.8,213.3a6.8,6.8,0,1,1-13.5,1.6,4.3,4.3,0,0,1,0-1.6"/><path class="cls-2" d="M165.1,153.5a10.3,10.3,0,1,1,0-20.6"/><path class="cls-7" d="M251.6,72v-.3a33.8,33.8,0,1,0-67.5-3.1,21.6,21.6,0,0,0,0,3.6"/><path class="cls-7" d="M207.4,39.9S204.2,51.1,220,49"/><path class="cls-7" d="M223.8,63.5s-.8-5.8,5.8-5.8h19.7"/><path class="cls-7" d="M184.8,67.5h16.3a6.2,6.2,0,0,0,6-6.4v-.2"/><circle class="cls-8" cx="223.3" cy="65.1" r="2.8"/><circle class="cls-8" cx="207.5" cy="58.9" r="2.8"/><circle class="cls-8" cx="222.3" cy="49.2" r="2.8"/><path class="cls-5" d="M269.9,71.4v34.8a18.1,18.1,0,0,1-18,18.2H182.4a18.1,18.1,0,0,1-18.2-18V71.7"/><rect class="cls-2" x="172.6" y="79.8" width="88.8" height="21.55" rx="6.9" ry="6.9"/><path class="cls-3" d="M190.5,86v9.4c0,2.6,4.1,2.6,4.1,0V86C194.6,83.4,190.5,83.4,190.5,86Z"/><path class="cls-3" d="M238.7,85.6V95c0,2.6,4.1,2.6,4.1,0V85.6a2.2,2.2,0,0,0-2.5-1.6A2.2,2.2,0,0,0,238.7,85.6Z"/><path class="cls-2" d="M175.3,142h85.3a40.1,40.1,0,0,1-40,40h-5.2a40.1,40.1,0,0,1-40.1-40Z"/><path class="cls-3" d="M222.4,105.8c-.3,6.6-9.9,6.7-10.3,0,0-1.2-2-1.2-1.9,0a7.1,7.1,0,1,0,14.2,0h0C224.4,104.6,222.5,104.6,222.4,105.8Z"/><path class="cls-4" d="M174.1,108.6a6.1,6.1,0,1,0,8.1-3.3A6.2,6.2,0,0,0,174.1,108.6Z"/><path class="cls-4" d="M250.1,108.6a6.1,6.1,0,0,0,11.3,4.8h0a6.1,6.1,0,1,0-11.3-4.8Z"/><path class="cls-9" d="M152.6,224.1c4.9-2.8,3-10.7-2.8-10.2a5.4,5.4,0,0,0-1.7,10.4c1.1.5,2.1-1.2,1-1.7-3.2-1.4-3.2-6.2.6-6.8s5.2,4.7,1.9,6.6C150.5,223,151.5,224.7,152.6,224.1Z"/><path class="cls-3" d="M165.1,139.7a3.3,3.3,0,1,0,0,6.6h0"/><path class="cls-3" d="M146.6,213.3a3.3,3.3,0,1,0,6.6,0h0"/><path class="cls-2" d="M324.1,127.8a6.8,6.8,0,0,1,9.6-1,6.9,6.9,0,0,1,1.5,8.8"/><path class="cls-9" d="M333.6,120.6c-5.5-.5-8.4,6.9-3.6,9.9s10.4-2.7,7.4-7.6c-.6-1-2.3,0-1.7,1,2,3.2-1.5,7.1-4.7,5s-.9-6.7,2.6-6.4c1.2.2,1.2-1.8,0-1.9Z"/><path class="cls-3" d="M332.2,133.5a3.3,3.3,0,0,0-.8-4.6h0a3.3,3.3,0,0,0-4.6.8h0"/><path class="cls-3" d="M219.7,155.8a3.1,3.1,0,0,1,2.7,3.3,3.3,3.3,0,0,1-.7,1.6l-1.6,2-3.2,3.9-3.1-4-1.5-1.9a3,3,0,0,1,2-4.9h.3a3.6,3.6,0,0,1,2.4.9,3.6,3.6,0,0,1,2.4-.9Z"/><path class="cls-10" d="M340.8,27h65.8a32,32,0,0,1,32,32h0a32,32,0,0,1-32,32H340.8a32,32,0,0,1-32-32h0A32,32,0,0,1,340.8,27Z"/><g class="cls-11"><g class="cls-11"><path d="M345.8,52.2h-.9V48.8h-3.1v3.4h-.9V44.8h.9V48h3.1V44.8h.9Z"/><path d="M348.1,46.7h2.8v4.7h1.8v.8h-4.6v-.8h1.8V47.5h-1.8Zm1.7-1.5a.8.8,0,0,1,.2-.4h.8a.6.6,0,0,1,.1.4c0,.2,0,.3-.1.4h-.4c-.2,0-.4,0-.4-.1A.5.5,0,0,1,349.8,45.2Z"/><path d="M357.1,52v.5l-.2.5-.3.5-.4.4-.6-.3a2,2,0,0,0,.4-.8,1.9,1.9,0,0,0,.1-.8v-.9h1Z"/><path d="M373,52.2h-.9V48.8h-3v3.4h-.9V44.8h.9V48h3V44.8h.9Z"/><path d="M378.7,51.4c-.1.3-.4.5-.6.7l-1,.2h-.8l-.6-.5c-.2-.1-.3-.4-.4-.7a3.1,3.1,0,0,1-.1-1V46.7h.9V50c0,.3.1.5.1.7s.1.4.2.5l.4.2h.4l1-.2a1.8,1.8,0,0,0,.5-.7V46.7h1v5.5h-.9Z"/><path d="M382.4,46.7v.5l.5-.5h.6a1.1,1.1,0,0,1,1.1.6,1,1,0,0,1,.4-.5h.6a1.5,1.5,0,0,1,1,.3,2.1,2.1,0,0,1,.3,1.2v4.1H386V48.1c0-.5-.2-.7-.6-.7h-.5c-.1.1-.1.2-.2.2v4.5h-.9V48c0-.2-.1-.3-.2-.5h-.9l-.2.3v4.4h-.9V46.7Z"/><path d="M392.4,52.2a.4.4,0,0,0-.1-.3v-.3l-.3.3-.4.2h-1.8l-.6-.4a1,1,0,0,1-.4-.5,1.3,1.3,0,0,1-.1-.6,1.9,1.9,0,0,1,.2-.8,1,1,0,0,1,.5-.6,1.1,1.1,0,0,1,.8-.3l1-.2h1.1v-.4c0-.2-.1-.3-.1-.4l-.3-.4-.4-.2h-1a.5.5,0,0,0-.4.2l-.3.3v.3h-1a1.4,1.4,0,0,1,.2-.6,1,1,0,0,1,.4-.5l.7-.4h1.8l.7.3.4.6a1.1,1.1,0,0,1,.2.8V51a1.3,1.3,0,0,0,.1.6.7.7,0,0,0,.1.5h-1Zm-1.7-.7h.6l.4-.2.3-.3.3-.3V49.5h-.9a2.3,2.3,0,0,0-1.3.3.8.8,0,0,0-.5.7c0,.2.1.3.1.4l.2.3.4.2Z"/><path d="M396.4,46.7v.8a2.7,2.7,0,0,1,.8-.7,1.3,1.3,0,0,1,.9-.2h.8a.9.9,0,0,1,.6.4c.2.1.3.4.4.6a3,3,0,0,1,.2,1v3.5h-1V48.7a1.3,1.3,0,0,0-.1-.6.5.5,0,0,0-.2-.4l-.4-.3H398a1.3,1.3,0,0,0-.9.2l-.6.6v4h-.9V46.7Z"/><path d="M404,51.7a.5.5,0,0,1,.2-.4c0-.1.2-.2.4-.2a.6.6,0,0,1,.4,1l-.4.2c-.2,0-.4-.1-.4-.2A.5.5,0,0,1,404,51.7Zm1-1.9h-.9v-5h.9Z"/></g><g class="cls-11"><path d="M341.1,62.3h4.5v.8h-1.8v5.8h1.8v.8h-4.5v-.8h1.7V63.1h-1.7Z"/><path d="M350.4,62.4l-.2,1.9h-.7V61.8h.9Z"/><path d="M355.2,64.2v.5a1,1,0,0,1,.4-.5h.7a1,1,0,0,1,1,.6l.4-.5h.7a1.2,1.2,0,0,1,.9.3,2.1,2.1,0,0,1,.3,1.2v4.1h-.9V65.6c0-.5-.2-.7-.6-.7h-.5v4.7h-.9V65.5a.9.9,0,0,0-.1-.5h-1l-.2.3v4.4h-.9V64.2Z"/><path d="M369.4,68.9h3.7v.8h-4.6V62.3h.9Z"/><path d="M378.8,69.7c0-.1-.1-.2-.1-.3v-.3l-.4.3-.4.2h-1.7a.9.9,0,0,1-.6-.4,1,1,0,0,1-.4-.5,1.3,1.3,0,0,1-.1-.6,1.9,1.9,0,0,1,.1-.8c.2-.3.3-.5.6-.6a1,1,0,0,1,.8-.3l1-.2h1v-.4c0-.2,0-.3-.1-.4a.5.5,0,0,0-.2-.4l-.4-.2h-1.1l-.3.2-.3.3c0,.1-.1.2-.1.3h-.9a1.3,1.3,0,0,1,.1-.6,1.2,1.2,0,0,1,.5-.5l.7-.4h1.8l.7.3.4.6a1.9,1.9,0,0,1,.2.8v3.2c.1.2.1.4.2.5h-1Zm-1.7-.7h.5l.5-.2.3-.3c.1-.1.2-.2.2-.3V67h-.8a2.3,2.3,0,0,0-1.3.3.8.8,0,0,0-.5.7c0,.2,0,.3.1.4l.2.3.3.2Z"/><path d="M382.1,64.2h2.8v4.7h1.9v.8h-4.7v-.8H384V65h-1.9Zm1.8-1.5a.6.6,0,0,1,.1-.4h.9a.6.6,0,0,1,.1.4c0,.2,0,.3-.1.4H384C383.9,63,383.9,62.9,383.9,62.7Z"/><path d="M388.9,61.8h2.9v7.1h1.8v.8h-4.7v-.8h1.9V62.7h-1.9Z"/><path d="M399.2,69.7a.4.4,0,0,0-.1-.3v-.3l-.3.3-.4.2h-1.8l-.6-.4-.4-.5a1.3,1.3,0,0,1-.1-.6,1.9,1.9,0,0,1,.2-.8,1,1,0,0,1,.5-.6,1.1,1.1,0,0,1,.8-.3l1-.2h1.1v-.4c0-.2-.1-.3-.1-.4l-.3-.4-.4-.2h-1l-.4.2c-.1.1-.2.2-.2.3a.4.4,0,0,0-.1.3h-1a1.4,1.4,0,0,1,.2-.6,1,1,0,0,1,.4-.5l.7-.4h1.8l.7.3.5.6a1.9,1.9,0,0,1,.1.8v2.6a1.3,1.3,0,0,0,.1.6,4.3,4.3,0,0,0,.1.5h-1Zm-1.6-.7h.5l.4-.2.4-.3c0-.1.1-.2.2-.3V67h-.9a2.3,2.3,0,0,0-1.3.3.8.8,0,0,0-.5.7c0,.2.1.3.1.4l.2.3a.5.5,0,0,0,.4.2Z"/></g></g><path class="cls-10" d="M313.1,72.3A35.2,35.2,0,0,1,291,91.2s15.4,8.4,34.6-5S313.1,72.3,313.1,72.3Z"/><path class="cls-12" d="M324,236.9l-.6.6-3.6-4a1.3,1.3,0,0,0-1.8-.1h-.1l-2.3,2.7a2.1,2.1,0,0,1-3,.2h0a.2.2,0,0,1-.2-.2h0l-2.3-2.7a1.3,1.3,0,0,0-1.8-.1h-.2l-2.2,2.7a2.1,2.1,0,0,1-3,.2h0l-.3-.2-2.2-2.7a1.4,1.4,0,0,0-1.9-.1h-.1l-3.6,4.2-.6-.5,3.6-4.2a2.1,2.1,0,0,1,3-.2h0l.2.2,2.3,2.7a1.3,1.3,0,0,0,1.8.1h.1l2.3-2.7a2.1,2.1,0,0,1,3-.2h0c.1,0,.1.1.2.2l2.3,2.7a1.3,1.3,0,0,0,1.8.1h.1l2.3-2.7a2.1,2.1,0,0,1,3-.2h0a.2.2,0,0,1,.2.2h0Z"/><path class="cls-12" d="M324,221.7l-.6.6c0-.1-3.6-4-3.6-4a1.4,1.4,0,0,0-1.8-.2c-.1.1-.1.1-.1.2l-2.3,2.6a2.2,2.2,0,0,1-3,.3l-.2-.3-2.3-2.6a1.4,1.4,0,0,0-1.8-.2l-.2.2-2.2,2.6a2.2,2.2,0,0,1-3,.3l-.3-.3-2.2-2.6a1.4,1.4,0,0,0-1.9-.2c0,.1-.1.1-.1.2l-3.6,4.2-.6-.6,3.6-4.2a2.3,2.3,0,0,1,3-.2.2.2,0,0,0,.2.2h0l2.3,2.7a1.3,1.3,0,0,0,1.8.1h.1l2.3-2.7a2.3,2.3,0,0,1,3-.2l.2.2,2.3,2.7a1.3,1.3,0,0,0,1.8.1h.1l2.3-2.7a2.3,2.3,0,0,1,3-.2l.2.2Z"/><path class="cls-12" d="M395,188.7l-.6.6c0-.1-3.6-4-3.6-4a1.4,1.4,0,0,0-1.8-.2c-.1.1-.1.1-.1.2l-2.3,2.6a2.2,2.2,0,0,1-3,.3l-.2-.3-2.3-2.6a1.4,1.4,0,0,0-1.8-.2l-.2.2-2.2,2.6a2.2,2.2,0,0,1-3,.3l-.3-.3-2.2-2.6a1.4,1.4,0,0,0-1.9-.2c0,.1-.1.1-.1.2l-3.6,4.2-.6-.6,3.6-4.2a2.3,2.3,0,0,1,3-.2.2.2,0,0,0,.2.2h0l2.3,2.7a1.3,1.3,0,0,0,1.8.1h.1l2.3-2.7a2.3,2.3,0,0,1,3-.2l.2.2,2.3,2.7a1.3,1.3,0,0,0,1.8.1h.1l2.3-2.7a2.3,2.3,0,0,1,3-.2l.2.2Z"/><path class="cls-12" d="M158,263.7l-.6.6c0-.1-3.6-4-3.6-4a1.4,1.4,0,0,0-1.8-.2c-.1.1-.1.1-.1.2l-2.3,2.6a2.2,2.2,0,0,1-3,.3c-.1-.1-.2-.2-.2-.3l-2.3-2.6a1.4,1.4,0,0,0-1.8-.2l-.2.2-2.2,2.6a2.2,2.2,0,0,1-3,.3l-.3-.3-2.2-2.6a1.4,1.4,0,0,0-1.9-.2c0,.1-.1.1-.1.2l-3.6,4.2-.6-.6,3.6-4.2a2.3,2.3,0,0,1,3-.2.2.2,0,0,0,.2.2h0l2.3,2.7a1.3,1.3,0,0,0,1.8.1h.1l2.3-2.7a2.3,2.3,0,0,1,3-.2l.2.2,2.3,2.7a1.3,1.3,0,0,0,1.8.1c.1,0,.1,0,.1-.1h0l2.3-2.7a2.3,2.3,0,0,1,3-.2l.2.2Z"/><path class="cls-13" d="M143.2,43.4A2.8,2.8,0,0,0,142,47a2.8,2.8,0,1,0,1.4-3.7Z"/><path class="cls-13" d="M146.3,28.4a2.7,2.7,0,1,0,2.4,4.8h.1a2.7,2.7,0,0,0,1.1-3.6A2.6,2.6,0,0,0,146.3,28.4Z"/><path class="cls-13" d="M127.4,42.2a2.8,2.8,0,0,0-.5,3.9,2.9,2.9,0,0,0,3,1,2.8,2.8,0,1,0-2.5-4.9Z"/><polyline class="cls-12" points="128.6 44.7 144.5 45.8 147.5 30.8"/><path class="cls-13" d="M404,119.4a2.8,2.8,0,0,0-1.2-3.8,2.8,2.8,0,0,0-2.6,5h.1A2.8,2.8,0,0,0,404,119.4Z"/><path class="cls-13" d="M410.4,133.3a2.8,2.8,0,0,0-1.1-3.7h-.1a2.7,2.7,0,1,0-2.4,4.9h0A2.7,2.7,0,0,0,410.4,133.3Z"/><path class="cls-13" d="M417.4,110.9a2.7,2.7,0,0,0-4.9-2.4,2.7,2.7,0,0,0,1.3,3.6h0a2.6,2.6,0,0,0,3.5-1Z"/><polyline class="cls-12" points="415 109.7 401.6 118.2 408 132.1"/><path class="cls-13" d="M380.9,224.3A2.8,2.8,0,0,0,384,222a2.7,2.7,0,1,0-5.4-.8h0a2.7,2.7,0,0,0,2.2,3.1Z"/><path class="cls-13" d="M369.6,234.7a2.6,2.6,0,0,0,3-2.3,2.8,2.8,0,0,0-2.3-3.1,2.8,2.8,0,0,0-3,2.3,2.7,2.7,0,0,0,2.2,3.1Z"/><path class="cls-13" d="M393,234.5a2.9,2.9,0,0,0,3.2-2.3,2.8,2.8,0,1,0-3.2,2.3Z"/><polyline class="cls-12" points="393.4 231.8 381.3 221.6 370 232"/><circle class="cls-12" cx="141" cy="118" r="3"/><circle class="cls-12" cx="309" cy="201" r="3"/><circle class="cls-12" cx="291" cy="52" r="3"/><circle class="cls-12" cx="421" cy="219" r="3"/><circle class="cls-12" cx="380" cy="264" r="3"/></svg>