<svg id="Layer_1" data-name="Layer 1" xmlns="http://www.w3.org/2000/svg" viewBox="0 0 540 300"><defs><style>.cls-1{fill:#73c2fb;}.cls-14,.cls-2{fill:#186399;}.cls-3{fill:#42a6ed;}.cls-4{fill:#9ed6ff;}.cls-10,.cls-5{fill:#ffa514;}.cls-11,.cls-12,.cls-13,.cls-15,.cls-16,.cls-6,.cls-8,.cls-9{fill:none;}.cls-6{stroke:#166395;}.cls-10,.cls-11,.cls-12,.cls-13,.cls-14,.cls-15,.cls-6,.cls-8,.cls-9{stroke-miterlimit:10;}.cls-6,.cls-8{stroke-width:3.24px;}.cls-7{fill:#44a4eb;}.cls-10,.cls-11,.cls-12,.cls-13,.cls-14,.cls-15,.cls-16,.cls-8,.cls-9{stroke:#186399;}.cls-10,.cls-9{stroke-width:2.24px;}.cls-12{stroke-width:0.79px;}.cls-13{stroke-width:0.5px;}.cls-15{stroke-dasharray:4.01;}.cls-16{stroke-linecap:round;stroke-linejoin:round;}</style></defs><title>ML</title><rect class="cls-1" x="334.4" y="137.6" width="77.6" height="97.13" rx="6.6" ry="6.6"/><rect class="cls-2" x="336.6" y="234.7" width="73.5" height="5.84"/><rect class="cls-2" x="327.9" y="249.3" width="91.4" height="8.08" rx="2" ry="2"/><path class="cls-3" d="M332.6,240.5h82.5a3.3,3.3,0,0,1,3.3,3.3v5.6a0,0,0,0,1,0,0H329.8a0,0,0,0,1,0,0v-6.1A2.9,2.9,0,0,1,332.6,240.5Z"/><rect class="cls-2" x="423.8" y="249.5" width="17.4" height="7.93" rx="2" ry="2"/><path class="cls-1" d="M438.2,249.5H426.1a1.2,1.2,0,0,1-1.2-1.6l.8-2.9a4.4,4.4,0,0,1,4.2-3.3h4.9a4.1,4.1,0,0,1,3.9,2.9l.9,3.2A1.4,1.4,0,0,1,438.2,249.5Z"/><rect class="cls-3" x="340.6" y="144.4" width="65.7" height="59.3" rx="6.3" ry="6.3"/><rect class="cls-2" x="343.4" y="146.9" width="60" height="54.2" rx="5.7" ry="5.7"/><rect class="cls-2" x="372.2" y="217.1" width="31.5" height="3.19"/><rect class="cls-2" x="389" y="214.9" width="14.7" height="5.31"/><rect class="cls-1" x="362.8" y="176" width="21.7" height="7.38"/><rect class="cls-3" x="364.4" y="177.2" width="18.3" height="4.26"/><rect class="cls-4" x="362.8" y="172.9" width="21.7" height="3.16"/><rect class="cls-1" x="362.8" y="181.7" width="21.7" height="3.16"/><rect class="cls-4" x="365.4" y="170.4" width="17" height="3.16"/><rect class="cls-4" x="367.6" y="168.1" width="12.3" height="3.16"/><rect class="cls-5" x="368.2" y="174.3" width="11" height="1.6"/><rect class="cls-5" x="369.5" y="173.1" width="8.6" height="1.6"/><rect class="cls-5" x="370.6" y="171.9" width="6.2" height="1.6"/><rect class="cls-1" x="364.8" y="183.1" width="17" height="3.16" transform="translate(746.5 369.4) rotate(180)"/><rect class="cls-1" x="367.3" y="184.7" width="12.3" height="3.16" transform="translate(746.9 372.6) rotate(180)"/><rect class="cls-2" x="366.7" y="178.2" width="0.9" height="2.08"/><rect class="cls-2" x="379.3" y="178.2" width="0.9" height="2.08"/><path class="cls-6" d="M102.5,205V159.7a8.9,8.9,0,0,1,8.9-8.9"/><path class="cls-3" d="M115.5,116.3a7.4,7.4,0,0,1,0-14.8"/><path class="cls-2" d="M112.8,110.6a1.8,1.8,0,0,1-1.7-1.7,1.7,1.7,0,0,1,1.7-1.6"/><path class="cls-3" d="M205.3,203.3a4.9,4.9,0,1,1-9.7,0"/><path class="cls-3" d="M107.5,202.9a4.9,4.9,0,0,1-9.7,0"/><path class="cls-3" d="M113.4,160.1a7.4,7.4,0,0,1-7.3-7.4,7.3,7.3,0,0,1,7.3-7.3"/><path class="cls-7" d="M104.5,210.6c3.5-2,2.1-7.6-2.1-7.3a3.9,3.9,0,0,0-1.2,7.4c.8.4,1.6-.8.7-1.2s-2.2-4.4.5-4.8,3.7,3.4,1.4,4.7a.7.7,0,1,0,.7,1.2Z"/><path class="cls-7" d="M202.6,211.5c3.5-2,2.2-7.6-2-7.3a3.9,3.9,0,0,0-1.2,7.4c.8.4,1.5-.8.7-1.2s-2.3-4.4.4-4.8,3.8,3.4,1.4,4.7a.7.7,0,1,0,.7,1.2Z"/><path class="cls-2" d="M113.4,150.2a2.4,2.4,0,0,0,0,4.8"/><path class="cls-2" d="M100.2,202.9a2.3,2.3,0,0,0,2.3,2.4,2.4,2.4,0,0,0,2.4-2.4"/><path class="cls-2" d="M198.2,203.3a2.3,2.3,0,0,0,2.3,2.4,2.4,2.4,0,0,0,2.4-2.4"/><path class="cls-8" d="M125.5,212.8s-4.8,36.8,25.9,36.8S178.7,213,178.7,213"/><rect class="cls-3" x="140.7" y="246.4" width="9.7" height="3.94" rx="2" ry="2" transform="translate(393.9 102.9) rotate(90)"/><rect class="cls-3" x="152.6" y="246.4" width="9.7" height="3.94" rx="2" ry="2" transform="translate(405.9 90.9) rotate(90)"/><rect class="cls-2" x="142.4" y="242.3" width="18.1" height="12.42" rx="4.8" ry="4.8" transform="translate(399.9 97) rotate(90)"/><path class="cls-4" d="M112.8,101.5a37.9,37.9,0,0,1,25.3-47.1h0a37.6,37.6,0,0,1,47,25.1"/><path class="cls-3" d="M133,213.6a7.4,7.4,0,0,1-10.4-10.4"/><path class="cls-2" d="M128.5,211.2a2.5,2.5,0,0,1-3.6-3.6"/><path class="cls-3" d="M179.9,203.5a7.4,7.4,0,0,1-10.4,10.4"/><path class="cls-2" d="M177.5,208.1a2.7,2.7,0,0,1,0,3.7,2.5,2.5,0,0,1-3.6,0"/><path class="cls-1" d="M113.4,145.4h76.2a0,0,0,0,1,0,0V181a37.9,37.9,0,0,1-37.9,37.9h-.3a38,38,0,0,1-38-38V145.4A0,0,0,0,1,113.4,145.4Z"/><path class="cls-6" d="M191.6,151.3h0a8.9,8.9,0,0,1,8.9,8.9v45.3h0"/><path class="cls-3" d="M189.6,145.4a7.4,7.4,0,1,1,0,14.7"/><path class="cls-2" d="M189.6,150.4a2.3,2.3,0,0,1,2.4,2.3,2.4,2.4,0,0,1-2.4,2.4"/><path class="cls-3" d="M185.6,101.4a7.4,7.4,0,1,1,0,14.7"/><path class="cls-2" d="M188.4,106.8a1.7,1.7,0,0,1,0,3.4"/><path class="cls-9" d="M175.3,101.8v-.3a24.2,24.2,0,1,0-48.3.4"/><path class="cls-9" d="M143.7,78.8s-2.3,8,9,6.5"/><path class="cls-9" d="M173.7,91.6H159.5c-4.7,0-4.1,4.2-4.1,4.2"/><path class="cls-9" d="M127.5,98.6h11.7a4.4,4.4,0,0,0,4.2-4.8"/><circle class="cls-10" cx="155" cy="96.8" r="2"/><circle class="cls-10" cx="143.8" cy="92.4" r="2"/><circle class="cls-10" cx="154.4" cy="85.4" r="2"/><path class="cls-1" d="M188.4,101.4v24.9a13,13,0,0,1-13,13H125.8a13,13,0,0,1-13-13V101.5"/><rect class="cls-3" x="118.8" y="107.3" width="63.6" height="15.42" rx="5" ry="5"/><path class="cls-2" d="M131.6,111.8v6.7a1.5,1.5,0,0,0,2.9,0v-6.7a1.5,1.5,0,0,0-2.9,0Z"/><path class="cls-2" d="M166.1,111.5v6.7a1.5,1.5,0,0,0,2.9,0v-6.7a1.5,1.5,0,0,0-2.9,0Z"/><path class="cls-3" d="M120.7,151.8h61a0,0,0,0,1,0,0v0a28.7,28.7,0,0,1-28.7,28.7h-3.7a28.7,28.7,0,0,1-28.7-28.7v0a0,0,0,0,1,0,0Z"/><path class="cls-2" d="M154.4,126c-.2,4.7-7.1,4.7-7.3,0-.1-.9-1.5-.9-1.4,0a5.1,5.1,0,1,0,10.1,0c.1-.9-1.3-.9-1.4,0Z"/><path class="cls-4" d="M119.9,127.9a4.4,4.4,0,1,0,8,3.5,4.4,4.4,0,1,0-8-3.5Z"/><path class="cls-4" d="M174.3,127.9a4.3,4.3,0,0,0,2.3,5.8,4.4,4.4,0,0,0,5.8-2.3,4.5,4.5,0,0,0-2.4-5.8A4.4,4.4,0,0,0,174.3,127.9Z"/><path class="cls-2" d="M152.5,161.7a2.2,2.2,0,0,1,1.4,3.6l-1.1,1.3-2.3,2.9-2.2-2.9-1.1-1.3a2.2,2.2,0,0,1,1.4-3.6h.2a2.9,2.9,0,0,1,1.8.7,2.4,2.4,0,0,1,1.7-.7Z"/><rect class="cls-2" x="365.7" y="106.3" width="7.6" height="7.61"/><polyline class="cls-11" points="367.3 105.6 367.3 101.8 366.1 100.6"/><line class="cls-11" x1="369.5" y1="100.9" x2="369.5" y2="105.6"/><polyline class="cls-11" points="371.8 105.6 371.8 101.8 373.1 100.5"/><circle class="cls-11" cx="365.4" cy="100" r="0.9"/><circle class="cls-11" cx="373.7" cy="100" r="0.9"/><circle class="cls-11" cx="369.5" cy="100" r="0.9"/><polyline class="cls-11" points="367.3 114.8 367.3 118.6 366.1 119.8"/><line class="cls-11" x1="369.5" y1="119.5" x2="369.5" y2="114.8"/><polyline class="cls-11" points="371.8 114.8 371.8 118.6 373.1 119.8"/><circle class="cls-11" cx="365.4" cy="120.4" r="0.9"/><circle class="cls-11" cx="373.7" cy="120.4" r="0.9"/><circle class="cls-11" cx="369.5" cy="120.4" r="0.9"/><polyline class="cls-11" points="364.9 112.5 361.1 112.5 359.9 113.6"/><line class="cls-11" x1="360.2" y1="110.2" x2="364.9" y2="110.2"/><polyline class="cls-11" points="364.9 107.9 361.1 107.9 359.9 106.6"/><circle class="cls-11" cx="359.4" cy="114.3" r="0.9"/><circle class="cls-11" cx="359.4" cy="106" r="0.9"/><circle class="cls-11" cx="359.4" cy="110.2" r="0.9"/><polyline class="cls-11" points="374.1 112.5 378 112.5 379.2 113.6"/><line class="cls-11" x1="378.8" y1="110.2" x2="374.1" y2="110.2"/><polyline class="cls-11" points="374.1 107.9 378 107.9 379.2 106.6"/><circle class="cls-11" cx="379.7" cy="114.3" r="0.9"/><circle class="cls-11" cx="379.7" cy="106" r="0.9"/><circle class="cls-11" cx="379.7" cy="110.2" r="0.9"/><polygon class="cls-11" points="291 117 291 119.3 274.5 119.3 274.5 135.8 272.1 135.8 272.1 117 291 117"/><polygon class="cls-11" points="293.3 119.3 293.3 121.8 276.9 121.8 276.9 138.2 274.5 138.2 274.5 119.3 293.3 119.3"/><polygon class="cls-11" points="295.8 121.8 295.8 123.8 279 123.8 279 140.6 276.9 140.6 276.9 121.8 295.8 121.8"/><rect class="cls-11" x="279" y="123.8" width="18.8" height="18.84"/><circle class="cls-2" cx="238.5" cy="151.6" r="3.6"/><circle class="cls-2" cx="238.5" cy="163.6" r="3.6"/><circle class="cls-2" cx="250.5" cy="151.6" r="3.6"/><circle class="cls-2" cx="262.4" cy="157.7" r="3.6"/><circle class="cls-2" cx="250.5" cy="163.6" r="3.6"/><polyline class="cls-11" points="250.5 163.6 238.5 151.6 250.5 151.6 262.4 157.7 250.9 163.6 238.5 163.6 250.5 151.6"/><path class="cls-12" d="M407.6,89.3l-.4.4c0-.1-2.3-2.6-2.3-2.6a.9.9,0,0,0-1.2-.1h-.1l-1.4,1.7a1.4,1.4,0,0,1-2,.2c0-.1-.1-.1-.1-.2l-1.5-1.7a.8.8,0,0,0-1.1-.1h-.1l-1.5,1.7a1.3,1.3,0,0,1-1.9.2l-.2-.2-1.4-1.7a.9.9,0,0,0-1.2-.1h-.1l-2.3,2.7-.4-.4,2.3-2.6a1.3,1.3,0,0,1,1.9-.2l.2.2,1.4,1.7a.9.9,0,0,0,1.2.1h.1l1.5-1.7a1.3,1.3,0,0,1,1.9-.2c0,.1.1.1.1.2l1.5,1.7a.9.9,0,0,0,1.2.1h.1l1.4-1.7a1.3,1.3,0,0,1,1.9-.2l.2.2Z"/><path class="cls-12" d="M407.6,79.5l-.4.3-2.3-2.5a.8.8,0,0,0-1.2-.1h-.1L402.2,79a1.4,1.4,0,0,1-2,.1h-.1l-1.5-1.7a.7.7,0,0,0-1.1-.1h-.1L395.9,79a1.3,1.3,0,0,1-1.9.1h-.2l-1.4-1.7a.8.8,0,0,0-1.2-.1h-.1L388.8,80l-.4-.4,2.3-2.7a1.4,1.4,0,0,1,1.9-.1h.2l1.4,1.7a.8.8,0,0,0,1.2.1.1.1,0,0,0,.1-.1l1.5-1.7a1.4,1.4,0,0,1,1.9-.1h.1l1.5,1.7a.8.8,0,0,0,1.2.1h.1l1.4-1.7a1.4,1.4,0,0,1,1.9-.1h.2Z"/><path class="cls-11" d="M325.7,231.2l-.5.4-2.9-3.2a1.1,1.1,0,0,0-1.5-.1h-.1l-1.9,2.2a1.6,1.6,0,0,1-2.4.1h-.2l-1.8-2.2a1.1,1.1,0,0,0-1.5-.1h-.1l-1.9,2.2a1.6,1.6,0,0,1-2.4.1h-.2l-1.8-2.2a1.1,1.1,0,0,0-1.5-.1h-.1l-2.9,3.4-.6-.4,2.9-3.4a1.7,1.7,0,0,1,2.5-.2l.2.2,1.8,2.1a1,1,0,0,0,1.5.1h.1l1.9-2.1a1.6,1.6,0,0,1,2.4-.2c.1,0,.1.1.2.2l1.8,2.1a1,1,0,0,0,1.5.1h.1l1.9-2.1a1.6,1.6,0,0,1,2.4-.2l.2.2Z"/><path class="cls-11" d="M325.7,218.7l-.5.5-2.9-3.2a1,1,0,0,0-1.5-.1h-.1l-1.9,2.1a1.6,1.6,0,0,1-2.4.2l-.2-.2-1.8-2.1a1,1,0,0,0-1.5-.1h-.1l-1.9,2.1a1.6,1.6,0,0,1-2.4.2c-.1,0-.1-.1-.2-.2l-1.8-2.1a1,1,0,0,0-1.5-.1h-.1l-2.9,3.4-.6-.5,2.9-3.4a1.9,1.9,0,0,1,2.5-.2.2.2,0,0,0,.2.2l1.8,2.2a1.1,1.1,0,0,0,1.5.1h.1l1.9-2.2a1.7,1.7,0,0,1,2.4-.2l.2.2,1.8,2.2a1.1,1.1,0,0,0,1.5.1h.1l1.9-2.2a1.7,1.7,0,0,1,2.4-.2c.1.1.1.2.2.2Z"/><path class="cls-13" d="M433.7,164.4l-.2.2c-.1,0-1.5-1.6-1.5-1.6a.6.6,0,0,0-.8-.1h0l-.9,1.1a.9.9,0,0,1-1.3,0h0l-1-1.1a.5.5,0,0,0-.7-.1h-.1l-.9,1.1a.8.8,0,0,1-1.2,0H425l-.9-1.1a.6.6,0,0,0-.8-.1h0l-1.5,1.7-.2-.2,1.4-1.7a.8.8,0,0,1,1.2-.1c.1,0,.1,0,.1.1l1,1a.4.4,0,0,0,.7.1h0l1-1a.8.8,0,0,1,1.2-.1.1.1,0,0,1,.1.1l.9,1a.4.4,0,0,0,.7.1h.1l.9-1a.8.8,0,0,1,1.2-.1c.1,0,.1,0,.1.1Z"/><path class="cls-13" d="M200.1,47.3l-.2.2c-.1,0-1.5-1.6-1.5-1.6a.8.8,0,0,0-.8-.1h0l-.9,1.1a1.1,1.1,0,0,1-1.3.1h0l-1-1.1a.6.6,0,0,0-.7-.1.1.1,0,0,1-.1.1l-.9,1.1a.9.9,0,0,1-1.2.1h-.1l-.9-1.1a.8.8,0,0,0-.8-.1h0l-1.5,1.7-.2-.2,1.4-1.7a.8.8,0,0,1,1.2-.1.1.1,0,0,1,.1.1l.9,1.1a.6.6,0,0,0,.8,0h0l1-1.1a.8.8,0,0,1,1.2-.1.1.1,0,0,0,.1.1l.9,1.1a.5.5,0,0,0,.7,0h.1l.9-1.1a.8.8,0,0,1,1.2-.1.1.1,0,0,1,.1.1Z"/><circle class="cls-2" cx="240.3" cy="85.6" r="1.4" transform="translate(-9.4 137.7) rotate(-31.4)"/><circle class="cls-2" cx="235.5" cy="87.9" r="1.4" transform="matrix(0.85, -0.52, 0.52, 0.85, -11.34, 135.51)"/><circle class="cls-2" cx="244.4" cy="89.8" r="1.4" transform="matrix(0.85, -0.52, 0.52, 0.85, -11, 140.45)"/><circle class="cls-2" cx="240" cy="90.2" r="1.4" transform="matrix(0.85, -0.52, 0.52, 0.85, -11.86, 138.21)"/><circle class="cls-2" cx="241.7" cy="94.9" r="1.4" transform="translate(-14 139.8) rotate(-31.4)"/><circle class="cls-2" cx="236.3" cy="94.3" r="1.4" transform="translate(-14.5 136.9) rotate(-31.4)"/><line class="cls-11" x1="235.1" y1="72.4" x2="257.1" y2="94.5"/><rect class="cls-2" x="246.3" y="75.1" width="2.7" height="2.72"/><rect class="cls-2" x="248.8" y="70.6" width="2.7" height="2.72"/><rect class="cls-2" x="251" y="75.1" width="2.7" height="2.72"/><rect class="cls-2" x="248.8" y="79.2" width="2.7" height="2.72"/><rect class="cls-2" x="253.2" y="79.6" width="2.7" height="2.72"/><rect class="cls-2" x="255.6" y="75.1" width="2.7" height="2.72"/><rect class="cls-2" x="253.8" y="70.6" width="2.7" height="2.72"/><rect class="cls-11" x="324.5" y="96" width="17" height="16.98" rx="4" ry="4"/><rect class="cls-11" x="316" y="104.5" width="17" height="16.98" rx="4" ry="4"/><path class="cls-14" d="M423,61.9a2.4,2.4,0,0,0-3.4-.7,2.5,2.5,0,0,0-.7,3.4,2.5,2.5,0,0,0,3.4.7A2.4,2.4,0,0,0,423,61.9Z"/><path class="cls-14" d="M436.8,63.3a2.4,2.4,0,0,0-3.4-.7,2.4,2.4,0,0,0-.8,3.4,2.5,2.5,0,0,0,3.4.7A2.5,2.5,0,0,0,436.8,63.3Z"/><path class="cls-14" d="M422.6,47.6a2.5,2.5,0,0,0-4.1,2.7,2.5,2.5,0,1,0,4.1-2.7Z"/><polyline class="cls-11" points="420.6 49 421 63.2 434.7 64.6"/><path class="cls-14" d="M114.2,51.9a2.1,2.1,0,0,0-.7,2.9,2.2,2.2,0,0,0,3,.7,2.1,2.1,0,0,0,.6-3A2.1,2.1,0,0,0,114.2,51.9Z"/><path class="cls-14" d="M115.4,40a2.1,2.1,0,0,0-.7,2.9,2.2,2.2,0,0,0,3,.7,2.1,2.1,0,0,0,.6-3A2.1,2.1,0,0,0,115.4,40Z"/><path class="cls-14" d="M101.8,52.3a2.1,2.1,0,1,0,2.3,3.5,2.1,2.1,0,0,0,.7-2.9A2.1,2.1,0,0,0,101.8,52.3Z"/><polyline class="cls-11" points="103 54.1 115.3 53.7 116.5 41.8"/><line class="cls-11" x1="308.7" y1="70.1" x2="350.7" y2="70.1"/><polyline class="cls-11" points="332.5 67.2 323.3 67.2 320.7 64.6"/><polyline class="cls-11" points="332.5 72.9 319.7 72.9 314.7 77.9"/><polyline class="cls-11" points="350.7 67.2 336.9 67.2 333.5 63.8"/><polyline class="cls-11" points="350.7 72.9 336.9 72.9 327.9 81.9"/><circle class="cls-11" cx="306.8" cy="70.1" r="1.9"/><circle class="cls-11" cx="313.6" cy="79.4" r="1.9"/><circle class="cls-11" cx="319.7" cy="62.9" r="1.9"/><circle class="cls-11" cx="332.2" cy="62.4" r="1.9"/><circle class="cls-11" cx="326.8" cy="83.7" r="1.9"/><path class="cls-15" d="M369.5,97.1V87.5a17,17,0,0,0-17-17h0"/><line class="cls-15" x1="369.5" y1="137.6" x2="369.5" y2="122.4"/><path class="cls-15" d="M302.5,70.5h0a18.1,18.1,0,0,0-18,18V117"/><line class="cls-15" x1="248.5" y1="149.5" x2="248.5" y2="95.5"/><rect class="cls-16" x="210.2" y="131.6" width="16.8" height="4.9" rx="2.2" ry="2.2" transform="translate(84.5 352.6) rotate(-90)"/><line class="cls-16" x1="218.6" y1="133.2" x2="218.6" y2="128.9"/><line class="cls-16" x1="218.6" y1="139.3" x2="218.6" y2="135.5"/><path class="cls-15" d="M176,96.8h42.6A14.5,14.5,0,0,1,233,111.2v10.1a8.4,8.4,0,0,0,8.3,8.4h30.8"/><path class="cls-15" d="M218.6,125.5v-6.2a11.9,11.9,0,0,1,11.9-12h85"/><path class="cls-15" d="M234.8,157.6h-4.6A11.5,11.5,0,0,1,218.6,146v-3.3"/><circle class="cls-11" cx="194" cy="56.1" r="2.1"/><circle class="cls-11" cx="427.6" cy="151.6" r="2.1"/><circle class="cls-11" cx="251.5" cy="191.7" r="2.1"/><circle class="cls-11" cx="221" cy="232.2" r="2.1"/><circle class="cls-11" cx="398" cy="116.3" r="2.1"/><circle class="cls-11" cx="113.2" cy="240.5" r="2.1"/><circle class="cls-11" cx="313.6" cy="191.7" r="2.1"/><line class="cls-15" x1="267" y1="157.7" x2="334.4" y2="157.7"/><ellipse class="cls-11" cx="270" cy="222" rx="15.9" ry="5.3" transform="translate(23.1 469.4) rotate(-84.5)"/><ellipse class="cls-11" cx="270" cy="222" rx="5.3" ry="15.9" transform="translate(-79.5 222.3) rotate(-39.5)"/><ellipse class="cls-11" cx="270" cy="222" rx="15.9" ry="5.3" transform="translate(-79.5 222.3) rotate(-39.5)"/><ellipse class="cls-11" cx="270" cy="222" rx="5.3" ry="15.9" transform="translate(23.1 469.4) rotate(-84.5)"/><circle class="cls-2" cx="270" cy="222" r="1.7" transform="matrix(0.1, -1, 1, 0.1, 23.11, 469.42)"/></svg>