<svg xmlns="http://www.w3.org/2000/svg" id="Layer_1" data-name="Layer 1" viewBox="0 0 343.4 212.5">
  <defs>
    <style>
      .cls-1{fill:#73c2fb}.cls-2{fill:#186399}.cls-3{fill:#42a6ed}.cls-4{fill:#9ed6ff}.cls-5{fill:#ffa514}.cls-10,.cls-6{fill:none}.cls-6{stroke:#166395}.cls-10,.cls-6{stroke-miterlimit:10}.cls-6{stroke-width:3.24px}.cls-7{fill:#44a4eb}.cls-10{stroke:#186399}
    </style>
  </defs>
  <rect width="77.6" height="97.13" x="236.6" y="92.6" class="cls-1" rx="6.6" ry="6.6"/>
  <path d="M238.8 189.7h73.5v5.84h-73.5z" class="cls-2"/>
  <rect width="91.4" height="8.08" x="230.1" y="204.3" class="cls-2" rx="2" ry="2"/>
  <path d="M332.6 240.5h82.5a3.3 3.3 0 0 1 3.3 3.3v5.6h-88.6v-6.1a3 3 0 0 1 2.8-2.8z" class="cls-3" transform="translate(-97.8 -45)"/>
  <rect width="17.4" height="7.93" x="326" y="204.5" class="cls-2" rx="2" ry="2"/>
  <path d="M438.2 249.5h-12.1a1.4 1.4 0 0 1-1.3-1.1.9.9 0 0 1 .1-.5l.8-2.9a4.4 4.4 0 0 1 4.2-3.3h4.9a4.1 4.1 0 0 1 3.9 2.9l.9 3.2a1.4 1.4 0 0 1-1 1.7h-.4z" class="cls-1" transform="translate(-97.8 -45)"/>
  <rect width="65.7" height="59.3" x="242.8" y="99.4" class="cls-3" rx="6.3" ry="6.3"/>
  <rect width="60" height="54.2" x="245.6" y="101.9" class="cls-2" rx="5.7" ry="5.7"/>
  <path d="M274.4 172.1h31.5v3.19h-31.5z" class="cls-2"/>
  <path d="M291.2 169.9h14.7v5.31h-14.7z" class="cls-2"/>
  <path d="M265 131h21.7v7.38H265z" class="cls-1"/>
  <path d="M266.6 132.2h18.3v4.26h-18.3z" class="cls-3"/>
  <path d="M265 127.9h21.7v3.16H265z" class="cls-4"/>
  <path d="M265 136.7h21.7v3.16H265z" class="cls-1"/>
  <path d="M267.6 125.4h17v3.16h-17z" class="cls-4"/>
  <path d="M269.8 123.1h12.3v3.16h-12.3z" class="cls-4"/>
  <path d="M270.4 129.3h11v1.6h-11z" class="cls-5"/>
  <path d="M271.7 128.1h8.6v1.6h-8.6z" class="cls-5"/>
  <path d="M272.8 126.9h6.2v1.6h-6.2z" class="cls-5"/>
  <path d="M266.9 138.1h17v3.16h-17z" class="cls-1"/>
  <path d="M269.5 139.7h12.3v3.16h-12.3z" class="cls-1"/>
  <path d="M268.9 133.2h.9v2.08h-.9zM281.5 133.2h.9v2.08h-.9z" class="cls-2"/>
  <path d="M102.5 205v-45.3a8.9 8.9 0 0 1 8.9-8.9" class="cls-6" transform="translate(-97.8 -45)"/>
  <path d="M115.5 116.3a7.4 7.4 0 0 1 0-14.8" class="cls-3" transform="translate(-97.8 -45)"/>
  <path d="M112.8 110.6a1.8 1.8 0 0 1-1.7-1.7 1.7 1.7 0 0 1 1.7-1.6" class="cls-2" transform="translate(-97.8 -45)"/>
  <path d="M205.3 203.3a5 5 0 0 1-4.1 5.6 5 5 0 0 1-5.6-4.2 3.3 3.3 0 0 1 0-1.4M107.5 202.9a4.9 4.9 0 0 1-9.7 0M113.4 160.1a7.6 7.6 0 0 1-7.3-7.4 7.3 7.3 0 0 1 7.3-7.3" class="cls-3" transform="translate(-97.8 -45)"/>
  <path d="M104.5 210.6c3.5-2 2.1-7.6-2.1-7.3a4 4 0 0 0-3.4 4.3 4.2 4.2 0 0 0 2.2 3.1c.8.4 1.6-.8.7-1.2s-2.2-4.4.5-4.8 3.7 3.4 1.4 4.7c-.4.1-.5.5-.4.9a.8.8 0 0 0 1 .4zM202.6 211.5c3.5-2 2.2-7.6-2-7.3a4 4 0 0 0-3.4 4.3 4.2 4.2 0 0 0 2.2 3.1c.8.4 1.5-.8.7-1.2s-2.3-4.4.4-4.8 3.8 3.4 1.4 4.7c-.4.1-.5.5-.4.9a.8.8 0 0 0 1 .4z" class="cls-7" transform="translate(-97.8 -45)"/>
  <path d="M113.4 150.2a2.4 2.4 0 0 0 0 4.8M100.2 202.9a2.3 2.3 0 0 0 2.2 2.4h.1a2.4 2.4 0 0 0 2.4-2.4M198.2 203.3a2.3 2.3 0 0 0 2.2 2.4h.1a2.4 2.4 0 0 0 2.4-2.4" class="cls-2" transform="translate(-97.8 -45)"/>
  <path fill="none" stroke="#186399" stroke-miterlimit="10" stroke-width="3.24" d="M27.7 167.8s-4.8 36.8 25.9 36.8S80.9 168 80.9 168"/>
  <path d="M147.5 245.6v5.7a2 2 0 0 1-2 2 1.9 1.9 0 0 1-1.9-1.9v-5.7a1.9 1.9 0 0 1 1.8-2h.1a2 2 0 0 1 2 1.9zM159.5 245.5v5.7a2 2 0 0 1-2 2 1.9 1.9 0 0 1-1.9-1.9v-5.7a1.9 1.9 0 0 1 1.8-2h.1a2 2 0 0 1 2 1.9z" class="cls-3" transform="translate(-97.8 -45)"/>
  <rect width="12.4" height="18.1" x="47.4" y="194.4" class="cls-2" rx="4.8" ry="4.8"/>
  <path d="M112.8 101.5a37.8 37.8 0 0 1 25.3-47.1 37.6 37.6 0 0 1 47 24.9" class="cls-4" transform="translate(-97.8 -45)"/>
  <path d="M133 213.6a7.4 7.4 0 0 1-10.4-1.2 7.2 7.2 0 0 1 0-9.2" class="cls-3" transform="translate(-97.8 -45)"/>
  <path d="M128.5 211.2a2.5 2.5 0 0 1-3.6-3.6" class="cls-2" transform="translate(-97.8 -45)"/>
  <path d="M179.9 203.5a7.4 7.4 0 0 1-1.2 10.4 7.2 7.2 0 0 1-9.2 0" class="cls-3" transform="translate(-97.8 -45)"/>
  <path d="M177.5 208.1a2.7 2.7 0 0 1 0 3.7 2.5 2.5 0 0 1-3.5.1h-.1" class="cls-2" transform="translate(-97.8 -45)"/>
  <path d="M113.4 145.4h76.2V181a37.9 37.9 0 0 1-37.9 37.9h-.3a38 38 0 0 1-38-38z" class="cls-1" transform="translate(-97.8 -45)"/>
  <path d="M191.6 151.3a8.9 8.9 0 0 1 8.9 8.9v45.3" class="cls-6" transform="translate(-97.8 -45)"/>
  <path d="M189.6 145.4a7.4 7.4 0 0 1 1.7 14.7h-1.7" class="cls-3" transform="translate(-97.8 -45)"/>
  <path d="M189.6 150.4a2.3 2.3 0 0 1 2.4 2.2 2.4 2.4 0 0 1-2.4 2.4" class="cls-2" transform="translate(-97.8 -45)"/>
  <path d="M185.6 101.4a7.4 7.4 0 0 1 1.7 14.7 4.9 4.9 0 0 1-1.7 0" class="cls-3" transform="translate(-97.8 -45)"/>
  <path d="M188.4 106.8a1.7 1.7 0 0 1 0 3.4M125.9 102a17.1 17.1 0 0 1 0-3.2 24.6 24.6 0 0 1 8.4-17.5 25.3 25.3 0 0 1 42.1 20.3v.2h-2.2v-.3a23.1 23.1 0 1 0-46.1-2.6 14.1 14.1 0 0 0 0 2.9z" class="cls-2" transform="translate(-97.8 -45)"/>
  <path d="M150.1 84.6c-2.9 0-5-.8-6.4-2.3s-1.1-5.7-1.1-5.8l2.2.6-1.1-.3 1.1.3a4.7 4.7 0 0 0 .7 3.8c1.1 1.3 3.6 1.8 7.1 1.3l.2 2.2zM154.3 96a5 5 0 0 1 1.1-3.9 5.2 5.2 0 0 1 4.1-1.6h14.2v2.2h-14.2a3.1 3.1 0 0 0-2.4.8 3.9 3.9 0 0 0-.6 2.1zM127.5 99.7v-2.2h11.7a3.4 3.4 0 0 0 3.1-3.4v-.2l2.2-.2v.3a5.1 5.1 0 0 1-1.4 3.9 5.3 5.3 0 0 1-3.9 1.8z" class="cls-2" transform="translate(-97.8 -45)"/>
  <circle cx="57.2" cy="51.8" r="2" class="cls-5"/>
  <path d="M155 99.9a3.1 3.1 0 1 1 3.1-3.1 3.1 3.1 0 0 1-3.1 3.1zm0-4a.9.9 0 1 0 .9.9.9.9 0 0 0-.9-.9z" class="cls-2" transform="translate(-97.8 -45)"/>
  <circle cx="46" cy="47.4" r="2" class="cls-5"/>
  <path d="M143.8 95.5a3.1 3.1 0 1 1 3.1-3.1 3.1 3.1 0 0 1-3.1 3.1zm0-4a.9.9 0 1 0 .9.9.9.9 0 0 0-.9-.9z" class="cls-2" transform="translate(-97.8 -45)"/>
  <circle cx="56.6" cy="38.4" r="2" class="cls-5"/>
  <path d="M154.4 86.5a3.1 3.1 0 1 1 3.1-3.1 3.1 3.1 0 0 1-3.1 3.1zm0-4a.9.9 0 1 0 .9.9.9.9 0 0 0-.9-.9z" class="cls-2" transform="translate(-97.8 -45)"/>
  <path d="M188.4 101.4v24.9a13 13 0 0 1-13 13h-49.6a13 13 0 0 1-13-13v-24.8" class="cls-1" transform="translate(-97.8 -45)"/>
  <rect width="63.6" height="15.42" x="21" y="62.3" class="cls-3" rx="5" ry="5"/>
  <path d="M131.6 111.8v6.7a1.5 1.5 0 0 0 1.8 1.1 1.5 1.5 0 0 0 1.1-1.1v-6.7a1.5 1.5 0 0 0-1.8-1.1 1.5 1.5 0 0 0-1.1 1.1zM166.1 111.5v6.7a1.5 1.5 0 0 0 1.8 1.1 1.5 1.5 0 0 0 1.1-1.1v-6.7a1.5 1.5 0 0 0-1.8-1.1 1.5 1.5 0 0 0-1.1 1.1z" class="cls-2" transform="translate(-97.8 -45)"/>
  <path d="M120.7 151.8h61a28.6 28.6 0 0 1-28.5 28.7h-3.9a28.6 28.6 0 0 1-28.7-28.5v-.2z" class="cls-3" transform="translate(-97.8 -45)"/>
  <path d="M154.4 126c-.2 4.7-7.1 4.7-7.3 0-.1-.9-1.5-.9-1.4 0a5.1 5.1 0 0 0 4.3 5.8 5.2 5.2 0 0 0 5.8-4.4 3.3 3.3 0 0 0 0-1.4c.1-.9-1.3-.9-1.4 0z" class="cls-2" transform="translate(-97.8 -45)"/>
  <path d="M119.9 127.9a4.4 4.4 0 0 0 1.5 6 4.5 4.5 0 0 0 6.1-1.4l.4-1a4.4 4.4 0 0 0-1.5-6 4.5 4.5 0 0 0-6.1 1.4zM174.3 127.9a4.2 4.2 0 0 0 1.9 5.6h.4a4.4 4.4 0 0 0 5.8-2.3 4.5 4.5 0 0 0-2.4-5.8 4.4 4.4 0 0 0-5.7 2.5z" class="cls-4" transform="translate(-97.8 -45)"/>
  <path d="M152.5 161.7a2.2 2.2 0 0 1 1.4 3.6l-1.1 1.3-2.3 2.9-2.2-2.9-1.1-1.3a2.2 2.2 0 0 1 .1-3h.2a2.2 2.2 0 0 1 1.1-.5h.2a2.9 2.9 0 0 1 1.8.7 2.8 2.8 0 0 1 1.7-.7z" class="cls-2" transform="translate(-97.8 -45)"/>
  <path d="M267.9 61.3h7.6v7.61h-7.6zM270 60.6h-1V57l-1.1-1 .8-.8 1.3 1.4v4zM271.2 55.9h1v4.7h-1zM274.5 60.6h-1v-4l1.4-1.5.8.8-1.2 1.1v3.6z" class="cls-2"/>
  <path d="M365.4 101.4a1.4 1.4 0 1 1 1.4-1.4 1.4 1.4 0 0 1-1.4 1.4zm0-1.8a.4.4 0 1 0 .4.4.4.4 0 0 0-.4-.4zM373.7 101.4a1.4 1.4 0 1 1 1.4-1.4 1.4 1.4 0 0 1-1.4 1.4zm0-1.8a.4.4 0 1 0 .4.4.4.4 0 0 0-.4-.4zM369.5 101.4a1.4 1.4 0 1 1 1.4-1.4 1.4 1.4 0 0 1-1.4 1.4zm0-1.8a.4.4 0 1 0 .4.4.4.4 0 0 0-.4-.4z" class="cls-2" transform="translate(-97.8 -45)"/>
  <path d="M268.7 75.2l-.8-.8 1.1-1v-3.6h1v4l-1.3 1.4zM271.2 69.8h1v4.7h-1zM275 75.2l-1.5-1.4v-4h1v3.6l1.1 1-.6.8z" class="cls-2"/>
  <path d="M365.4 121.8a1.4 1.4 0 1 1 1.4-1.4 1.4 1.4 0 0 1-1.4 1.4zm0-1.8a.4.4 0 1 0 .4.4.4.4 0 0 0-.4-.4zM373.7 121.8a1.4 1.4 0 1 1 1.4-1.4 1.4 1.4 0 0 1-1.4 1.4zm0-1.8a.4.4 0 1 0 .4.4.4.4 0 0 0-.4-.4zM369.5 121.8a1.4 1.4 0 1 1 1.4-1.4 1.4 1.4 0 0 1-1.4 1.4zm0-1.8a.4.4 0 1 0 .4.4.4.4 0 0 0-.4-.4z" class="cls-2" transform="translate(-97.8 -45)"/>
  <path d="M262.4 69l-.6-.8 1.3-1.2h4v1h-3.6l-1.1 1zM262.4 64.7h4.7v1h-4.7zM267.1 63.4h-4l-1.4-1.5.8-.6 1 1.1h3.6v1z" class="cls-2"/>
  <path d="M359.4 115.7a1.4 1.4 0 1 1 1.4-1.4 1.4 1.4 0 0 1-1.4 1.4zm0-1.8a.4.4 0 1 0 .4.4.4.4 0 0 0-.4-.4zM359.4 107.4a1.4 1.4 0 1 1 1.4-1.4 1.4 1.4 0 0 1-1.4 1.4zm0-1.8a.4.4 0 1 0 .4.4.4.4 0 0 0-.4-.4zM359.4 111.6a1.4 1.4 0 1 1 1.4-1.4 1.4 1.4 0 0 1-1.4 1.4zm0-1.8a.4.4 0 1 0 .4.4.4.4 0 0 0-.4-.4z" class="cls-2" transform="translate(-97.8 -45)"/>
  <path d="M281.1 69l-1.1-1h-3.7v-1h4.1l1.3 1.2-.6.8zM276.3 64.7h4.7v1h-4.7zM280.4 63.4h-4.1v-1h3.7l1-1.1.8.6-1.4 1.5z" class="cls-2"/>
  <path d="M379.7 115.7a1.4 1.4 0 1 1 1.4-1.4 1.4 1.4 0 0 1-1.4 1.4zm0-1.8a.4.4 0 1 0 .4.4.4.4 0 0 0-.4-.4zM379.7 107.4a1.4 1.4 0 1 1 1.4-1.4 1.4 1.4 0 0 1-1.4 1.4zm0-1.8a.4.4 0 1 0 .4.4.4.4 0 0 0-.4-.4zM379.7 111.6a1.4 1.4 0 1 1 1.4-1.4 1.4 1.4 0 0 1-1.4 1.4zm0-1.8a.4.4 0 1 0 .4.4.4.4 0 0 0-.4-.4zM275 136.3h-3.4v-19.8h19.9v3.3H275zm-2.4-1h1.4v-16.5h16.5v-1.3h-17.9z" class="cls-2" transform="translate(-97.8 -45)"/>
  <path d="M277.4 138.7H274v-19.9h19.8v3.5h-16.4zm-2.4-1h1.4v-16.4h16.4v-1.5H275z" class="cls-2" transform="translate(-97.8 -45)"/>
  <path d="M279.5 141.1h-3.1v-19.8h19.9v3h-16.8zm-2.1-1h1.1v-16.8h16.8v-1h-17.9z" class="cls-2" transform="translate(-97.8 -45)"/>
  <path d="M298.3 143.1h-19.8v-19.8h19.8zm-18.8-1h17.8v-17.8h-17.8z" class="cls-2" transform="translate(-97.8 -45)"/>
  <circle cx="140.7" cy="106.6" r="3.6" class="cls-2"/>
  <circle cx="140.7" cy="118.6" r="3.6" class="cls-2"/>
  <circle cx="152.7" cy="106.6" r="3.6" class="cls-2"/>
  <circle cx="164.6" cy="112.7" r="3.6" class="cls-2"/>
  <circle cx="152.7" cy="118.6" r="3.6" class="cls-2"/>
  <path d="M251 164.1h-13.7l6.5-6.5-6.5-6.5h13.3l12.9 6.6zm-.3-1h.1l10.5-5.4-10.7-5.5-5.4 5.4zm-11 0h9.6l-4.8-4.8zm0-11l4.8 4.8 4.8-4.8z" class="cls-2" transform="translate(-97.8 -45)"/>
  <circle cx="142.3" cy="39.3" r="1.4" class="cls-2"/>
  <circle cx="137.3" cy="42.1" r="1.4" class="cls-2"/>
  <circle cx="146" cy="43.5" r="1.4" class="cls-2"/>
  <circle cx="141.6" cy="43.9" r="1.4" class="cls-2"/>
  <circle cx="144.3" cy="48.7" r="1.4" class="cls-2"/>
  <circle cx="138.9" cy="48.1" r="1.4" class="cls-2"/>
  <path d="M246 66.6h1v31.18h-1z" class="cls-2" transform="rotate(-44.9 143.19415797 178.02676375)"/>
  <path d="M337.5 113.5h-9a4.5 4.5 0 0 1-4.5-4.5v-9a4.5 4.5 0 0 1 4.5-4.5h9a4.5 4.5 0 0 1 4.5 4.5v9a4.5 4.5 0 0 1-4.5 4.5zm-9-17a3.5 3.5 0 0 0-3.5 3.5v9a3.5 3.5 0 0 0 3.5 3.5h9a3.5 3.5 0 0 0 3.5-3.5v-9a3.5 3.5 0 0 0-3.5-3.5z" class="cls-2" transform="translate(-97.8 -45)"/>
  <path d="M329 122h-9a4.5 4.5 0 0 1-4.5-4.5v-9a4.5 4.5 0 0 1 4.5-4.5h9a4.5 4.5 0 0 1 4.5 4.5v9a4.5 4.5 0 0 1-4.5 4.5zm-9-17a3.5 3.5 0 0 0-3.5 3.5v9a3.5 3.5 0 0 0 3.5 3.5h9a3.5 3.5 0 0 0 3.5-3.5v-9a3.5 3.5 0 0 0-3.5-3.5z" class="cls-2" transform="translate(-97.8 -45)"/>
  <path d="M210.9 24.6h42v1h-42zM234.7 22.7h-9.4l-2.8-2.7.8-.8 2.4 2.5h9v1zM217.3 33.3l-.8-.8 5.2-5.1h13v1h-12.6l-4.8 4.9zM252.9 22.7h-14l-3.6-3.5.8-.8 3.2 3.3h13.6v1zM230.5 37.3l-.8-.8 9.2-9.1h14v1h-13.6l-8.8 8.9z" class="cls-2"/>
  <path d="M306.8 72.5a2.4 2.4 0 1 1 2.4-2.4 2.4 2.4 0 0 1-2.4 2.4zm0-3.8a1.4 1.4 0 1 0 1.4 1.4 1.4 1.4 0 0 0-1.4-1.4zM313.6 81.8a2.4 2.4 0 1 1 2.4-2.4 2.4 2.4 0 0 1-2.4 2.4zm0-3.8a1.4 1.4 0 1 0 1.4 1.4 1.4 1.4 0 0 0-1.4-1.4zM319.7 65.3a2.4 2.4 0 1 1 2.4-2.4 2.4 2.4 0 0 1-2.4 2.4zm0-3.8a1.4 1.4 0 1 0 1.4 1.4 1.4 1.4 0 0 0-1.4-1.4zM332.2 64.8a2.4 2.4 0 1 1 2.4-2.4 2.4 2.4 0 0 1-2.4 2.4zm0-3.8a1.4 1.4 0 1 0 1.4 1.4 1.4 1.4 0 0 0-1.4-1.4zM326.8 86.1a2.4 2.4 0 1 1 2.4-2.4 2.4 2.4 0 0 1-2.4 2.4zm0-3.8a1.4 1.4 0 1 0 1.4 1.4 1.4 1.4 0 0 0-1.4-1.4zM370 97.1h-1v-4h1zm0-8h-1v-1.6a19.4 19.4 0 0 0-.2-2.4h1a21.1 21.1 0 0 1 .2 2.5zm-2.2-7.7A11.1 11.1 0 0 0 366 78l.8-.6a15.8 15.8 0 0 1 2 3.6zm-4.4-6.3a16.6 16.6 0 0 0-3.2-2.2l.5-.9a19.4 19.4 0 0 1 3.3 2.3zm-6.8-3.6a17.4 17.4 0 0 0-3.9-.5v-1a18.4 18.4 0 0 1 4.1.5zM370 137.6h-1v-4h1zm0-8h-1v-4h1zM285 112.4h-1v-4h1zm0-8h-1v-4h1zm0-8.1h-1v-4h1zm0-8h-1a18.4 18.4 0 0 1 .5-4.1l1 .3a15.8 15.8 0 0 0-.5 3.8zm1.8-7.5l-.9-.4a25.6 25.6 0 0 1 2.2-3.5l.8.6a30.2 30.2 0 0 0-2.1 3.3zm4.9-6l-.7-.8a25.6 25.6 0 0 1 3.5-2.2l.5.9a18.5 18.5 0 0 0-3.3 2.1zm6.9-3.4l-.2-.9a18.4 18.4 0 0 1 4.1-.5v1a25.8 25.8 0 0 0-3.9.4zM249 149.5h-1v-4h1zm0-8h-1v-4h1zm0-8h-1v-4h1zm0-8.1h-1v-4h1zm0-8h-1v-4h1zm0-8h-1v-4h1zm0-8h-1v-4h1zM218.8 142.9h-.5a2.7 2.7 0 0 1-2.7-2.7v-12.4a2.7 2.7 0 0 1 2.7-2.7h.5a2.7 2.7 0 0 1 2.7 2.7v12.4a2.7 2.7 0 0 1-2.7 2.7zm-.5-16.8a1.8 1.8 0 0 0-1.7 1.7v12.4a1.8 1.8 0 0 0 1.7 1.7h.5a1.8 1.8 0 0 0 1.7-1.7v-12.4a1.8 1.8 0 0 0-1.7-1.7z" class="cls-2" transform="translate(-97.8 -45)"/>
  <path d="M218.6 133.7a.5.5 0 0 1-.5-.5v-4.3a.5.5 0 0 1 1 0v4.3a.5.5 0 0 1-.5.5z" class="cls-2" transform="translate(-97.8 -45)"/>
  <path fill="none" stroke="#186399" stroke-linecap="round" stroke-linejoin="round" d="M120.8 94.3v-3.8"/>
  <path d="M269.2 130.2h-4v-1h4zm-8 0h-4v-1h4zm-8 0h-4v-1h4zm-8.1 0h-4v-1h3.9zm-8-1.1a8.6 8.6 0 0 1-3.1-2.9l.8-.5a8.4 8.4 0 0 0 2.8 2.5zm-4.5-6.8a3.4 3.4 0 0 1-.1-1v-3.1h1v3.9zm.9-8.1h-1v-4h1v4.1zm-1.9-7.8a11.1 11.1 0 0 0-1.8-3.4l.8-.5a15.8 15.8 0 0 1 2 3.6zm-4.5-6.1a13.8 13.8 0 0 0-3.3-2l.4-.9a11.3 11.3 0 0 1 3.5 2.1zm-7-2.9h-4v-1h4.1zm-8-.1h-4v-1h4zm-8 0h-4v-1h4zm-8.1 0h-4v-1h4zm-8 0h-4v-1h4zm-8 0h-4v-1h4zM219.1 125.5h-1v-4h1zm.1-7.9l-1-.2a12.8 12.8 0 0 1 1.3-3.9l.9.4a12.3 12.3 0 0 0-1.2 3.7zm3.5-6.7l-.7-.8a11.5 11.5 0 0 1 3.5-2.2l.4.9a9.9 9.9 0 0 0-3.2 2.1zm6.9-3.1v-1h4.1v1h-4.1zm84.2 0h-4v-1h4zm-8.1 0h-4v-1h4zm-8 0h-4v-1h4zm-8 0h-4v-1h4zm-8 0h-4v-1h4zm-8 0h-4v-1h4zm-8.1 0h-4v-1h4zm-8 0h-4v-1h4zm-8 0h-4v-1h4zm-8 0h-4v-1h4zM234.8 158.1h-4v-1h4zm-8.1-.5a10 10 0 0 1-3.7-1.9l.6-.8a9.1 9.1 0 0 0 3.4 1.7zm-6.6-4.9a10.8 10.8 0 0 1-1.7-3.8l1-.2a11.9 11.9 0 0 0 1.5 3.5zm-1-7.9h-1v-2.1h1z" class="cls-2" transform="translate(-97.8 -45)"/>
  <circle cx="96.2" cy="11.1" r="2.1" class="cls-10"/>
  <circle cx="329.8" cy="106.6" r="2.1" class="cls-10"/>
  <circle cx="153.7" cy="146.7" r="2.1" class="cls-10"/>
  <circle cx="123.2" cy="187.2" r="2.1" class="cls-10"/>
  <circle cx="300.2" cy="71.3" r="2.1" class="cls-10"/>
  <circle cx="15.4" cy="195.5" r="2.1" class="cls-10"/>
  <circle cx="215.8" cy="146.7" r="2.1" class="cls-10"/>
  <path d="M334.4 158.2h-3.2v-1h3.2zm-7.2 0h-4.1v-1h4.1zm-8.1 0h-4v-1h4zm-8 0h-4v-1h4zm-8 0h-4v-1h4zm-8 0h-4v-1h4zm-8.1 0h-4v-1h4zm-8 0h-4v-1h4zm-8 0h-4v-1h4zM268.6 238.3h-.2c-3.6-.3-5-8.8-4.2-16.8s3.7-16.1 7.3-15.8 5 8.9 4.2 16.9a39.7 39.7 0 0 1-2.6 11.2c-1.4 2.8-2.9 4.5-4.5 4.5zm2.7-31.7c-2.2 0-5.3 6-6.1 14.9s1 15.5 3.3 15.8 2.5-1.4 3.7-4a37.5 37.5 0 0 0 2.5-10.9c.9-9.1-1-15.6-3.3-15.8z" class="cls-2" transform="translate(-97.8 -45)"/>
  <path d="M278.7 235.1a10 10 0 0 1-4.7-1.8 43.6 43.6 0 0 1-14.5-17.6c-1.2-3.1-1.2-5.4.1-6.5 1.3-1 3.6-.6 6.5 1.2a39 39 0 0 1 8.4 7.8c5.2 6.2 8.8 14 6 16.3a2.8 2.8 0 0 1-1.8.6zm-17.3-25.5a1.2 1.2 0 0 0-1.1.4c-.9.7-.9 2.7.2 5.4a37.3 37.3 0 0 0 5.8 9.5 39.9 39.9 0 0 0 8.3 7.6c2.4 1.5 4.4 2 5.2 1.2s-.3-7.9-6-14.9a39.9 39.9 0 0 0-8.3-7.6 8.6 8.6 0 0 0-4.1-1.6z" class="cls-2" transform="translate(-97.8 -45)"/>
  <path d="M259.9 233.3a3 3 0 0 1-2.5-1c-2.3-2.8 2.7-9.8 9-14.9a36.7 36.7 0 0 1 9.8-6.1c3.1-1.2 5.5-1.1 6.5.1s.6 3.6-1.2 6.5a36.6 36.6 0 0 1-7.8 8.4c-4.7 3.9-10.3 7-13.8 7zm7.1-15.1c-7 5.7-10.3 11.7-8.8 13.5s7.9-.4 14.9-6.1a39.9 39.9 0 0 0 7.6-8.3c1.5-2.4 2-4.3 1.2-5.2s-2.7-.8-5.4.2a32.2 32.2 0 0 0-9.5 5.9z" class="cls-2" transform="translate(-97.8 -45)"/>
  <path d="M273.9 227.9l-4.5-.2c-8-.8-16.1-3.7-15.8-7.4.4-3.6 8.9-4.9 16.9-4.2s16.1 3.8 15.8 7.4c-.2 1.6-2.1 3-5.4 3.7a32.6 32.6 0 0 1-7 .7zm-19.3-7.5c-.2 2.3 5.9 5.4 14.9 6.3a38.3 38.3 0 0 0 11.2-.5c2.8-.6 4.5-1.7 4.6-2.8s-5.8-5.4-14.9-6.3-15.6 1.1-15.8 3.3z" class="cls-2" transform="translate(-97.8 -45)"/>
  <circle cx="270" cy="221.9" r="1.7" class="cls-2" transform="rotate(-84.3 196.23764533 253.40029152)"/>
  <path d="M326.2 217.5l-.8.8h-.2c-.1 0-.1 0-3.1-3.3a.8.8 0 0 0-1-.2h-.1l-1.9 2.2a2.2 2.2 0 0 1-2.9.2l-.2-.2-1.8-2.1-.5-.3h-.6l-1.9 2.2a2.2 2.2 0 0 1-2.9.2h-.1v-.2l-1.9-2.2a.9.9 0 0 0-1-.1l-3.2 3.7-1-.9 3.1-3.6a2.1 2.1 0 0 1 1.4-.7 2 2 0 0 1 1.5.4l.2.2 1.9 2.2a.8.8 0 0 0 1 .1h.1l1.8-2.1a1.6 1.6 0 0 1 1.4-.8 2.1 2.1 0 0 1 1.5.5h.1l.2.2 1.8 2.1a.8.8 0 0 0 1 .1h.1l1.8-2.1a2.1 2.1 0 0 1 2.9-.3h.1l.2.2zM326.2 231.2l-.8.8h-.2c-.1 0-.1 0-3.1-3.3a.8.8 0 0 0-1-.2h-.1l-1.9 2.2a2.2 2.2 0 0 1-2.9.2l-.2-.2-1.8-2.1-.5-.3h-.6l-1.9 2.2a2.2 2.2 0 0 1-2.9.2h-.1v-.2l-1.9-2.2c-.2-.3-.6-.3-1-.1l-3.2 3.7-1-.9 3.1-3.6a2.1 2.1 0 0 1 1.4-.7 2 2 0 0 1 1.5.4l.2.2 1.9 2.2a.8.8 0 0 0 1 .1h.1l1.8-2.1a1.6 1.6 0 0 1 1.4-.8 2.1 2.1 0 0 1 1.5.5h.1l.2.2 1.8 2.1a.8.8 0 0 0 1 .1h.1l1.8-2.1a2.1 2.1 0 0 1 2.9-.3h.1l.2.2zM405.6 75.1l-.6.5h-.1c-.1 0-.1 0-2.3-2.4a.5.5 0 0 0-.7-.1h-.1l-1.4 1.6a1.5 1.5 0 0 1-2.1.1h-.1v-.2l-1.3-1.5-.4-.2h-.5l-1.4 1.6a1.5 1.5 0 0 1-2.1.1h-.1v-.2l-1.4-1.5a.4.4 0 0 0-.5-.2h-.3l-2.3 2.6-.7-.6 2.3-2.7a1.2 1.2 0 0 1 1-.5 2 2 0 0 1 1.1.3l.2.2 1.3 1.6a.8.8 0 0 0 .8.1h.1l1.3-1.6a1.2 1.2 0 0 1 1-.5 1.1 1.1 0 0 1 1.1.3h.2l1.4 1.6c.1.2.5.2.7.1h.1l1.3-1.6a1.6 1.6 0 0 1 2.1-.2h.2zM405.6 85.2l-.6.5h-.1c-.1 0-.1 0-2.3-2.4a.5.5 0 0 0-.7-.1h-.1l-1.4 1.6a1.5 1.5 0 0 1-2.1.1h-.1v-.2l-1.3-1.5-.4-.2h-.5l-1.4 1.6a1.5 1.5 0 0 1-2.1.1h-.1v-.2L391 83a.4.4 0 0 0-.5-.2c-.1 0-.2 0-.2.1h-.1l-2.3 2.6-.7-.6 2.3-2.7a1.2 1.2 0 0 1 1-.5 2 2 0 0 1 1.1.3l.2.2 1.3 1.6a.8.8 0 0 0 .8.1h.1l1.3-1.6a1.2 1.2 0 0 1 1-.5 1.1 1.1 0 0 1 1.1.3h.2l1.4 1.6c.1.2.5.2.7.1h.1l1.3-1.6a1.6 1.6 0 0 1 2.1-.2h.2zM436.9 169.3l-.6.5h-.1c-.1 0-.1 0-2.3-2.4a.5.5 0 0 0-.7-.1h-.1l-1.4 1.6a1.4 1.4 0 0 1-2 .2h-.2v-.2l-1.3-1.5-.4-.2h-.4l-1.4 1.6a1.5 1.5 0 0 1-2.1.1h-.1v-.2l-1.4-1.5a.5.5 0 0 0-.7-.1h-.1l-2.3 2.6-.7-.6 2.3-2.7a1.2 1.2 0 0 1 1-.5 2 2 0 0 1 1.1.3l.2.2 1.3 1.6a.8.8 0 0 0 .8.1h.1l1.3-1.6a1.2 1.2 0 0 1 1-.5 1.1 1.1 0 0 1 1.1.3h.2l1.4 1.6c.1.2.5.2.7.1h.1l1.3-1.6a1.6 1.6 0 0 1 2.1-.2h.2zM203 48l-.6.6h-.1c-.1 0-.1 0-2.3-2.4a.5.5 0 0 0-.8-.2l-1.4 1.6a1.6 1.6 0 0 1-2.1.2h-.2l-1.4-1.6c0-.1-.2-.2-.3-.2h-.5l-1.3 1.7a1.7 1.7 0 0 1-2.2.2h-.1l-1.4-1.6a.6.6 0 0 0-.7-.1h-.1l-2.3 2.7-.8-.7 2.3-2.6a2.4 2.4 0 0 1 1.1-.6 1.3 1.3 0 0 1 1 .4h.2l1.4 1.6a.5.5 0 0 0 .7.1h.1l1.4-1.5a1.3 1.3 0 0 1 1-.6 2 2 0 0 1 1.1.3h.1v.2l1.4 1.5a.5.5 0 0 0 .7.1h.1l1.3-1.5a1.5 1.5 0 0 1 2.1-.3h.1v.2zM99.1 61.6a1.9 1.9 0 0 1 .2-2.7 2 2 0 0 1 2.4-.1q.3.2.3.3h.1a.9.9 0 0 1 .3.7l7.3-1.2a2.3 2.3 0 0 1 .6-1.6l1-.5-.3-7a2.4 2.4 0 0 1-1.1-.6 1.9 1.9 0 0 1 0-2.7 1.9 1.9 0 1 1 2.5 2.9 1.8 1.8 0 0 1-.9.4l.3 7 1 .4.3.3a1.9 1.9 0 1 1-2.9 2.5 1.6 1.6 0 0 1-.4-.7l-7.3 1.2a2.3 2.3 0 0 1-.6 1.6 2 2 0 0 1-2.8-.2zM410.5 50.5a2.2 2.2 0 0 1 3.1.1 2.2 2.2 0 0 1-.1 3.2l-.3.3-.9.4.7 8.6a2.2 2.2 0 0 1 1.8 1 1.5 1.5 0 0 1 .4 1.1l8.3.4a2.3 2.3 0 0 1 3.9-1.1h.1a2.3 2.3 0 0 1-.8 3.2 2.4 2.4 0 0 1-2.9-.5 2.7 2.7 0 0 1-.3-1.2l-8.3-.4a1.8 1.8 0 0 1-.5 1.2l-.4.3a2.3 2.3 0 0 1-3.2-.5 2.2 2.2 0 0 1 .5-3.1h.1a1.2 1.2 0 0 1 .8-.4l-.7-8.6a2.5 2.5 0 0 1-1.8-1 2.2 2.2 0 0 1 .5-3.1z" class="cls-2" transform="translate(-97.8 -45)"/>
  <path d="M248.3 74.5h.7v4.15h-.7z" class="cls-2" transform="rotate(-45.1 145.45491804 171.9265529)"/>
  <path d="M246.5 76.1h4.1v.65h-4.1z" class="cls-2" transform="rotate(-44.9 145.25213946 172.36033808)"/>
  <path d="M250.9 69.7h.7v4.15h-.7z" class="cls-2" transform="rotate(-45.1 148.15698483 167.11919186)"/>
  <path d="M249 71.2h4.1v.65H249z" class="cls-2" transform="rotate(-44.9 147.71516722 167.42794943)"/>
  <path d="M256.3 69.7h.7v4.15h-.7z" class="cls-2" transform="rotate(-45.1 153.58269243 166.97216477)"/>
  <path d="M254.4 71.2h4.1v.65h-4.1z" class="cls-2" transform="rotate(-44.9 153.11351886 167.39180138)"/>
  <path d="M253.3 74.5h.7v4.15h-.7z" class="cls-2" transform="rotate(-45.1 150.58979893 171.79993917)"/>
  <path d="M251.5 76.1h4.1v.65h-4.1z" class="cls-2" transform="rotate(-44.9 150.11645408 172.24519928)"/>
  <path d="M258.2 74.6h.7v4.15h-.7z" class="cls-2" transform="rotate(-45.1 155.50426646 171.86415215)"/>
  <path d="M256.5 76.1h4.1v.65h-4.1z" class="cls-2" transform="rotate(-44.9 155.22278721 172.23006048)"/>
  <path d="M255.7 79.4h.7v4.15h-.7z" class="cls-2" transform="rotate(-45.1 152.92261303 176.7215132)"/>
  <path d="M253.8 81.1h4.1v.65h-4.1z" class="cls-2" transform="rotate(-44.9 152.46774094 177.18345838)"/>
  <path d="M250.8 78.9h.7v4.15h-.7z" class="cls-2" transform="rotate(-45.1 148.03773214 176.24606013)"/>
  <path d="M249.1 80.5h4.1v.65h-4.1z" class="cls-2" transform="rotate(-44.9 147.73241707 176.64355092)"/>
</svg>
