<svg id="Layer_1" data-name="Layer 1" xmlns="http://www.w3.org/2000/svg" viewBox="0 0 343.4 212.5"><defs><style>.cls-1{fill:#73c2fb;}.cls-2{fill:#186399;}.cls-3{fill:#42a6ed;}.cls-4{fill:#9ed6ff;}.cls-5{fill:#ffa514;}.cls-10,.cls-6,.cls-8,.cls-9{fill:none;}.cls-6{stroke:#166395;}.cls-10,.cls-6,.cls-8{stroke-miterlimit:10;}.cls-6,.cls-8{stroke-width:3.24px;}.cls-7{fill:#44a4eb;}.cls-10,.cls-8,.cls-9{stroke:#186399;}.cls-9{stroke-linecap:round;stroke-linejoin:round;}</style></defs><title>Machine Learning Libre AI</title><rect class="cls-1" x="236.6" y="92.6" width="77.6" height="97.13" rx="6.6" ry="6.6"/><rect class="cls-2" x="238.8" y="189.7" width="73.5" height="5.84"/><rect class="cls-2" x="230.1" y="204.3" width="91.4" height="8.08" rx="2" ry="2"/><path class="cls-3" d="M332.6,240.5h82.5a3.3,3.3,0,0,1,3.3,3.3v5.6H329.8v-6.1A3,3,0,0,1,332.6,240.5Z" transform="translate(-97.8 -45)"/><rect class="cls-2" x="326" y="204.5" width="17.4" height="7.93" rx="2" ry="2"/><path class="cls-1" d="M438.2,249.5H426.1a1.4,1.4,0,0,1-1.3-1.1.9.9,0,0,1,.1-.5l.8-2.9a4.4,4.4,0,0,1,4.2-3.3h4.9a4.1,4.1,0,0,1,3.9,2.9l.9,3.2a1.4,1.4,0,0,1-1,1.7h-.4Z" transform="translate(-97.8 -45)"/><rect class="cls-3" x="242.8" y="99.4" width="65.7" height="59.3" rx="6.3" ry="6.3"/><rect class="cls-2" x="245.6" y="101.9" width="60" height="54.2" rx="5.7" ry="5.7"/><rect class="cls-2" x="274.4" y="172.1" width="31.5" height="3.19"/><rect class="cls-2" x="291.2" y="169.9" width="14.7" height="5.31"/><rect class="cls-1" x="265" y="131" width="21.7" height="7.38"/><rect class="cls-3" x="266.6" y="132.2" width="18.3" height="4.26"/><rect class="cls-4" x="265" y="127.9" width="21.7" height="3.16"/><rect class="cls-1" x="265" y="136.7" width="21.7" height="3.16"/><rect class="cls-4" x="267.6" y="125.4" width="17" height="3.16"/><rect class="cls-4" x="269.8" y="123.1" width="12.3" height="3.16"/><rect class="cls-5" x="270.4" y="129.3" width="11" height="1.6"/><rect class="cls-5" x="271.7" y="128.1" width="8.6" height="1.6"/><rect class="cls-5" x="272.8" y="126.9" width="6.2" height="1.6"/><rect class="cls-1" x="266.9" y="138.1" width="17" height="3.16"/><rect class="cls-1" x="269.5" y="139.7" width="12.3" height="3.16"/><rect class="cls-2" x="268.9" y="133.2" width="0.9" height="2.08"/><rect class="cls-2" x="281.5" y="133.2" width="0.9" height="2.08"/><path class="cls-6" d="M102.5,205V159.7a8.9,8.9,0,0,1,8.9-8.9" transform="translate(-97.8 -45)"/><path class="cls-3" d="M115.5,116.3a7.4,7.4,0,0,1,0-14.8" transform="translate(-97.8 -45)"/><path class="cls-2" d="M112.8,110.6a1.8,1.8,0,0,1-1.7-1.7,1.7,1.7,0,0,1,1.7-1.6" transform="translate(-97.8 -45)"/><path class="cls-3" d="M205.3,203.3a5,5,0,0,1-4.1,5.6,5,5,0,0,1-5.6-4.2,3.3,3.3,0,0,1,0-1.4" transform="translate(-97.8 -45)"/><path class="cls-3" d="M107.5,202.9a4.9,4.9,0,0,1-9.7,0" transform="translate(-97.8 -45)"/><path class="cls-3" d="M113.4,160.1a7.6,7.6,0,0,1-7.3-7.4,7.3,7.3,0,0,1,7.3-7.3h0" transform="translate(-97.8 -45)"/><path class="cls-7" d="M104.5,210.6c3.5-2,2.1-7.6-2.1-7.3a4,4,0,0,0-3.4,4.3,4.2,4.2,0,0,0,2.2,3.1c.8.4,1.6-.8.7-1.2s-2.2-4.4.5-4.8,3.7,3.4,1.4,4.7c-.4.1-.5.5-.4.9a.8.8,0,0,0,1,.4Z" transform="translate(-97.8 -45)"/><path class="cls-7" d="M202.6,211.5c3.5-2,2.2-7.6-2-7.3a4,4,0,0,0-3.4,4.3,4.2,4.2,0,0,0,2.2,3.1c.8.4,1.5-.8.7-1.2s-2.3-4.4.4-4.8,3.8,3.4,1.4,4.7c-.4.1-.5.5-.4.9a.8.8,0,0,0,1,.4Z" transform="translate(-97.8 -45)"/><path class="cls-2" d="M113.4,150.2a2.4,2.4,0,0,0,0,4.8" transform="translate(-97.8 -45)"/><path class="cls-2" d="M100.2,202.9a2.3,2.3,0,0,0,2.2,2.4h.1a2.4,2.4,0,0,0,2.4-2.4" transform="translate(-97.8 -45)"/><path class="cls-2" d="M198.2,203.3a2.3,2.3,0,0,0,2.2,2.4h.1a2.4,2.4,0,0,0,2.4-2.4" transform="translate(-97.8 -45)"/><path class="cls-8" d="M125.5,212.8s-4.8,36.8,25.9,36.8S178.7,213,178.7,213" transform="translate(-97.8 -45)"/><path class="cls-3" d="M147.5,245.6v5.7a2,2,0,0,1-2,2h0a1.9,1.9,0,0,1-1.9-1.9h0v-5.7a1.9,1.9,0,0,1,1.8-2h.1A2,2,0,0,1,147.5,245.6Z" transform="translate(-97.8 -45)"/><path class="cls-3" d="M159.5,245.5v5.7a2,2,0,0,1-2,2h0a1.9,1.9,0,0,1-1.9-1.9h0v-5.7a1.9,1.9,0,0,1,1.8-2h.1A2,2,0,0,1,159.5,245.5Z" transform="translate(-97.8 -45)"/><rect class="cls-2" x="47.4" y="194.4" width="12.4" height="18.1" rx="4.8" ry="4.8"/><path class="cls-4" d="M112.8,101.5a37.8,37.8,0,0,1,25.3-47.1h0a37.6,37.6,0,0,1,47,24.9h0" transform="translate(-97.8 -45)"/><path class="cls-3" d="M133,213.6a7.4,7.4,0,0,1-10.4-1.2h0a7.2,7.2,0,0,1,0-9.2" transform="translate(-97.8 -45)"/><path class="cls-2" d="M128.5,211.2a2.5,2.5,0,0,1-3.6-3.6h0" transform="translate(-97.8 -45)"/><path class="cls-3" d="M179.9,203.5a7.4,7.4,0,0,1-1.2,10.4h0a7.2,7.2,0,0,1-9.2,0" transform="translate(-97.8 -45)"/><path class="cls-2" d="M177.5,208.1a2.7,2.7,0,0,1,0,3.7,2.5,2.5,0,0,1-3.5.1h-.1" transform="translate(-97.8 -45)"/><path class="cls-1" d="M113.4,145.4h76.2V181a37.9,37.9,0,0,1-37.9,37.9h-.3a38,38,0,0,1-38-38Z" transform="translate(-97.8 -45)"/><path class="cls-6" d="M191.6,151.3h0a8.9,8.9,0,0,1,8.9,8.9v45.3h0" transform="translate(-97.8 -45)"/><path class="cls-3" d="M189.6,145.4a7.4,7.4,0,0,1,1.7,14.7h-1.7" transform="translate(-97.8 -45)"/><path class="cls-2" d="M189.6,150.4a2.3,2.3,0,0,1,2.4,2.2h0a2.4,2.4,0,0,1-2.4,2.4" transform="translate(-97.8 -45)"/><path class="cls-3" d="M185.6,101.4a7.4,7.4,0,0,1,1.7,14.7,4.9,4.9,0,0,1-1.7,0" transform="translate(-97.8 -45)"/><path class="cls-2" d="M188.4,106.8a1.7,1.7,0,0,1,0,3.4" transform="translate(-97.8 -45)"/><path class="cls-2" d="M125.9,102a17.1,17.1,0,0,1,0-3.2,24.6,24.6,0,0,1,8.4-17.5,25.3,25.3,0,0,1,42.1,20.3v.2h-2.2v-.3a23.1,23.1,0,1,0-46.1-2.6,14.1,14.1,0,0,0,0,2.9Z" transform="translate(-97.8 -45)"/><path class="cls-2" d="M150.1,84.6c-2.9,0-5-.8-6.4-2.3s-1.1-5.7-1.1-5.8l2.2.6-1.1-.3,1.1.3a4.7,4.7,0,0,0,.7,3.8c1.1,1.3,3.6,1.8,7.1,1.3l.2,2.2Z" transform="translate(-97.8 -45)"/><path class="cls-2" d="M154.3,96a5,5,0,0,1,1.1-3.9,5.2,5.2,0,0,1,4.1-1.6h14.2v2.2H159.5a3.1,3.1,0,0,0-2.4.8,3.9,3.9,0,0,0-.6,2.1Z" transform="translate(-97.8 -45)"/><path class="cls-2" d="M127.5,99.7V97.5h11.7a3.4,3.4,0,0,0,3.1-3.4v-.2l2.2-.2V94a5.1,5.1,0,0,1-1.4,3.9,5.3,5.3,0,0,1-3.9,1.8Z" transform="translate(-97.8 -45)"/><circle class="cls-5" cx="57.2" cy="51.8" r="2"/><path class="cls-2" d="M155,99.9a3.1,3.1,0,1,1,3.1-3.1,3.1,3.1,0,0,1-3.1,3.1Zm0-4a.9.9,0,1,0,.9.9h0A.9.9,0,0,0,155,95.9Z" transform="translate(-97.8 -45)"/><circle class="cls-5" cx="46" cy="47.4" r="2"/><path class="cls-2" d="M143.8,95.5a3.1,3.1,0,1,1,3.1-3.1,3.1,3.1,0,0,1-3.1,3.1Zm0-4a.9.9,0,1,0,.9.9h0A.9.9,0,0,0,143.8,91.5Z" transform="translate(-97.8 -45)"/><circle class="cls-5" cx="56.6" cy="38.4" r="2"/><path class="cls-2" d="M154.4,86.5a3.1,3.1,0,1,1,3.1-3.1,3.1,3.1,0,0,1-3.1,3.1Zm0-4a.9.9,0,1,0,.9.9h0A.9.9,0,0,0,154.4,82.5Z" transform="translate(-97.8 -45)"/><path class="cls-1" d="M188.4,101.4v24.9a13,13,0,0,1-13,13H125.8a13,13,0,0,1-13-13h0V101.5" transform="translate(-97.8 -45)"/><rect class="cls-3" x="21" y="62.3" width="63.6" height="15.42" rx="5" ry="5"/><path class="cls-2" d="M131.6,111.8v6.7a1.5,1.5,0,0,0,1.8,1.1,1.5,1.5,0,0,0,1.1-1.1v-6.7a1.5,1.5,0,0,0-1.8-1.1A1.5,1.5,0,0,0,131.6,111.8Z" transform="translate(-97.8 -45)"/><path class="cls-2" d="M166.1,111.5v6.7a1.5,1.5,0,0,0,1.8,1.1,1.5,1.5,0,0,0,1.1-1.1v-6.7a1.5,1.5,0,0,0-1.8-1.1A1.5,1.5,0,0,0,166.1,111.5Z" transform="translate(-97.8 -45)"/><path class="cls-3" d="M120.7,151.8h61a28.6,28.6,0,0,1-28.5,28.7h-3.9A28.6,28.6,0,0,1,120.6,152v-.2Z" transform="translate(-97.8 -45)"/><path class="cls-2" d="M154.4,126c-.2,4.7-7.1,4.7-7.3,0-.1-.9-1.5-.9-1.4,0a5.1,5.1,0,0,0,4.3,5.8h0a5.2,5.2,0,0,0,5.8-4.4,3.3,3.3,0,0,0,0-1.4c.1-.9-1.3-.9-1.4,0Z" transform="translate(-97.8 -45)"/><path class="cls-4" d="M119.9,127.9a4.4,4.4,0,0,0,1.5,6,4.5,4.5,0,0,0,6.1-1.4h0l.4-1a4.4,4.4,0,0,0-1.5-6,4.5,4.5,0,0,0-6.1,1.4h0Z" transform="translate(-97.8 -45)"/><path class="cls-4" d="M174.3,127.9a4.2,4.2,0,0,0,1.9,5.6h.4a4.4,4.4,0,0,0,5.8-2.3h0a4.5,4.5,0,0,0-2.4-5.8A4.4,4.4,0,0,0,174.3,127.9Z" transform="translate(-97.8 -45)"/><path class="cls-2" d="M152.5,161.7a2.2,2.2,0,0,1,1.4,3.6l-1.1,1.3-2.3,2.9-2.2-2.9-1.1-1.3a2.2,2.2,0,0,1,.1-3h.2a2.2,2.2,0,0,1,1.1-.5h.2a2.9,2.9,0,0,1,1.8.7,2.8,2.8,0,0,1,1.7-.7Z" transform="translate(-97.8 -45)"/><rect class="cls-2" x="267.9" y="61.3" width="7.6" height="7.61"/><polygon class="cls-2" points="270 60.6 269 60.6 269 57 267.9 56 268.7 55.2 270 56.6 270 60.6"/><rect class="cls-2" x="271.2" y="55.9" width="1" height="4.7"/><polygon class="cls-2" points="274.5 60.6 273.5 60.6 273.5 56.6 274.9 55.1 275.7 55.9 274.5 57 274.5 60.6"/><path class="cls-2" d="M365.4,101.4a1.4,1.4,0,1,1,1.4-1.4h0A1.4,1.4,0,0,1,365.4,101.4Zm0-1.8a.4.4,0,1,0,.4.4h0A.4.4,0,0,0,365.4,99.6Z" transform="translate(-97.8 -45)"/><path class="cls-2" d="M373.7,101.4a1.4,1.4,0,1,1,1.4-1.4h0A1.4,1.4,0,0,1,373.7,101.4Zm0-1.8a.4.4,0,1,0,.4.4h0A.4.4,0,0,0,373.7,99.6Z" transform="translate(-97.8 -45)"/><path class="cls-2" d="M369.5,101.4a1.4,1.4,0,1,1,1.4-1.4h0A1.4,1.4,0,0,1,369.5,101.4Zm0-1.8a.4.4,0,1,0,.4.4h0A.4.4,0,0,0,369.5,99.6Z" transform="translate(-97.8 -45)"/><polygon class="cls-2" points="268.7 75.2 267.9 74.4 269 73.4 269 69.8 270 69.8 270 73.8 268.7 75.2"/><rect class="cls-2" x="271.2" y="69.8" width="1" height="4.7"/><polygon class="cls-2" points="275 75.2 273.5 73.8 273.5 69.8 274.5 69.8 274.5 73.4 275.6 74.4 275 75.2"/><path class="cls-2" d="M365.4,121.8a1.4,1.4,0,1,1,1.4-1.4h0A1.4,1.4,0,0,1,365.4,121.8Zm0-1.8a.4.4,0,1,0,.4.4h0A.4.4,0,0,0,365.4,120Z" transform="translate(-97.8 -45)"/><path class="cls-2" d="M373.7,121.8a1.4,1.4,0,1,1,1.4-1.4h0A1.4,1.4,0,0,1,373.7,121.8Zm0-1.8a.4.4,0,1,0,.4.4h0A.4.4,0,0,0,373.7,120Z" transform="translate(-97.8 -45)"/><path class="cls-2" d="M369.5,121.8a1.4,1.4,0,1,1,1.4-1.4h0A1.4,1.4,0,0,1,369.5,121.8Zm0-1.8a.4.4,0,1,0,.4.4h0A.4.4,0,0,0,369.5,120Z" transform="translate(-97.8 -45)"/><polygon class="cls-2" points="262.4 69 261.8 68.2 263.1 67 267.1 67 267.1 68 263.5 68 262.4 69"/><rect class="cls-2" x="262.4" y="64.7" width="4.7" height="1"/><polygon class="cls-2" points="267.1 63.4 263.1 63.4 261.7 61.9 262.5 61.3 263.5 62.4 267.1 62.4 267.1 63.4"/><path class="cls-2" d="M359.4,115.7a1.4,1.4,0,1,1,1.4-1.4h0A1.4,1.4,0,0,1,359.4,115.7Zm0-1.8a.4.4,0,1,0,.4.4h0A.4.4,0,0,0,359.4,113.9Z" transform="translate(-97.8 -45)"/><path class="cls-2" d="M359.4,107.4a1.4,1.4,0,1,1,1.4-1.4h0A1.4,1.4,0,0,1,359.4,107.4Zm0-1.8a.4.4,0,1,0,.4.4h0A.4.4,0,0,0,359.4,105.6Z" transform="translate(-97.8 -45)"/><path class="cls-2" d="M359.4,111.6a1.4,1.4,0,1,1,1.4-1.4h0A1.4,1.4,0,0,1,359.4,111.6Zm0-1.8a.4.4,0,1,0,.4.4h0A.4.4,0,0,0,359.4,109.8Z" transform="translate(-97.8 -45)"/><polygon class="cls-2" points="281.1 69 280 68 276.3 68 276.3 67 280.4 67 281.7 68.2 281.1 69"/><rect class="cls-2" x="276.3" y="64.7" width="4.7" height="1"/><polygon class="cls-2" points="280.4 63.4 276.3 63.4 276.3 62.4 280 62.4 281 61.3 281.8 61.9 280.4 63.4"/><path class="cls-2" d="M379.7,115.7a1.4,1.4,0,1,1,1.4-1.4h0A1.4,1.4,0,0,1,379.7,115.7Zm0-1.8a.4.4,0,1,0,.4.4h0A.4.4,0,0,0,379.7,113.9Z" transform="translate(-97.8 -45)"/><path class="cls-2" d="M379.7,107.4a1.4,1.4,0,1,1,1.4-1.4h0A1.4,1.4,0,0,1,379.7,107.4Zm0-1.8a.4.4,0,1,0,.4.4h0A.4.4,0,0,0,379.7,105.6Z" transform="translate(-97.8 -45)"/><path class="cls-2" d="M379.7,111.6a1.4,1.4,0,1,1,1.4-1.4h0A1.4,1.4,0,0,1,379.7,111.6Zm0-1.8a.4.4,0,1,0,.4.4h0A.4.4,0,0,0,379.7,109.8Z" transform="translate(-97.8 -45)"/><path class="cls-2" d="M275,136.3h-3.4V116.5h19.9v3.3H275Zm-2.4-1H274V118.8h16.5v-1.3H272.6Z" transform="translate(-97.8 -45)"/><path class="cls-2" d="M277.4,138.7H274V118.8h19.8v3.5H277.4Zm-2.4-1h1.4V121.3h16.4v-1.5H275Z" transform="translate(-97.8 -45)"/><path class="cls-2" d="M279.5,141.1h-3.1V121.3h19.9v3H279.5Zm-2.1-1h1.1V123.3h16.8v-1H277.4Z" transform="translate(-97.8 -45)"/><path class="cls-2" d="M298.3,143.1H278.5V123.3h19.8Zm-18.8-1h17.8V124.3H279.5Z" transform="translate(-97.8 -45)"/><circle class="cls-2" cx="140.7" cy="106.6" r="3.6"/><circle class="cls-2" cx="140.7" cy="118.6" r="3.6"/><circle class="cls-2" cx="152.7" cy="106.6" r="3.6"/><circle class="cls-2" cx="164.6" cy="112.7" r="3.6"/><circle class="cls-2" cx="152.7" cy="118.6" r="3.6"/><path class="cls-2" d="M251,164.1H237.3l6.5-6.5-6.5-6.5h13.3l12.9,6.6Zm-.3-1h.1l10.5-5.4-10.7-5.5-5.4,5.4Zm-11,0h9.6l-4.8-4.8Zm0-11,4.8,4.8,4.8-4.8Z" transform="translate(-97.8 -45)"/><circle class="cls-2" cx="142.3" cy="39.3" r="1.4"/><circle class="cls-2" cx="137.3" cy="42.1" r="1.4"/><circle class="cls-2" cx="146" cy="43.5" r="1.4"/><circle class="cls-2" cx="141.6" cy="43.9" r="1.4"/><circle class="cls-2" cx="144.3" cy="48.7" r="1.4"/><circle class="cls-2" cx="138.9" cy="48.1" r="1.4"/><rect class="cls-2" x="246" y="66.6" width="1" height="31.18" transform="translate(-83.9 153) rotate(-44.9)"/><path class="cls-2" d="M337.5,113.5h-9A4.5,4.5,0,0,1,324,109v-9a4.5,4.5,0,0,1,4.5-4.5h9A4.5,4.5,0,0,1,342,100v9A4.5,4.5,0,0,1,337.5,113.5Zm-9-17A3.5,3.5,0,0,0,325,100v9a3.5,3.5,0,0,0,3.5,3.5h9A3.5,3.5,0,0,0,341,109v-9a3.5,3.5,0,0,0-3.5-3.5Z" transform="translate(-97.8 -45)"/><path class="cls-2" d="M329,122h-9a4.5,4.5,0,0,1-4.5-4.5v-9A4.5,4.5,0,0,1,320,104h9a4.5,4.5,0,0,1,4.5,4.5v9A4.5,4.5,0,0,1,329,122Zm-9-17a3.5,3.5,0,0,0-3.5,3.5v9A3.5,3.5,0,0,0,320,121h9a3.5,3.5,0,0,0,3.5-3.5v-9A3.5,3.5,0,0,0,329,105Z" transform="translate(-97.8 -45)"/><rect class="cls-2" x="210.9" y="24.6" width="42" height="1"/><polygon class="cls-2" points="234.7 22.7 225.3 22.7 222.5 20 223.3 19.2 225.7 21.7 234.7 21.7 234.7 22.7"/><polygon class="cls-2" points="217.3 33.3 216.5 32.5 221.7 27.4 234.7 27.4 234.7 28.4 222.1 28.4 217.3 33.3"/><polygon class="cls-2" points="252.9 22.7 238.9 22.7 235.3 19.2 236.1 18.4 239.3 21.7 252.9 21.7 252.9 22.7"/><polygon class="cls-2" points="230.5 37.3 229.7 36.5 238.9 27.4 252.9 27.4 252.9 28.4 239.3 28.4 230.5 37.3"/><path class="cls-2" d="M306.8,72.5a2.4,2.4,0,1,1,2.4-2.4h0A2.4,2.4,0,0,1,306.8,72.5Zm0-3.8a1.4,1.4,0,1,0,1.4,1.4h0A1.4,1.4,0,0,0,306.8,68.7Z" transform="translate(-97.8 -45)"/><path class="cls-2" d="M313.6,81.8a2.4,2.4,0,1,1,2.4-2.4h0A2.4,2.4,0,0,1,313.6,81.8Zm0-3.8a1.4,1.4,0,1,0,1.4,1.4h0A1.4,1.4,0,0,0,313.6,78Z" transform="translate(-97.8 -45)"/><path class="cls-2" d="M319.7,65.3a2.4,2.4,0,1,1,2.4-2.4h0A2.4,2.4,0,0,1,319.7,65.3Zm0-3.8a1.4,1.4,0,1,0,1.4,1.4h0A1.4,1.4,0,0,0,319.7,61.5Z" transform="translate(-97.8 -45)"/><path class="cls-2" d="M332.2,64.8a2.4,2.4,0,1,1,2.4-2.4h0A2.4,2.4,0,0,1,332.2,64.8Zm0-3.8a1.4,1.4,0,1,0,1.4,1.4h0A1.4,1.4,0,0,0,332.2,61Z" transform="translate(-97.8 -45)"/><path class="cls-2" d="M326.8,86.1a2.4,2.4,0,1,1,2.4-2.4h0A2.4,2.4,0,0,1,326.8,86.1Zm0-3.8a1.4,1.4,0,1,0,1.4,1.4h0A1.4,1.4,0,0,0,326.8,82.3Z" transform="translate(-97.8 -45)"/><path class="cls-2" d="M370,97.1h-1v-4h1Zm0-8h-1V87.5a19.4,19.4,0,0,0-.2-2.4h1a21.1,21.1,0,0,1,.2,2.5Zm-2.2-7.7A11.1,11.1,0,0,0,366,78l.8-.6a15.8,15.8,0,0,1,2,3.6Zm-4.4-6.3a16.6,16.6,0,0,0-3.2-2.2l.5-.9a19.4,19.4,0,0,1,3.3,2.3Zm-6.8-3.6a17.4,17.4,0,0,0-3.9-.5V70a18.4,18.4,0,0,1,4.1.5Z" transform="translate(-97.8 -45)"/><path class="cls-2" d="M370,137.6h-1v-4h1Zm0-8h-1v-4h1Z" transform="translate(-97.8 -45)"/><path class="cls-2" d="M285,112.4h-1v-4h1Zm0-8h-1v-4h1Zm0-8.1h-1v-4h1Zm0-8h-1a18.4,18.4,0,0,1,.5-4.1l1,.3A15.8,15.8,0,0,0,285,88.3Zm1.8-7.5-.9-.4a25.6,25.6,0,0,1,2.2-3.5l.8.6A30.2,30.2,0,0,0,286.8,80.8Zm4.9-6L291,74a25.6,25.6,0,0,1,3.5-2.2l.5.9a18.5,18.5,0,0,0-3.3,2.1Zm6.9-3.4-.2-.9a18.4,18.4,0,0,1,4.1-.5v1a25.8,25.8,0,0,0-3.9.4Z" transform="translate(-97.8 -45)"/><path class="cls-2" d="M249,149.5h-1v-4h1Zm0-8h-1v-4h1Zm0-8h-1v-4h1Zm0-8.1h-1v-4h1Zm0-8h-1v-4h1Zm0-8h-1v-4h1Zm0-8h-1v-4h1Z" transform="translate(-97.8 -45)"/><path class="cls-2" d="M218.8,142.9h-.5a2.7,2.7,0,0,1-2.7-2.7V127.8a2.7,2.7,0,0,1,2.7-2.7h.5a2.7,2.7,0,0,1,2.7,2.7v12.4A2.7,2.7,0,0,1,218.8,142.9Zm-.5-16.8a1.8,1.8,0,0,0-1.7,1.7v12.4a1.8,1.8,0,0,0,1.7,1.7h.5a1.8,1.8,0,0,0,1.7-1.7V127.8a1.8,1.8,0,0,0-1.7-1.7Z" transform="translate(-97.8 -45)"/><path class="cls-2" d="M218.6,133.7a.5.5,0,0,1-.5-.5v-4.3a.5.5,0,0,1,1,0v4.3A.5.5,0,0,1,218.6,133.7Z" transform="translate(-97.8 -45)"/><line class="cls-9" x1="120.8" y1="94.3" x2="120.8" y2="90.5"/><path class="cls-2" d="M269.2,130.2h-4v-1h4Zm-8,0h-4v-1h4Zm-8,0h-4v-1h4Zm-8.1,0h-4v-1H245Zm-8-1.1a8.6,8.6,0,0,1-3.1-2.9l.8-.5a8.4,8.4,0,0,0,2.8,2.5Zm-4.5-6.8a3.4,3.4,0,0,1-.1-1v-3.1h1v3.9Zm.9-8.1h-1v-4h1v4.1Zm-1.9-7.8a11.1,11.1,0,0,0-1.8-3.4l.8-.5a15.8,15.8,0,0,1,2,3.6Zm-4.5-6.1a13.8,13.8,0,0,0-3.3-2l.4-.9a11.3,11.3,0,0,1,3.5,2.1Zm-7-2.9h-4v-1h4.1Zm-8-.1h-4v-1h4Zm-8,0h-4v-1h4Zm-8.1,0h-4v-1h4Zm-8,0h-4v-1h4Zm-8,0h-4v-1h4Z" transform="translate(-97.8 -45)"/><path class="cls-2" d="M219.1,125.5h-1v-4h1Zm.1-7.9-1-.2a12.8,12.8,0,0,1,1.3-3.9l.9.4a12.3,12.3,0,0,0-1.2,3.7Zm3.5-6.7-.7-.8a11.5,11.5,0,0,1,3.5-2.2l.4.9a9.9,9.9,0,0,0-3.2,2.1Zm6.9-3.1v-1h4.1v1h-4.1Zm84.2,0h-4v-1h4Zm-8.1,0h-4v-1h4Zm-8,0h-4v-1h4Zm-8,0h-4v-1h4Zm-8,0h-4v-1h4Zm-8,0h-4v-1h4Zm-8.1,0h-4v-1h4Zm-8,0h-4v-1h4Zm-8,0h-4v-1h4Zm-8,0h-4v-1h4Z" transform="translate(-97.8 -45)"/><path class="cls-2" d="M234.8,158.1h-4v-1h4Zm-8.1-.5a10,10,0,0,1-3.7-1.9l.6-.8a9.1,9.1,0,0,0,3.4,1.7Zm-6.6-4.9a10.8,10.8,0,0,1-1.7-3.8l1-.2a11.9,11.9,0,0,0,1.5,3.5Zm-1-7.9h-1v-2.1h1Z" transform="translate(-97.8 -45)"/><circle class="cls-10" cx="96.2" cy="11.1" r="2.1"/><circle class="cls-10" cx="329.8" cy="106.6" r="2.1"/><circle class="cls-10" cx="153.7" cy="146.7" r="2.1"/><circle class="cls-10" cx="123.2" cy="187.2" r="2.1"/><circle class="cls-10" cx="300.2" cy="71.3" r="2.1"/><circle class="cls-10" cx="15.4" cy="195.5" r="2.1"/><circle class="cls-10" cx="215.8" cy="146.7" r="2.1"/><path class="cls-2" d="M334.4,158.2h-3.2v-1h3.2Zm-7.2,0h-4.1v-1h4.1Zm-8.1,0h-4v-1h4Zm-8,0h-4v-1h4Zm-8,0h-4v-1h4Zm-8,0h-4v-1h4Zm-8.1,0h-4v-1h4Zm-8,0h-4v-1h4Zm-8,0h-4v-1h4Z" transform="translate(-97.8 -45)"/><path class="cls-2" d="M268.6,238.3h-.2c-3.6-.3-5-8.8-4.2-16.8s3.7-16.1,7.3-15.8,5,8.9,4.2,16.9a39.7,39.7,0,0,1-2.6,11.2C271.7,236.6,270.2,238.3,268.6,238.3Zm2.7-31.7c-2.2,0-5.3,6-6.1,14.9s1,15.5,3.3,15.8,2.5-1.4,3.7-4a37.5,37.5,0,0,0,2.5-10.9c.9-9.1-1-15.6-3.3-15.8Z" transform="translate(-97.8 -45)"/><path class="cls-2" d="M278.7,235.1a10,10,0,0,1-4.7-1.8,43.6,43.6,0,0,1-14.5-17.6c-1.2-3.1-1.2-5.4.1-6.5h0c1.3-1,3.6-.6,6.5,1.2a39,39,0,0,1,8.4,7.8c5.2,6.2,8.8,14,6,16.3A2.8,2.8,0,0,1,278.7,235.1Zm-17.3-25.5a1.2,1.2,0,0,0-1.1.4h0c-.9.7-.9,2.7.2,5.4a37.3,37.3,0,0,0,5.8,9.5,39.9,39.9,0,0,0,8.3,7.6c2.4,1.5,4.4,2,5.2,1.2s-.3-7.9-6-14.9a39.9,39.9,0,0,0-8.3-7.6,8.6,8.6,0,0,0-4.1-1.6Z" transform="translate(-97.8 -45)"/><path class="cls-2" d="M259.9,233.3a3,3,0,0,1-2.5-1c-2.3-2.8,2.7-9.8,9-14.9h0a36.7,36.7,0,0,1,9.8-6.1c3.1-1.2,5.5-1.1,6.5.1s.6,3.6-1.2,6.5a36.6,36.6,0,0,1-7.8,8.4C269,230.2,263.4,233.3,259.9,233.3Zm7.1-15.1c-7,5.7-10.3,11.7-8.8,13.5s7.9-.4,14.9-6.1a39.9,39.9,0,0,0,7.6-8.3c1.5-2.4,2-4.3,1.2-5.2s-2.7-.8-5.4.2a32.2,32.2,0,0,0-9.5,5.9Z" transform="translate(-97.8 -45)"/><path class="cls-2" d="M273.9,227.9l-4.5-.2c-8-.8-16.1-3.7-15.8-7.4h0c.4-3.6,8.9-4.9,16.9-4.2s16.1,3.8,15.8,7.4c-.2,1.6-2.1,3-5.4,3.7A32.6,32.6,0,0,1,273.9,227.9Zm-19.3-7.5c-.2,2.3,5.9,5.4,14.9,6.3a38.3,38.3,0,0,0,11.2-.5c2.8-.6,4.5-1.7,4.6-2.8s-5.8-5.4-14.9-6.3-15.6,1.1-15.8,3.3Z" transform="translate(-97.8 -45)"/><circle class="cls-2" cx="270" cy="221.9" r="1.7" transform="translate(-75.4 423.5) rotate(-84.3)"/><path class="cls-2" d="M326.2,217.5l-.8.8h-.2c-.1,0-.1,0-3.1-3.3a.8.8,0,0,0-1-.2H321l-1.9,2.2a2.2,2.2,0,0,1-2.9.2h0l-.2-.2-1.8-2.1-.5-.3h-.6l-1.9,2.2a2.2,2.2,0,0,1-2.9.2h-.1v-.2l-1.9-2.2a.9.9,0,0,0-1-.1h0l-3.2,3.7-1-.9,3.1-3.6a2.1,2.1,0,0,1,1.4-.7,2,2,0,0,1,1.5.4h0l.2.2,1.9,2.2a.8.8,0,0,0,1,.1h.1l1.8-2.1a1.6,1.6,0,0,1,1.4-.8,2.1,2.1,0,0,1,1.5.5h.1l.2.2,1.8,2.1a.8.8,0,0,0,1,.1h.1l1.8-2.1a2.1,2.1,0,0,1,2.9-.3h.1l.2.2Z" transform="translate(-97.8 -45)"/><path class="cls-2" d="M326.2,231.2l-.8.8h-.2c-.1,0-.1,0-3.1-3.3a.8.8,0,0,0-1-.2H321l-1.9,2.2a2.2,2.2,0,0,1-2.9.2h0l-.2-.2-1.8-2.1-.5-.3h-.6l-1.9,2.2a2.2,2.2,0,0,1-2.9.2h-.1v-.2l-1.9-2.2c-.2-.3-.6-.3-1-.1h0l-3.2,3.7-1-.9,3.1-3.6a2.1,2.1,0,0,1,1.4-.7,2,2,0,0,1,1.5.4h0l.2.2,1.9,2.2a.8.8,0,0,0,1,.1h.1l1.8-2.1a1.6,1.6,0,0,1,1.4-.8,2.1,2.1,0,0,1,1.5.5h.1l.2.2,1.8,2.1a.8.8,0,0,0,1,.1h.1l1.8-2.1a2.1,2.1,0,0,1,2.9-.3h.1l.2.2Z" transform="translate(-97.8 -45)"/><path class="cls-2" d="M405.6,75.1l-.6.5h-.1c-.1,0-.1,0-2.3-2.4a.5.5,0,0,0-.7-.1h-.1l-1.4,1.6a1.5,1.5,0,0,1-2.1.1h-.1v-.2l-1.3-1.5-.4-.2H396l-1.4,1.6a1.5,1.5,0,0,1-2.1.1h-.1v-.2L391,72.9a.4.4,0,0,0-.5-.2h-.3l-2.3,2.6-.7-.6,2.3-2.7a1.2,1.2,0,0,1,1-.5,2,2,0,0,1,1.1.3h0l.2.2,1.3,1.6a.8.8,0,0,0,.8.1h.1l1.3-1.6a1.2,1.2,0,0,1,1-.5,1.1,1.1,0,0,1,1.1.3h.2l1.4,1.6c.1.2.5.2.7.1h.1l1.3-1.6a1.6,1.6,0,0,1,2.1-.2h.2Z" transform="translate(-97.8 -45)"/><path class="cls-2" d="M405.6,85.2l-.6.5h-.1c-.1,0-.1,0-2.3-2.4a.5.5,0,0,0-.7-.1h-.1l-1.4,1.6a1.5,1.5,0,0,1-2.1.1h-.1v-.2l-1.3-1.5-.4-.2H396l-1.4,1.6a1.5,1.5,0,0,1-2.1.1h-.1v-.2L391,83a.4.4,0,0,0-.5-.2c-.1,0-.2,0-.2.1h-.1l-2.3,2.6-.7-.6,2.3-2.7a1.2,1.2,0,0,1,1-.5,2,2,0,0,1,1.1.3h0l.2.2,1.3,1.6a.8.8,0,0,0,.8.1h.1l1.3-1.6a1.2,1.2,0,0,1,1-.5,1.1,1.1,0,0,1,1.1.3h.2l1.4,1.6c.1.2.5.2.7.1h.1l1.3-1.6a1.6,1.6,0,0,1,2.1-.2h.2Z" transform="translate(-97.8 -45)"/><path class="cls-2" d="M436.9,169.3l-.6.5h-.1c-.1,0-.1,0-2.3-2.4a.5.5,0,0,0-.7-.1h-.1l-1.4,1.6a1.4,1.4,0,0,1-2,.2h-.2v-.2l-1.3-1.5-.4-.2h-.4l-1.4,1.6a1.5,1.5,0,0,1-2.1.1h-.1v-.2l-1.4-1.5a.5.5,0,0,0-.7-.1h-.1l-2.3,2.6-.7-.6,2.3-2.7a1.2,1.2,0,0,1,1-.5,2,2,0,0,1,1.1.3h0l.2.2,1.3,1.6a.8.8,0,0,0,.8.1h.1l1.3-1.6a1.2,1.2,0,0,1,1-.5,1.1,1.1,0,0,1,1.1.3h.2l1.4,1.6c.1.2.5.2.7.1h.1l1.3-1.6a1.6,1.6,0,0,1,2.1-.2h.2Z" transform="translate(-97.8 -45)"/><path class="cls-2" d="M203,48l-.6.6h-.1c-.1,0-.1,0-2.3-2.4a.5.5,0,0,0-.8-.2h0l-1.4,1.6a1.6,1.6,0,0,1-2.1.2h-.2l-1.4-1.6c0-.1-.2-.2-.3-.2h-.5L192,47.7a1.7,1.7,0,0,1-2.2.2h-.1l-1.4-1.6a.6.6,0,0,0-.7-.1h-.1l-2.3,2.7-.8-.7,2.3-2.6a2.4,2.4,0,0,1,1.1-.6,1.3,1.3,0,0,1,1,.4h.2l1.4,1.6a.5.5,0,0,0,.7.1h.1l1.4-1.5a1.3,1.3,0,0,1,1-.6,2,2,0,0,1,1.1.3h.1v.2l1.4,1.5a.5.5,0,0,0,.7.1h.1l1.3-1.5a1.5,1.5,0,0,1,2.1-.3h.1v.2Z" transform="translate(-97.8 -45)"/><path class="cls-2" d="M99.1,61.6a1.9,1.9,0,0,1,.2-2.7h0a2,2,0,0,1,2.4-.1q.3.2.3.3h.1a.9.9,0,0,1,.3.7l7.3-1.2a2.3,2.3,0,0,1,.6-1.6l1-.5-.3-7a2.4,2.4,0,0,1-1.1-.6,1.9,1.9,0,0,1,0-2.7h0a1.9,1.9,0,1,1,2.5,2.9,1.8,1.8,0,0,1-.9.4l.3,7,1,.4.3.3h0a1.9,1.9,0,1,1-2.9,2.5h0a1.6,1.6,0,0,1-.4-.7l-7.3,1.2a2.3,2.3,0,0,1-.6,1.6A2,2,0,0,1,99.1,61.6Z" transform="translate(-97.8 -45)"/><path class="cls-2" d="M410.5,50.5a2.2,2.2,0,0,1,3.1.1,2.2,2.2,0,0,1-.1,3.2l-.3.3h0l-.9.4.7,8.6a2.2,2.2,0,0,1,1.8,1,1.5,1.5,0,0,1,.4,1.1l8.3.4a2.3,2.3,0,0,1,3.9-1.1h.1a2.3,2.3,0,0,1-.8,3.2,2.4,2.4,0,0,1-2.9-.5,2.7,2.7,0,0,1-.3-1.2l-8.3-.4a1.8,1.8,0,0,1-.5,1.2l-.4.3h0a2.3,2.3,0,0,1-3.2-.5,2.2,2.2,0,0,1,.5-3.1h.1a1.2,1.2,0,0,1,.8-.4l-.7-8.6a2.5,2.5,0,0,1-1.8-1,2.2,2.2,0,0,1,.5-3.1Z" transform="translate(-97.8 -45)"/><rect class="cls-2" x="248.3" y="74.5" width="0.7" height="4.15" transform="translate(-79 153.6) rotate(-45.1)"/><rect class="cls-2" x="246.5" y="76.1" width="4.1" height="0.65" transform="translate(-79.3 152.8) rotate(-44.9)"/><rect class="cls-2" x="250.9" y="69.7" width="0.7" height="4.15" transform="translate(-74.8 154.1) rotate(-45.1)"/><rect class="cls-2" x="249" y="71.2" width="4.1" height="0.65" transform="translate(-75.1 153.1) rotate(-44.9)"/><rect class="cls-2" x="256.3" y="69.7" width="0.7" height="4.15" transform="translate(-73.1 157.9) rotate(-45.1)"/><rect class="cls-2" x="254.4" y="71.2" width="4.1" height="0.65" transform="translate(-73.5 156.9) rotate(-44.9)"/><rect class="cls-2" x="253.3" y="74.5" width="0.7" height="4.15" transform="translate(-77.4 157.2) rotate(-45.1)"/><rect class="cls-2" x="251.5" y="76.1" width="4.1" height="0.65" transform="translate(-77.8 156.2) rotate(-44.9)"/><rect class="cls-2" x="258.2" y="74.6" width="0.7" height="4.15" transform="translate(-76 160.7) rotate(-45.1)"/><rect class="cls-2" x="256.5" y="76.1" width="4.1" height="0.65" transform="translate(-76.3 159.8) rotate(-44.9)"/><rect class="cls-2" x="255.7" y="79.4" width="0.7" height="4.15" transform="translate(-80.2 160.3) rotate(-45.1)"/><rect class="cls-2" x="253.8" y="81.1" width="4.1" height="0.65" transform="translate(-80.6 159.3) rotate(-44.9)"/><rect class="cls-2" x="250.8" y="78.9" width="0.7" height="4.15" transform="translate(-81.3 156.7) rotate(-45.1)"/><rect class="cls-2" x="249.1" y="80.5" width="4.1" height="0.65" transform="translate(-81.6 155.8) rotate(-44.9)"/></svg>