<svg xmlns="http://www.w3.org/2000/svg" id="Layer_1" data-name="Layer 1" viewBox="0 0 520 300">
  <defs>
    <style>
      .cls-10,.cls-11,.cls-12,.cls-15,.cls-16,.cls-17,.cls-22,.cls-3,.cls-4,.cls-7,.cls-8,.cls-9{fill:none}.cls-2,.cls-26,.cls-5,.cls-6{fill:#ffa514}.cls-10,.cls-11,.cls-12,.cls-16,.cls-17,.cls-2,.cls-22,.cls-26,.cls-3,.cls-4,.cls-6,.cls-7,.cls-8,.cls-9{stroke:#ffa514}.cls-10,.cls-11,.cls-12,.cls-15,.cls-16,.cls-2,.cls-22,.cls-26,.cls-3,.cls-4,.cls-6,.cls-7,.cls-8,.cls-9{stroke-miterlimit:10}.cls-12,.cls-15,.cls-17,.cls-2,.cls-3{stroke-width:2px}.cls-6{stroke-width:3px}.cls-7{stroke-width:1.41px}.cls-8{stroke-width:2.44px}.cls-9{stroke-width:2.1px}.cls-10{stroke-width:1.88px}.cls-11{stroke-width:2.58px}.cls-12,.cls-17{stroke-linecap:round}.cls-15{stroke:#0034f4}.cls-16{stroke-width:1.79px}.cls-17{stroke-linejoin:round}.cls-22{stroke-width:1.62px}.cls-25{fill:#00a6f7}
    </style>
    <pattern id="New_Pattern_Swatch_3" width="904" height="678" data-name="New Pattern Swatch 3" patternTransform="matrix(.75 0 0 .75 48 -675.9)" patternUnits="userSpaceOnUse">
      <path fill="none" d="M0 0h904v678H0z"/>
      <path d="M372.9 73.1a4 4 0 0 0 .4 5.7 4.1 4.1 0 0 0 5.7-.5 4 4 0 0 0-.4-5.7 4.1 4.1 0 0 0-5.7.5zM368.6 50.8a4.1 4.1 0 0 0 .5 5.7 4 4 0 0 0 5.7-.4 4.1 4.1 0 0 0-.5-5.7 4 4 0 0 0-5.7.4zM350.6 80.5a4 4 0 1 0 5.7-.5 4.1 4.1 0 0 0-5.7.5z" class="cls-2"/>
      <path d="M353.7 83.1l22.2-7.4-4.2-22.2" class="cls-3"/>
      <path d="M34 83.1a4 4 0 1 0 5.6 1.1 4.1 4.1 0 0 0-5.6-1.1zM36.1 60.5a4 4 0 1 0 5.6 1.2 4.1 4.1 0 0 0-5.6-1.2zM10.5 83.9a4.1 4.1 0 0 0 4.5 6.8 4.1 4.1 0 0 0 1.1-5.6 4 4 0 0 0-5.6-1.2z" class="cls-2"/>
      <path d="M12.7 87.3l23.5-.8 2.1-22.6" class="cls-3"/>
      <path d="M262.2 608.3l-.5.6-3.5-3.8a1.2 1.2 0 0 0-1.7-.1h-.1l-2.2 2.5a1.9 1.9 0 0 1-2.8.2l-.2-.2-2.2-2.5a1.2 1.2 0 0 0-1.7-.1h-.1l-2.2 2.5a1.9 1.9 0 0 1-2.8.2l-.2-.2-2.1-2.5a1.3 1.3 0 0 0-1.8-.1h-.1l-3.4 4-.6-.5 3.4-4a2 2 0 0 1 2.8-.2c.1.1.2.1.2.2l2.2 2.5a1.2 1.2 0 0 0 1.7.1c.1 0 .1 0 .1-.1l2.2-2.5a2 2 0 0 1 2.8-.2c.1.1.2.1.2.2l2.2 2.5a1.2 1.2 0 0 0 1.7.1.1.1 0 0 0 .1-.1l2.2-2.5a2 2 0 0 1 2.8-.2c.1.1.2.1.2.2zM310.3 483.6l-.6.5-3.4-3.8a1.2 1.2 0 0 0-1.7-.1h-.2l-2.1 2.6a2 2 0 0 1-2.8.2l-.3-.2-2.1-2.6a1.2 1.2 0 0 0-1.7-.1h-.2l-2.1 2.6a2 2 0 0 1-2.8.2l-.3-.2-2.1-2.6a1.2 1.2 0 0 0-1.7-.1h-.2l-3.3 4-.6-.5 3.3-4a2.2 2.2 0 0 1 2.9-.2.2.2 0 0 0 .2.2l2.1 2.5a1.3 1.3 0 0 0 1.8.2c0-.1 0-.1.1-.2l2.1-2.5a2.1 2.1 0 0 1 2.9-.2l.2.2 2.1 2.5a1.2 1.2 0 0 0 1.7.2l.2-.2 2.1-2.5a2 2 0 0 1 2.8-.2l.3.2zM535.2 656.1l-.6-.5c0-.1 3.8-3.5 3.8-3.5a1.2 1.2 0 0 0 .1-1.7h-.1l-2.5-2.2a1.9 1.9 0 0 1-.3-2.8l.3-.2 2.5-2.2a1.2 1.2 0 0 0 .1-1.7h-.1l-2.5-2.2a1.9 1.9 0 0 1-.3-2.8l.3-.2 2.5-2.1a1.4 1.4 0 0 0 .1-1.8h-.1l-4-3.4.5-.6 4 3.4a2 2 0 0 1 .2 2.8l-.2.2-2.5 2.2a1.2 1.2 0 0 0-.2 1.7h.2l2.5 2.2a2 2 0 0 1 .2 2.8l-.2.2-2.5 2.2a1.2 1.2 0 0 0-.2 1.7h.2l2.5 2.2a2 2 0 0 1 .2 2.8l-.2.2zM61.5 30.9l-.6-.5 3.8-3.5a1.2 1.2 0 0 0 .1-1.7h-.1L62.2 23a1.9 1.9 0 0 1-.3-2.8l.3-.2 2.5-2.1a1.4 1.4 0 0 0 .1-1.8h-.1L62.2 14a2.1 2.1 0 0 1-.3-2.9l.3-.2 2.5-2.1a1.4 1.4 0 0 0 .1-1.8h-.1l-4-3.4.5-.6 4 3.4a2 2 0 0 1 .2 2.8l-.2.2-2.5 2.2a1.2 1.2 0 0 0-.2 1.7h.2l2.5 2.2a2 2 0 0 1 .2 2.8l-.2.2-2.5 2.2a1.2 1.2 0 0 0-.2 1.7h.2l2.5 2.2a2 2 0 0 1 .2 2.8l-.2.2zM82.4 29.6l-.6-.6 3.8-3.4a1.2 1.2 0 0 0 .1-1.7h-.1l-2.5-2.2a1.9 1.9 0 0 1-.2-2.8.2.2 0 0 1 .2-.2l2.5-2.2a1.2 1.2 0 0 0 .1-1.7h-.1l-2.5-2.2a1.9 1.9 0 0 1-.2-2.8l.2-.2 2.5-2.2a1.2 1.2 0 0 0 .1-1.7h-.1l-4-3.7.5-.6 4 3.4a2 2 0 0 1 .2 2.8c-.1.1-.1.2-.2.2L83.6 10a1.2 1.2 0 0 0-.2 1.7h.2l2.5 2.3a2 2 0 0 1 .2 2.8l-.2.2-2.5 2.2a1.2 1.2 0 0 0-.2 1.7h.2l2.5 2.2a2 2 0 0 1 .2 2.8l-.2.2zM101.7 29.6l-.6-.6 3.8-3.4a1.2 1.2 0 0 0 .1-1.7h-.1l-2.5-2.2a2 2 0 0 1-.3-2.8l.3-.2 2.5-2.2a1.2 1.2 0 0 0 .1-1.7h-.1l-2.5-2.2a2 2 0 0 1-.3-2.8l.3-.2 2.5-2.2a1.2 1.2 0 0 0 .1-1.7h-.1l-4-3.4.5-.6 4 3.4a2 2 0 0 1 .2 2.8c-.1.1-.1.2-.2.2l-2.5 1.9a1.2 1.2 0 0 0-.2 1.7h.2l2.5 2.2a2 2 0 0 1 .2 2.8l-.2.2-2.5 2.2a1.2 1.2 0 0 0-.2 1.7h.2l2.5 2.2a2 2 0 0 1 .2 2.8l-.2.2zM782.3 540l-.6.5-3.4-3.7a1.3 1.3 0 0 0-1.8-.1h-.1l-2.1 2.5a2.2 2.2 0 0 1-2.9.2c0-.1-.1-.1-.2-.2l-2.1-2.5a1.2 1.2 0 0 0-1.7-.1h-.2l-2.1 2.5a2.1 2.1 0 0 1-2.9.2c0-.1-.1-.1-.2-.2l-2.1-2.5a1.2 1.2 0 0 0-1.7-.1h-.2l-3.4 3.9-.5-.5 3.3-3.9a1.9 1.9 0 0 1 2.8-.2l.3.2 2.1 2.5a1.2 1.2 0 0 0 1.7.1h.2l2.1-2.5a1.9 1.9 0 0 1 2.8-.2l.3.2 2.1 2.5a1.2 1.2 0 0 0 1.7.1h.2l2.1-2.5a1.9 1.9 0 0 1 2.8-.2l.3.2zM782.3 525.6l-.6.5-3.4-3.7a1.3 1.3 0 0 0-1.8-.2v.2l-2.1 2.5a2.2 2.2 0 0 1-2.9.2.2.2 0 0 0-.2-.2l-2.1-2.5a1.2 1.2 0 0 0-1.7-.2l-.2.2-2.1 2.5a2.1 2.1 0 0 1-2.9.2.2.2 0 0 0-.2-.2l-2.1-2.5a1.2 1.2 0 0 0-1.7-.2l-.2.2-3.4 3.9-.5-.5 3.3-4a2 2 0 0 1 2.8-.2l.3.2 2.1 2.6a1.2 1.2 0 0 0 1.7.1h.2l2.1-2.6a2 2 0 0 1 2.8-.2l.3.2 2.1 2.6a1.2 1.2 0 0 0 1.7.1h.2l2.1-2.6a2 2 0 0 1 2.8-.2l.3.2zM171.1 145.9l-.5.5c-.1 0-3.4-3.7-3.4-3.7a1.4 1.4 0 0 0-1.8-.2v.2l-2.1 2.5a2.2 2.2 0 0 1-2.9.2l-.2-.2-2.1-2.5a1.4 1.4 0 0 0-1.8-.2v.2l-2.1 2.5a2.2 2.2 0 0 1-2.9.2l-.2-.2-2.1-2.5a1.4 1.4 0 0 0-1.8-.2v.2l-3.4 3.9-.6-.5 3.4-3.9a2 2 0 0 1 2.8-.3l.3.3 2.1 2.5a1.2 1.2 0 0 0 1.7.1h.2l2.1-2.5a2 2 0 0 1 2.8-.3l.2.3 2.2 2.5a1.2 1.2 0 0 0 1.7.1h.2l2.1-2.5a2 2 0 0 1 2.8-.3l.2.3zM171.1 167.2l-.5.5c-.1 0-3.4-3.8-3.4-3.8a1.4 1.4 0 0 0-1.8-.1h-.1l-2.1 2.6a2.2 2.2 0 0 1-2.9.2l-.2-.2-2.1-2.6a1.4 1.4 0 0 0-1.8-.1h-.1l-2.1 2.6a2.2 2.2 0 0 1-2.9.2l-.2-.2-2.1-2.6a1.4 1.4 0 0 0-1.8-.1h-.1l-3.4 4-.6-.5 3.4-4a2 2 0 0 1 2.8-.2l.3.2 2.1 2.5a1.2 1.2 0 0 0 1.7.2l.2-.2 2.1-2.5a2 2 0 0 1 2.8-.2l.2.2 2.2 2.5a1.2 1.2 0 0 0 1.7.2l.2-.2 2.1-2.5a2 2 0 0 1 2.8-.2l.2.2zM103.2 471.6l-.6.5-3.4-3.7a1.2 1.2 0 0 0-1.7-.2v.2l-2.2 2.5a2 2 0 0 1-2.8.2l-.2-.2-2.3-2.5a1.2 1.2 0 0 0-1.7-.2c0 .1-.1.1-.1.2l-2.2 2.5a2 2 0 0 1-2.8.2l-.2-.2-2.2-2.5a1.2 1.2 0 0 0-1.7-.2c0 .1-.1.1-.1.2l-3.4 3.9-.6-.5 3.4-4a2 2 0 0 1 2.8-.2c.1.1.1.2.2.2l2.2 2.6a1.2 1.2 0 0 0 1.7.1.1.1 0 0 1 .1-.1l2.2-2.6a2 2 0 0 1 2.8-.2l.2.2 2.2 2.6a1.2 1.2 0 0 0 1.7.1.1.1 0 0 1 .1-.1l2.2-2.6a2 2 0 0 1 2.8-.2l.2.2zM273.7 349.8l-.6-.6 3.8-3.4a1.2 1.2 0 0 0 .1-1.7c0-.1-.1-.1-.1-.2l-2.5-2.1a1.9 1.9 0 0 1-.2-2.8c0-.1.1-.2.2-.3l2.5-2.1a1.2 1.2 0 0 0 .1-1.7c0-.1-.1-.1-.1-.2l-2.5-2.1a1.9 1.9 0 0 1-.2-2.8.2.2 0 0 1 .2-.2l2.5-2.2a1.2 1.2 0 0 0 .1-1.7h-.1l-4-3.4.5-.6 4 3.3a2.2 2.2 0 0 1 .2 2.9l-.2.2-2.5 2.1a1.4 1.4 0 0 0-.2 1.8h.2l2.5 2.1a2.2 2.2 0 0 1 .2 2.9c-.1 0-.1.1-.2.2l-2.5 2.1a1.4 1.4 0 0 0-.2 1.8h.2l2.5 2.1a2.2 2.2 0 0 1 .2 2.9l-.2.2z" class="cls-4"/>
      <path d="M176.2 707.5a13.3 13.3 0 1 1 1.1-18.7 13.3 13.3 0 0 1-1.1 18.7zm-6.4-14.3a3.4 3.4 0 1 0-4.8 4.7 2.5 2.5 0 0 0 1 .8v5.1a1.3 1.3 0 0 0 1.2 1.2 1.2 1.2 0 0 0 1.2-1.2v-5a3.9 3.9 0 0 0 1.4-.8 3.4 3.4 0 0 0 0-4.8z" class="cls-5"/>
      <path d="M155.7 680.6a11.4 11.4 0 0 1 11.5-11.4 11.2 11.2 0 0 1 11.1 11.2v11.4" class="cls-3"/>
      <path d="M176.2 29.5a13.3 13.3 0 1 1 1.1-18.7 13.3 13.3 0 0 1-1.1 18.7zm-6.4-14.3a3.4 3.4 0 1 0-4.8 4.7 2.5 2.5 0 0 0 1 .8v5.1a1.3 1.3 0 0 0 1.2 1.2 1.2 1.2 0 0 0 1.2-1.2v-5a3.9 3.9 0 0 0 1.4-.8 3.4 3.4 0 0 0 0-4.8z" class="cls-5"/>
      <path d="M155.7 2.6a11.4 11.4 0 0 1 11.5-11.4 11.2 11.2 0 0 1 11.1 11.2v11.4" class="cls-3"/>
      <path d="M376.3 293.5h-4l7.8 13.3-8 13.5h4.1l5.9-10.7 5.9 10.7h4l-8-13.5 7.8-13.3h-4L382 304z" class="cls-6"/>
      <path d="M737.3 600.1h-2.4l4.7 8-4.8 8.1h2.4l3.6-6.4 3.6 6.4h2.4l-4.8-8.1 4.6-8h-2.4l-3.4 6.3zM151.9 456.5h-2.4l4.7 8-4.8 8.1h2.4l3.6-6.5 3.6 6.5h2.4l-4.8-8.1 4.6-8h-2.4l-3.4 6.3z" class="cls-2"/>
      <path d="M182.3 85.8v1a3.3 3.3 0 0 1-3.3 3.3h-26a15.5 15.5 0 0 1-30-8.1 15.6 15.6 0 0 1 30.2.5H179a3.2 3.2 0 0 1 3.3 3.3z" class="cls-3"/>
      <circle cx="138" cy="85.9" r="11.9" class="cls-5"/>
      <path d="M642.7 40.3V22.4a17.9 17.9 0 0 0-14.2 28.9 18.1 18.1 0 0 0 25.2 3.3 18.4 18.4 0 0 0 7-14.3z" class="cls-3"/>
      <path d="M664.4 36.3a17.9 17.9 0 0 0-17.9-17.9v17.9zM277.1 168.4h78.1M277.1 188.5h78.1M277.1 208.6h78.1M277.1 228.8h78.1M286 237.6v-78.1M306.1 237.6v-78.1M326.2 237.6v-78.1M346.3 237.6v-78.1" class="cls-3"/>
      <circle cx="326.2" cy="188.7" r="7.7" class="cls-5"/>
      <path d="M640.6 580.3V667h86.6" class="cls-3"/>
      <circle cx="652.5" cy="658.1" r="3.5" class="cls-3" transform="rotate(-52 652.80158401 658.23568439)"/>
      <circle cx="654.1" cy="640.1" r="3.5" class="cls-3" transform="rotate(-52 654.46073326 640.26343596)"/>
      <circle cx="669.2" cy="636.6" r="3.5" class="cls-3" transform="rotate(-52 669.52482843 636.69712944)"/>
      <circle cx="662.1" cy="623.7" r="3.5" class="cls-3" transform="rotate(-52 662.35821807 623.81100523)"/>
      <circle cx="673.9" cy="624.9" r="3.5" class="cls-3" transform="rotate(-52 674.25470689 624.91794312)"/>
      <circle cx="677.4" cy="647.4" r="3.5" class="cls-3" transform="rotate(-52 677.79395398 647.58294981)"/>
      <circle cx="684.5" cy="634.5" r="3.5" class="cls-3" transform="rotate(-52 684.85904513 634.65849004)"/>
      <circle cx="694.8" cy="626.4" r="3.5" class="cls-3" transform="matrix(.62 -.79 .79 .62 -226.48 788.54)"/>
      <circle cx="704.5" cy="620.2" r="3.5" class="cls-3" transform="rotate(-52 704.81559472 620.28060354)"/>
      <circle cx="695.6" cy="640.1" r="3.5" class="cls-3" transform="rotate(-52 695.98320107 640.21100523)"/>
      <circle cx="683.4" cy="616.6" r="3.5" class="cls-3" transform="rotate(-52 683.71286015 616.71390872)"/>
      <circle cx="694.8" cy="612" r="3.5" class="cls-3" transform="rotate(-52 695.09395398 612.11269335)"/>
      <circle cx="691.3" cy="601.1" r="3.5" class="cls-3" transform="rotate(-52 691.56789053 601.12908433)"/>
      <circle cx="703.4" cy="604.6" r="3.5" class="cls-3" transform="matrix(.62 -.79 .79 .62 -206.04 786.97)"/>
      <circle cx="699.9" cy="593.7" r="3.5" class="cls-3" transform="rotate(-52 700.21849822 593.80020185)"/>
      <circle cx="663.1" cy="653.8" r="3.5" class="cls-3" transform="rotate(-52 663.42010188 653.89704498)"/>
      <rect width="48" height="14" x="837" y="137.3" class="cls-3" rx="6.3" ry="6.3"/>
      <path d="M861 152.2v20.3M870.1 152.2V165l4.2 4.3M852.8 152.2V165l-4.2 4.3" class="cls-3"/>
      <circle cx="861" cy="174.8" r="2.3" class="cls-7"/>
      <circle cx="875.7" cy="170.2" r="2.3" class="cls-7"/>
      <circle cx="847.3" cy="170.2" r="2.3" class="cls-7"/>
      <path d="M863.4 144.3h12.4M846.2 144.3h10.7" class="cls-7"/>
      <path d="M416.3 137.5a27.3 27.3 0 0 1-31.3 14.9 31.7 31.7 0 0 1-4.9-1.7 23.5 23.5 0 0 1-4.6-2.8 27.2 27.2 0 0 1-8.6-33.5zM416.4 124.1a21.9 21.9 0 0 0-10.6-29 21.7 21.7 0 0 0-28.9 10.6M383 108.8a14.6 14.6 0 1 1 26.4 12.3M390.3 111.8a6.5 6.5 0 0 1 11.7 5.5" class="cls-3"/>
      <circle cx="395.6" cy="114.6" r="2.8" class="cls-5" transform="rotate(-72.2 395.5531771 114.62142523)"/>
      <path d="M395.6 114.6l-5.7 10.5M385 152.4a5.1 5.1 0 0 1-.7 2.3 5.6 5.6 0 0 1-9.8-5.5 6.4 6.4 0 0 1 1-1.3 23.5 23.5 0 0 0 4.6 2.8 31.7 31.7 0 0 0 4.9 1.7zM366.3 229.3v-40.5h22.6v40.5h-22.6zM371.6 188.8v-5.5h12.1v5.5h-12.1z" class="cls-3"/>
      <path d="M368.7 191.5h17.9v7.83h-17.9zM368.7 200.8h17.9v7.83h-17.9zM368.7 210.1h17.9v7.83h-17.9zM368.7 219.4h17.9v7.83h-17.9z" class="cls-5"/>
      <path d="M524.9 200.5v9.2a2.9 2.9 0 0 1-2.9 2.9h-9.1a2.9 2.9 0 0 1-2.9-2.9v-9.2a2.9 2.9 0 0 1 2.9-2.9h9.1a2.9 2.9 0 0 1 2.9 2.9zm-1.5 1a2.4 2.4 0 0 0-2.3-2.2h-7.6a2.2 2.2 0 0 0-1.9 2.2v7.2a2.4 2.4 0 0 0 1.9 2.3h7.6a2.3 2.3 0 0 0 2.3-2.3z" class="cls-3"/>
      <path d="M523.4 201.5v7.2a2.3 2.3 0 0 1-2.3 2.3h-7.6a2.4 2.4 0 0 1-1.9-2.3v-7.2a2.2 2.2 0 0 1 1.9-2.2h7.6a2.4 2.4 0 0 1 2.3 2.2zM513.5 215.3v-2.7M513.5 197.6v-2.9M517.1 215.3v-2.7M517.1 197.6v-2.9M520.7 215.3v-2.7M520.7 197.6v-2.9M527.3 208.6h-2.4M510 208.6h-3.2M527.3 205h-2.4M510 205h-3.2M527.3 201.4h-2.4M510 201.4h-3.2M525 229.6c-2.1 4.3-4.7 6.8-7.5 6.8-5.5 0-10.1-9.5-11.6-22.5M509.6 181.2c2.1-4.7 4.9-7.6 7.9-7.6 5.7 0 10.4 10.2 11.7 24" class="cls-3"/>
      <path d="M509.7 181.2a1.4 1.4 0 0 0-1.9.5 1.4 1.4 0 0 0 2.5 1.4 1.4 1.4 0 0 0-.6-1.9zM526.2 227.5a1.4 1.4 0 0 0-1.9.5 1.5 1.5 0 0 0 .5 1.9 1.5 1.5 0 0 0 1.9-.5 1.3 1.3 0 0 0-.5-1.9zM499.9 223.7c-4.7.3-8.2-.6-9.6-3.1-2.7-4.7 3.2-13.4 13.7-21.2M534.2 186.2c5.2-.5 9 .4 10.5 3 2.9 4.9-3.6 14.2-15 22.2" class="cls-3"/>
      <path d="M534.3 186.3a1.4 1.4 0 1 0-1.4 1.4 1.4 1.4 0 0 0 1.4-1.4zM502.4 223.7a1.4 1.4 0 0 0-1.4-1.4 1.5 1.5 0 0 0-1.4 1.4 1.4 1.4 0 0 0 1.4 1.4 1.4 1.4 0 0 0 1.4-1.4zM542.6 210.9c2.6 3.9 3.5 7.4 2.1 9.9-2.7 4.7-13.2 3.9-25.2-1.3M493 200c-3.1-4.2-4.2-8-2.7-10.6 2.9-5 14.1-4 26.7 1.8" class="cls-3"/>
      <path d="M493 199.8a1.6 1.6 0 0 0-.5 2 1.5 1.5 0 0 0 1.9.5 1.4 1.4 0 0 0 .5-1.9 1.5 1.5 0 0 0-1.9-.6zM541.4 208.7a1.5 1.5 0 0 0-.6 1.9 1.4 1.4 0 0 0 1.9.5 1.4 1.4 0 0 0 .6-1.9 1.5 1.5 0 0 0-1.9-.5z" class="cls-3"/>
      <circle cx="221.5" cy="186.2" r="9.7" class="cls-5"/>
      <circle cx="221.5" cy="110.9" r="9.7" class="cls-5"/>
      <circle cx="238.6" cy="155.2" r="9.7" class="cls-5"/>
      <circle cx="252.1" cy="124.2" r="9.7" class="cls-5"/>
      <circle cx="191.1" cy="124.2" r="9.7" class="cls-5"/>
      <circle cx="204.2" cy="155.2" r="9.7" class="cls-5"/>
      <path d="M221.5 186.2l30.6-62-30.6 19.8-30.4-19.8 30.4 62z" class="cls-8"/>
      <path d="M221.5 110.9l-15.9 42.8 15.9-9.7 16.1 9.7-16.1-42.8z" class="cls-8"/>
      <path d="M160.1 556.3H76.2v-65M123.6 505a18.7 18.7 0 0 1 15.4-13.7h21.1" class="cls-3"/>
      <path d="M112.6 542.7a18.5 18.5 0 0 1-15.4 13.4l-2 .2h-19M123.9 504l-11.6 39.7" class="cls-3"/>
      <circle cx="70.6" cy="491.3" r=".1" class="cls-3"/>
      <circle cx="70.8" cy="504" r=".1" class="cls-3"/>
      <circle cx="70.8" cy="517.2" r=".1" class="cls-3"/>
      <circle cx="70.6" cy="530.5" r=".1" class="cls-3"/>
      <circle cx="70.5" cy="543.6" r=".1" class="cls-3"/>
      <circle cx="70.8" cy="556.3" r=".1" class="cls-3"/>
      <circle cx="97.1" cy="562.3" r=".1" class="cls-3"/>
      <circle cx="78.3" cy="562.2" r=".1" class="cls-3"/>
      <circle cx="118.1" cy="562.3" r=".1" class="cls-3"/>
      <circle cx="139" cy="562.3" r=".1" class="cls-3"/>
      <circle cx="160.1" cy="562.3" r=".1" class="cls-3"/>
      <rect width="30.2" height="30.23" x="351.2" y="512.5" class="cls-3" rx="7.2" ry="7.2"/>
      <rect width="30.2" height="30.23" x="336.1" y="527.7" class="cls-3" rx="7.2" ry="7.2"/>
      <rect width="30.2" height="30.23" x="759" y="621" class="cls-3" rx="7.2" ry="7.2"/>
      <rect width="30.2" height="30.23" x="743.9" y="636.1" class="cls-3" rx="7.2" ry="7.2"/>
      <path d="M133.3 429.1v18a5.6 5.6 0 0 1-5.7 5.7h-17.9a5.6 5.6 0 0 1-5.7-5.7v-18a5.7 5.7 0 0 1 5.7-5.7h17.9a5.7 5.7 0 0 1 5.7 5.7zm-3 1.9v-.2a4.5 4.5 0 0 0-4.5-4.3h-15a4.5 4.5 0 0 0-3.8 4.2v14.4a4.6 4.6 0 0 0 3.8 4.5h15a4.5 4.5 0 0 0 4.5-4.5z" class="cls-3"/>
      <path d="M130.3 431v14.2a4.5 4.5 0 0 1-4.5 4.5h-15a4.6 4.6 0 0 1-3.8-4.5v-14.4a4.5 4.5 0 0 1 3.8-4.2h15a4.5 4.5 0 0 1 4.5 4.3z" class="cls-5"/>
      <path d="M111.8 458.1v-5.3M111.8 423.4v-5.7M115.3 458.1v-5.3M115.3 423.4v-5.7M118.8 458.1v-5.3M118.8 423.4v-5.7M122.4 458.1v-5.3M122.4 423.4v-5.7M125.9 458.1v-5.3M125.9 423.4v-5.7M138 445h-4.7M104 445h-6.4M138 441.4h-4.7M104 441.4h-6.4M138 437.9h-4.7M104 437.9h-6.4M138 434.4h-4.7M104 434.4h-6.4M138 430.8h-4.7M104 430.8h-6.4" class="cls-3"/>
      <path d="M397.2 403.9a16.9 16.9 0 0 1-9.1 9.8l-4.5-10.5a5.7 5.7 0 0 0 3.3-3.3 5.4 5.4 0 0 0-10.1-3.8 5.4 5.4 0 0 0 3.1 7l.6.2-4.6 10.8h-.1a16.8 16.8 0 1 1 21.4-10.2z" class="cls-5"/>
      <path d="M242.4 634.3H254v32.94h-11.6zM217.4 641.6H229v25.62h-11.6zM192.1 650.8h11.6v16.47h-11.6zM182.3 667.2h81.2M549.8 53.8v7.6a8.7 8.7 0 0 1-8.7 8.7H488l-11.3 5.3a.8.8 0 0 1-1.1-1.1l5.2-11.6v-10a8.5 8.5 0 0 1 8.5-8.5h50.9a9.6 9.6 0 0 1 9.6 9.6zM948.9 605v57.1h-45.8l-11.3-11.4V605h57.1z" class="cls-3"/>
      <path d="M898.3 605h43.5v23.79h-43.5zM907.6 645.8h24.5v16.06h-24.5z" class="cls-3"/>
      <path d="M911.2 649.6h5.3v9.26h-5.3z" class="cls-5"/>
      <path d="M44.9 605v57.1H-.9l-11.3-11.4V605h57.1z" class="cls-3"/>
      <path d="M-5.7 605h43.5v23.79H-5.7zM3.6 645.8h24.5v16.06H3.6z" class="cls-3"/>
      <path d="M7.2 649.6h5.3v9.26H7.2z" class="cls-5"/>
      <path d="M591.4 355v-84.5M585.6 307.5V326l-5.2 5.2M597.1 307.5v25.7l9.9 9.9M585.6 271.2v27.5l-6.8 6.9M597.1 271.2v27.5l18 18" class="cls-3"/>
      <circle cx="591.4" cy="358.9" r="3.8" class="cls-3"/>
      <circle cx="610.1" cy="345.4" r="3.8" class="cls-3"/>
      <circle cx="577" cy="333.2" r="3.8" class="cls-3"/>
      <circle cx="576.1" cy="308.2" r="3.8" class="cls-3"/>
      <circle cx="618.6" cy="318.9" r="3.8" class="cls-3"/>
      <path d="M429.4 598.4v69.7M434.2 638v-15.4l4.3-4.3M424.6 638v-21.4l-8.2-8.2M434.2 668.1v-22.9l5.6-5.6M424.6 668.1v-22.9l-14.9-14.9" class="cls-3"/>
      <circle cx="429.4" cy="595.3" r="3.2" class="cls-3"/>
      <circle cx="413.8" cy="606.5" r="3.2" class="cls-3"/>
      <circle cx="441.3" cy="616.6" r="3.2" class="cls-3"/>
      <circle cx="442" cy="637.4" r="3.2" class="cls-3"/>
      <circle cx="406.8" cy="628.5" r="3.2" class="cls-3"/>
      <path d="M300.9 598.8v69.6M305.7 638.3v-15.4l4.4-4.3M296.2 638.3V617l-8.3-8.3M305.7 668.4v-22.8l5.7-5.7M296.2 668.4v-22.8l-15-15" class="cls-3"/>
      <circle cx="300.9" cy="595.6" r="3.2" class="cls-3"/>
      <circle cx="285.3" cy="606.8" r="3.2" class="cls-3"/>
      <circle cx="312.9" cy="617" r="3.2" class="cls-3"/>
      <circle cx="313.6" cy="637.7" r="3.2" class="cls-3"/>
      <circle cx="278.3" cy="628.8" r="3.2" class="cls-3"/>
      <path d="M801.8 346.5h42.5M801.8 354.4h42.5" class="cls-3"/>
      <path d="M766.2 306.8h90.4v59.43h-90.4z" class="cls-9"/>
      <path d="M771 311.4h80.8v50.39H771z" class="cls-9"/>
      <rect width="98.3" height="7.9" x="762.3" y="366.3" class="cls-9" rx="3.9" ry="3.9"/>
      <rect width="72.7" height="40.5" x="883.7" y="417.6" class="cls-3" rx="3.1" ry="3.1"/>
      <path d="M888.4 423.1h7.8v7.83h-7.8zM899.5 423.1h7.8v7.83h-7.8zM910.6 423.1h7.8v7.83h-7.8zM910.6 434h7.8v7.83h-7.8zM899.5 434h7.8v7.83h-7.8zM888.4 434h7.8v7.83h-7.8zM888.4 444.9h7.8v7.83h-7.8zM899.5 444.9h41.2v7.83h-41.2zM921.7 423.1h7.8v7.83h-7.8zM921.7 434h7.8v7.83h-7.8zM932.9 423.1h7.8v7.83h-7.8zM944 423.1h7.8v18.75H944zM932.9 434h7.8v7.83h-7.8zM943.9 445h7.8v7.83h-7.8z" class="cls-3"/>
      <rect width="72.7" height="40.5" x="-20.3" y="417.6" class="cls-3" rx="3.1" ry="3.1"/>
      <path d="M-15.6 423.1h7.8v7.83h-7.8zM-4.5 423.1h7.8v7.83h-7.8zM6.6 423.1h7.8v7.83H6.6zM6.6 434h7.8v7.83H6.6zM-4.5 434h7.8v7.83h-7.8zM-15.6 434h7.8v7.83h-7.8zM-15.6 444.9h7.8v7.83h-7.8zM-4.5 444.9h41.2v7.83H-4.5zM17.7 423.1h7.8v7.83h-7.8zM17.7 434h7.8v7.83h-7.8zM28.9 423.1h7.8v7.83h-7.8zM40 423.1h7.8v18.75H40zM28.9 434h7.8v7.83h-7.8zM39.9 445h7.8v7.83h-7.8zM553 591.3h18.1v18.13H553zM581.9 591.3H600v18.13h-18.1z" class="cls-3"/>
      <rect width="18.1" height="18.13" x="609.9" y="591.3" class="cls-3" rx="9.1" ry="9.1"/>
      <path d="M553 591.3h18.1v18.13H553zM581.9 591.3H600v18.13h-18.1z" class="cls-3"/>
      <rect width="18.1" height="18.13" x="609.9" y="591.3" class="cls-3" rx="9.1" ry="9.1"/>
      <rect width="18.1" height="18.13" x="553" y="619.7" class="cls-3" rx="9.1" ry="9.1"/>
      <path d="M581.9 619.7H600v18.13h-18.1zM609.9 619.7H628v18.13h-18.1zM553 648.7h18.1v18.13H553z" class="cls-3"/>
      <rect width="18.1" height="18.13" x="581.9" y="648.7" class="cls-3" rx="9.1" ry="9.1"/>
      <path d="M609.9 648.7H628v18.13h-18.1z" class="cls-3"/>
      <circle cx="748.1" cy="19.2" r="8.2" class="cls-5"/>
      <circle cx="748.1" cy="99.7" r="8.2" class="cls-5"/>
      <circle cx="718.8" cy="30" r="8.2" class="cls-5"/>
      <circle cx="777.6" cy="30" r="8.2" class="cls-5"/>
      <circle cx="718.8" cy="88.8" r="8.2" class="cls-5"/>
      <circle cx="707.9" cy="59.4" r="8.2" class="cls-5"/>
      <circle cx="788.3" cy="59.4" r="8.2" class="cls-5"/>
      <circle cx="777.6" cy="88.8" r="8.2" class="cls-5"/>
      <path d="M718.7 30l69.5 29.4-69.5 29.4L748 19.2 777.5 90l-69.8-30 69.8-30L748 99.7 718.7 30zM146.6 598.4c0 4.2-5.3 8-13.3 10.2a67.8 67.8 0 0 1-17.1 2.1 66.4 66.4 0 0 1-17-2.1c-8.1-2.2-13.4-6-13.4-10.2 0-6.8 13.6-12.3 30.4-12.3s30.4 5.5 30.4 12.3z" class="cls-3"/>
      <path d="M146.6 598.4v20.4c0 3.3-3.3 6.4-8.7 8.6-5.5 2.3-13.2 3.7-21.7 3.7s-16.1-1.4-21.6-3.7c-5.4-2.2-8.8-5.3-8.8-8.6v-20.4c0 4.2 5.3 8 13.4 10.2a66.4 66.4 0 0 0 17 2.1 67.8 67.8 0 0 0 17.1-2.1c8-2.2 13.3-6 13.3-10.2z" class="cls-3"/>
      <path d="M146.6 618.8V636c0 3.6-3.7 6.8-9.7 9.1a61.5 61.5 0 0 1-20.7 3.3 61.5 61.5 0 0 1-20.7-3.3c-6-2.3-9.7-5.5-9.7-9.1v-17.2c0 3.3 3.4 6.4 8.8 8.6 5.5 2.3 13.1 3.7 21.6 3.7s16.2-1.4 21.7-3.7c5.4-2.2 8.7-5.3 8.7-8.6z" class="cls-3"/>
      <path d="M146.6 636v18.1c0 6.8-13.6 12.3-30.4 12.3s-30.4-5.5-30.4-12.3V636c0 3.6 3.7 6.8 9.7 9.1a61.5 61.5 0 0 0 20.7 3.3 61.5 61.5 0 0 0 20.7-3.3c6-2.3 9.7-5.5 9.7-9.1zM837.6 423.9v29.6a9.4 9.4 0 0 1-9.4 9.4h-29.5a9.4 9.4 0 0 1-9.4-9.4v-29.6a9.4 9.4 0 0 1 9.4-9.4h29.5a9.4 9.4 0 0 1 9.4 9.4zm-5 3.1v-.3a7.5 7.5 0 0 0-7.5-7.1h-24.7a7.6 7.6 0 0 0-6.1 7v23.7a7.4 7.4 0 0 0 6.1 7.3l1.4.2h23.3a7.5 7.5 0 0 0 7.5-7.5z" class="cls-3"/>
      <path d="M832.6 427v23.4a7.5 7.5 0 0 1-7.5 7.5h-23.3l-1.4-.2a7.4 7.4 0 0 1-6.1-7.3v-23.7a7.6 7.6 0 0 1 6.1-7h24.7a7.5 7.5 0 0 1 7.5 7.1zM801.8 471.6v-8.7M801.8 414.5V405M807.6 471.6v-8.7M807.6 414.5V405M813.4 471.6v-8.7M813.4 414.5V405M819.3 471.6v-8.7M819.3 414.5V405M825.1 471.6v-8.7M825.1 414.5V405M845.4 450h-7.8M789.3 450h-10.5M845.4 444.2h-7.8M789.3 444.2h-10.5M845.4 438.3h-7.8M789.3 438.3h-10.5M845.4 432.5h-7.8M789.3 432.5h-10.5M845.4 426.7h-7.8M789.3 426.7h-10.5" class="cls-3"/>
      <path d="M437.3 172.6h2.8v45.6h-2.8zM450.7 172.6h2.8v45.6h-2.8zM463.7 172.6h2.8v45.6h-2.8z" class="cls-5"/>
      <path d="M436.2 191.4a4.3 4.3 0 1 0 5.3 6.7 4.2 4.2 0 0 0 .7-6 4.4 4.4 0 0 0-6-.7zM449.3 205a4.2 4.2 0 0 0-.7 6 4.4 4.4 0 0 0 6 .7 4.3 4.3 0 1 0-5.3-6.7zM462.5 184.9a4.3 4.3 0 1 0 6 .7 4.3 4.3 0 0 0-6-.7zM127.3 283.4a13.7 13.7 0 0 1-1.8 4.9l3.9 4.6-3.6 3.8-4.3-4a16.9 16.9 0 0 1-2.9 1.7l-4-9.6a4.9 4.9 0 1 0-6.8-4.6 5.1 5.1 0 0 0 3.2 4.7l-3.6 9.7a21.9 21.9 0 0 1-3-1.6l-4 3.2L97 293l3.1-4.5a17.1 17.1 0 0 1-2-5.2l-5.4-.6v-4.5l5.5-.5a14.5 14.5 0 0 1 2.3-5.4l-3.7-4 3.6-3.4 4.6 3.2a13.7 13.7 0 0 1 5.2-2l.5-5.5h5l.3 5.7a14.8 14.8 0 0 1 5 2.1l4.7-3.8 3.6 3.6-3.5 5.5a14.9 14.9 0 0 1 1.4 3.7l6.4.8v4.9z" class="cls-5"/>
      <rect width="40.9" height="53.12" x="791.6" y="206.4" class="cls-3" rx="3.1" ry="3.1"/>
      <rect width="34" height="16.88" x="795.1" y="209.5" class="cls-3" rx="3" ry="3"/>
      <rect width="9" height="5.61" x="795.1" y="231.1" class="cls-5" rx=".9" ry=".9"/>
      <rect width="9" height="5.61" x="807.6" y="231.1" class="cls-5" rx=".9" ry=".9"/>
      <rect width="9" height="5.61" x="820.1" y="231.1" class="cls-5" rx=".9" ry=".9"/>
      <rect width="9" height="5.61" x="795.1" y="239.8" class="cls-5" rx=".9" ry=".9"/>
      <rect width="9" height="5.61" x="807.6" y="239.8" class="cls-5" rx=".9" ry=".9"/>
      <rect width="9" height="5.61" x="820.1" y="239.8" class="cls-5" rx=".9" ry=".9"/>
      <rect width="9" height="5.61" x="795.1" y="248.6" class="cls-5" rx=".9" ry=".9"/>
      <rect width="9" height="5.61" x="807.6" y="248.6" class="cls-5" rx=".9" ry=".9"/>
      <rect width="9" height="5.61" x="820.1" y="248.6" class="cls-5" rx=".9" ry=".9"/>
      <circle cx="454.1" cy="232.3" r="5.1" class="cls-5"/>
      <circle cx="417.1" cy="251.4" r="5.1" class="cls-5"/>
      <circle cx="402.1" cy="272.6" r="5.1" class="cls-5"/>
      <circle cx="432.5" cy="272.6" r="5.1" class="cls-5"/>
      <circle cx="471.5" cy="272.6" r="5.1" class="cls-5"/>
      <circle cx="501.9" cy="272.6" r="5.1" class="cls-5"/>
      <circle cx="487.8" cy="251.4" r="5.1" class="cls-5"/>
      <path d="M501.9 272.6l-14.1-21.2-33.7-19.1-37 19.1-15 21.2M432.5 272.6l-15.4-20.2M471.5 272.6l16.3-20.2" class="cls-3"/>
      <rect width="74.1" height="92.77" x="183.2" y="383" class="cls-3" rx="6.3" ry="6.3"/>
      <rect width="87.3" height="7.71" x="177.4" y="484.2" class="cls-3" rx="1.9" ry="1.9"/>
      <path d="M179.3 475.8h84.6v5.4a3.1 3.1 0 0 1-3.1 3.1H182a2.7 2.7 0 0 1-2.7-2.7v-5.8z" class="cls-3"/>
      <rect width="62.7" height="56.63" x="189.1" y="389.5" class="cls-3" rx="6" ry="6"/>
      <path d="M249.4 456.9v5.1h-30.1v-3.1h16.1v-2h14z" class="cls-3"/>
      <path d="M26.3 160.6l-7.8 50.5M9.9 211.8l8.3-53M57.7 109.5L79 95.2l3.3 4.8-20.8 14M82.2 96.9l5-3.2 16.6 26.5-5 3.1-16.6-26.4z" class="cls-10"/>
      <path d="M31.6 157.1l28.2-30.8a10.8 10.8 0 0 0-.6-15.3l-2.6-2.3a10.8 10.8 0 0 0-15.3.6l-28.2 30.8a10.8 10.8 0 0 0 .6 15.3l2.6 2.4a10.9 10.9 0 0 0 15.3-.7zM119 119.4h-.4a2.7 2.7 0 0 0-1.2 3.7l2.8 5.7a2.8 2.8 0 0 0 3.7 1.2l.4-.2a2.8 2.8 0 0 0 1.2-3.7l-2.8-5.6a2.7 2.7 0 0 0-3.7-1.1zM121.8 131.8l-.3-.2a2 2 0 0 0-2.7.9l-2.2 4.1a2 2 0 0 0 .9 2.7h.3a1.9 1.9 0 0 0 2.7-.8l2.1-4.1a1.9 1.9 0 0 0-.8-2.6z" class="cls-3"/>
      <path d="M113.9 113.8a.1.1 0 0 1 .1.1 15 15 0 1 1-25.5 15.9z" class="cls-3"/>
      <path d="M96.4 124.8a5.6 5.6 0 0 0 7.8 1.8 5.7 5.7 0 0 0 1.9-7.9h-.1" class="cls-5"/>
      <path d="M101.8 146a2.4 2.4 0 0 0 .1-3.5l-5.2-5.8a2.6 2.6 0 0 0-3.6-.2 2.4 2.4 0 0 0-.1 3.5l5.3 5.9a2.4 2.4 0 0 0 3.5.1z" class="cls-3"/>
      <circle cx="83.3" cy="95.6" r="7.2" class="cls-2"/>
      <path d="M900.6 286h36.9v2.4h-36.9z" class="cls-5"/>
      <path d="M893.5 286h51.9v-49.2a25.9 25.9 0 0 0-25.8-25.9 26.1 26.1 0 0 0-26.1 26zM891.2 288.4h57.3v7.51h-57.3z" class="cls-10"/>
      <path d="M-3.4 286h36.9v2.4H-3.4z" class="cls-5"/>
      <path d="M-10.5 286h51.9v-49.2a25.9 25.9 0 0 0-25.8-25.9 26.1 26.1 0 0 0-26.1 26zM-12.8 288.4h57.3v7.51h-57.3z" class="cls-10"/>
      <rect width="52.5" height="89.74" x="564.7" y="86.8" class="cls-3" rx="5.8" ry="5.8"/>
      <rect width="39.2" height="60.91" x="571.4" y="93.5" class="cls-3" rx="4.2" ry="4.2"/>
      <rect width="15.3" height="5.83" x="582.5" y="165.3" class="cls-2" rx="2.9" ry="2.9"/>
      <path d="M114.6 129.1a5.4 5.4 0 0 1 1.3 4.8l-9.7 41.3-2.6 4.1a5.7 5.7 0 0 0-3.3-1.9 6.5 6.5 0 0 0-3.4 0l-.5-4.9 8.5-36.6" class="cls-3"/>
      <path d="M113.9 142.5a4.9 4.9 0 0 0-3.7-5.9 5.2 5.2 0 0 0-6.3 3.9M106.3 174.6c.4-1.8-1.4-3.7-4-4.3-2.8-.7-5.4.3-5.9 2.2" class="cls-3"/>
      <path d="M103.6 179.3l-4.4 7.1a.7.7 0 0 1-1.3-.2l-1-8.8a6.5 6.5 0 0 1 3.4 0 5.7 5.7 0 0 1 3.3 1.9z" class="cls-2"/>
      <path d="M128.9 207.3l15.7 15.5a9.9 9.9 0 0 0 5.9 3 10.3 10.3 0 0 0 8.8-3.1 10 10 0 0 0-.1-14.2l-12-11.9a6.9 6.9 0 0 1-5.9 5.4 9.4 9.4 0 0 1-6 4.8 9.2 9.2 0 0 1-5.7-.2zM132.2 245.3l5.8 7.7a2.7 2.7 0 0 0 3.8.5 2.8 2.8 0 0 0 .5-3.8l-4.9-6.5a15 15 0 0 1-5.2 2.1zM81.6 253.5a2.7 2.7 0 0 0 3.8-.8L91 244a9.1 9.1 0 0 1-1.1-1.6 13.3 13.3 0 0 1-4-.5l-5.1 7.8a2.8 2.8 0 0 0 .8 3.8zM126.2 216.1h.1l5.7-5.6-3.3-3.3-2.5 2.6a4.4 4.4 0 0 0 0 6.3z" class="cls-11"/>
      <path d="M73.2 218.3a13.7 13.7 0 0 1 11.3-14.5 13.4 13.4 0 0 1 19.6-11.4 13.5 13.5 0 0 1 8.8-4.3 13.1 13.1 0 0 1 11.4 4.9 9.7 9.7 0 0 1 13.3-3.9 6.5 6.5 0 0 1 3.4-.6 6.8 6.8 0 0 1 6.3 7.2c0 .3-.1.6-.1.9a6.9 6.9 0 0 1-5.9 5.4 9.4 9.4 0 0 1-6 4.8 9.2 9.2 0 0 1-5.7-.2l-.7.7 15.7 15.5a9.9 9.9 0 0 0 5.9 3 13.9 13.9 0 0 1-7.2 7.7 14.1 14.1 0 0 1-5.9 9.7 15 15 0 0 1-5.2 2.1h-2.9a13.1 13.1 0 0 1-8.7 4.2 13.7 13.7 0 0 1-10.2-3.5 13.6 13.6 0 0 1-19.4-2 9.1 9.1 0 0 1-1.1-1.6 13.3 13.3 0 0 1-4-.5 13.6 13.6 0 0 1-10-11.9 11.6 11.6 0 0 1 .4-4.2 14 14 0 0 1-3.1-7.5zm53-2.2h.1l5.7-5.6-3.3-3.3-2.5 2.6a4.4 4.4 0 0 0 0 6.3z" class="cls-11"/>
      <path d="M126.2 216.5h.2l5.6-5.5-3.3-3.3-2.5 2.6a4.4 4.4 0 0 0 0 6.2zM156.8 194.4l-6.1 5.1-2.7-3.1 2.9-2.5a4.1 4.1 0 0 1 5.9.5z" class="cls-11"/>
      <circle cx="148.2" cy="204.8" r=".4" class="cls-11"/>
      <circle cx="141.3" cy="210.7" r=".4" class="cls-11"/>
      <path d="M444.4 570.4a10 10 0 0 1-3.8.8h-41.4a9.3 9.3 0 1 1-.8-18.5 12.6 12.6 0 1 1 23.4-9.5 8.7 8.7 0 0 1 12.2-2.5 8.8 8.8 0 0 1 2.5 12.2 9.6 9.6 0 0 1 7.9 17.6z" class="cls-3"/>
      <path d="M468.1 667.2h49.6M481.2 588v79.2" class="cls-12"/>
      <path d="M505.7 593.7h-1.1a18.5 18.5 0 0 0-18.4 18.5 19.6 19.6 0 0 0 .8 5.4 27.9 27.9 0 0 1-5.8.7 24.6 24.6 0 1 1 24.5-24.6z" class="cls-3"/>
      <path d="M504.6 606.7v59.4" class="cls-12"/>
      <path d="M523 612.2a18.4 18.4 0 0 1-36 5.4 19.6 19.6 0 0 1-.8-5.4 18.5 18.5 0 0 1 18.4-18.5h1.1a18.3 18.3 0 0 1 17.3 18.5z" class="cls-3"/>
      <path d="M335.7 667.1h49.6M348.8 588v79.1" class="cls-12"/>
      <path d="M373.3 593.6h-1.1a18.5 18.5 0 0 0-18.4 18.5 19.1 19.1 0 0 0 .8 5.4 22 22 0 0 1-5.8.7 24.6 24.6 0 1 1 24.5-24.6z" class="cls-3"/>
      <path d="M372.2 606.6V666" class="cls-12"/>
      <path d="M390.7 612.1a18.5 18.5 0 0 1-36.1 5.4 19.1 19.1 0 0 1-.8-5.4 18.5 18.5 0 0 1 18.4-18.5h1.1a18.4 18.4 0 0 1 17.4 18.5zM410.1 339a41.9 41.9 0 0 1 42-41.7 41.8 41.8 0 0 1 41.8 41.7" class="cls-3"/>
      <path d="M479.4 339.3v-.3a26.8 26.8 0 1 0-53.5.4M444.3 313.8s-2.4 8.9 10 7.2" class="cls-3"/>
      <path d="M457.3 332.5s-.6-4.6 4.6-4.6h15.6M426.5 335.7h12.9a5 5 0 0 0 4.7-5.3" class="cls-3"/>
      <circle cx="456.9" cy="333.7" r="2.2" class="cls-3"/>
      <circle cx="444.4" cy="328.8" r="2.2" class="cls-3"/>
      <circle cx="456.2" cy="321.1" r="2.2" class="cls-3"/>
      <path d="M493.9 338.8v27.5a14.5 14.5 0 0 1-14.4 14.5h-55a14.5 14.5 0 0 1-14.4-14.5V339z" class="cls-3"/>
      <rect width="70.4" height="17.07" x="416.8" y="345.4" class="cls-3" rx="5.5" ry="5.5"/>
      <path d="M431 350.3v7.5a1.6 1.6 0 0 0 3.2 0v-7.5a1.6 1.6 0 0 0-3.2 0zM469.2 350v7.4a1.6 1.6 0 0 0 3.2 0V350a1.6 1.6 0 0 0-3.2 0zM456.3 366a4.1 4.1 0 0 1-8.2 0c0-1-1.6-1-1.5 0a5.6 5.6 0 0 0 5.6 5.6 5.7 5.7 0 0 0 5.6-5.6c.1-1-1.5-1-1.5 0zM600.9 252.2a9.9 9.9 0 1 1-5.4-8.8 2.7 2.7 0 0 0-.7 2 2.9 2.9 0 0 0 3 3 3.2 3.2 0 0 0 2-.7 9.7 9.7 0 0 1 1.1 4.5z" class="cls-5"/>
      <path d="M632.7 252.2a54.3 54.3 0 0 1-83.4 0 54.3 54.3 0 0 1 83.4 0z" class="cls-3"/>
      <circle cx="591" cy="252.2" r="19.5" class="cls-3"/>
      <path d="M439.4 402.7h23.1v23.1h-23.1zM407.9 445.4H431v23.1h-23.1zM439.4 445.4h23.1v23.1h-23.1zM471.6 445.4h23.1v23.1h-23.1zM423.3 488.2h23.1v23.1h-23.1zM395 488.2h23.1v23.1H395zM485.9 488.2H509v23.1h-23.1zM457.6 488.2h23.1v23.1h-23.1zM451 425.8v19.6M482.6 445.4c-.2 0-30.6-19.6-30.6-19.6M421.4 445.4l28.4-19.6M407.9 488.2l12.7-19.7M421 468.5l12.7 19.7M470.2 488.2l12.7-19.7M483.3 468.5l12.7 19.7" class="cls-3"/>
      <circle cx="813.9" cy="524" r="13.8" class="cls-3"/>
      <circle cx="813.9" cy="655.8" r="13.8" class="cls-3"/>
      <path d="M787 574h53.8v35.32H787z" class="cls-3"/>
      <path d="M863.6 560.8v30.8h-22.8V574H787v17.6h-23.7v-30.8h100.3zM813.9 537.8V574M813.9 609.3V642" class="cls-3"/>
      <path d="M813.9 537.8l2.3 3.9 2.3 4h-9.2l2.3-4 2.3-3.9zM813.9 609.3l2.3 4 2.3 3.9h-9.2l2.3-3.9 2.3-4zM787 591.6l-4 2.3-3.9 2.3v-9.1l3.9 2.3 4 2.2z" class="cls-5"/>
      <path d="M150.1 318.3v37.8h-30.7v-5.8h-11.8v5.8H77.3v-37.8h72.8z" class="cls-3"/>
      <path d="M83.1 324.3h8.8v12.88h-8.8zM100.4 324.3h8.8v12.88h-8.8zM117.2 324.3h8.8v12.88h-8.8zM134.5 324.3h8.8v12.88h-8.8zM83.1 349.3v6.8M89.9 349.3v6.8M96.6 349.3v6.8M103.3 349.3v6.8M124.4 349.3v6.8M131.1 349.3v6.8M137.8 349.3v6.8M144.6 349.3v6.8M77.3 344.4h72.8M710.8 397.8v5.8h-40.6v40.6h-5.8v-46.4h46.4z" class="cls-3"/>
      <path d="M716.6 403.6v6h-40.3V450h-6.1v-46.4h46.4z" class="cls-3"/>
      <path d="M722.7 409.6v5.1h-41.3V456h-5.1v-46.4h46.4z" class="cls-3"/>
      <path d="M681.4 414.7h46.4v46.37h-46.4zM614.6 442.7h-58.4v-7.1a35.5 35.5 0 0 1 35.4-35.4h3.8" class="cls-3"/>
      <path d="M605.1 429.4a15.2 15.2 0 0 0 10.6-6.9 16.3 16.3 0 0 0 2.9-9.2M560.9 433.6c-.2-10.1 6.5-18.3 14.8-18.4s15.2 8.1 15.3 18.2a22.2 22.2 0 0 1-.3 3.7v.2M589 442.7h-26M608.6 437.1h1a5.5 5.5 0 0 1 5 5.5h-12.3" class="cls-3"/>
      <path d="M588.1 437.1h3.5a5.6 5.6 0 0 1 5.5 5.6H581M605 429.4l-2.7-4.4M605 429.4l4.7 7.7-.1.1M602.3 442.7L591 431.2M566.7 394.6a2.6 2.6 0 0 1 .7 3.5l-4 6.6a51 51 0 0 0-7.2 26.1v11.9a5.1 5.1 0 0 1-5.1-5.1V429a46.1 46.1 0 0 1 6-22.9l6-10.7a2.4 2.4 0 0 1 3.6-.8zM623 404.8c-.1 6.5-6.5 11.8-14.4 11.7s-14.3-5.3-14.3-11.8a10 10 0 0 1 1.1-4.5l-.5-7.6a.9.9 0 0 1 1.4-.8l4.8 2.9a17 17 0 0 1 7.6-1.7 16.6 16.6 0 0 1 7.2 1.6l4.5-2.8a1 1 0 0 1 1.5.8l-.5 6.8a10.3 10.3 0 0 1 1.6 5.4zM625.3 404.1l1.9.5" class="cls-3"/>
      <path fill="none" stroke="#ffa514" stroke-dasharray="3.64 3.64" stroke-miterlimit="10" stroke-width="2" d="M630.7 405.5l26.5 6.8"/>
      <path d="M658.9 412.8l1.9.5M618.6 439.9l1.9-.4" class="cls-3"/>
      <path fill="none" stroke="#ffa514" stroke-dasharray="3.6 3.6" stroke-miterlimit="10" stroke-width="2" d="M623.9 438.6l33.3-8.3"/>
      <path d="M658.9 429.9l1.9-.5" class="cls-3"/>
      <circle cx="603.7" cy="402.6" r=".5" class="cls-3"/>
      <circle cx="613.6" cy="402.6" r=".5" class="cls-3"/>
      <path d="M676.4 328.6H699v22.56h-22.6z" class="cls-5"/>
      <path d="M680.9 326.3V315l-3.6-3.5M687.7 312.4v13.9M694.4 326.3V315l3.7-3.7" class="cls-3"/>
      <circle cx="675.3" cy="309.8" r="2.6" class="cls-3" transform="rotate(-20.8 676.67643845 310.05285965)"/>
      <circle cx="700" cy="309.8" r="2.6" class="cls-3" transform="matrix(.93 -.36 .36 .93 -64.41 269.29)"/>
      <circle cx="687.6" cy="309.8" r="2.6" class="cls-3" transform="rotate(-20.8 689.06329576 310.07343104)"/>
      <path d="M680.9 353.7V365l-3.6 3.5M687.7 367.6v-13.9M694.4 353.7V365l3.7 3.7" class="cls-3"/>
      <circle cx="675.3" cy="370.2" r="2.6" class="cls-3" transform="rotate(-69.2 674.82848093 370.2210986)"/>
      <circle cx="700" cy="370.2" r="2.6" class="cls-3" transform="rotate(-69.2 699.52115907 370.24691755)"/>
      <circle cx="687.6" cy="370.2" r="2.6" class="cls-3" transform="rotate(-69.2 687.18605956 370.29524764)"/>
      <path d="M674 346.8h-11.4l-3.5 3.5M660 340h14M674 333.2h-11.4l-3.6-3.7" class="cls-3"/>
      <circle cx="657.4" cy="352.3" r="2.6" class="cls-3" transform="rotate(-20.8 658.71900974 352.6587174)"/>
      <circle cx="657.4" cy="327.7" r="2.6" class="cls-3" transform="rotate(-20.8 658.71015254 328.15743136)"/>
      <circle cx="657.4" cy="340" r="2.6" class="cls-3" transform="rotate(-20.8 658.73958114 340.2718601)"/>
      <path d="M701.3 346.8h11.3l3.6 3.5M715.2 340h-13.9M701.3 333.2h11.3l3.7-3.7" class="cls-3"/>
      <circle cx="717.9" cy="352.3" r="2.6" class="cls-3" transform="rotate(-69.2 717.39007363 352.40780398)"/>
      <circle cx="717.9" cy="327.7" r="2.6" class="cls-3" transform="rotate(-69.2 717.36589257 327.78760497)"/>
      <circle cx="717.9" cy="340" r="2.6" class="cls-3" transform="rotate(-69.2 717.34174354 340.07270447)"/>
      <path d="M814 28.7v82.5h82.6" class="cls-3"/>
      <circle cx="840.5" cy="75.5" r="3.4" class="cls-5" transform="rotate(-58.6 840.6888019 75.42824508)"/>
      <circle cx="828.4" cy="81.3" r="3.4" class="cls-5" transform="rotate(-58.6 828.51728154 81.2509319)"/>
      <circle cx="850.6" cy="85.9" r="3.4" class="cls-5" transform="rotate(-58.6 850.75625938 85.88130212)"/>
      <circle cx="839.7" cy="86.9" r="3.4" class="cls-5" transform="rotate(-58.6 839.77645264 86.8663382)"/>
      <circle cx="843.9" cy="98.6" r="3.4" class="cls-5" transform="matrix(.52 -.85 .85 .52 320.2 767.61)"/>
      <circle cx="830.5" cy="97" r="3.4" class="cls-5" transform="rotate(-58.6 830.69258303 96.99920197)"/>
      <path d="M827.5 42.8l54.7 54.7" class="cls-3"/>
      <path d="M855.4 49.4h6.8v6.76h-6.8zM861.5 38.2h6.8v6.76h-6.8zM867.1 49.4h6.8v6.76h-6.8zM861.5 59.6h6.8v6.76h-6.8zM872.4 60.7h6.8v6.76h-6.8zM878.5 49.4h6.8v6.76h-6.8zM873.8 38.2h6.8v6.76h-6.8z" class="cls-5"/>
      <path d="M493.1 151.7h5a.6.6 0 0 0 .6-.3l1.4-2.8a.6.6 0 0 1 1.1.1l4.2 14.6a.3.3 0 0 0 .5 0l3.9-14.3a.6.6 0 0 1 1.1-.1l3.4 8.2c.1.2.4.2.5-.1l4.1-19.9a.5.5 0 0 1 .9 0l3.9 20.3c0 .2.3.2.4 0l3.5-7.9c.2-.5 1-.4 1.2.1l3.7 13.6c0 .2.4.2.4 0l2.6-10.5a.6.6 0 0 1 .6-.5h6.1" class="cls-3"/>
      <path d="M467.9 135.8h-.2a2.2 2.2 0 0 1-2.1-1.4l-6-16.2c0-.1-.3-.1-.3.1V162a2.9 2.9 0 0 1-2.9 2.9 2.9 2.9 0 0 1-2.9-2.7l-2-26.5c0-.2-.2-.2-.3 0l-2.3 26.8a2.6 2.6 0 0 1-2.6 2.4 2.8 2.8 0 0 1-2.8-2.9v-43.7a.2.2 0 1 0-.3 0l-5.5 15.6a3 3 0 0 1-2.8 1.9 2.4 2.4 0 0 1-2.2-3.2l9.5-26.3a5.4 5.4 0 0 1 5.1-3.6h8.6a4.9 4.9 0 0 1 4.6 3.2l9.8 26.4a2.6 2.6 0 0 1-2.4 3.5zM450.2 86a7.3 7.3 0 0 0 2.2 14.4 7.3 7.3 0 0 0 6.1-8.3 7.3 7.3 0 0 0-8.3-6.1z" class="cls-5"/>
      <path d="M494.6 92.3h6.8v6.76h-6.8zM508.3 95.7h27.8M494.6 106.7h6.8v6.76h-6.8zM508.3 110h27.8M494.6 121h6.8v6.76h-6.8zM508.3 124.4h27.8" class="cls-2"/>
      <path d="M667.8 108a1.5 1.5 0 0 1 1.4-1.5h16.2a1.5 1.5 0 0 1 1.5 1.5 1.5 1.5 0 0 1-1.5 1.4h-16.2a1.4 1.4 0 0 1-1.4-1.4z" class="cls-5"/>
      <path d="M675.1 112.5h-6.4a4.6 4.6 0 0 1-4.7-4.6 4.7 4.7 0 0 1 4.7-4.7H686a4.6 4.6 0 0 1 4.6 4.7 4.5 4.5 0 0 1-4.6 4.6h-6.5" class="cls-3"/>
      <path d="M664 100.4a9.3 9.3 0 0 1 4.4-1.1h17.9a8.8 8.8 0 0 1 8.8 8.7M690.6 115.7a8.6 8.6 0 0 1-4.3 1.1h-17.9a8.7 8.7 0 0 1-8.8-8.8M687.7 95.9h.6" class="cls-3"/>
      <path d="M667 119.9a12 12 0 0 1-12-12 11.9 11.9 0 0 1 12-12h11.6M688.3 95.9a12.1 12.1 0 0 1 11.4 12 12 12 0 0 1-12 12h-12.3" class="cls-3"/>
      <path d="M660.1 92.9a16 16 0 0 1 5.3-.9h23.8a15.6 15.6 0 0 1 15.6 15.6 15.5 15.5 0 0 1-6.8 12.8M686.9 123.1h-21.5a15.5 15.5 0 0 1-15.5-15.5 15.3 15.3 0 0 1 1.8-7.4" class="cls-3"/>
      <path d="M704 136.7v19a3.7 3.7 0 0 1-.1 1.1 16.1 16.1 0 0 1-16.1 15.1 16.4 16.4 0 0 1-14.3-8.6L662 151.8a3.7 3.7 0 1 1 5.3-5.3l4.3 4.3V120a3.8 3.8 0 0 1 3.7-3.8 3.8 3.8 0 0 1 3.8 3.8v19.5h.7v-3.9a3.8 3.8 0 1 1 7.5 0v3.9h.8v-3.9a3.8 3.8 0 0 1 3.8-3.8 3.5 3.5 0 0 1 2.6 1.1 3.7 3.7 0 0 1 1.1 2.7v3.9h.9v-2.8a3.7 3.7 0 0 1 6.4-2.6 3.5 3.5 0 0 1 1.1 2.6z" class="cls-5"/>
      <path d="M592.6 233.3l.1-56.7M687.6 303.6v-22.8a28.6 28.6 0 0 0-28.6-28.6h-26.3M687.6 397.8v-22.2" class="cls-3"/>
      <ellipse cx="279.5" cy="545.7" class="cls-3" rx="14.3" ry="43"/>
      <ellipse cx="279.5" cy="545.7" class="cls-3" rx="43" ry="14.3" transform="rotate(-45 279.54067427 545.71046148)"/>
      <ellipse cx="279.5" cy="545.7" class="cls-3" rx="14.3" ry="43" transform="rotate(-45 279.54067427 545.71046148)"/>
      <ellipse cx="279.5" cy="545.7" class="cls-3" rx="43" ry="14.3"/>
      <circle cx="279.6" cy="545.7" r="4.7" class="cls-5"/>
      <path d="M727.7 438.3h51.1" class="cls-3"/>
      <path d="M573.3 49.4h4.6v10.06h-4.6zM583.6 43.6h4.6v15.81h-4.6zM593.5 38.1h4.6v21.31h-4.6zM604.1 32.5h4.6v26.94h-4.6z" class="cls-5"/>
      <path d="M813.4 505.8v-34.3M725 339.7h40.8M813.4 375.3V407" class="cls-3"/>
      <path d="M214.5 319.2h12.4a2.2 2.2 0 0 1 2.2 2.1 2.2 2.2 0 0 1-2.2 2.2h-12.4a2.2 2.2 0 0 1-2.2-2.2 2.2 2.2 0 0 1 2.2-2.1z" class="cls-5"/>
      <path d="M214.5 323h12.4a2.1 2.1 0 0 1 2.2 2.1 2.2 2.2 0 0 1-2.1 2.2h-12.5a2.1 2.1 0 0 1-2.1-2.2 2 2 0 0 1 2.1-2.1z" class="cls-5"/>
      <circle cx="219.2" cy="288.3" r="24.6" class="cls-3" transform="rotate(-40.3 218.95197779 288.13726578)"/>
      <path d="M214.4 310.7h12.4a2.1 2.1 0 0 1 2.2 2.1 2.2 2.2 0 0 1-2.1 2.2h-12.5a2 2 0 0 1-2.1-2.1 2.1 2.1 0 0 1 2.1-2.2z" class="cls-5"/>
      <path d="M214.4 314.9h12.5a2.1 2.1 0 0 1 2.1 2.1 2.1 2.1 0 0 1-2.1 2.1h-12.5a2.2 2.2 0 0 1-2.1-2.1 2.1 2.1 0 0 1 2.1-2.1z" class="cls-5"/>
      <path d="M216.4 309l-4-24.5a6.6 6.6 0 0 0-5.1-5.5h-.1a2.4 2.4 0 0 0-2.9 1.8v.2a3.9 3.9 0 0 0 3.7 4.9l17.9.7h.7l3.8.8a4.4 4.4 0 0 0 5.3-3.3 3.5 3.5 0 0 0-2.5-4.2 4.2 4.2 0 0 0-5 3.4l-3.9 24.5M262.4 230.7a68.8 68.8 0 0 0-84.3-.4M255.4 239.3a57 57 0 0 0-69.6-.3" class="cls-3"/>
      <path d="M249 248.3a45.4 45.4 0 0 0-30.1-9.7 44.8 44.8 0 0 0-26.7 10.1M239.4 257.6a26.2 26.2 0 0 0-18.6-8.3 26.6 26.6 0 0 0-19.8 8.3M537 393.6a18.8 18.8 0 1 1-23.3-17.7v-14.7h10v15a18.8 18.8 0 0 1 13.3 17.4z" class="cls-3"/>
      <path d="M500.6 399.1a18.2 18.2 0 0 0 17.2 14.6h.6a18.1 18.1 0 0 0 17.4-13.8 11.3 11.3 0 0 1-4 2.3 11.8 11.8 0 0 1-12.6-3.5l-.5-.6a11.5 11.5 0 0 0-18.1 1z" class="cls-5"/>
      <path d="M511.3 361.2h15" class="cls-3"/>
      <circle cx="518.5" cy="342.9" r="4.6" class="cls-3" transform="rotate(-42.6 519.28568843 342.95944337)"/>
      <path d="M510 326.9a3.2 3.2 0 0 0-.5 4.5 3.1 3.1 0 0 0 4.4.5 3.2 3.2 0 0 0 .6-4.4 3.3 3.3 0 0 0-4.5-.6zM526.3 318.6a2.8 2.8 0 0 0-1.6 3.6 2.8 2.8 0 0 0 3.6 1.5 2.6 2.6 0 0 0 1.6-3.5 2.7 2.7 0 0 0-3.6-1.6z" class="cls-3"/>
      <path d="M518.5 306.9" class="cls-15"/>
      <path d="M288.6 300.2v77.6h56.6V316l-17.7-15.8h-38.9z" class="cls-3"/>
      <path d="M343.7 314.7l-15.1-13.5a.7.7 0 0 0-1.1.5V316h15.7a.7.7 0 0 0 .5-1.3zM294.2 322.5h44M294.2 336h44M294.2 349.6h44M294.2 363.1h44" class="cls-3"/>
      <path d="M15 358.1v59M15 295.2v20.6" class="cls-16"/>
      <path d="M44.9 633.6h40.9M15.9 535.3V605M15.9 458.1v29.8" class="cls-3"/>
      <path d="M410.1 339h-64.9M150.1 338.9h69.8M219.9 383v-57.3" class="cls-17"/>
      <path d="M451 402.7v-21.9M549.3 252.2l-56.4-.3M812.1 260.3v45.3M893 250.4h-60.5M883.4 438.3h-39.3M52.4 437.9h130.8M221.1 491.9v106.2a35.5 35.5 0 0 1-35.5 35.5h-39M77.3 337.2H37.4" class="cls-3"/>
      <path d="M941.4 334.8v4.8h-3a19.4 19.4 0 0 1-3.8 9.9l1.9 2-3.4 3.3-1.8-1.8a20.5 20.5 0 0 1-10.1 4.3v2.4h-4.7v-2.4a20 20 0 0 1-10-4.3l-1.9 1.8-3.3-3.3 1.9-2a18.8 18.8 0 0 1-3.8-9.3v-.6h-3.1v-4.8h3.2a19.2 19.2 0 0 1 4.2-9.4l-2.4-2.5 3.3-3.3 2.5 2.5a20.6 20.6 0 0 1 9.4-3.8v-3.6h4.7v3.6a20.6 20.6 0 0 1 9.4 3.8l2.5-2.5 3.4 3.3-2.5 2.5a18.4 18.4 0 0 1 4.2 9.4zm-7.1 1.1c-.1-.3-.1-.7-.2-1.1a14.9 14.9 0 0 0-3-6.5 13.3 13.3 0 0 0-3.4-3.3 16.2 16.2 0 0 0-6.5-2.6 14.8 14.8 0 0 0-4.2 0h-.5a16.2 16.2 0 0 0-6.5 2.6 15.2 15.2 0 0 0-3.4 3.3 15.5 15.5 0 0 0-3 6.5 19.1 19.1 0 0 0-.2 4.8h.1a14.8 14.8 0 0 0 2.6 6.9 17.8 17.8 0 0 0 3.2 3.5 17.2 17.2 0 0 0 7.2 3.1 14.8 14.8 0 0 0 4.2 0h.5a16 16 0 0 0 7.2-3 18.3 18.3 0 0 0 3.3-3.5 15.6 15.6 0 0 0 2.6-7 22.8 22.8 0 0 0 0-3.7z" class="cls-5"/>
      <path d="M934.3 339.6a15.6 15.6 0 0 1-2.6 7 18.3 18.3 0 0 1-3.3 3.5 16 16 0 0 1-7.2 3h-.5a14.8 14.8 0 0 1-4.2 0 17.2 17.2 0 0 1-7.2-3.1 17.8 17.8 0 0 1-3.2-3.5 14.8 14.8 0 0 1-2.6-6.9h-.1a19.1 19.1 0 0 1 .2-4.8 15.5 15.5 0 0 1 3-6.5 15.2 15.2 0 0 1 3.4-3.3 16.2 16.2 0 0 1 6.5-2.6h.5a14.8 14.8 0 0 1 4.2 0 16.2 16.2 0 0 1 6.5 2.6 13.3 13.3 0 0 1 3.4 3.3 14.9 14.9 0 0 1 3 6.5c.1.4.1.8.2 1.1a22.8 22.8 0 0 1 0 3.7zm-3.6-3.2a4.1 4.1 0 0 0-.3-1.6 12 12 0 0 0-1.8-4 13.4 13.4 0 0 0-3.5-3.2 13.2 13.2 0 0 0-3.9-1.5 12 12 0 0 0-3.8-.1h-.9a13.2 13.2 0 0 0-3.9 1.5 14.8 14.8 0 0 0-3.4 3.2 12.3 12.3 0 0 0-1.9 4 12.9 12.9 0 0 0-.3 4.4c0 .1.1.3.1.4a11.1 11.1 0 0 0 1.6 4.4 10.7 10.7 0 0 0 3.2 3.5 11.2 11.2 0 0 0 4.6 2 12 12 0 0 0 3.8.1h.9a11.9 11.9 0 0 0 4.6-2 10.7 10.7 0 0 0 3.2-3.5 11.2 11.2 0 0 0 1.7-4.4 17.1 17.1 0 0 0 0-3.2z" class="cls-3"/>
      <path d="M930.7 339.6a11.2 11.2 0 0 1-1.7 4.4 10.7 10.7 0 0 1-3.2 3.5 11.9 11.9 0 0 1-4.6 2h-.9a12 12 0 0 1-3.8-.1 11.2 11.2 0 0 1-4.6-2 10.7 10.7 0 0 1-3.2-3.5 11.1 11.1 0 0 1-1.6-4.4c0-.1-.1-.3-.1-.4a12.9 12.9 0 0 1 .3-4.4 12.3 12.3 0 0 1 1.9-4 14.8 14.8 0 0 1 3.4-3.2 13.2 13.2 0 0 1 3.9-1.5h.9a12 12 0 0 1 3.8.1 13.2 13.2 0 0 1 3.9 1.5 13.4 13.4 0 0 1 3.5 3.2 12 12 0 0 1 1.8 4 4.1 4.1 0 0 1 .3 1.6 17.1 17.1 0 0 1 0 3.2zm-4.4-2.7a8.3 8.3 0 0 0-.6-2.1l-.3-.7a7.9 7.9 0 0 0-3.6-3.2l-.6-.2a6.9 6.9 0 0 0-3.2-.3 4 4 0 0 0-1.5.3l-.6.2a7.8 7.8 0 0 0-3.5 3.2 2.5 2.5 0 0 0-.4.7 8.4 8.4 0 0 0-.6 3.9c.1.3.1.6.2.9a3.6 3.6 0 0 0 .4 1.1 7.8 7.8 0 0 0 3.1 3.6l1.4.6a7.2 7.2 0 0 0 3.3.3 5.8 5.8 0 0 0 1.4-.3l1.4-.6a8 8 0 0 0 3.2-3.6l.3-1.1a6.2 6.2 0 0 0 .2-2.7z" class="cls-3"/>
      <path d="M926.1 339.6l-.3 1.1a8 8 0 0 1-3.2 3.6l-1.4.6a5.8 5.8 0 0 1-1.4.3 7.2 7.2 0 0 1-3.3-.3l-1.4-.6a7.8 7.8 0 0 1-3.1-3.6 3.6 3.6 0 0 1-.4-1.1c-.1-.3-.1-.6-.2-.9a8.4 8.4 0 0 1 .6-3.9 2.5 2.5 0 0 1 .4-.7 7.8 7.8 0 0 1 3.5-3.2l.6-.2a4 4 0 0 1 1.5-.3 6.9 6.9 0 0 1 3.2.3l.6.2a7.9 7.9 0 0 1 3.6 3.2l.3.7a8.3 8.3 0 0 1 .6 2.1 6.2 6.2 0 0 1-.2 2.7zM37.4 334.8v4.8h-3a19.4 19.4 0 0 1-3.8 9.9l1.9 2-3.4 3.3-1.8-1.8a20.5 20.5 0 0 1-10.1 4.3v2.4h-4.7v-2.4a20 20 0 0 1-10-4.3l-1.9 1.8-3.3-3.3 1.9-2a18.8 18.8 0 0 1-3.8-9.3v-.6h-3.1v-4.8h3.2a19.2 19.2 0 0 1 4.2-9.4l-2.4-2.5 3.3-3.3 2.5 2.5a20.6 20.6 0 0 1 9.4-3.8v-3.6h4.7v3.6a20.6 20.6 0 0 1 9.4 3.8l2.5-2.5 3.4 3.3-2.5 2.5a18.4 18.4 0 0 1 4.2 9.4zm-7.1 1.1c-.1-.3-.1-.7-.2-1.1a14.9 14.9 0 0 0-3-6.5 13.3 13.3 0 0 0-3.4-3.3 16.2 16.2 0 0 0-6.5-2.6 14.8 14.8 0 0 0-4.2 0h-.5A16.2 16.2 0 0 0 6 325a15.2 15.2 0 0 0-3.4 3.3 15.5 15.5 0 0 0-3 6.5 19.1 19.1 0 0 0-.2 4.8h.1a14.8 14.8 0 0 0 2.6 6.9 17.8 17.8 0 0 0 3.2 3.5 17.2 17.2 0 0 0 7.2 3.1 14.8 14.8 0 0 0 4.2 0h.5a16 16 0 0 0 7.2-3 18.3 18.3 0 0 0 3.3-3.5 15.6 15.6 0 0 0 2.6-7 22.8 22.8 0 0 0 0-3.7z" class="cls-5"/>
      <path d="M30.3 339.6a15.6 15.6 0 0 1-2.6 7 18.3 18.3 0 0 1-3.3 3.5 16 16 0 0 1-7.2 3h-.5a14.8 14.8 0 0 1-4.2 0 17.2 17.2 0 0 1-7.2-3.1 17.8 17.8 0 0 1-3.2-3.5 14.8 14.8 0 0 1-2.6-6.9h-.1a19.1 19.1 0 0 1 .2-4.8 15.5 15.5 0 0 1 3-6.5A15.2 15.2 0 0 1 6 325a16.2 16.2 0 0 1 6.5-2.6h.5a14.8 14.8 0 0 1 4.2 0 16.2 16.2 0 0 1 6.5 2.6 13.3 13.3 0 0 1 3.4 3.3 14.9 14.9 0 0 1 3 6.5c.1.4.1.8.2 1.1a22.8 22.8 0 0 1 0 3.7zm-3.6-3.2a4.1 4.1 0 0 0-.3-1.6 12 12 0 0 0-1.8-4 13.4 13.4 0 0 0-3.5-3.2 13.2 13.2 0 0 0-3.9-1.5 12 12 0 0 0-3.8-.1h-.9a13.2 13.2 0 0 0-3.9 1.5 14.8 14.8 0 0 0-3.4 3.2 12.3 12.3 0 0 0-1.9 4 12.9 12.9 0 0 0-.3 4.4c0 .1.1.3.1.4a11.1 11.1 0 0 0 1.6 4.5 10.7 10.7 0 0 0 3.2 3.5 11.2 11.2 0 0 0 4.6 2 12 12 0 0 0 3.8.1h.9a11.9 11.9 0 0 0 4.6-2A10.7 10.7 0 0 0 25 344a11.2 11.2 0 0 0 1.7-4.4 17.1 17.1 0 0 0 0-3.2z" class="cls-3"/>
      <path d="M26.7 339.6A11.2 11.2 0 0 1 25 344a10.7 10.7 0 0 1-3.2 3.5 11.9 11.9 0 0 1-4.6 2h-.9a12 12 0 0 1-3.8-.1 11.2 11.2 0 0 1-4.6-2 10.7 10.7 0 0 1-3.2-3.4 11.1 11.1 0 0 1-1.6-4.4c0-.1-.1-.3-.1-.4a12.9 12.9 0 0 1 .3-4.4 12.3 12.3 0 0 1 1.9-4 14.8 14.8 0 0 1 3.4-3.2 13.2 13.2 0 0 1 3.9-1.5h.9a12 12 0 0 1 3.8.1 13.2 13.2 0 0 1 3.9 1.5 13.4 13.4 0 0 1 3.5 3.2 12 12 0 0 1 1.8 4 4.1 4.1 0 0 1 .3 1.6 17.1 17.1 0 0 1 0 3.1zm-4.4-2.7a8.3 8.3 0 0 0-.6-2.1l-.3-.7a7.9 7.9 0 0 0-3.6-3.2l-.6-.2a6.9 6.9 0 0 0-3.2-.3 4 4 0 0 0-1.5.3l-.6.2a7.8 7.8 0 0 0-3.5 3.2 2.5 2.5 0 0 0-.4.7 8.4 8.4 0 0 0-.6 3.9c.1.3.1.6.2.9a3.6 3.6 0 0 0 .4 1.1 7.8 7.8 0 0 0 3.1 3.6l1.4.6a7.2 7.2 0 0 0 3.3.3 5.8 5.8 0 0 0 1.4-.3l1.4-.6a8 8 0 0 0 3.2-3.6l.3-1.1a6.2 6.2 0 0 0 .2-2.7z" class="cls-3"/>
      <path d="M22.1 339.6l-.3 1.1a8 8 0 0 1-3.2 3.6l-1.4.6a5.8 5.8 0 0 1-1.4.3 7.2 7.2 0 0 1-3.3-.3l-1.4-.6a7.8 7.8 0 0 1-3.1-3.6 3.6 3.6 0 0 1-.4-1.1c-.1-.3-.1-.6-.2-.9a8.4 8.4 0 0 1 .6-3.9 2.5 2.5 0 0 1 .4-.7 7.8 7.8 0 0 1 3.5-3.2l.6-.2a4 4 0 0 1 1.5-.3 6.9 6.9 0 0 1 3.2.3l.6.2a7.9 7.9 0 0 1 3.6 3.2l.3.7a8.3 8.3 0 0 1 .6 2.1 6.2 6.2 0 0 1-.2 2.7z" class="cls-5"/>
      <path d="M856.6 336.6h40.6" class="cls-16"/>
      <path fill="none" stroke="#ffa514" stroke-miterlimit="10" stroke-width="1.99" d="M512.7 45.1V28.2a20.1 20.1 0 0 1 20.1-20.1H657a20.3 20.3 0 0 1 20.3 20.4V92"/>
      <path d="M591 8.6v-19.5M591 686.6v-19.5M345.6 413.5v4.7h-58.8v38.5h-7.2v-43.2h66z" class="cls-3"/>
      <path d="M286.8 418.2h65.9v43.2h-65.9z" class="cls-3"/>
      <path d="M287.9 460l8.8-11a10.4 10.4 0 0 1 15.6-.8l2.4 2.5a3.7 3.7 0 0 0 5.7-.4l8-11.1a8.1 8.1 0 0 1 13.9 1.1l9.3 18.9a1.5 1.5 0 0 1-1.3 2.2h-61.7a.8.8 0 0 1-.7-1.4z" class="cls-3"/>
      <circle cx="304.3" cy="430.9" r="5.9" class="cls-3"/>
      <path d="M319.7 462v22a15.7 15.7 0 0 0 15.8 15.7H395M279.5 438.1h-22.2M316.2 377.8v35.7" class="cls-3"/>
      <path fill="none" stroke="#ffa514" stroke-miterlimit="10" stroke-width="2.57" d="M187.6 44.2a35.7 35.7 0 1 0 35.6-35.7"/>
      <path d="M251.9 45.3A28.7 28.7 0 0 1 223.2 74a27.5 27.5 0 0 1-9.5-1.7l10.2-27-.6-28.7a28.7 28.7 0 0 1 28.6 28.7z" class="cls-5"/>
      <rect width="48" height="14" x="59.4" y="37.7" class="cls-17" rx="6.3" ry="6.3"/>
      <path d="M83.4 52.6v20.3M92.5 52.6v12.8l4.2 4.3M75.2 52.6v12.8L71 69.7" class="cls-17"/>
      <circle cx="83.4" cy="75.2" r="2.3" class="cls-17"/>
      <circle cx="98.1" cy="70.6" r="2.3" class="cls-17"/>
      <circle cx="69.7" cy="70.6" r="2.3" class="cls-17"/>
      <path d="M85.8 44.7h12.4M68.6 44.7h10.7M23 494.2v35.3a6.4 6.4 0 0 1-6.4 6.4h-1.3a6.4 6.4 0 0 1-6.3-6.4v-35.3a6.3 6.3 0 0 1 6.3-6.3h1.3a6.4 6.4 0 0 1 6.4 6.3zM23.8 511.9h20.3M23.8 502.8h12.8l4.3-4.3M23.8 520h12.8l4.3 4.3" class="cls-17"/>
      <circle cx="46.4" cy="511.9" r="2.3" class="cls-17"/>
      <circle cx="41.9" cy="497.2" r="2.3" class="cls-17"/>
      <circle cx="41.9" cy="525.6" r="2.3" class="cls-17"/>
      <path d="M16 509.4V497M16 526.7v-10.8" class="cls-17"/>
      <rect width="48" height="14" x="831.3" y="278" class="cls-17" rx="6.3" ry="6.3"/>
      <path d="M857.7 285h12.4M840.5 285h10.7M527 523.5h35.3a6.3 6.3 0 0 1 6.3 6.3v1.4a6.3 6.3 0 0 1-6.3 6.3H527a6.4 6.4 0 0 1-6.4-6.3v-1.4a6.4 6.4 0 0 1 6.4-6.3zM542.2 530.5h-12.4M559.5 530.5h-10.8" class="cls-17"/>
      <path d="M183 45h-75M59.4 723.4H36.6a20.8 20.8 0 0 1-20.7-20.8v-41.4M59.4 45.4H36.6a20.8 20.8 0 0 1-20.7-20.8v-41.4M702.3 207.3H592.7M669.8 211h12.6l3.6 3.3M644.6 210.7h18.8l4.6 4.3" class="cls-3"/>
      <ellipse cx="704.9" cy="207.3" class="cls-3" rx="2.6" ry="2.4"/>
      <ellipse cx="687.4" cy="216.5" class="cls-3" rx="2.6" ry="2.4"/>
      <path d="M669.8 204.1h12.6l3.6-3.4" class="cls-3"/>
      <ellipse cx="687.4" cy="198.6" class="cls-3" rx="2.6" ry="2.4"/>
      <ellipse cx="670.3" cy="217" class="cls-3" rx="2.6" ry="2.4"/>
      <path d="M644.6 203.6h18.8l4.6-4.4" class="cls-3"/>
      <ellipse cx="669.9" cy="197.5" class="cls-3" rx="2.6" ry="2.4"/>
      <path d="M712.6 190.2h-68.9v34.5h68.9v-34.5zM718.4 204.5h-5.8v5.9h5.8v-5.9zM718.4 215h-5.8v5.8h5.8V215zM718.4 194.1h-5.8v5.9h5.8v-5.9zM643.3 215h-2.9a3 3 0 0 0-3 3 2.8 2.8 0 0 0 2.9 2.8h3zM643.3 194.1h-2.9a3 3 0 0 0-3 3 2.9 2.9 0 0 0 3 2.9h2.9zM718.4 207.5h22.2a32.2 32.2 0 0 1 32.3 32.3v67.3" class="cls-3"/>
      <path fill="none" stroke="#ffa514" stroke-miterlimit="10" stroke-width="1.69" d="M287 244.7h58.2v40.97H287z"/>
      <path d="M282.8 250.6h4.2v8.2h-4a4.2 4.2 0 0 1-4.2-4.2 4 4 0 0 1 4-4zM282.8 271.3h4.2v8.2h-4a4.2 4.2 0 0 1-4.2-4.2 4 4 0 0 1 4-4zM345.2 261.1h8.2v8.2h-8.2z" class="cls-22"/>
      <path fill="none" stroke="#ffa514" stroke-miterlimit="10" stroke-width="1.9" d="M293.1 250.6h45v14.19h-45z"/>
      <circle cx="297.9" cy="275.4" r="4.7" class="cls-5"/>
      <circle cx="315.3" cy="275.4" r="4.7" class="cls-5"/>
      <circle cx="332.7" cy="275.4" r="4.7" class="cls-5"/>
      <path d="M286.4 264.8h-11.5a12.4 12.4 0 0 0-12.5 12.4v50.1a30.5 30.5 0 0 1-30.4 30.5h-11.6" class="cls-17"/>
      <path d="M353.4 265.2h13.2a10.7 10.7 0 0 0 10.6-10.6v-26M377.6 183.3v-25.8M718.2 477.6a45.9 45.9 0 0 1 8.7 17.4 23.4 23.4 0 0 0-21.9-2.6 45.6 45.6 0 0 1 13.2-14.8zM721.4 519.6a8.8 8.8 0 0 1-17.4-2.3 8.8 8.8 0 1 1 17.4 2.3zM695.8 540.1a56.7 56.7 0 0 0 5.4 18.3c-8.5-.6-16.3-.2-22.2 1.2a28.1 28.1 0 0 1 16.8-19.5zM734.9 567c-5.3-2.8-12.8-5.3-21.5-7a60 60 0 0 0 10.1-16.4 28.3 28.3 0 0 1 11.4 23.4z" class="cls-3"/>
      <path d="M728.2 527a50.5 50.5 0 0 1-1.2 5.6 70.8 70.8 0 0 1-3.5 11 60 60 0 0 1-10.1 16.4l-2.1-.4-10.1-1.2a56.7 56.7 0 0 1-5.4-18.3 80.4 80.4 0 0 1-.6-12.1 85.1 85.1 0 0 1 1.1-11.1 71.8 71.8 0 0 1 8.7-24.5 22.6 22.6 0 0 1 11.6-1.4 23.2 23.2 0 0 1 10.3 4 75.3 75.3 0 0 1 1.3 32zm-16.6.1a8.6 8.6 0 0 0 9.8-7.5 8.8 8.8 0 1 0-9.8 7.5z" class="cls-3"/>
      <path d="M721.4 519.6a8.8 8.8 0 0 1-17.4-2.3 8.8 8.8 0 1 1 17.4 2.3zM706.3 568.1l-1.6 12.4M702.5 567.1l-6.7 10.6M710.3 568.2l3.7 11.9M459 53.7a13.9 13.9 0 0 1-5.2 1.1h-56.7a12.7 12.7 0 1 1-1.1-25.5 17.3 17.3 0 0 1 32-13 12.1 12.1 0 0 1 20.1 13.3A13.2 13.2 0 0 1 459 53.7z" class="cls-3"/>
      <path d="M412.9 44.4h20.5v20.54h-20.5z" class="cls-5"/>
      <path d="M416.9 42.3V32l-3.2-3.2M423.1 29.6v12.7M429.3 42.3V32l3.4-3.3" class="cls-3"/>
      <circle cx="411.9" cy="27.2" r="2.4" class="cls-3" transform="rotate(-20.8 412.66157705 27.01985649)"/>
      <circle cx="434.3" cy="27.2" r="2.4" class="cls-3" transform="rotate(-20.8 435.15586307 27.20585643)"/>
      <circle cx="423.1" cy="27.2" r="2.4" class="cls-3" transform="rotate(-20.8 423.90872006 27.11285646)"/>
      <path d="M416.9 67.2v10.3l-3.2 3.2M423.1 79.9V67.2M429.3 67.2v10.3l3.4 3.4" class="cls-3"/>
      <circle cx="411.9" cy="82.3" r="2.4" class="cls-3" transform="rotate(-69.2 411.58609338 82.39932635)"/>
      <circle cx="434.3" cy="82.3" r="2.4" class="cls-3" transform="rotate(-69.2 434.05670987 82.38985306)"/>
      <circle cx="423.1" cy="82.3" r="2.4" class="cls-3" transform="rotate(-69.2 422.84640162 82.35835014)"/>
      <path d="M410.7 60.9h-10.3l-3.3 3.3M410.7 48.6h-10.3l-3.4-3.4" class="cls-3"/>
      <circle cx="395.6" cy="66" r="2.4" class="cls-3" transform="rotate(-20.8 396.22143407 65.9617142)"/>
      <circle cx="395.6" cy="43.5" r="2.4" class="cls-3" transform="rotate(-20.8 396.40743402 43.46742818)"/>
      <path d="M435.5 60.9h10.4l3.2 3.3M435.5 48.6h10.4l3.3-3.4" class="cls-3"/>
      <circle cx="450.6" cy="66" r="2.4" class="cls-3" transform="rotate(-69.2 450.38570792 66.16271764)"/>
      <circle cx="450.6" cy="43.5" r="2.4" class="cls-3" transform="rotate(-69.2 450.37623463 43.69210115)"/>
      <circle cx="323.1" cy="45.6" r="12.1" class="cls-5" transform="rotate(-45 323.0784197 45.57653685)"/>
      <circle cx="323.3" cy="45.6" r="19.4" class="cls-3"/>
      <path d="M319.3 20.9a24.9 24.9 0 0 0 3.7 49.6M332 68.9a24.9 24.9 0 0 0-4.4-47.8" class="cls-3"/>
      <path d="M322.2 70.4v8.5l6.5 6.5v8.8M306.3 705.1l-5.4-5.4v-31.4M306.3 27.1l-5.4-5.4V-9.7" class="cls-3"/>
      <circle cx="328.7" cy="96.4" r="2.8" class="cls-5"/>
      <path d="M343 31.5l6.1-6v-9.2l6.1-6.2" class="cls-3"/>
      <circle cx="356.8" cy="8.5" r="2.8" class="cls-5"/>
      <path d="M298.1 44.3h-40.4M664 505.9h-49.5M664 486.9h-49.5M614.5 467H664M619.6 464.8l39.6 22.3-39.6 19.3" class="cls-3"/>
      <path d="M659.2 507.8L619 486.9l39.1-20.5-38.5 41.4M618.5 505.9H569M618.5 486.9H569M569 467h49.5M574.1 464.8l39.6 22.3-39.6 19.3" class="cls-3"/>
      <path d="M613.7 507.8l-40.2-20.9 39.1-20.5-38.5 41.4" class="cls-3"/>
      <circle cx="660.9" cy="505.5" r="6.7" class="cls-5" transform="matrix(.52 -.86 .86 .52 -113.32 810.37)"/>
      <circle cx="660.9" cy="486.4" r="6.7" class="cls-5" transform="matrix(.52 -.86 .86 .52 -96.98 801.14)"/>
      <circle cx="660.9" cy="467.4" r="6.7" class="cls-5" transform="rotate(-58.9 660.9664417 467.3252686)"/>
      <circle cx="616.1" cy="505.5" r="6.7" class="cls-5" transform="rotate(-58.9 616.14401186 505.54914715)"/>
      <circle cx="616.1" cy="486.4" r="6.7" class="cls-5" transform="rotate(-58.9 616.19695887 486.42613965)"/>
      <circle cx="616.1" cy="467.4" r="6.7" class="cls-5" transform="rotate(-58.9 616.11135096 467.34168706)"/>
      <circle cx="571.3" cy="505.5" r="6.7" class="cls-5" transform="rotate(-58.9 571.28892112 505.56556562)"/>
      <circle cx="571.3" cy="486.4" r="6.7" class="cls-5" transform="rotate(-58.9 571.34186813 486.44255811)"/>
      <circle cx="571.3" cy="467.4" r="6.7" class="cls-5" transform="matrix(.52 -.86 .86 .52 -123.97 715.18)"/>
      <path d="M574.4 505.9h-49.5M574.4 486.9h-49.5M524.9 467h49.5M530 464.8l39.6 22.3-39.6 19.3" class="cls-3"/>
      <path d="M569.6 507.8l-40.2-20.9 39.1-20.5-38.5 41.4" class="cls-3"/>
      <circle cx="527.2" cy="505.5" r="6.7" class="cls-5" transform="rotate(-58.9 527.25371484 505.5777644)"/>
      <circle cx="527.2" cy="486.4" r="6.7" class="cls-5" transform="rotate(-58.9 527.21810692 486.40475689)"/>
      <circle cx="527.2" cy="467.4" r="6.7" class="cls-5" transform="rotate(-58.9 527.22105393 467.3703043)"/>
      <path d="M775.4 144.6l-.3 16.6a4.5 4.5 0 0 1-4.7 4.5 5.1 5.1 0 0 1-5.1-5.3l.2-10.6a5.4 5.4 0 0 0-5.2-5.5zM754.9 165.4l-.3 16.6a4.6 4.6 0 0 1-4.7 4.5 5.1 5.1 0 0 1-5.1-5.3l.3-16z" class="cls-3"/>
      <path d="M814.1 124.1l-.7 37.9a4.7 4.7 0 0 1-4.7 4.5l-38.3-.8a4.5 4.5 0 0 0 4.7-4.5l.7-37.8z" class="cls-3"/>
      <path d="M793.2 166.2l-.4 16.7a4.4 4.4 0 0 1-4.5 4.4l-38.4-.8a4.6 4.6 0 0 0 4.7-4.5l.6-33.1a4.8 4.8 0 0 1 4.8-4.6h.3a5.4 5.4 0 0 1 5.2 5.5l-.2 10.6a5.1 5.1 0 0 0 5.1 5.3zM780 130.4l28.5.5M779.9 135.1l28.5.5M779.9 139.8l28.4.5M779.8 144.5l28.4.5M779.7 149.2l28.4.6M779.6 153.9l28.4.6M779.5 158.6l28.4.6" class="cls-3"/>
      <path fill="#ffa514" stroke="#ffa514" stroke-miterlimit="10" stroke-width="1.79" d="M666.1 526.4c0 .2.1.3 0 .5v41.3a5.6 5.6 0 0 0-5.7-5.7 5.7 5.7 0 0 0-5.7 5.7v-42a5.7 5.7 0 0 1 11.4.1z"/>
      <path d="M666 568.3a5.8 5.8 0 0 1-5.4 5.7H603v-47.7h51.7v41.9a5.7 5.7 0 0 1 5.7-5.7 5.6 5.6 0 0 1 5.6 5.8z" class="cls-16"/>
      <path d="M610.5 543.6h4.1v19.71h-4.1zM619 550.3h4.1v13.06H619zM627.5 543.8h4.1v19.49h-4.1zM636 540.9h4.1v22.46H636zM644.5 536.7h4.1v26.66h-4.1z" class="cls-16"/>
      <path d="M308.6 136.2c0 .6-3.2 1.2-7.2 1.2s-7.2-.6-7.2-1.2 3.2-1.3 7.2-1.3 7.2.6 7.2 1.3z" class="cls-25"/>
      <path d="M312.2 138.3v.4c0 1.1-5.2 1.9-11.5 1.9s-11.6-.8-11.6-1.9v-7h23.1z" class="cls-5"/>
      <path d="M317.3 119.1v10.2c0 1.5-7.4 2.8-16.6 2.8s-16.7-1.3-16.7-2.8v-10.2" class="cls-16"/>
      <path d="M317.6 118.9c0 1.9-7.6 3.4-16.9 3.4s-17-1.5-17-3.4 7.6-3.5 17-3.5 16.9 1.5 16.9 3.5zM317.3 136.9v10.2c0 1.5-7.4 2.8-16.6 2.8s-16.7-1.3-16.7-2.8v-10.2" class="cls-16"/>
      <path d="M317.6 136.6c0 2-7.6 3.5-16.9 3.5s-17-1.5-17-3.5 7.6-3.4 17-3.4 16.9 1.5 16.9 3.4z" class="cls-16"/>
      <ellipse cx="300.7" cy="120.2" class="cls-25" rx="7.2" ry="1.2"/>
      <path d="M312.2 120.2v.5c0 1-5.2 1.9-11.5 1.9s-11.6-.9-11.6-1.9v-7.1h23.1z" class="cls-5"/>
      <path d="M317.3 111.6v.6c0 1.6-7.4 2.8-16.6 2.8s-16.7-1.2-16.7-2.8V102h33.3z" class="cls-16"/>
      <ellipse cx="300.7" cy="101.6" class="cls-26" rx="17" ry="3.3"/>
      <path d="M885.1 144a2.9 2.9 0 0 1 2.9 2.9v86.9a2.9 2.9 0 0 0 2.9 2.9h2.1M813.7 144h23.6M469.2 511.6v8.3a27.2 27.2 0 0 0 27.2 27.2h105.9" class="cls-3"/>
      <path fill="#ffa514" stroke="#ffa514" stroke-miterlimit="10" stroke-width="2.23" d="M548.7 347H545l8.4 18.7-1.3 2.6-.5.9a4.4 4.4 0 0 1-.8 1.1 2.8 2.8 0 0 1-1 .9 1.9 1.9 0 0 1-1.2.4H547l-.6 2.7h2.1a4.3 4.3 0 0 0 2.3-.5 5.7 5.7 0 0 0 1.8-1.2l1.3-1.5a9.5 9.5 0 0 0 .9-1.7l9.9-22.6H561l-6 15-.9-2.4z"/>
      <path d="M857.4 634.9H855l5.5 12.2-.9 1.7-.3.6a1.8 1.8 0 0 1-.5.7 1.3 1.3 0 0 1-.7.6 1.1 1.1 0 0 1-.8.3h-1l-.4 1.8h1.4a4 4 0 0 0 1.5-.3l1.1-.8a3.1 3.1 0 0 0 .9-1.1l.6-1 6.5-14.8h-2.5l-3.9 9.8-.6-1.5zM190.6 351.1h-2.9l6.7 14.9-1.1 2-.4.8-.6.8a3 3 0 0 1-.8.8 1.7 1.7 0 0 1-1 .3h-1.3l-.4 2.2h1.6a3.8 3.8 0 0 0 1.9-.4 7.1 7.1 0 0 0 1.4-1 3.8 3.8 0 0 0 1-1.2 5.6 5.6 0 0 0 .7-1.3l7.9-18h-2.9l-4.8 12-.7-1.9z" class="cls-2"/>
      <path d="M375.9 440.9h-3.8l8.3 16.8v10h3.1v-10l8.3-16.8h-3.9l-5.9 13.5z" class="cls-6"/>
      <path d="M381.8 429.8l.2-1 .2 1 2.7 6.5h2.3l-4.3-10.5h-1.8l-4.3 10.5h2.3z" class="cls-26"/>
      <path d="M861.4 485.7h8v8h-8zM853.4 501.9h8v8h-8zM869.4 501.9h8v8h-8zM885.4 501.9h8v8h-8zM877.4 485.7h8v8h-8zM861.4 517.7h8v8h-8zM877.4 517.7h8v8h-8z" class="cls-5"/>
      <path d="M717.7 284.4v1.3a7.1 7.1 0 0 0 7.1 7.1 7.1 7.1 0 0 0 7.2-7.1v-38.3a7.1 7.1 0 0 0-7.2-7.1 7.1 7.1 0 0 0-7.1 7.1v1.5" class="cls-3"/>
      <path d="M709.7 274.7v2.5a7.1 7.1 0 0 0 7.1 7.2 7.1 7.1 0 0 0 7.1-7.2M723.9 255.9a7.1 7.1 0 0 0-7.1-7.1 7.1 7.1 0 0 0-7.1 7.1v5.3" class="cls-3"/>
      <path d="M712.5 260.8h-.4a7.1 7.1 0 0 0-7.1 7.1 7.1 7.1 0 0 0 7.1 7.2M726.2 262.1h-.3a4.9 4.9 0 0 0-4.8 4.9 4.8 4.8 0 0 0 4.8 4.8M746.7 248.3V247a7.1 7.1 0 0 0-7.1-7.1 7.1 7.1 0 0 0-7.1 7.1v38.2a7.1 7.1 0 0 0 7.1 7.2 7.1 7.1 0 0 0 7.1-7.2v-1.4" class="cls-3"/>
      <path d="M754.8 258v-2.6a7.1 7.1 0 0 0-7.1-7.1 7.1 7.1 0 0 0-7.2 7.1M740.5 276.7a7.2 7.2 0 0 0 7.2 7.2 7.1 7.1 0 0 0 7.1-7.2v-5.3" class="cls-3"/>
      <path d="M751.9 271.8h.4a7.1 7.1 0 0 0 7.2-7.1 7.1 7.1 0 0 0-7.2-7.1M738.2 270.5h.3a4.9 4.9 0 0 0 4.9-4.8 4.9 4.9 0 0 0-4.9-4.9" class="cls-3"/>
      <path d="M869 194.8l-7.6 7.6-7.5-7.6M869 202.4l-7.6 7.6-7.5-7.6M869 210l-7.6 7.5-7.5-7.5M869 217.5l-7.6 7.6-7.5-7.6M869 225.1l-7.6 7.6-7.5-7.6M50.2 379.5l7.6 7.5-7.6 7.6" class="cls-10"/>
      <path d="M57.8 379.5l7.5 7.5-7.5 7.6M65.3 379.5l7.6 7.5-7.6 7.6M72.9 379.5l7.6 7.5-7.6 7.6M80.5 379.5l7.6 7.5-7.6 7.6M524.8 559.3l7.6 7.6-7.6 7.5M532.4 559.3l7.6 7.6-7.6 7.5M540 559.3l7.6 7.6-7.6 7.5M547.6 559.3l7.6 7.6-7.6 7.5M555.2 559.3l7.6 7.6-7.6 7.5M172.2 262.3l-7.6 7.6-7.6-7.6" class="cls-10"/>
      <path d="M172.2 269.9l-7.6 7.6-7.6-7.6M172.2 277.5l-7.6 7.6-7.6-7.6M172.2 285.1l-7.6 7.5-7.6-7.5M172.2 292.6l-7.6 7.6-7.6-7.6M202.8 507.7l-7.6 7.6-7.5-7.6M202.8 515.3l-7.6 7.6-7.5-7.6M202.8 522.9l-7.6 7.6-7.5-7.6M202.8 530.5l-7.6 7.6-7.5-7.6M202.8 538.1l-7.6 7.6-7.5-7.6M353.9 104.1l-7.6 7.6-7.5-7.6M353.9 111.7l-7.6 7.6-7.5-7.6M353.9 119.3l-7.6 7.6-7.5-7.6M353.9 126.9l-7.6 7.5-7.5-7.5M353.9 134.4l-7.6 7.6-7.5-7.6M7.6 547.1L0 554.6l-7.6-7.5M7.6 554.6L0 562.2l-7.6-7.6" class="cls-10"/>
      <path d="M7.6 562.2L0 569.8l-7.6-7.6M7.6 569.8L0 577.4l-7.6-7.6M7.6 577.4L0 585l-7.6-7.6M911.6 547.1l-7.6 7.5-7.6-7.5M911.6 554.6l-7.6 7.6-7.6-7.6M911.6 562.2l-7.6 7.6-7.6-7.6" class="cls-10"/>
      <path d="M911.6 569.8l-7.6 7.6-7.6-7.6M911.6 577.4L904 585l-7.6-7.6" class="cls-10"/>
      <path d="M814.6 7.3h106M813.9 17.8V-3.3M814.6 685.3h106M813.9 695.8v-21" class="cls-3"/>
      <circle cx="761.3" cy="496.9" r="8.9" class="cls-3" transform="rotate(-16.8 763.4217967 497.8110623)"/>
      <circle cx="118.7" cy="386.8" r="8.9" class="cls-3" transform="rotate(-16.8 119.18566197 387.8012908)"/>
      <circle cx="549.3" cy="322.3" r="8.9" class="cls-3" transform="rotate(-16.8 550.87685336 322.84233737)"/>
      <circle cx="510.4" cy="300.2" r="8.9" class="cls-3" transform="rotate(-16.8 511.91773423 300.82816852)"/>
      <circle cx="729.3" cy="140.5" r="8.9" class="cls-3" transform="rotate(-16.8 731.41495908 140.5283377)"/>
      <circle cx="67.4" cy="292.2" r="5.3" class="cls-3" transform="rotate(-16.8 67.79038724 293.02425783)"/>
      <circle cx="67.4" cy="171.9" r="5.3" class="cls-3" transform="rotate(-16.8 67.6332217 172.25308915)"/>
      <circle cx="480.7" cy="412.8" r="5.3" class="cls-3" transform="rotate(-16.8 482.10095941 413.71334383)"/>
      <circle cx="419.4" cy="412.8" r="5.3" class="cls-3" transform="matrix(.96 -.29 .29 .96 -101.64 139.26)"/>
      <path d="M759.9 401.2a2.8 2.8 0 0 0 3.3-2.2 2.8 2.8 0 0 0-2.1-3.4 2.9 2.9 0 0 0-3.4 2.2 2.8 2.8 0 0 0 2.2 3.4zM747.5 411.3a2.7 2.7 0 0 0 3.3-2.2 2.8 2.8 0 1 0-5.5-1.2 2.7 2.7 0 0 0 2.2 3.4zM771.9 412.6a2.9 2.9 0 0 0 3.4-2.2 2.7 2.7 0 0 0-2.2-3.4 2.9 2.9 0 0 0-3.4 2.2 3 3 0 0 0 2.2 3.4z" class="cls-2"/>
      <path d="M772.5 409.8l-12-11.4-12.5 10.1" class="cls-3"/>
      <path d="M849.9 405l.6-.6 3.4 3.8a1.2 1.2 0 0 0 1.7.1h.2l2.1-2.5a2 2 0 0 1 2.8-.3l.3.3 2.1 2.5a1.2 1.2 0 0 0 1.7.1h.2l2.1-2.5a2 2 0 0 1 2.8-.3l.3.3 2.1 2.5a1.2 1.2 0 0 0 1.7.1h.2l3.3-4 .6.5-3.3 4a2.2 2.2 0 0 1-2.9.2l-.2-.2-2.1-2.5a1.4 1.4 0 0 0-1.8-.2c0 .1 0 .1-.1.2l-2.1 2.5a2.1 2.1 0 0 1-2.9.2l-.2-.2-2.1-2.5a1.3 1.3 0 0 0-1.7-.2l-.2.2-2.1 2.5a2 2 0 0 1-2.8.2l-.3-.2zM793.5 299.2l-.5-.6 3.7-3.4a1.2 1.2 0 0 0 .2-1.7l-.2-.2-2.5-2.1a2.1 2.1 0 0 1-.2-2.9l.2-.2 2.5-2.1a1.2 1.2 0 0 0 .2-1.7l-.2-.2-2.5-2.1a2 2 0 0 1-.2-2.8c.1-.1.2-.2.2-.3l2.5-2.1a1.2 1.2 0 0 0 .2-1.7l-.2-.2-3.9-3.3.5-.6 4 3.3a2.1 2.1 0 0 1 .2 2.9l-.2.2-2.6 2.1a1.2 1.2 0 0 0-.1 1.7v.2l2.6 2.1a2 2 0 0 1 .2 2.8c-.1.1-.2.2-.2.3l-2.6 2.1a1.2 1.2 0 0 0-.1 1.7c.1.1.1.1.1.2l2.6 2.1a2 2 0 0 1 .2 2.8c-.1.1-.2.2-.2.3zM749 370.5l-.6.6c0-.1-3.4-3.8-3.4-3.8a1.2 1.2 0 0 0-1.7-.1c-.1 0-.1 0-.1.1l-2.2 2.5a2 2 0 0 1-2.8.2.2.2 0 0 1-.2-.2l-2.2-2.5a1.2 1.2 0 0 0-1.7-.1c-.1 0-.1 0-.1.1l-2.2 2.5a2 2 0 0 1-2.8.2.2.2 0 0 1-.2-.2l-2.2-2.5a1.2 1.2 0 0 0-1.7-.1.1.1 0 0 0-.1.1l-3.4 3.9-.6-.5 3.4-3.9a1.9 1.9 0 0 1 2.8-.2c.1 0 .1.1.2.2l2.2 2.5a1.2 1.2 0 0 0 1.7.1h.1l2.2-2.5a1.9 1.9 0 0 1 2.8-.2l.2.2 2.2 2.5a1.2 1.2 0 0 0 1.7.1h.1l2.2-2.5a1.9 1.9 0 0 1 2.8-.2c.1 0 .1.1.2.2zM428.4 219.7l-.6.6-3.4-3.8a1.2 1.2 0 0 0-1.7-.1h-.2l-2.1 2.5a2 2 0 0 1-2.8.3l-.2-.3-2.2-2.5a1.2 1.2 0 0 0-1.7-.1h-.2l-2.1 2.5a2 2 0 0 1-2.8.3l-.2-.3-2.2-2.5a1.2 1.2 0 0 0-1.7-.1h-.1l-3.4 4-.6-.5 3.3-4a2.2 2.2 0 0 1 2.9-.2l.2.2 2.1 2.5a1.4 1.4 0 0 0 1.8.2v-.2l2.1-2.5a2.2 2.2 0 0 1 2.9-.2l.2.2 2.1 2.5a1.4 1.4 0 0 0 1.8.2v-.2l2.1-2.5a2.2 2.2 0 0 1 2.9-.2l.2.2zM427.8 198.9l-.5.5c-.1 0-3.5-3.7-3.5-3.7a1.2 1.2 0 0 0-1.7-.2v.2l-2.2 2.5a2 2 0 0 1-2.8.2l-.2-.2-2.2-2.5a1.2 1.2 0 0 0-1.7-.2v.2l-2.2 2.5a2 2 0 0 1-2.8.2l-.2-.2-2.1-2.5a1.4 1.4 0 0 0-1.8-.2v.2l-3.4 3.9-.6-.5 3.4-3.9a2 2 0 0 1 2.8-.3l.2.3 2.2 2.5a1.2 1.2 0 0 0 1.7.1.1.1 0 0 0 .1-.1l2.2-2.5a2 2 0 0 1 2.8-.3l.2.3 2.2 2.5a1.2 1.2 0 0 0 1.7.1h.1l2.2-2.5a2 2 0 0 1 2.8-.3l.2.3zM565.2 26.7l-.6.5-3.4-3.7a1.2 1.2 0 0 0-1.7-.2l-.2.2-2.1 2.5a2 2 0 0 1-2.8.2c-.1-.1-.2-.1-.2-.2l-2.2-2.5a1.2 1.2 0 0 0-1.7-.2c-.1.1-.1.1-.1.2L548 26a2 2 0 0 1-2.8.2c-.1-.1-.2-.1-.2-.2l-2.2-2.5a1.2 1.2 0 0 0-1.7-.2c-.1.1-.1.1-.1.2l-3.4 3.9-.6-.5 3.4-3.9a1.9 1.9 0 0 1 2.8-.3l.2.3 2.1 2.5a1.4 1.4 0 0 0 1.8.1h.1l2.2-2.5a1.9 1.9 0 0 1 2.8-.3l.2.3 2.1 2.5a1.4 1.4 0 0 0 1.8.1h.1l2.1-2.5a2.1 2.1 0 0 1 2.9-.3c0 .1.1.2.2.3zM656.8 77.3l-.6.6c0-.1-3.4-3.8-3.4-3.8a1.2 1.2 0 0 0-1.7-.1h-.1l-2.2 2.5a1.9 1.9 0 0 1-2.8.2.2.2 0 0 1-.2-.2l-2.2-2.5a1.2 1.2 0 0 0-1.7-.1h-.1l-2.2 2.5a1.9 1.9 0 0 1-2.8.2.2.2 0 0 1-.2-.2l-2.2-2.5a1.2 1.2 0 0 0-1.7-.1h-.1l-3.4 4-.6-.6 3.4-3.9a2 2 0 0 1 2.8-.2l.2.2 2.2 2.5a1.2 1.2 0 0 0 1.7.1.1.1 0 0 0 .1-.1l2.2-2.5a2 2 0 0 1 2.8-.2l.2.2 2.2 2.5a1.2 1.2 0 0 0 1.7.1.1.1 0 0 0 .1-.1l2.2-2.5a2 2 0 0 1 2.8-.2l.2.2z" class="cls-4"/>
      <path d="M494.6 10a3 3 0 0 1 1 2.3h6.3v6.3a3.2 3.2 0 0 0-2.3.9 3.3 3.3 0 0 0 0 4.7 3.2 3.2 0 0 0 2.3.9v6.3h-6.3a3.3 3.3 0 0 1-5.6 2.3 3.3 3.3 0 0 1-.9-2.3h-6.3v-6.3a3 3 0 0 0 2.3-1 3.2 3.2 0 0 0 0-4.6 3.3 3.3 0 0 0-2.3-.9v-6.3h6.3a3.3 3.3 0 0 1 .9-2.3 3.2 3.2 0 0 1 4.6 0zM831.9 189.6a3.3 3.3 0 0 1-2.3.9v6.3h-6.3a3.3 3.3 0 0 0-.9-2.3 3.2 3.2 0 0 0-4.6 0 3 3 0 0 0-1 2.3h-6.3v-6.3a3.5 3.5 0 0 1-2.3-.9 3.3 3.3 0 0 1 2.3-5.6v-6.3h6.3a2.9 2.9 0 0 0 1 2.3 3.2 3.2 0 0 0 4.6 0 3.2 3.2 0 0 0 .9-2.3h6.3v6.3a3 3 0 0 1 2.3 1 3.2 3.2 0 0 1 0 4.6zM573.8 219.2a3.5 3.5 0 0 1-.9-2.3h-6.3v-6.3a3 3 0 0 0 2.3-1 3.2 3.2 0 0 0 0-4.6 3.3 3.3 0 0 0-2.3-.9v-6.3h6.3a3.3 3.3 0 0 1 .9-2.3 3.2 3.2 0 0 1 4.6 0 3 3 0 0 1 1 2.3h6.3v6.3a3.2 3.2 0 0 0-2.3.9 3.2 3.2 0 0 0 0 4.6 2.9 2.9 0 0 0 2.3 1v6.3h-6.3a3.2 3.2 0 0 1-1 2.3 3.4 3.4 0 0 1-4.6 0zM507 430.5a3.4 3.4 0 0 1 2.3-1v-6.2h6.3a3.5 3.5 0 0 0 .9 2.3 3.3 3.3 0 0 0 4.6 0 3.2 3.2 0 0 0 1-2.3h6.3v6.2a3.7 3.7 0 0 1 2.3 1 3.4 3.4 0 0 1 0 4.6 3.7 3.7 0 0 1-2.3 1v6.2h-6.3a3.2 3.2 0 0 0-1-2.3 3.4 3.4 0 0 0-4.6 0 3.5 3.5 0 0 0-.9 2.3h-6.3v-6.2a3.4 3.4 0 0 1-2.3-1 3.2 3.2 0 0 1 0-4.6z" class="cls-3"/>
      <path d="M663.3 273.6v11.9l-10.4 6-10.3-6v-11.9l10.3-6 10.4 6zM652.5 291.7v12l-10.4 6-10.4-6v-12l10.4-5.9 10.4 5.9zM205.9 572.7v12l-10.4 6-10.3-6v-12l10.3-5.9 10.4 5.9zM47 568.4v12l-10.4 6-10.3-6v-12l10.3-5.9 10.4 5.9zM195.5 590.8v11.9l-10.3 6-10.4-6v-11.9l10.4-6 10.3 6z" class="cls-17"/>
      <path d="M643.3 136.3v41.2M646.1 159.5v-9l2.6-2.6M640.5 159.5V147l-4.8-4.9M646.1 177.1v-13.4l3.3-3.3M640.5 177.1v-13.4l-8.7-8.7" class="cls-3"/>
      <circle cx="643.3" cy="134.4" r="1.9" class="cls-3"/>
      <circle cx="634.2" cy="141" r="1.9" class="cls-3"/>
      <circle cx="650.3" cy="147" r="1.9" class="cls-3"/>
      <circle cx="650.7" cy="159.1" r="1.9" class="cls-3"/>
      <circle cx="630.1" cy="153.9" r="1.9" class="cls-3"/>
      <path d="M646 378.1a4.4 4.4 0 0 0-1.8 6 4.4 4.4 0 0 0 5.9 1.8 4.4 4.4 0 0 0-4.1-7.8zM629.6 344.5a4.4 4.4 0 0 0 4.2 7.7 4.4 4.4 0 1 0-4.2-7.7zM627 367.9a4.3 4.3 0 0 0-1.7 5.9 4.4 4.4 0 0 0 5.9 1.8 4.5 4.5 0 0 0 1.8-6 4.4 4.4 0 0 0-6-1.7z" class="cls-2"/>
      <path d="M631.7 348.3l16.4 33.7-19-10.3 2.6-23.4z" class="cls-3"/>
      <circle cx="760.3" cy="125.7" r="5.3" class="cls-3" transform="rotate(-16.8 762.31870407 125.71677481)"/>
      <circle cx="635.7" cy="111.2" r="5.3" class="cls-3" transform="rotate(-16.8 637.45274732 111.42996686)"/>
      <circle cx="695.1" cy="11.3" r="5.3" class="cls-3" transform="rotate(-16.8 696.93206182 10.8825763)"/>
      <circle cx="878.1" cy="391.6" r="5.3" class="cls-3" transform="rotate(-16.8 880.72000184 392.3082976)"/>
      <circle cx="849.3" cy="392" r="5.3" class="cls-3" transform="rotate(-16.8 851.57765751 392.84868832)"/>
      <path d="M525.9 281.1l.6-.6 3.4 3.8a1.2 1.2 0 0 0 1.7.1h.2l2.1-2.5a2 2 0 0 1 2.8-.3c.1.1.2.2.2.3l2.2 2.5a1.2 1.2 0 0 0 1.7.1h.1l2.2-2.5a2 2 0 0 1 2.8-.3c.1.1.2.2.2.3l2.2 2.5a1.2 1.2 0 0 0 1.7.1h.1l3.4-4 .6.5-3.4 4a2 2 0 0 1-2.8.2l-.2-.2-2.1-2.5a1.4 1.4 0 0 0-1.8-.2c0 .1-.1.1-.1.2l-2.2 2.5a2 2 0 0 1-2.8.2l-.2-.2-2.1-2.5a1.4 1.4 0 0 0-1.8-.2c0 .1-.1.1-.1.2l-2.1 2.5a2.2 2.2 0 0 1-2.9.2c0-.1-.1-.1-.2-.2z" class="cls-4"/>
      <circle cx="187.6" cy="322.7" r="5.3" class="cls-3" transform="rotate(-16.8 188.17474797 323.60243331)"/>
      <circle cx="249.4" cy="367.3" r="5.3" class="cls-3" transform="rotate(-16.8 250.11741674 368.0395657)"/>
      <circle cx="274.9" cy="79.8" r="5.3" class="cls-3" transform="rotate(-16.8 275.72604922 79.8117251)"/>
      <circle cx="414.3" cy="171.9" r="5.3" class="cls-3" transform="rotate(-16.8 415.3755556 172.0517879)"/>
      <circle cx="155.4" cy="387" r="5.3" class="cls-3" transform="rotate(-16.8 155.82719172 388.02230075)"/>
      <circle cx="349.3" cy="481.7" r="5.3" class="cls-3" transform="rotate(-16.8 350.45259205 482.84477416)"/>
      <circle cx="760.3" cy="469.7" r="5.3" class="cls-3" transform="rotate(-16.8 762.58140598 470.700314)"/>
      <circle cx="686.9" cy="485.6" r="5.3" class="cls-3" transform="rotate(-16.8 688.92994251 486.8110623)"/>
      <circle cx="392.8" cy="365.2" r="5.3" class="cls-3" transform="rotate(-16.8 393.98614168 366.10341011)"/>
      <circle cx="370" cy="365.2" r="5.3" class="cls-3" transform="rotate(-16.8 371.18858543 365.85080415)"/>
      <path d="M370 360.1l4.1-6.1a8.9 8.9 0 0 1 14.8.1l3.9 5.8" class="cls-3"/>
      <path d="M297.5 394.8v1.7h-1.1a8.1 8.1 0 0 1-1.5 3.7l.8.7-1.3 1.2-.7-.6a6.8 6.8 0 0 1-3.7 1.5v1h-1.7v-1a7.5 7.5 0 0 1-3.8-1.5l-.6.6-1.3-1.2.7-.7a8.3 8.3 0 0 1-1.4-3.5v-.2h-1.1v-1.7h1.2a6.9 6.9 0 0 1 1.5-3.5l-.9-.9 1.3-1.3.9.9a7.1 7.1 0 0 1 3.5-1.3v-1.4h1.7v1.4a7.1 7.1 0 0 1 3.5 1.3l.9-.9 1.3 1.3-.9.9a6.6 6.6 0 0 1 1.5 3.5zm-2.7.4v-.4a6.4 6.4 0 0 0-1.1-2.5l-1.3-1.2a5 5 0 0 0-2.4-.9h-1.7a5 5 0 0 0-2.4.9l-1.3 1.2a7.1 7.1 0 0 0-1.1 2.5 9.1 9.1 0 0 0-.1 1.7 6.7 6.7 0 0 0 1 2.6l1.2 1.3a5.4 5.4 0 0 0 2.7 1.1h1.7a5.4 5.4 0 0 0 2.7-1.1l1.2-1.3a6.7 6.7 0 0 0 1-2.6 5.7 5.7 0 0 0-.1-1.3z" class="cls-2"/>
      <path d="M291.8 396.5c0 .2-.1.3-.1.4a2.5 2.5 0 0 1-1.2 1.3l-.5.3h-1.7l-.5-.3a2 2 0 0 1-1.2-1.3c-.1-.1-.1-.2-.1-.4a.4.4 0 0 1-.1-.3 2.2 2.2 0 0 1 .2-1.4c0-.1.1-.2.1-.3a2.8 2.8 0 0 1 1.4-1.2h2.1a2.2 2.2 0 0 1 1.3 1.2l.2.3a1.4 1.4 0 0 1 .2.7 3.1 3.1 0 0 1-.1 1z" class="cls-2"/>
      <path d="M211.1 433h4.4v12.5H207v-4.4h4.1V433zM241 441.1v4.4h-17.1v-4.4H241zM218.6 416.5h4.3v4.3h4.4v4.3h-4.4v4.3h-4.3v-12.9zM200 424.2v-8.5h4.4v-4.3h4.4v8.5h-4.4v4.3H200zM118.1 564.8v33.6" class="cls-3"/>
      <path d="M544.6 537.5v9.6M854.6 278v-27.6" class="cls-17"/>
    </pattern>
  </defs>
  <path fill="#faf8f5" d="M-8-6h535v312H-8z"/>
  <path fill="url(#New_Pattern_Swatch_3)" d="M0 0h520v300H0z"/>
</svg>
