<svg id="Layer_1" data-name="Layer 1" xmlns="http://www.w3.org/2000/svg" xmlns:xlink="http://www.w3.org/1999/xlink" viewBox="0 0 520 300"><defs><style>.cls-1,.cls-10,.cls-11,.cls-12,.cls-13,.cls-14,.cls-15,.cls-16,.cls-17,.cls-18,.cls-19,.cls-20,.cls-21,.cls-22,.cls-23,.cls-3,.cls-4,.cls-7,.cls-8,.cls-9{fill:none;}.cls-2,.cls-24,.cls-26,.cls-27,.cls-5,.cls-6{fill:#ed4250;}.cls-10,.cls-11,.cls-12,.cls-13,.cls-14,.cls-16,.cls-17,.cls-18,.cls-19,.cls-2,.cls-20,.cls-21,.cls-22,.cls-23,.cls-24,.cls-26,.cls-27,.cls-3,.cls-4,.cls-6,.cls-7,.cls-8,.cls-9{stroke:#ed4250;}.cls-10,.cls-11,.cls-12,.cls-13,.cls-14,.cls-15,.cls-16,.cls-18,.cls-19,.cls-2,.cls-20,.cls-21,.cls-22,.cls-23,.cls-24,.cls-26,.cls-27,.cls-3,.cls-4,.cls-6,.cls-7,.cls-8,.cls-9{stroke-miterlimit:10;}.cls-12,.cls-13,.cls-14,.cls-15,.cls-17,.cls-2,.cls-3{stroke-width:2px;}.cls-6{stroke-width:3px;}.cls-7{stroke-width:1.41px;}.cls-8{stroke-width:2.44px;}.cls-9{stroke-width:2.1px;}.cls-10{stroke-width:1.88px;}.cls-11{stroke-width:2.58px;}.cls-12,.cls-17{stroke-linecap:round;}.cls-13{stroke-dasharray:3.64 3.64;}.cls-14{stroke-dasharray:3.6 3.6;}.cls-15{stroke:#0034f4;}.cls-16,.cls-24{stroke-width:1.79px;}.cls-17{stroke-linejoin:round;}.cls-18{stroke-width:1.99px;}.cls-19{stroke-width:2.57px;}.cls-20{stroke-width:1.48px;}.cls-21{stroke-width:1.69px;}.cls-22{stroke-width:1.62px;}.cls-23{stroke-width:1.9px;}.cls-25{fill:#00a6f7;}.cls-27{stroke-width:2.23px;}.cls-28{fill:#faf8f5;}.cls-29{fill:url(#New_Pattern_Swatch_4);}</style><pattern id="New_Pattern_Swatch_4" data-name="New Pattern Swatch 4" width="904" height="678" patternTransform="translate(48 -675.9) scale(0.75)" patternUnits="userSpaceOnUse" viewBox="0 0 904 678"><rect class="cls-1" width="904" height="678"/><path class="cls-2" d="M372.9,73.1a4,4,0,0,0,.4,5.7,4.1,4.1,0,0,0,5.7-.5,4,4,0,0,0-.4-5.7A4.1,4.1,0,0,0,372.9,73.1Z"/><path class="cls-2" d="M368.6,50.8a4.1,4.1,0,0,0,.5,5.7,4,4,0,0,0,5.7-.4,4.1,4.1,0,0,0-.5-5.7A4,4,0,0,0,368.6,50.8Z"/><path class="cls-2" d="M350.6,80.5a4,4,0,1,0,5.7-.5A4.1,4.1,0,0,0,350.6,80.5Z"/><polyline class="cls-3" points="353.7 83.1 375.9 75.7 371.7 53.5"/><path class="cls-2" d="M34,83.1a4,4,0,1,0,5.6,1.1A4.1,4.1,0,0,0,34,83.1Z"/><path class="cls-2" d="M36.1,60.5a4,4,0,1,0,5.6,1.2A4.1,4.1,0,0,0,36.1,60.5Z"/><path class="cls-2" d="M10.5,83.9A4.1,4.1,0,0,0,15,90.7a4.1,4.1,0,0,0,1.1-5.6A4,4,0,0,0,10.5,83.9Z"/><polyline class="cls-3" points="12.7 87.3 36.2 86.5 38.3 63.9"/><path class="cls-4" d="M262.2,608.3l-.5.6-3.5-3.8a1.2,1.2,0,0,0-1.7-.1h-.1l-2.2,2.5a1.9,1.9,0,0,1-2.8.2l-.2-.2-2.2-2.5a1.2,1.2,0,0,0-1.7-.1h-.1l-2.2,2.5a1.9,1.9,0,0,1-2.8.2l-.2-.2-2.1-2.5a1.3,1.3,0,0,0-1.8-.1H238l-3.4,4-.6-.5,3.4-4a2,2,0,0,1,2.8-.2c.1.1.2.1.2.2l2.2,2.5a1.2,1.2,0,0,0,1.7.1c.1,0,.1,0,.1-.1l2.2-2.5a2,2,0,0,1,2.8-.2c.1.1.2.1.2.2l2.2,2.5a1.2,1.2,0,0,0,1.7.1.1.1,0,0,0,.1-.1l2.2-2.5a2,2,0,0,1,2.8-.2c.1.1.2.1.2.2Z"/><path class="cls-4" d="M310.3,483.6l-.6.5-3.4-3.8a1.2,1.2,0,0,0-1.7-.1h-.2l-2.1,2.6a2,2,0,0,1-2.8.2l-.3-.2-2.1-2.6a1.2,1.2,0,0,0-1.7-.1h-.2l-2.1,2.6a2,2,0,0,1-2.8.2l-.3-.2-2.1-2.6a1.2,1.2,0,0,0-1.7-.1H286l-3.3,4-.6-.5,3.3-4a2.2,2.2,0,0,1,2.9-.2.2.2,0,0,0,.2.2l2.1,2.5a1.3,1.3,0,0,0,1.8.2c0-.1,0-.1.1-.2l2.1-2.5a2.1,2.1,0,0,1,2.9-.2l.2.2,2.1,2.5a1.2,1.2,0,0,0,1.7.2l.2-.2,2.1-2.5a2,2,0,0,1,2.8-.2l.3.2Z"/><path class="cls-4" d="M535.2,656.1l-.6-.5c0-.1,3.8-3.5,3.8-3.5a1.2,1.2,0,0,0,.1-1.7h-.1l-2.5-2.2a1.9,1.9,0,0,1-.3-2.8l.3-.2,2.5-2.2a1.2,1.2,0,0,0,.1-1.7h-.1l-2.5-2.2a1.9,1.9,0,0,1-.3-2.8l.3-.2,2.5-2.1a1.4,1.4,0,0,0,.1-1.8h-.1l-4-3.4.5-.6,4,3.4a2,2,0,0,1,.2,2.8l-.2.2-2.5,2.2a1.2,1.2,0,0,0-.2,1.7h.2l2.5,2.2a2,2,0,0,1,.2,2.8l-.2.2-2.5,2.2a1.2,1.2,0,0,0-.2,1.7h.2l2.5,2.2a2,2,0,0,1,.2,2.8l-.2.2Z"/><path class="cls-4" d="M61.5,30.9l-.6-.5,3.8-3.5a1.2,1.2,0,0,0,.1-1.7h-.1l-2.5-2.2a1.9,1.9,0,0,1-.3-2.8l.3-.2,2.5-2.1a1.4,1.4,0,0,0,.1-1.8h-.1l-2.5-2.1a2.1,2.1,0,0,1-.3-2.9l.3-.2,2.5-2.1a1.4,1.4,0,0,0,.1-1.8h-.1l-4-3.4.5-.6,4,3.4a2,2,0,0,1,.2,2.8l-.2.2-2.5,2.2a1.2,1.2,0,0,0-.2,1.7h.2l2.5,2.2a2,2,0,0,1,.2,2.8l-.2.2-2.5,2.2a1.2,1.2,0,0,0-.2,1.7h.2l2.5,2.2a2,2,0,0,1,.2,2.8l-.2.2Z"/><path class="cls-4" d="M82.4,29.6l-.6-.6,3.8-3.4a1.2,1.2,0,0,0,.1-1.7h-.1l-2.5-2.2a1.9,1.9,0,0,1-.2-2.8.2.2,0,0,1,.2-.2l2.5-2.2a1.2,1.2,0,0,0,.1-1.7h-.1l-2.5-2.2a1.9,1.9,0,0,1-.2-2.8l.2-.2,2.5-2.2a1.2,1.2,0,0,0,.1-1.7h-.1L81.6,2l.5-.6,4,3.4a2,2,0,0,1,.2,2.8c-.1.1-.1.2-.2.2L83.6,10a1.2,1.2,0,0,0-.2,1.7h.2L86.1,14a2,2,0,0,1,.2,2.8l-.2.2-2.5,2.2a1.2,1.2,0,0,0-.2,1.7h.2l2.5,2.2a2,2,0,0,1,.2,2.8l-.2.2Z"/><path class="cls-4" d="M101.7,29.6l-.6-.6,3.8-3.4a1.2,1.2,0,0,0,.1-1.7h-.1l-2.5-2.2a2,2,0,0,1-.3-2.8l.3-.2,2.5-2.2a1.2,1.2,0,0,0,.1-1.7h-.1l-2.5-2.2a2,2,0,0,1-.3-2.8l.3-.2,2.5-2.2a1.2,1.2,0,0,0,.1-1.7h-.1l-4-3.4.5-.6,4,3.4a2,2,0,0,1,.2,2.8c-.1.1-.1.2-.2.2L102.9,10a1.2,1.2,0,0,0-.2,1.7h.2l2.5,2.2a2,2,0,0,1,.2,2.8l-.2.2-2.5,2.2a1.2,1.2,0,0,0-.2,1.7h.2l2.5,2.2a2,2,0,0,1,.2,2.8l-.2.2Z"/><path class="cls-4" d="M782.3,540l-.6.5-3.4-3.7a1.3,1.3,0,0,0-1.8-.1h-.1l-2.1,2.5a2.2,2.2,0,0,1-2.9.2c0-.1-.1-.1-.2-.2l-2.1-2.5a1.2,1.2,0,0,0-1.7-.1h-.2l-2.1,2.5a2.1,2.1,0,0,1-2.9.2c0-.1-.1-.1-.2-.2l-2.1-2.5a1.2,1.2,0,0,0-1.7-.1H758l-3.4,3.9-.5-.5,3.3-3.9a1.9,1.9,0,0,1,2.8-.2l.3.2,2.1,2.5a1.2,1.2,0,0,0,1.7.1h.2l2.1-2.5a1.9,1.9,0,0,1,2.8-.2l.3.2,2.1,2.5a1.2,1.2,0,0,0,1.7.1h.2l2.1-2.5a1.9,1.9,0,0,1,2.8-.2l.3.2Z"/><path class="cls-4" d="M782.3,525.6l-.6.5-3.4-3.7a1.3,1.3,0,0,0-1.8-.2v.2l-2.1,2.5a2.2,2.2,0,0,1-2.9.2.2.2,0,0,0-.2-.2l-2.1-2.5a1.2,1.2,0,0,0-1.7-.2l-.2.2-2.1,2.5a2.1,2.1,0,0,1-2.9.2.2.2,0,0,0-.2-.2l-2.1-2.5a1.2,1.2,0,0,0-1.7-.2l-.2.2-3.4,3.9-.5-.5,3.3-4a2,2,0,0,1,2.8-.2l.3.2,2.1,2.6a1.2,1.2,0,0,0,1.7.1h.2l2.1-2.6a2,2,0,0,1,2.8-.2l.3.2,2.1,2.6a1.2,1.2,0,0,0,1.7.1h.2l2.1-2.6a2,2,0,0,1,2.8-.2l.3.2Z"/><path class="cls-4" d="M171.1,145.9l-.5.5c-.1,0-3.4-3.7-3.4-3.7a1.4,1.4,0,0,0-1.8-.2v.2l-2.1,2.5a2.2,2.2,0,0,1-2.9.2l-.2-.2-2.1-2.5a1.4,1.4,0,0,0-1.8-.2v.2l-2.1,2.5a2.2,2.2,0,0,1-2.9.2l-.2-.2-2.1-2.5a1.4,1.4,0,0,0-1.8-.2v.2l-3.4,3.9-.6-.5,3.4-3.9a2,2,0,0,1,2.8-.3l.3.3,2.1,2.5a1.2,1.2,0,0,0,1.7.1h.2l2.1-2.5a2,2,0,0,1,2.8-.3l.2.3,2.2,2.5a1.2,1.2,0,0,0,1.7.1h.2l2.1-2.5a2,2,0,0,1,2.8-.3l.2.3Z"/><path class="cls-4" d="M171.1,167.2l-.5.5c-.1,0-3.4-3.8-3.4-3.8a1.4,1.4,0,0,0-1.8-.1h-.1l-2.1,2.6a2.2,2.2,0,0,1-2.9.2l-.2-.2-2.1-2.6a1.4,1.4,0,0,0-1.8-.1h-.1l-2.1,2.6a2.2,2.2,0,0,1-2.9.2l-.2-.2-2.1-2.6a1.4,1.4,0,0,0-1.8-.1h-.1l-3.4,4-.6-.5,3.4-4a2,2,0,0,1,2.8-.2l.3.2,2.1,2.5a1.2,1.2,0,0,0,1.7.2l.2-.2,2.1-2.5a2,2,0,0,1,2.8-.2l.2.2,2.2,2.5a1.2,1.2,0,0,0,1.7.2l.2-.2,2.1-2.5a2,2,0,0,1,2.8-.2l.2.2Z"/><path class="cls-4" d="M103.2,471.6l-.6.5-3.4-3.7a1.2,1.2,0,0,0-1.7-.2v.2l-2.2,2.5a2,2,0,0,1-2.8.2l-.2-.2L90,468.4a1.2,1.2,0,0,0-1.7-.2c0,.1-.1.1-.1.2L86,470.9a2,2,0,0,1-2.8.2l-.2-.2-2.2-2.5a1.2,1.2,0,0,0-1.7-.2c0,.1-.1.1-.1.2l-3.4,3.9-.6-.5,3.4-4a2,2,0,0,1,2.8-.2c.1.1.1.2.2.2l2.2,2.6a1.2,1.2,0,0,0,1.7.1.1.1,0,0,1,.1-.1l2.2-2.6a2,2,0,0,1,2.8-.2l.2.2,2.2,2.6a1.2,1.2,0,0,0,1.7.1.1.1,0,0,1,.1-.1l2.2-2.6a2,2,0,0,1,2.8-.2l.2.2Z"/><path class="cls-4" d="M273.7,349.8l-.6-.6,3.8-3.4a1.2,1.2,0,0,0,.1-1.7c0-.1-.1-.1-.1-.2l-2.5-2.1a1.9,1.9,0,0,1-.2-2.8c0-.1.1-.2.2-.3l2.5-2.1a1.2,1.2,0,0,0,.1-1.7c0-.1-.1-.1-.1-.2l-2.5-2.1a1.9,1.9,0,0,1-.2-2.8.2.2,0,0,1,.2-.2l2.5-2.2a1.2,1.2,0,0,0,.1-1.7h-.1l-4-3.4.5-.6,4,3.3a2.2,2.2,0,0,1,.2,2.9l-.2.2-2.5,2.1a1.4,1.4,0,0,0-.2,1.8h.2l2.5,2.1a2.2,2.2,0,0,1,.2,2.9c-.1,0-.1.1-.2.2l-2.5,2.1a1.4,1.4,0,0,0-.2,1.8h.2l2.5,2.1a2.2,2.2,0,0,1,.2,2.9l-.2.2Z"/><path class="cls-5" d="M176.2,707.5a13.3,13.3,0,1,1,1.1-18.7A13.3,13.3,0,0,1,176.2,707.5Zm-6.4-14.3a3.4,3.4,0,1,0-4.8,4.7,2.5,2.5,0,0,0,1,.8v5.1a1.3,1.3,0,0,0,1.2,1.2,1.2,1.2,0,0,0,1.2-1.2v-5a3.9,3.9,0,0,0,1.4-.8A3.4,3.4,0,0,0,169.8,693.2Z"/><path class="cls-3" d="M155.7,680.6a11.4,11.4,0,0,1,11.5-11.4h0a11.2,11.2,0,0,1,11.1,11.2v11.4"/><path class="cls-5" d="M176.2,29.5a13.3,13.3,0,1,1,1.1-18.7A13.3,13.3,0,0,1,176.2,29.5Zm-6.4-14.3a3.4,3.4,0,1,0-4.8,4.7,2.5,2.5,0,0,0,1,.8v5.1a1.3,1.3,0,0,0,1.2,1.2,1.2,1.2,0,0,0,1.2-1.2v-5a3.9,3.9,0,0,0,1.4-.8A3.4,3.4,0,0,0,169.8,15.2Z"/><path class="cls-3" d="M155.7,2.6A11.4,11.4,0,0,1,167.2-8.8h0A11.2,11.2,0,0,1,178.3,2.4V13.8"/><path class="cls-6" d="M376.3,293.5h-4l7.8,13.3-8,13.5h4.1l5.9-10.7,5.9,10.7h4l-8-13.5,7.8-13.3h-4L382,304Z"/><path class="cls-2" d="M737.3,600.1h-2.4l4.7,8-4.8,8.1h2.4l3.6-6.4,3.6,6.4h2.4l-4.8-8.1,4.6-8h-2.4l-3.4,6.3Z"/><path class="cls-2" d="M151.9,456.5h-2.4l4.7,8-4.8,8.1h2.4l3.6-6.5,3.6,6.5h2.4l-4.8-8.1,4.6-8h-2.4l-3.4,6.3Z"/><path class="cls-3" d="M182.3,85.8v1a3.3,3.3,0,0,1-3.3,3.3H153a15.5,15.5,0,0,1-30-8.1,15.6,15.6,0,0,1,30.2.5H179A3.2,3.2,0,0,1,182.3,85.8Z"/><circle class="cls-5" cx="138" cy="85.9" r="11.9"/><path class="cls-3" d="M642.7,40.3V22.4a17.9,17.9,0,0,0-14.2,28.9,18.1,18.1,0,0,0,25.2,3.3,18.4,18.4,0,0,0,7-14.3Z"/><path class="cls-3" d="M664.4,36.3a17.9,17.9,0,0,0-17.9-17.9V36.3Z"/><line class="cls-3" x1="277.1" y1="168.4" x2="355.2" y2="168.4"/><line class="cls-3" x1="277.1" y1="188.5" x2="355.2" y2="188.5"/><line class="cls-3" x1="277.1" y1="208.6" x2="355.2" y2="208.6"/><line class="cls-3" x1="277.1" y1="228.8" x2="355.2" y2="228.8"/><line class="cls-3" x1="286" y1="237.6" x2="286" y2="159.5"/><line class="cls-3" x1="306.1" y1="237.6" x2="306.1" y2="159.5"/><line class="cls-3" x1="326.2" y1="237.6" x2="326.2" y2="159.5"/><line class="cls-3" x1="346.3" y1="237.6" x2="346.3" y2="159.5"/><circle class="cls-5" cx="326.2" cy="188.7" r="7.7"/><polyline class="cls-3" points="640.6 580.3 640.6 667 727.2 667"/><circle class="cls-3" cx="652.5" cy="658.1" r="3.5" transform="translate(-267.8 767.4) rotate(-52)"/><circle class="cls-3" cx="654.1" cy="640.1" r="3.5" transform="translate(-253 761.8) rotate(-52)"/><circle class="cls-3" cx="669.2" cy="636.6" r="3.5" transform="translate(-244.4 772.3) rotate(-52)"/><circle class="cls-3" cx="662.1" cy="623.7" r="3.5" transform="translate(-237 761.7) rotate(-52)"/><circle class="cls-3" cx="673.9" cy="624.9" r="3.5" transform="translate(-233.3 771.5) rotate(-52)"/><circle class="cls-3" cx="677.4" cy="647.4" r="3.5" transform="translate(-249.8 783) rotate(-52)"/><circle class="cls-3" cx="684.5" cy="634.5" r="3.5" transform="translate(-236.9 783.6) rotate(-52)"/><circle class="cls-3" cx="694.8" cy="626.4" r="3.5" transform="matrix(0.62, -0.79, 0.79, 0.62, -226.48, 788.54)"/><circle class="cls-3" cx="704.5" cy="620.2" r="3.5" transform="translate(-217.9 793.8) rotate(-52)"/><circle class="cls-3" cx="695.6" cy="640.1" r="3.5" transform="translate(-237 794.5) rotate(-52)"/><circle class="cls-3" cx="683.4" cy="616.6" r="3.5" transform="translate(-223.2 775.8) rotate(-52)"/><circle class="cls-3" cx="694.8" cy="612" r="3.5" transform="translate(-215.2 783) rotate(-52)"/><circle class="cls-3" cx="691.3" cy="601.1" r="3.5" transform="translate(-207.9 776) rotate(-52)"/><circle class="cls-3" cx="703.4" cy="604.6" r="3.5" transform="matrix(0.62, -0.79, 0.79, 0.62, -206.04, 786.97)"/><circle class="cls-3" cx="699.9" cy="593.7" r="3.5" transform="translate(-198.8 780) rotate(-52)"/><circle class="cls-3" cx="663.1" cy="653.8" r="3.5" transform="translate(-260.3 774.1) rotate(-52)"/><rect class="cls-3" x="837" y="137.3" width="48" height="14" rx="6.3" ry="6.3"/><line class="cls-3" x1="861" y1="152.2" x2="861" y2="172.5"/><polyline class="cls-3" points="870.1 152.2 870.1 165 874.3 169.3"/><polyline class="cls-3" points="852.8 152.2 852.8 165 848.6 169.3"/><circle class="cls-7" cx="861" cy="174.8" r="2.3"/><circle class="cls-7" cx="875.7" cy="170.2" r="2.3"/><circle class="cls-7" cx="847.3" cy="170.2" r="2.3"/><line class="cls-7" x1="863.4" y1="144.3" x2="875.8" y2="144.3"/><line class="cls-7" x1="846.2" y1="144.3" x2="856.9" y2="144.3"/><path class="cls-3" d="M416.3,137.5A27.3,27.3,0,0,1,385,152.4a31.7,31.7,0,0,1-4.9-1.7,23.5,23.5,0,0,1-4.6-2.8,27.2,27.2,0,0,1-8.6-33.5Z"/><path class="cls-3" d="M416.4,124.1a21.9,21.9,0,0,0-10.6-29,21.7,21.7,0,0,0-28.9,10.6"/><path class="cls-3" d="M383,108.8a14.6,14.6,0,1,1,26.4,12.3"/><path class="cls-3" d="M390.3,111.8a6.5,6.5,0,0,1,11.7,5.5"/><circle class="cls-5" cx="395.6" cy="114.6" r="2.8" transform="translate(165.5 456.2) rotate(-72.2)"/><line class="cls-3" x1="395.6" y1="114.6" x2="389.9" y2="125.1"/><path class="cls-3" d="M385,152.4a5.1,5.1,0,0,1-.7,2.3,5.6,5.6,0,0,1-9.8-5.5,6.4,6.4,0,0,1,1-1.3,23.5,23.5,0,0,0,4.6,2.8A31.7,31.7,0,0,0,385,152.4Z"/><polygon class="cls-3" points="366.3 229.3 366.3 188.8 388.9 188.8 388.9 229.3 366.3 229.3"/><polygon class="cls-3" points="371.6 188.8 371.6 183.3 383.7 183.3 383.7 188.8 371.6 188.8"/><rect class="cls-5" x="368.7" y="191.5" width="17.9" height="7.83"/><rect class="cls-5" x="368.7" y="200.8" width="17.9" height="7.83"/><rect class="cls-5" x="368.7" y="210.1" width="17.9" height="7.83"/><rect class="cls-5" x="368.7" y="219.4" width="17.9" height="7.83"/><path class="cls-3" d="M524.9,200.5v9.2a2.9,2.9,0,0,1-2.9,2.9h-9.1a2.9,2.9,0,0,1-2.9-2.9v-9.2a2.9,2.9,0,0,1,2.9-2.9H522A2.9,2.9,0,0,1,524.9,200.5Zm-1.5,1h0a2.4,2.4,0,0,0-2.3-2.2h-7.6a2.2,2.2,0,0,0-1.9,2.2h0v7.2a2.4,2.4,0,0,0,1.9,2.3h7.6a2.3,2.3,0,0,0,2.3-2.3Z"/><path class="cls-3" d="M523.4,201.5v7.2a2.3,2.3,0,0,1-2.3,2.3h-7.6a2.4,2.4,0,0,1-1.9-2.3v-7.2h0a2.2,2.2,0,0,1,1.9-2.2h7.6a2.4,2.4,0,0,1,2.3,2.2Z"/><line class="cls-3" x1="513.5" y1="215.3" x2="513.5" y2="212.6"/><line class="cls-3" x1="513.5" y1="197.6" x2="513.5" y2="194.7"/><line class="cls-3" x1="517.1" y1="215.3" x2="517.1" y2="212.6"/><line class="cls-3" x1="517.1" y1="197.6" x2="517.1" y2="194.7"/><line class="cls-3" x1="520.7" y1="215.3" x2="520.7" y2="212.6"/><line class="cls-3" x1="520.7" y1="197.6" x2="520.7" y2="194.7"/><line class="cls-3" x1="527.3" y1="208.6" x2="524.9" y2="208.6"/><line class="cls-3" x1="510" y1="208.6" x2="506.8" y2="208.6"/><line class="cls-3" x1="527.3" y1="205" x2="524.9" y2="205"/><line class="cls-3" x1="510" y1="205" x2="506.8" y2="205"/><line class="cls-3" x1="527.3" y1="201.4" x2="524.9" y2="201.4"/><line class="cls-3" x1="510" y1="201.4" x2="506.8" y2="201.4"/><path class="cls-3" d="M525,229.6c-2.1,4.3-4.7,6.8-7.5,6.8-5.5,0-10.1-9.5-11.6-22.5"/><path class="cls-3" d="M509.6,181.2c2.1-4.7,4.9-7.6,7.9-7.6,5.7,0,10.4,10.2,11.7,24"/><path class="cls-3" d="M509.7,181.2a1.4,1.4,0,0,0-1.9.5,1.4,1.4,0,0,0,2.5,1.4A1.4,1.4,0,0,0,509.7,181.2Z"/><path class="cls-3" d="M526.2,227.5a1.4,1.4,0,0,0-1.9.5,1.5,1.5,0,0,0,.5,1.9,1.5,1.5,0,0,0,1.9-.5A1.3,1.3,0,0,0,526.2,227.5Z"/><path class="cls-3" d="M499.9,223.7c-4.7.3-8.2-.6-9.6-3.1-2.7-4.7,3.2-13.4,13.7-21.2"/><path class="cls-3" d="M534.2,186.2c5.2-.5,9,.4,10.5,3,2.9,4.9-3.6,14.2-15,22.2"/><path class="cls-3" d="M534.3,186.3a1.4,1.4,0,1,0-1.4,1.4A1.4,1.4,0,0,0,534.3,186.3Z"/><path class="cls-3" d="M502.4,223.7a1.4,1.4,0,0,0-1.4-1.4,1.5,1.5,0,0,0-1.4,1.4,1.4,1.4,0,0,0,1.4,1.4A1.4,1.4,0,0,0,502.4,223.7Z"/><path class="cls-3" d="M542.6,210.9c2.6,3.9,3.5,7.4,2.1,9.9-2.7,4.7-13.2,3.9-25.2-1.3"/><path class="cls-3" d="M493,200c-3.1-4.2-4.2-8-2.7-10.6,2.9-5,14.1-4,26.7,1.8"/><path class="cls-3" d="M493,199.8a1.6,1.6,0,0,0-.5,2,1.5,1.5,0,0,0,1.9.5,1.4,1.4,0,0,0,.5-1.9A1.5,1.5,0,0,0,493,199.8Z"/><path class="cls-3" d="M541.4,208.7a1.5,1.5,0,0,0-.6,1.9,1.4,1.4,0,0,0,1.9.5,1.4,1.4,0,0,0,.6-1.9A1.5,1.5,0,0,0,541.4,208.7Z"/><circle class="cls-5" cx="221.5" cy="186.2" r="9.7"/><circle class="cls-5" cx="221.5" cy="110.9" r="9.7"/><circle class="cls-5" cx="238.6" cy="155.2" r="9.7"/><circle class="cls-5" cx="252.1" cy="124.2" r="9.7"/><circle class="cls-5" cx="191.1" cy="124.2" r="9.7"/><circle class="cls-5" cx="204.2" cy="155.2" r="9.7"/><polygon class="cls-8" points="221.5 186.2 252.1 124.2 221.5 144 191.1 124.2 221.5 186.2"/><polygon class="cls-8" points="221.5 110.9 205.6 153.7 221.5 144 237.6 153.7 221.5 110.9"/><polyline class="cls-3" points="160.1 556.3 76.2 556.3 76.2 491.3"/><path class="cls-3" d="M123.6,505A18.7,18.7,0,0,1,139,491.3h21.1"/><path class="cls-3" d="M112.6,542.7a18.5,18.5,0,0,1-15.4,13.4l-2,.2h-19"/><line class="cls-3" x1="123.9" y1="504" x2="112.3" y2="543.7"/><circle class="cls-3" cx="70.6" cy="491.3" r="0.1"/><circle class="cls-3" cx="70.8" cy="504" r="0.1"/><circle class="cls-3" cx="70.8" cy="517.2" r="0.1"/><circle class="cls-3" cx="70.6" cy="530.5" r="0.1"/><circle class="cls-3" cx="70.5" cy="543.6" r="0.1"/><circle class="cls-3" cx="70.8" cy="556.3" r="0.1"/><circle class="cls-3" cx="97.1" cy="562.3" r="0.1"/><circle class="cls-3" cx="78.3" cy="562.2" r="0.1"/><circle class="cls-3" cx="118.1" cy="562.3" r="0.1"/><circle class="cls-3" cx="139" cy="562.3" r="0.1"/><circle class="cls-3" cx="160.1" cy="562.3" r="0.1"/><rect class="cls-3" x="351.2" y="512.5" width="30.2" height="30.23" rx="7.2" ry="7.2"/><rect class="cls-3" x="336.1" y="527.7" width="30.2" height="30.23" rx="7.2" ry="7.2"/><rect class="cls-3" x="759" y="621" width="30.2" height="30.23" rx="7.2" ry="7.2"/><rect class="cls-3" x="743.9" y="636.1" width="30.2" height="30.23" rx="7.2" ry="7.2"/><path class="cls-3" d="M133.3,429.1v18a5.6,5.6,0,0,1-5.7,5.7H109.7a5.6,5.6,0,0,1-5.7-5.7v-18a5.7,5.7,0,0,1,5.7-5.7h17.9A5.7,5.7,0,0,1,133.3,429.1Zm-3,1.9v-.2a4.5,4.5,0,0,0-4.5-4.3h-15a4.5,4.5,0,0,0-3.8,4.2v14.4a4.6,4.6,0,0,0,3.8,4.5h15a4.5,4.5,0,0,0,4.5-4.5Z"/><path class="cls-5" d="M130.3,431v14.2a4.5,4.5,0,0,1-4.5,4.5h-15a4.6,4.6,0,0,1-3.8-4.5V430.8a4.5,4.5,0,0,1,3.8-4.2h15a4.5,4.5,0,0,1,4.5,4.3Z"/><line class="cls-3" x1="111.8" y1="458.1" x2="111.8" y2="452.8"/><line class="cls-3" x1="111.8" y1="423.4" x2="111.8" y2="417.7"/><line class="cls-3" x1="115.3" y1="458.1" x2="115.3" y2="452.8"/><line class="cls-3" x1="115.3" y1="423.4" x2="115.3" y2="417.7"/><line class="cls-3" x1="118.8" y1="458.1" x2="118.8" y2="452.8"/><line class="cls-3" x1="118.8" y1="423.4" x2="118.8" y2="417.7"/><line class="cls-3" x1="122.4" y1="458.1" x2="122.4" y2="452.8"/><line class="cls-3" x1="122.4" y1="423.4" x2="122.4" y2="417.7"/><line class="cls-3" x1="125.9" y1="458.1" x2="125.9" y2="452.8"/><line class="cls-3" x1="125.9" y1="423.4" x2="125.9" y2="417.7"/><line class="cls-3" x1="138" y1="445" x2="133.3" y2="445"/><line class="cls-3" x1="104" y1="445" x2="97.6" y2="445"/><line class="cls-3" x1="138" y1="441.4" x2="133.3" y2="441.4"/><line class="cls-3" x1="104" y1="441.4" x2="97.6" y2="441.4"/><line class="cls-3" x1="138" y1="437.9" x2="133.3" y2="437.9"/><line class="cls-3" x1="104" y1="437.9" x2="97.6" y2="437.9"/><line class="cls-3" x1="138" y1="434.4" x2="133.3" y2="434.4"/><line class="cls-3" x1="104" y1="434.4" x2="97.6" y2="434.4"/><line class="cls-3" x1="138" y1="430.8" x2="133.3" y2="430.8"/><line class="cls-3" x1="104" y1="430.8" x2="97.6" y2="430.8"/><path class="cls-5" d="M397.2,403.9a16.9,16.9,0,0,1-9.1,9.8l-4.5-10.5a5.7,5.7,0,0,0,3.3-3.3,5.4,5.4,0,0,0-10.1-3.8,5.4,5.4,0,0,0,3.1,7l.6.2-4.6,10.8h-.1a16.8,16.8,0,1,1,21.4-10.2Z"/><rect class="cls-3" x="242.4" y="634.3" width="11.6" height="32.94"/><rect class="cls-3" x="217.4" y="641.6" width="11.6" height="25.62"/><rect class="cls-3" x="192.1" y="650.8" width="11.6" height="16.47"/><line class="cls-3" x1="182.3" y1="667.2" x2="263.5" y2="667.2"/><path class="cls-3" d="M549.8,53.8v7.6a8.7,8.7,0,0,1-8.7,8.7H488l-11.3,5.3a.8.8,0,0,1-1.1-1.1l5.2-11.6v-10a8.5,8.5,0,0,1,8.5-8.5h50.9A9.6,9.6,0,0,1,549.8,53.8Z"/><polygon class="cls-3" points="948.9 605 948.9 662.1 903.1 662.1 891.8 650.7 891.8 605 948.9 605"/><rect class="cls-3" x="898.3" y="605" width="43.5" height="23.79"/><rect class="cls-3" x="907.6" y="645.8" width="24.5" height="16.06"/><rect class="cls-5" x="911.2" y="649.6" width="5.3" height="9.26"/><polygon class="cls-3" points="44.9 605 44.9 662.1 -0.9 662.1 -12.2 650.7 -12.2 605 44.9 605"/><rect class="cls-3" x="-5.7" y="605" width="43.5" height="23.79"/><rect class="cls-3" x="3.6" y="645.8" width="24.5" height="16.06"/><rect class="cls-5" x="7.2" y="649.6" width="5.3" height="9.26"/><line class="cls-3" x1="591.4" y1="355" x2="591.4" y2="270.5"/><path class="cls-3" d="M585.6,270.5"/><polyline class="cls-3" points="585.6 307.5 585.6 326 580.4 331.2"/><polyline class="cls-3" points="597.1 307.5 597.1 333.2 607 343.1"/><polyline class="cls-3" points="585.6 271.2 585.6 298.7 578.8 305.6"/><polyline class="cls-3" points="597.1 271.2 597.1 298.7 615.1 316.7"/><circle class="cls-3" cx="591.4" cy="358.9" r="3.8"/><circle class="cls-3" cx="610.1" cy="345.4" r="3.8"/><circle class="cls-3" cx="577" cy="333.2" r="3.8"/><circle class="cls-3" cx="576.1" cy="308.2" r="3.8"/><circle class="cls-3" cx="618.6" cy="318.9" r="3.8"/><line class="cls-3" x1="429.4" y1="598.4" x2="429.4" y2="668.1"/><path class="cls-3" d="M434.2,668.7"/><polyline class="cls-3" points="434.2 638 434.2 622.6 438.5 618.3"/><polyline class="cls-3" points="424.6 638 424.6 616.6 416.4 608.4"/><polyline class="cls-3" points="434.2 668.1 434.2 645.2 439.8 639.6"/><polyline class="cls-3" points="424.6 668.1 424.6 645.2 409.7 630.3"/><circle class="cls-3" cx="429.4" cy="595.3" r="3.2"/><circle class="cls-3" cx="413.8" cy="606.5" r="3.2"/><circle class="cls-3" cx="441.3" cy="616.6" r="3.2"/><circle class="cls-3" cx="442" cy="637.4" r="3.2"/><circle class="cls-3" cx="406.8" cy="628.5" r="3.2"/><line class="cls-3" x1="300.9" y1="598.8" x2="300.9" y2="668.4"/><path class="cls-3" d="M305.7,669"/><polyline class="cls-3" points="305.7 638.3 305.7 622.9 310.1 618.6"/><polyline class="cls-3" points="296.2 638.3 296.2 617 287.9 608.7"/><polyline class="cls-3" points="305.7 668.4 305.7 645.6 311.4 639.9"/><polyline class="cls-3" points="296.2 668.4 296.2 645.6 281.2 630.6"/><circle class="cls-3" cx="300.9" cy="595.6" r="3.2"/><circle class="cls-3" cx="285.3" cy="606.8" r="3.2"/><circle class="cls-3" cx="312.9" cy="617" r="3.2"/><circle class="cls-3" cx="313.6" cy="637.7" r="3.2"/><circle class="cls-3" cx="278.3" cy="628.8" r="3.2"/><line class="cls-3" x1="801.8" y1="346.5" x2="844.3" y2="346.5"/><line class="cls-3" x1="801.8" y1="354.4" x2="844.3" y2="354.4"/><rect class="cls-9" x="766.2" y="306.8" width="90.4" height="59.43"/><rect class="cls-9" x="771" y="311.4" width="80.8" height="50.39"/><rect class="cls-9" x="762.3" y="366.3" width="98.3" height="7.9" rx="3.9" ry="3.9"/><rect class="cls-3" x="883.7" y="417.6" width="72.7" height="40.5" rx="3.1" ry="3.1"/><rect class="cls-3" x="888.4" y="423.1" width="7.8" height="7.83"/><rect class="cls-3" x="899.5" y="423.1" width="7.8" height="7.83"/><rect class="cls-3" x="910.6" y="423.1" width="7.8" height="7.83"/><rect class="cls-3" x="910.6" y="434" width="7.8" height="7.83"/><rect class="cls-3" x="899.5" y="434" width="7.8" height="7.83"/><rect class="cls-3" x="888.4" y="434" width="7.8" height="7.83"/><rect class="cls-3" x="888.4" y="444.9" width="7.8" height="7.83"/><rect class="cls-3" x="899.5" y="444.9" width="41.2" height="7.83"/><rect class="cls-3" x="921.7" y="423.1" width="7.8" height="7.83"/><rect class="cls-3" x="921.7" y="434" width="7.8" height="7.83"/><rect class="cls-3" x="932.9" y="423.1" width="7.8" height="7.83"/><rect class="cls-3" x="944" y="423.1" width="7.8" height="18.75"/><rect class="cls-3" x="932.9" y="434" width="7.8" height="7.83"/><rect class="cls-3" x="943.9" y="445" width="7.8" height="7.83"/><rect class="cls-3" x="-20.3" y="417.6" width="72.7" height="40.5" rx="3.1" ry="3.1"/><rect class="cls-3" x="-15.6" y="423.1" width="7.8" height="7.83"/><rect class="cls-3" x="-4.5" y="423.1" width="7.8" height="7.83"/><rect class="cls-3" x="6.6" y="423.1" width="7.8" height="7.83"/><rect class="cls-3" x="6.6" y="434" width="7.8" height="7.83"/><rect class="cls-3" x="-4.5" y="434" width="7.8" height="7.83"/><rect class="cls-3" x="-15.6" y="434" width="7.8" height="7.83"/><rect class="cls-3" x="-15.6" y="444.9" width="7.8" height="7.83"/><rect class="cls-3" x="-4.5" y="444.9" width="41.2" height="7.83"/><rect class="cls-3" x="17.7" y="423.1" width="7.8" height="7.83"/><rect class="cls-3" x="17.7" y="434" width="7.8" height="7.83"/><rect class="cls-3" x="28.9" y="423.1" width="7.8" height="7.83"/><rect class="cls-3" x="40" y="423.1" width="7.8" height="18.75"/><rect class="cls-3" x="28.9" y="434" width="7.8" height="7.83"/><rect class="cls-3" x="39.9" y="445" width="7.8" height="7.83"/><rect class="cls-3" x="553" y="591.3" width="18.1" height="18.13"/><rect class="cls-3" x="581.9" y="591.3" width="18.1" height="18.13"/><rect class="cls-3" x="609.9" y="591.3" width="18.1" height="18.13" rx="9.1" ry="9.1"/><rect class="cls-3" x="553" y="591.3" width="18.1" height="18.13"/><rect class="cls-3" x="581.9" y="591.3" width="18.1" height="18.13"/><rect class="cls-3" x="609.9" y="591.3" width="18.1" height="18.13" rx="9.1" ry="9.1"/><rect class="cls-3" x="553" y="619.7" width="18.1" height="18.13" rx="9.1" ry="9.1"/><rect class="cls-3" x="581.9" y="619.7" width="18.1" height="18.13"/><rect class="cls-3" x="609.9" y="619.7" width="18.1" height="18.13"/><rect class="cls-3" x="553" y="648.7" width="18.1" height="18.13"/><rect class="cls-3" x="581.9" y="648.7" width="18.1" height="18.13" rx="9.1" ry="9.1"/><rect class="cls-3" x="609.9" y="648.7" width="18.1" height="18.13"/><circle class="cls-5" cx="748.1" cy="19.2" r="8.2"/><circle class="cls-5" cx="748.1" cy="99.7" r="8.2"/><circle class="cls-5" cx="718.8" cy="30" r="8.2"/><circle class="cls-5" cx="777.6" cy="30" r="8.2"/><circle class="cls-5" cx="718.8" cy="88.8" r="8.2"/><circle class="cls-5" cx="707.9" cy="59.4" r="8.2"/><circle class="cls-5" cx="788.3" cy="59.4" r="8.2"/><circle class="cls-5" cx="777.6" cy="88.8" r="8.2"/><polygon class="cls-3" points="718.7 30 788.2 59.4 718.7 88.8 748 19.2 777.5 90 707.7 60 777.5 30 748 99.7 718.7 30"/><path class="cls-3" d="M146.6,598.4c0,4.2-5.3,8-13.3,10.2a67.8,67.8,0,0,1-17.1,2.1,66.4,66.4,0,0,1-17-2.1c-8.1-2.2-13.4-6-13.4-10.2,0-6.8,13.6-12.3,30.4-12.3S146.6,591.6,146.6,598.4Z"/><path class="cls-3" d="M146.6,598.4v20.4c0,3.3-3.3,6.4-8.7,8.6h0c-5.5,2.3-13.2,3.7-21.7,3.7s-16.1-1.4-21.6-3.7h0c-5.4-2.2-8.8-5.3-8.8-8.6V598.4c0,4.2,5.3,8,13.4,10.2a66.4,66.4,0,0,0,17,2.1,67.8,67.8,0,0,0,17.1-2.1C141.3,606.4,146.6,602.6,146.6,598.4Z"/><path class="cls-3" d="M146.6,618.8V636c0,3.6-3.7,6.8-9.7,9.1a61.5,61.5,0,0,1-20.7,3.3,61.5,61.5,0,0,1-20.7-3.3c-6-2.3-9.7-5.5-9.7-9.1V618.8c0,3.3,3.4,6.4,8.8,8.6h0c5.5,2.3,13.1,3.7,21.6,3.7s16.2-1.4,21.7-3.7h0C143.3,625.2,146.6,622.1,146.6,618.8Z"/><path class="cls-3" d="M146.6,636v18.1c0,6.8-13.6,12.3-30.4,12.3s-30.4-5.5-30.4-12.3V636c0,3.6,3.7,6.8,9.7,9.1a61.5,61.5,0,0,0,20.7,3.3,61.5,61.5,0,0,0,20.7-3.3C142.9,642.8,146.6,639.6,146.6,636Z"/><path class="cls-3" d="M837.6,423.9v29.6a9.4,9.4,0,0,1-9.4,9.4H798.7a9.4,9.4,0,0,1-9.4-9.4V423.9a9.4,9.4,0,0,1,9.4-9.4h29.5A9.4,9.4,0,0,1,837.6,423.9Zm-5,3.1v-.3a7.5,7.5,0,0,0-7.5-7.1H800.4a7.6,7.6,0,0,0-6.1,7v23.7a7.4,7.4,0,0,0,6.1,7.3l1.4.2h23.3a7.5,7.5,0,0,0,7.5-7.5Z"/><path class="cls-3" d="M832.6,427v23.4a7.5,7.5,0,0,1-7.5,7.5H801.8l-1.4-.2a7.4,7.4,0,0,1-6.1-7.3V426.7a7.6,7.6,0,0,1,6.1-7h24.7a7.5,7.5,0,0,1,7.5,7.1Z"/><line class="cls-3" x1="801.8" y1="471.6" x2="801.8" y2="462.9"/><line class="cls-3" x1="801.8" y1="414.5" x2="801.8" y2="405"/><line class="cls-3" x1="807.6" y1="471.6" x2="807.6" y2="462.9"/><line class="cls-3" x1="807.6" y1="414.5" x2="807.6" y2="405"/><line class="cls-3" x1="813.4" y1="471.6" x2="813.4" y2="462.9"/><line class="cls-3" x1="813.4" y1="414.5" x2="813.4" y2="405"/><line class="cls-3" x1="819.3" y1="471.6" x2="819.3" y2="462.9"/><line class="cls-3" x1="819.3" y1="414.5" x2="819.3" y2="405"/><line class="cls-3" x1="825.1" y1="471.6" x2="825.1" y2="462.9"/><line class="cls-3" x1="825.1" y1="414.5" x2="825.1" y2="405"/><line class="cls-3" x1="845.4" y1="450" x2="837.6" y2="450"/><line class="cls-3" x1="789.3" y1="450" x2="778.8" y2="450"/><line class="cls-3" x1="845.4" y1="444.2" x2="837.6" y2="444.2"/><line class="cls-3" x1="789.3" y1="444.2" x2="778.8" y2="444.2"/><line class="cls-3" x1="845.4" y1="438.3" x2="837.6" y2="438.3"/><line class="cls-3" x1="789.3" y1="438.3" x2="778.8" y2="438.3"/><line class="cls-3" x1="845.4" y1="432.5" x2="837.6" y2="432.5"/><line class="cls-3" x1="789.3" y1="432.5" x2="778.8" y2="432.5"/><line class="cls-3" x1="845.4" y1="426.7" x2="837.6" y2="426.7"/><line class="cls-3" x1="789.3" y1="426.7" x2="778.8" y2="426.7"/><rect class="cls-5" x="437.3" y="172.6" width="2.8" height="45.6"/><rect class="cls-5" x="450.7" y="172.6" width="2.8" height="45.6"/><rect class="cls-5" x="463.7" y="172.6" width="2.8" height="45.6"/><path class="cls-5" d="M436.2,191.4a4.3,4.3,0,1,0,5.3,6.7,4.2,4.2,0,0,0,.7-6A4.4,4.4,0,0,0,436.2,191.4Z"/><path class="cls-5" d="M449.3,205a4.2,4.2,0,0,0-.7,6,4.4,4.4,0,0,0,6,.7,4.3,4.3,0,1,0-5.3-6.7Z"/><path class="cls-5" d="M462.5,184.9a4.3,4.3,0,1,0,6,.7A4.3,4.3,0,0,0,462.5,184.9Z"/><path class="cls-5" d="M127.3,283.4a13.7,13.7,0,0,1-1.8,4.9l3.9,4.6-3.6,3.8-4.3-4a16.9,16.9,0,0,1-2.9,1.7l-4-9.6a4.9,4.9,0,1,0-6.8-4.6,5.1,5.1,0,0,0,3.2,4.7l-3.6,9.7a21.9,21.9,0,0,1-3-1.6l-4,3.2L97,293l3.1-4.5a17.1,17.1,0,0,1-2-5.2l-5.4-.6v-4.5l5.5-.5a14.5,14.5,0,0,1,2.3-5.4l-3.7-4,3.6-3.4,4.6,3.2a13.7,13.7,0,0,1,5.2-2l.5-5.5h5l.3,5.7a14.8,14.8,0,0,1,5,2.1l4.7-3.8,3.6,3.6-3.5,5.5a14.9,14.9,0,0,1,1.4,3.7l6.4.8v4.9Z"/><rect class="cls-3" x="791.6" y="206.4" width="40.9" height="53.12" rx="3.1" ry="3.1"/><rect class="cls-3" x="795.1" y="209.5" width="34" height="16.88" rx="3" ry="3"/><rect class="cls-5" x="795.1" y="231.1" width="9" height="5.61" rx="0.9" ry="0.9"/><rect class="cls-5" x="807.6" y="231.1" width="9" height="5.61" rx="0.9" ry="0.9"/><rect class="cls-5" x="820.1" y="231.1" width="9" height="5.61" rx="0.9" ry="0.9"/><rect class="cls-5" x="795.1" y="239.8" width="9" height="5.61" rx="0.9" ry="0.9"/><rect class="cls-5" x="807.6" y="239.8" width="9" height="5.61" rx="0.9" ry="0.9"/><rect class="cls-5" x="820.1" y="239.8" width="9" height="5.61" rx="0.9" ry="0.9"/><rect class="cls-5" x="795.1" y="248.6" width="9" height="5.61" rx="0.9" ry="0.9"/><rect class="cls-5" x="807.6" y="248.6" width="9" height="5.61" rx="0.9" ry="0.9"/><rect class="cls-5" x="820.1" y="248.6" width="9" height="5.61" rx="0.9" ry="0.9"/><circle class="cls-5" cx="454.1" cy="232.3" r="5.1"/><circle class="cls-5" cx="417.1" cy="251.4" r="5.1"/><circle class="cls-5" cx="402.1" cy="272.6" r="5.1"/><circle class="cls-5" cx="432.5" cy="272.6" r="5.1"/><circle class="cls-5" cx="471.5" cy="272.6" r="5.1"/><circle class="cls-5" cx="501.9" cy="272.6" r="5.1"/><circle class="cls-5" cx="487.8" cy="251.4" r="5.1"/><polyline class="cls-3" points="501.9 272.6 487.8 251.4 454.1 232.3 417.1 251.4 402.1 272.6"/><line class="cls-3" x1="432.5" y1="272.6" x2="417.1" y2="252.4"/><line class="cls-3" x1="471.5" y1="272.6" x2="487.8" y2="252.4"/><rect class="cls-3" x="183.2" y="383" width="74.1" height="92.77" rx="6.3" ry="6.3"/><rect class="cls-3" x="177.4" y="484.2" width="87.3" height="7.71" rx="1.9" ry="1.9"/><path class="cls-3" d="M179.3,475.8h84.6a0,0,0,0,1,0,0v5.4a3.1,3.1,0,0,1-3.1,3.1H182a2.7,2.7,0,0,1-2.7-2.7v-5.8A0,0,0,0,1,179.3,475.8Z"/><rect class="cls-3" x="189.1" y="389.5" width="62.7" height="56.63" rx="6" ry="6"/><polygon class="cls-3" points="249.4 456.9 249.4 462 219.3 462 219.3 458.9 235.4 458.9 235.4 456.9 249.4 456.9"/><line class="cls-10" x1="26.3" y1="160.6" x2="18.5" y2="211.1"/><line class="cls-10" x1="9.9" y1="211.8" x2="18.2" y2="158.8"/><polyline class="cls-10" points="57.7 109.5 79 95.2 82.3 100 61.5 114"/><polygon class="cls-10" points="82.2 96.9 87.2 93.7 103.8 120.2 98.8 123.3 82.2 96.9"/><path class="cls-3" d="M31.6,157.1l28.2-30.8a10.8,10.8,0,0,0-.6-15.3l-2.6-2.3a10.8,10.8,0,0,0-15.3.6L13.1,140.1a10.8,10.8,0,0,0,.6,15.3l2.6,2.4A10.9,10.9,0,0,0,31.6,157.1Z"/><path class="cls-3" d="M119,119.4h-.4a2.7,2.7,0,0,0-1.2,3.7l2.8,5.7a2.8,2.8,0,0,0,3.7,1.2l.4-.2a2.8,2.8,0,0,0,1.2-3.7l-2.8-5.6A2.7,2.7,0,0,0,119,119.4Z"/><path class="cls-3" d="M121.8,131.8l-.3-.2a2,2,0,0,0-2.7.9l-2.2,4.1a2,2,0,0,0,.9,2.7h.3a1.9,1.9,0,0,0,2.7-.8l2.1-4.1A1.9,1.9,0,0,0,121.8,131.8Z"/><path class="cls-3" d="M113.9,113.8a.1.1,0,0,1,.1.1,15,15,0,1,1-25.5,15.9Z"/><path class="cls-5" d="M96.4,124.8a5.6,5.6,0,0,0,7.8,1.8,5.7,5.7,0,0,0,1.9-7.9H106"/><path class="cls-3" d="M101.8,146h0a2.4,2.4,0,0,0,.1-3.5l-5.2-5.8a2.6,2.6,0,0,0-3.6-.2h0A2.4,2.4,0,0,0,93,140l5.3,5.9A2.4,2.4,0,0,0,101.8,146Z"/><circle class="cls-2" cx="83.3" cy="95.6" r="7.2"/><rect class="cls-5" x="900.6" y="286" width="36.9" height="2.4"/><path class="cls-10" d="M893.5,286h51.9V236.8a25.9,25.9,0,0,0-25.8-25.9h0a26.1,26.1,0,0,0-26.1,26Z"/><rect class="cls-10" x="891.2" y="288.4" width="57.3" height="7.51"/><rect class="cls-5" x="-3.4" y="286" width="36.9" height="2.4"/><path class="cls-10" d="M-10.5,286H41.4V236.8a25.9,25.9,0,0,0-25.8-25.9h0a26.1,26.1,0,0,0-26.1,26Z"/><rect class="cls-10" x="-12.8" y="288.4" width="57.3" height="7.51"/><rect class="cls-3" x="564.7" y="86.8" width="52.5" height="89.74" rx="5.8" ry="5.8"/><rect class="cls-3" x="571.4" y="93.5" width="39.2" height="60.91" rx="4.2" ry="4.2"/><rect class="cls-2" x="582.5" y="165.3" width="15.3" height="5.83" rx="2.9" ry="2.9"/><path class="cls-3" d="M114.6,129.1a5.4,5.4,0,0,1,1.3,4.8l-9.7,41.3-2.6,4.1a5.7,5.7,0,0,0-3.3-1.9,6.5,6.5,0,0,0-3.4,0l-.5-4.9,8.5-36.6"/><path class="cls-3" d="M113.9,142.5a4.9,4.9,0,0,0-3.7-5.9h0a5.2,5.2,0,0,0-6.3,3.9"/><path class="cls-3" d="M106.3,174.6c.4-1.8-1.4-3.7-4-4.3h0c-2.8-.7-5.4.3-5.9,2.2"/><path class="cls-2" d="M103.6,179.3l-4.4,7.1a.7.7,0,0,1-1.3-.2l-1-8.8a6.5,6.5,0,0,1,3.4,0A5.7,5.7,0,0,1,103.6,179.3Z"/><path class="cls-11" d="M128.9,207.3l15.7,15.5a9.9,9.9,0,0,0,5.9,3,10.3,10.3,0,0,0,8.8-3.1,10,10,0,0,0-.1-14.2l-12-11.9a6.9,6.9,0,0,1-5.9,5.4,9.4,9.4,0,0,1-6,4.8,9.2,9.2,0,0,1-5.7-.2Z"/><path class="cls-11" d="M132.2,245.3,138,253a2.7,2.7,0,0,0,3.8.5,2.8,2.8,0,0,0,.5-3.8l-4.9-6.5A15,15,0,0,1,132.2,245.3Z"/><path class="cls-11" d="M81.6,253.5a2.7,2.7,0,0,0,3.8-.8L91,244a9.1,9.1,0,0,1-1.1-1.6,13.3,13.3,0,0,1-4-.5l-5.1,7.8A2.8,2.8,0,0,0,81.6,253.5Z"/><path class="cls-11" d="M126.2,216.1h.1l5.7-5.6-3.3-3.3-2.5,2.6A4.4,4.4,0,0,0,126.2,216.1Z"/><path class="cls-11" d="M73.2,218.3a13.7,13.7,0,0,1,11.3-14.5,13.4,13.4,0,0,1,19.6-11.4,13.5,13.5,0,0,1,8.8-4.3,13.1,13.1,0,0,1,11.4,4.9,9.7,9.7,0,0,1,13.3-3.9,6.5,6.5,0,0,1,3.4-.6,6.8,6.8,0,0,1,6.3,7.2c0,.3-.1.6-.1.9a6.9,6.9,0,0,1-5.9,5.4,9.4,9.4,0,0,1-6,4.8,9.2,9.2,0,0,1-5.7-.2l-.7.7,15.7,15.5a9.9,9.9,0,0,0,5.9,3,13.9,13.9,0,0,1-7.2,7.7,14.1,14.1,0,0,1-5.9,9.7,15,15,0,0,1-5.2,2.1h-2.9a13.1,13.1,0,0,1-8.7,4.2,13.7,13.7,0,0,1-10.2-3.5A13.6,13.6,0,0,1,91,244a9.1,9.1,0,0,1-1.1-1.6,13.3,13.3,0,0,1-4-.5,13.6,13.6,0,0,1-10-11.9,11.6,11.6,0,0,1,.4-4.2A14,14,0,0,1,73.2,218.3Zm53-2.2h.1l5.7-5.6-3.3-3.3-2.5,2.6A4.4,4.4,0,0,0,126.2,216.1Z"/><path class="cls-11" d="M126.2,216.5h.2L132,211l-3.3-3.3-2.5,2.6A4.4,4.4,0,0,0,126.2,216.5Z"/><path class="cls-11" d="M156.8,194.4l-6.1,5.1-2.7-3.1,2.9-2.5a4.1,4.1,0,0,1,5.9.5Z"/><circle class="cls-11" cx="148.2" cy="204.8" r="0.4"/><circle class="cls-11" cx="141.3" cy="210.7" r="0.4"/><path class="cls-3" d="M444.4,570.4a10,10,0,0,1-3.8.8H399.2a9.3,9.3,0,1,1-.8-18.5,12.6,12.6,0,1,1,23.4-9.5,8.7,8.7,0,0,1,12.2-2.5,8.8,8.8,0,0,1,2.5,12.2,9.6,9.6,0,0,1,7.9,17.6Z"/><polyline class="cls-12" points="468.1 667.2 477.1 667.2 517.7 667.2"/><line class="cls-12" x1="481.2" y1="588" x2="481.2" y2="667.2"/><path class="cls-3" d="M505.7,593.7h-1.1a18.5,18.5,0,0,0-18.4,18.5,19.6,19.6,0,0,0,.8,5.4,27.9,27.9,0,0,1-5.8.7,24.6,24.6,0,1,1,24.5-24.6Z"/><line class="cls-12" x1="504.6" y1="606.7" x2="504.6" y2="666.1"/><path class="cls-3" d="M523,612.2a18.4,18.4,0,0,1-36,5.4,19.6,19.6,0,0,1-.8-5.4,18.5,18.5,0,0,1,18.4-18.5h1.1A18.3,18.3,0,0,1,523,612.2Z"/><polyline class="cls-12" points="335.7 667.1 344.7 667.1 385.3 667.1"/><line class="cls-12" x1="348.8" y1="588" x2="348.8" y2="667.1"/><path class="cls-3" d="M373.3,593.6h-1.1a18.5,18.5,0,0,0-18.4,18.5,19.1,19.1,0,0,0,.8,5.4,22,22,0,0,1-5.8.7,24.6,24.6,0,1,1,24.5-24.6Z"/><line class="cls-12" x1="372.2" y1="606.6" x2="372.2" y2="666"/><path class="cls-3" d="M390.7,612.1a18.5,18.5,0,0,1-36.1,5.4,19.1,19.1,0,0,1-.8-5.4,18.5,18.5,0,0,1,18.4-18.5h1.1A18.4,18.4,0,0,1,390.7,612.1Z"/><path class="cls-3" d="M410.1,339a41.9,41.9,0,0,1,42-41.7h0A41.8,41.8,0,0,1,493.9,339"/><path class="cls-3" d="M479.4,339.3V339a26.8,26.8,0,1,0-53.5.4"/><path class="cls-3" d="M444.3,313.8s-2.4,8.9,10,7.2"/><path class="cls-3" d="M457.3,332.5s-.6-4.6,4.6-4.6h15.6"/><path class="cls-3" d="M426.5,335.7h12.9a5,5,0,0,0,4.7-5.3"/><circle class="cls-3" cx="456.9" cy="333.7" r="2.2"/><circle class="cls-3" cx="444.4" cy="328.8" r="2.2"/><circle class="cls-3" cx="456.2" cy="321.1" r="2.2"/><path class="cls-3" d="M493.9,338.8v27.5a14.5,14.5,0,0,1-14.4,14.5h-55a14.5,14.5,0,0,1-14.4-14.5V339Z"/><rect class="cls-3" x="416.8" y="345.4" width="70.4" height="17.07" rx="5.5" ry="5.5"/><path class="cls-5" d="M431,350.3v7.5a1.6,1.6,0,0,0,3.2,0v-7.5a1.6,1.6,0,0,0-3.2,0Z"/><path class="cls-5" d="M469.2,350v7.4a1.6,1.6,0,0,0,3.2,0V350a1.6,1.6,0,0,0-3.2,0Z"/><path class="cls-5" d="M456.3,366a4.1,4.1,0,0,1-8.2,0c0-1-1.6-1-1.5,0a5.6,5.6,0,0,0,5.6,5.6,5.7,5.7,0,0,0,5.6-5.6c.1-1-1.5-1-1.5,0Z"/><path class="cls-5" d="M600.9,252.2a9.9,9.9,0,1,1-5.4-8.8,2.7,2.7,0,0,0-.7,2,2.9,2.9,0,0,0,3,3,3.2,3.2,0,0,0,2-.7A9.7,9.7,0,0,1,600.9,252.2Z"/><path class="cls-3" d="M632.7,252.2a54.3,54.3,0,0,1-83.4,0,54.3,54.3,0,0,1,83.4,0Z"/><circle class="cls-3" cx="591" cy="252.2" r="19.5"/><rect class="cls-3" x="439.4" y="402.7" width="23.1" height="23.1"/><rect class="cls-3" x="407.9" y="445.4" width="23.1" height="23.1"/><rect class="cls-3" x="439.4" y="445.4" width="23.1" height="23.1"/><rect class="cls-3" x="471.6" y="445.4" width="23.1" height="23.1"/><rect class="cls-3" x="423.3" y="488.2" width="23.1" height="23.1"/><rect class="cls-3" x="395" y="488.2" width="23.1" height="23.1"/><rect class="cls-3" x="485.9" y="488.2" width="23.1" height="23.1"/><rect class="cls-3" x="457.6" y="488.2" width="23.1" height="23.1"/><line class="cls-3" x1="451" y1="425.8" x2="451" y2="445.4"/><path class="cls-3" d="M482.6,445.4c-.2,0-30.6-19.6-30.6-19.6"/><line class="cls-3" x1="421.4" y1="445.4" x2="449.8" y2="425.8"/><line class="cls-3" x1="407.9" y1="488.2" x2="420.6" y2="468.5"/><line class="cls-3" x1="421" y1="468.5" x2="433.7" y2="488.2"/><line class="cls-3" x1="470.2" y1="488.2" x2="482.9" y2="468.5"/><line class="cls-3" x1="483.3" y1="468.5" x2="496" y2="488.2"/><circle class="cls-3" cx="813.9" cy="524" r="13.8"/><circle class="cls-3" cx="813.9" cy="655.8" r="13.8"/><rect class="cls-3" x="787" y="574" width="53.8" height="35.32"/><polygon class="cls-3" points="863.6 560.8 863.6 591.6 840.8 591.6 840.8 574 787 574 787 591.6 763.3 591.6 763.3 560.8 863.6 560.8"/><line class="cls-3" x1="813.9" y1="537.8" x2="813.9" y2="574"/><line class="cls-3" x1="813.9" y1="609.3" x2="813.9" y2="642"/><polygon class="cls-5" points="813.9 537.8 816.2 541.7 818.5 545.7 813.9 545.7 809.3 545.7 811.6 541.7 813.9 537.8"/><polygon class="cls-5" points="813.9 609.3 816.2 613.3 818.5 617.2 813.9 617.2 809.3 617.2 811.6 613.3 813.9 609.3"/><polygon class="cls-5" points="787 591.6 783 593.9 779.1 596.2 779.1 591.6 779.1 587.1 783 589.4 787 591.6"/><polygon class="cls-3" points="150.1 318.3 150.1 356.1 119.4 356.1 119.4 350.3 107.6 350.3 107.6 356.1 77.3 356.1 77.3 318.3 150.1 318.3"/><rect class="cls-3" x="83.1" y="324.3" width="8.8" height="12.88"/><rect class="cls-3" x="100.4" y="324.3" width="8.8" height="12.88"/><rect class="cls-3" x="117.2" y="324.3" width="8.8" height="12.88"/><rect class="cls-3" x="134.5" y="324.3" width="8.8" height="12.88"/><line class="cls-3" x1="83.1" y1="349.3" x2="83.1" y2="356.1"/><line class="cls-3" x1="89.9" y1="349.3" x2="89.9" y2="356.1"/><line class="cls-3" x1="96.6" y1="349.3" x2="96.6" y2="356.1"/><line class="cls-3" x1="103.3" y1="349.3" x2="103.3" y2="356.1"/><line class="cls-3" x1="124.4" y1="349.3" x2="124.4" y2="356.1"/><line class="cls-3" x1="131.1" y1="349.3" x2="131.1" y2="356.1"/><line class="cls-3" x1="137.8" y1="349.3" x2="137.8" y2="356.1"/><line class="cls-3" x1="144.6" y1="349.3" x2="144.6" y2="356.1"/><line class="cls-3" x1="77.3" y1="344.4" x2="150.1" y2="344.4"/><polygon class="cls-3" points="710.8 397.8 710.8 403.6 670.2 403.6 670.2 444.2 664.4 444.2 664.4 397.8 710.8 397.8"/><polygon class="cls-3" points="716.6 403.6 716.6 409.6 676.3 409.6 676.3 450 670.2 450 670.2 403.6 716.6 403.6"/><polygon class="cls-3" points="722.7 409.6 722.7 414.7 681.4 414.7 681.4 456 676.3 456 676.3 409.6 722.7 409.6"/><rect class="cls-3" x="681.4" y="414.7" width="46.4" height="46.37"/><path class="cls-3" d="M614.6,442.7H556.2v-7.1a35.5,35.5,0,0,1,35.4-35.4h3.8"/><path class="cls-3" d="M605.1,429.4a15.2,15.2,0,0,0,10.6-6.9,16.3,16.3,0,0,0,2.9-9.2"/><path class="cls-3" d="M560.9,433.6c-.2-10.1,6.5-18.3,14.8-18.4s15.2,8.1,15.3,18.2a22.2,22.2,0,0,1-.3,3.7v.2"/><path class="cls-3" d="M560.9,433.6"/><line class="cls-3" x1="589" y1="442.7" x2="563" y2="442.7"/><path class="cls-3" d="M608.6,437.1h1a5.5,5.5,0,0,1,5,5.5H602.3"/><path class="cls-3" d="M588.1,437.1h3.5a5.6,5.6,0,0,1,5.5,5.6H581"/><line class="cls-3" x1="605" y1="429.4" x2="602.3" y2="425"/><polyline class="cls-3" points="605 429.4 609.7 437.1 609.6 437.2"/><line class="cls-3" x1="602.3" y1="442.7" x2="591" y2="431.2"/><path class="cls-3" d="M566.7,394.6h0a2.6,2.6,0,0,1,.7,3.5l-4,6.6a51,51,0,0,0-7.2,26.1v11.9h0a5.1,5.1,0,0,1-5.1-5.1V429a46.1,46.1,0,0,1,6-22.9l6-10.7A2.4,2.4,0,0,1,566.7,394.6Z"/><path class="cls-3" d="M623,404.8c-.1,6.5-6.5,11.8-14.4,11.7s-14.3-5.3-14.3-11.8a10,10,0,0,1,1.1-4.5l-.5-7.6a.9.9,0,0,1,1.4-.8l4.8,2.9a17,17,0,0,1,7.6-1.7,16.6,16.6,0,0,1,7.2,1.6l4.5-2.8a1,1,0,0,1,1.5.8l-.5,6.8A10.3,10.3,0,0,1,623,404.8Z"/><line class="cls-3" x1="625.3" y1="404.1" x2="627.2" y2="404.6"/><line class="cls-13" x1="630.7" y1="405.5" x2="657.2" y2="412.3"/><line class="cls-3" x1="658.9" y1="412.8" x2="660.8" y2="413.3"/><line class="cls-3" x1="618.6" y1="439.9" x2="620.5" y2="439.5"/><line class="cls-14" x1="623.9" y1="438.6" x2="657.2" y2="430.3"/><line class="cls-3" x1="658.9" y1="429.9" x2="660.8" y2="429.4"/><circle class="cls-3" cx="603.7" cy="402.6" r="0.5"/><circle class="cls-3" cx="613.6" cy="402.6" r="0.5"/><rect class="cls-5" x="676.4" y="328.6" width="22.6" height="22.56"/><polyline class="cls-3" points="680.9 326.3 680.9 315 677.3 311.5"/><line class="cls-3" x1="687.7" y1="312.4" x2="687.7" y2="326.3"/><polyline class="cls-3" points="694.4 326.3 694.4 315 698.1 311.3"/><circle class="cls-3" cx="675.3" cy="309.8" r="2.6" transform="translate(-66 260.5) rotate(-20.8)"/><circle class="cls-3" cx="700" cy="309.8" r="2.6" transform="matrix(0.93, -0.36, 0.36, 0.93, -64.41, 269.29)"/><circle class="cls-3" cx="687.6" cy="309.8" r="2.6" transform="translate(-65.2 264.9) rotate(-20.8)"/><polyline class="cls-3" points="680.9 353.7 680.9 365 677.3 368.5"/><line class="cls-3" x1="687.7" y1="367.6" x2="687.7" y2="353.7"/><polyline class="cls-3" points="694.4 353.7 694.4 365 698.1 368.7"/><circle class="cls-3" cx="675.3" cy="370.2" r="2.6" transform="translate(89.1 869.6) rotate(-69.2)"/><circle class="cls-3" cx="700" cy="370.2" r="2.6" transform="translate(105 892.7) rotate(-69.2)"/><circle class="cls-3" cx="687.6" cy="370.2" r="2.6" transform="translate(97 881.2) rotate(-69.2)"/><polyline class="cls-3" points="674 346.8 662.6 346.8 659.1 350.3"/><line class="cls-3" x1="660" y1="340" x2="674" y2="340"/><polyline class="cls-3" points="674 333.2 662.6 333.2 659 329.5"/><circle class="cls-3" cx="657.4" cy="352.3" r="2.6" transform="translate(-82.3 256.9) rotate(-20.8)"/><circle class="cls-3" cx="657.4" cy="327.7" r="2.6" transform="translate(-73.6 255.3) rotate(-20.8)"/><circle class="cls-3" cx="657.4" cy="340" r="2.6" transform="translate(-77.9 256.1) rotate(-20.8)"/><polyline class="cls-3" points="701.3 346.8 712.6 346.8 716.2 350.3"/><line class="cls-3" x1="715.2" y1="340" x2="701.3" y2="340"/><polyline class="cls-3" points="701.3 333.2 712.6 333.2 716.3 329.5"/><circle class="cls-3" cx="717.9" cy="352.3" r="2.6" transform="translate(133.2 897.9) rotate(-69.2)"/><circle class="cls-3" cx="717.9" cy="327.7" r="2.6" transform="translate(156.2 882) rotate(-69.2)"/><circle class="cls-3" cx="717.9" cy="340" r="2.6" transform="translate(144.7 889.9) rotate(-69.2)"/><polyline class="cls-3" points="814 28.7 814 111.2 896.6 111.2"/><circle class="cls-5" cx="840.5" cy="75.5" r="3.4" transform="translate(338.3 753.7) rotate(-58.6)"/><circle class="cls-5" cx="828.4" cy="81.3" r="3.4" transform="translate(327.5 746.1) rotate(-58.6)"/><circle class="cls-5" cx="850.6" cy="85.9" r="3.4" transform="translate(334.2 767.3) rotate(-58.6)"/><circle class="cls-5" cx="839.7" cy="86.9" r="3.4" transform="translate(328.1 758.4) rotate(-58.6)"/><circle class="cls-5" cx="843.9" cy="98.6" r="3.4" transform="matrix(0.52, -0.85, 0.85, 0.52, 320.2, 767.61)"/><circle class="cls-5" cx="830.5" cy="97" r="3.4" transform="translate(315.1 755.5) rotate(-58.6)"/><line class="cls-3" x1="827.5" y1="42.8" x2="882.2" y2="97.5"/><rect class="cls-5" x="855.4" y="49.4" width="6.8" height="6.76"/><rect class="cls-5" x="861.5" y="38.2" width="6.8" height="6.76"/><rect class="cls-5" x="867.1" y="49.4" width="6.8" height="6.76"/><rect class="cls-5" x="861.5" y="59.6" width="6.8" height="6.76"/><rect class="cls-5" x="872.4" y="60.7" width="6.8" height="6.76"/><rect class="cls-5" x="878.5" y="49.4" width="6.8" height="6.76"/><rect class="cls-5" x="873.8" y="38.2" width="6.8" height="6.76"/><path class="cls-3" d="M493.1,151.7h5a.6.6,0,0,0,.6-.3l1.4-2.8a.6.6,0,0,1,1.1.1l4.2,14.6a.3.3,0,0,0,.5,0l3.9-14.3a.6.6,0,0,1,1.1-.1l3.4,8.2c.1.2.4.2.5-.1l4.1-19.9a.5.5,0,0,1,.9,0l3.9,20.3c0,.2.3.2.4,0l3.5-7.9c.2-.5,1-.4,1.2.1l3.7,13.6c0,.2.4.2.4,0l2.6-10.5a.6.6,0,0,1,.6-.5h6.1"/><path class="cls-5" d="M467.9,135.8h-.2a2.2,2.2,0,0,1-2.1-1.4l-6-16.2c0-.1-.3-.1-.3.1V162a2.9,2.9,0,0,1-2.9,2.9h0a2.9,2.9,0,0,1-2.9-2.7l-2-26.5c0-.2-.2-.2-.3,0l-2.3,26.8a2.6,2.6,0,0,1-2.6,2.4h0a2.8,2.8,0,0,1-2.8-2.9V118.3a.2.2,0,1,0-.3,0l-5.5,15.6a3,3,0,0,1-2.8,1.9h0a2.4,2.4,0,0,1-2.2-3.2l9.5-26.3a5.4,5.4,0,0,1,5.1-3.6h8.6a4.9,4.9,0,0,1,4.6,3.2l9.8,26.4A2.6,2.6,0,0,1,467.9,135.8Z"/><path class="cls-5" d="M450.2,86a7.3,7.3,0,0,0,2.2,14.4,7.3,7.3,0,0,0,6.1-8.3A7.3,7.3,0,0,0,450.2,86Z"/><rect class="cls-2" x="494.6" y="92.3" width="6.8" height="6.76"/><line class="cls-2" x1="508.3" y1="95.7" x2="536.1" y2="95.7"/><rect class="cls-2" x="494.6" y="106.7" width="6.8" height="6.76"/><line class="cls-2" x1="508.3" y1="110" x2="536.1" y2="110"/><rect class="cls-2" x="494.6" y="121" width="6.8" height="6.76"/><line class="cls-2" x1="508.3" y1="124.4" x2="536.1" y2="124.4"/><path class="cls-5" d="M667.8,108h0a1.5,1.5,0,0,1,1.4-1.5h16.2a1.5,1.5,0,0,1,1.5,1.5h0a1.5,1.5,0,0,1-1.5,1.4H669.2A1.4,1.4,0,0,1,667.8,108Z"/><path class="cls-3" d="M675.1,112.5h-6.4a4.6,4.6,0,0,1-4.7-4.6h0a4.7,4.7,0,0,1,4.7-4.7H686a4.6,4.6,0,0,1,4.6,4.7h0a4.5,4.5,0,0,1-4.6,4.6h-6.5"/><path class="cls-3" d="M664,100.4a9.3,9.3,0,0,1,4.4-1.1h17.9a8.8,8.8,0,0,1,8.8,8.7"/><path class="cls-3" d="M664,100.4"/><path class="cls-3" d="M690.6,115.7a8.6,8.6,0,0,1-4.3,1.1H668.4a8.7,8.7,0,0,1-8.8-8.8h0"/><path class="cls-3" d="M687.7,95.9h.6"/><path class="cls-3" d="M667,119.9a12,12,0,0,1-12-12h0a11.9,11.9,0,0,1,12-12h11.6"/><path class="cls-3" d="M688.3,95.9a12.1,12.1,0,0,1,11.4,12h0a12,12,0,0,1-12,12H675.4"/><path class="cls-3" d="M660.1,92.9a16,16,0,0,1,5.3-.9h23.8a15.6,15.6,0,0,1,15.6,15.6h0a15.5,15.5,0,0,1-6.8,12.8"/><path class="cls-3" d="M660.1,92.9"/><path class="cls-3" d="M686.9,123.1H665.4a15.5,15.5,0,0,1-15.5-15.5h0a15.3,15.3,0,0,1,1.8-7.4"/><path class="cls-5" d="M704,136.7v19a3.7,3.7,0,0,1-.1,1.1,16.1,16.1,0,0,1-16.1,15.1,16.4,16.4,0,0,1-14.3-8.6L662,151.8a3.7,3.7,0,1,1,5.3-5.3l4.3,4.3V120a3.8,3.8,0,0,1,3.7-3.8,3.8,3.8,0,0,1,3.8,3.8v19.5h.7v-3.9a3.8,3.8,0,1,1,7.5,0v3.9h.8v-3.9a3.8,3.8,0,0,1,3.8-3.8,3.5,3.5,0,0,1,2.6,1.1,3.7,3.7,0,0,1,1.1,2.7v3.9h.9v-2.8a3.7,3.7,0,0,1,6.4-2.6A3.5,3.5,0,0,1,704,136.7Z"/><line class="cls-3" x1="592.6" y1="233.3" x2="592.7" y2="176.6"/><path class="cls-3" d="M687.6,303.6V280.8A28.6,28.6,0,0,0,659,252.2H632.7"/><path class="cls-3" d="M687.6,303.6"/><line class="cls-3" x1="687.6" y1="397.8" x2="687.6" y2="375.6"/><ellipse class="cls-3" cx="279.5" cy="545.7" rx="14.3" ry="43"/><ellipse class="cls-3" cx="279.5" cy="545.7" rx="43" ry="14.3" transform="translate(-304 357.5) rotate(-45)"/><ellipse class="cls-3" cx="279.5" cy="545.7" rx="14.3" ry="43" transform="translate(-304 357.5) rotate(-45)"/><ellipse class="cls-3" cx="279.5" cy="545.7" rx="43" ry="14.3"/><circle class="cls-5" cx="279.6" cy="545.7" r="4.7"/><line class="cls-3" x1="727.7" y1="438.3" x2="778.8" y2="438.3"/><rect class="cls-5" x="573.3" y="49.4" width="4.6" height="10.06"/><rect class="cls-5" x="583.6" y="43.6" width="4.6" height="15.81"/><rect class="cls-5" x="593.5" y="38.1" width="4.6" height="21.31"/><rect class="cls-5" x="604.1" y="32.5" width="4.6" height="26.94"/><line class="cls-3" x1="813.4" y1="505.8" x2="813.4" y2="471.5"/><line class="cls-3" x1="725" y1="339.7" x2="765.8" y2="339.7"/><line class="cls-3" x1="813.4" y1="375.3" x2="813.4" y2="407"/><path class="cls-5" d="M214.5,319.2h12.4a2.2,2.2,0,0,1,2.2,2.1h0a2.2,2.2,0,0,1-2.2,2.2H214.5a2.2,2.2,0,0,1-2.2-2.2h0A2.2,2.2,0,0,1,214.5,319.2Z"/><path class="cls-5" d="M214.5,323h12.4a2.1,2.1,0,0,1,2.2,2.1h0a2.2,2.2,0,0,1-2.1,2.2H214.5a2.1,2.1,0,0,1-2.1-2.2h0A2,2,0,0,1,214.5,323Z"/><circle class="cls-3" cx="219.2" cy="288.3" r="24.6" transform="translate(-134.4 210) rotate(-40.3)"/><path class="cls-5" d="M214.4,310.7h12.4a2.1,2.1,0,0,1,2.2,2.1h0a2.2,2.2,0,0,1-2.1,2.2H214.4a2,2,0,0,1-2.1-2.1h0A2.1,2.1,0,0,1,214.4,310.7Z"/><path class="cls-5" d="M214.4,314.9h12.5A2.1,2.1,0,0,1,229,317h0a2.1,2.1,0,0,1-2.1,2.1H214.4a2.2,2.2,0,0,1-2.1-2.1h0A2.1,2.1,0,0,1,214.4,314.9Z"/><path class="cls-3" d="M216.4,309l-4-24.5a6.6,6.6,0,0,0-5.1-5.5h-.1a2.4,2.4,0,0,0-2.9,1.8v.2a3.9,3.9,0,0,0,3.7,4.9l17.9.7h.7l3.8.8a4.4,4.4,0,0,0,5.3-3.3h0a3.5,3.5,0,0,0-2.5-4.2h0a4.2,4.2,0,0,0-5,3.4l-3.9,24.5"/><path class="cls-3" d="M262.4,230.7a68.8,68.8,0,0,0-84.3-.4"/><path class="cls-3" d="M255.4,239.3a57,57,0,0,0-69.6-.3"/><path class="cls-3" d="M249,248.3a45.4,45.4,0,0,0-30.1-9.7,44.8,44.8,0,0,0-26.7,10.1"/><path class="cls-3" d="M239.4,257.6a26.2,26.2,0,0,0-18.6-8.3,26.6,26.6,0,0,0-19.8,8.3"/><path class="cls-3" d="M537,393.6a18.8,18.8,0,1,1-23.3-17.7V361.2h10v15A18.8,18.8,0,0,1,537,393.6Z"/><path class="cls-5" d="M500.6,399.1a18.2,18.2,0,0,0,17.2,14.6h.6a18.1,18.1,0,0,0,17.4-13.8,11.3,11.3,0,0,1-4,2.3,11.8,11.8,0,0,1-12.6-3.5l-.5-.6a11.5,11.5,0,0,0-18.1,1Z"/><line class="cls-3" x1="511.3" y1="361.2" x2="526.3" y2="361.2"/><circle class="cls-3" cx="518.5" cy="342.9" r="4.6" transform="translate(-95.1 442) rotate(-42.6)"/><path class="cls-3" d="M510,326.9a3.2,3.2,0,0,0-.5,4.5,3.1,3.1,0,0,0,4.4.5,3.2,3.2,0,0,0,.6-4.4A3.3,3.3,0,0,0,510,326.9Z"/><path class="cls-3" d="M526.3,318.6a2.8,2.8,0,0,0-1.6,3.6,2.8,2.8,0,0,0,3.6,1.5,2.6,2.6,0,0,0,1.6-3.5A2.7,2.7,0,0,0,526.3,318.6Z"/><polyline class="cls-15" points="513.3 288.6 513.3 288.6 513.3 288.6"/><polyline class="cls-15" points="518.5 306.9 518.5 306.9 518.5 306.9"/><polygon class="cls-3" points="288.6 300.2 288.6 377.8 345.2 377.8 345.2 316 327.5 300.2 288.6 300.2"/><path class="cls-3" d="M343.7,314.7l-15.1-13.5a.7.7,0,0,0-1.1.5V316h15.7A.7.7,0,0,0,343.7,314.7Z"/><line class="cls-3" x1="294.2" y1="322.5" x2="338.2" y2="322.5"/><line class="cls-3" x1="294.2" y1="336" x2="338.2" y2="336"/><line class="cls-3" x1="294.2" y1="349.6" x2="338.2" y2="349.6"/><line class="cls-3" x1="294.2" y1="363.1" x2="338.2" y2="363.1"/><line class="cls-16" x1="15" y1="358.1" x2="15" y2="417.1"/><line class="cls-16" x1="15" y1="295.2" x2="15" y2="315.8"/><line class="cls-3" x1="44.9" y1="633.6" x2="85.8" y2="633.6"/><line class="cls-3" x1="15.9" y1="535.3" x2="15.9" y2="605"/><line class="cls-3" x1="15.9" y1="458.1" x2="15.9" y2="487.9"/><line class="cls-17" x1="410.1" y1="339" x2="345.2" y2="339"/><line class="cls-17" x1="150.1" y1="338.9" x2="219.9" y2="338.9"/><line class="cls-17" x1="219.9" y1="383" x2="219.9" y2="325.7"/><line class="cls-3" x1="451" y1="402.7" x2="451" y2="380.8"/><line class="cls-3" x1="549.3" y1="252.2" x2="492.9" y2="251.9"/><line class="cls-3" x1="812.1" y1="260.3" x2="812.1" y2="305.6"/><line class="cls-3" x1="893" y1="250.4" x2="832.5" y2="250.4"/><line class="cls-3" x1="883.4" y1="438.3" x2="844.1" y2="438.3"/><line class="cls-3" x1="52.4" y1="437.9" x2="183.2" y2="437.9"/><path class="cls-3" d="M221.1,491.9V598.1a35.5,35.5,0,0,1-35.5,35.5h-39"/><line class="cls-3" x1="77.3" y1="337.2" x2="37.4" y2="337.2"/><path class="cls-5" d="M941.4,334.8v4.8h-3a19.4,19.4,0,0,1-3.8,9.9l1.9,2-3.4,3.3-1.8-1.8a20.5,20.5,0,0,1-10.1,4.3v2.4h-4.7v-2.4a20,20,0,0,1-10-4.3l-1.9,1.8-3.3-3.3,1.9-2a18.8,18.8,0,0,1-3.8-9.3v-.6h-3.1v-4.8h3.2a19.2,19.2,0,0,1,4.2-9.4l-2.4-2.5,3.3-3.3,2.5,2.5a20.6,20.6,0,0,1,9.4-3.8v-3.6h4.7v3.6a20.6,20.6,0,0,1,9.4,3.8l2.5-2.5,3.4,3.3-2.5,2.5a18.4,18.4,0,0,1,4.2,9.4Zm-7.1,1.1c-.1-.3-.1-.7-.2-1.1a14.9,14.9,0,0,0-3-6.5,13.3,13.3,0,0,0-3.4-3.3,16.2,16.2,0,0,0-6.5-2.6,14.8,14.8,0,0,0-4.2,0h-.5A16.2,16.2,0,0,0,910,325a15.2,15.2,0,0,0-3.4,3.3,15.5,15.5,0,0,0-3,6.5,19.1,19.1,0,0,0-.2,4.8h.1a14.8,14.8,0,0,0,2.6,6.9,17.8,17.8,0,0,0,3.2,3.5,17.2,17.2,0,0,0,7.2,3.1,14.8,14.8,0,0,0,4.2,0h.5a16,16,0,0,0,7.2-3,18.3,18.3,0,0,0,3.3-3.5,15.6,15.6,0,0,0,2.6-7A22.8,22.8,0,0,0,934.3,335.9Z"/><path class="cls-3" d="M934.3,339.6a15.6,15.6,0,0,1-2.6,7,18.3,18.3,0,0,1-3.3,3.5,16,16,0,0,1-7.2,3h-.5a14.8,14.8,0,0,1-4.2,0,17.2,17.2,0,0,1-7.2-3.1,17.8,17.8,0,0,1-3.2-3.5,14.8,14.8,0,0,1-2.6-6.9h-.1a19.1,19.1,0,0,1,.2-4.8,15.5,15.5,0,0,1,3-6.5A15.2,15.2,0,0,1,910,325a16.2,16.2,0,0,1,6.5-2.6h.5a14.8,14.8,0,0,1,4.2,0,16.2,16.2,0,0,1,6.5,2.6,13.3,13.3,0,0,1,3.4,3.3,14.9,14.9,0,0,1,3,6.5c.1.4.1.8.2,1.1A22.8,22.8,0,0,1,934.3,339.6Zm-3.6-3.2a4.1,4.1,0,0,0-.3-1.6,12,12,0,0,0-1.8-4,13.4,13.4,0,0,0-3.5-3.2,13.2,13.2,0,0,0-3.9-1.5,12,12,0,0,0-3.8-.1h-.9a13.2,13.2,0,0,0-3.9,1.5,14.8,14.8,0,0,0-3.4,3.2,12.3,12.3,0,0,0-1.9,4,12.9,12.9,0,0,0-.3,4.4c0,.1.1.3.1.4a11.1,11.1,0,0,0,1.6,4.4,10.7,10.7,0,0,0,3.2,3.5,11.2,11.2,0,0,0,4.6,2,12,12,0,0,0,3.8.1h.9a11.9,11.9,0,0,0,4.6-2A10.7,10.7,0,0,0,929,344a11.2,11.2,0,0,0,1.7-4.4A17.1,17.1,0,0,0,930.7,336.4Z"/><path class="cls-3" d="M930.7,339.6A11.2,11.2,0,0,1,929,344a10.7,10.7,0,0,1-3.2,3.5,11.9,11.9,0,0,1-4.6,2h-.9a12,12,0,0,1-3.8-.1,11.2,11.2,0,0,1-4.6-2,10.7,10.7,0,0,1-3.2-3.5,11.1,11.1,0,0,1-1.6-4.4c0-.1-.1-.3-.1-.4a12.9,12.9,0,0,1,.3-4.4,12.3,12.3,0,0,1,1.9-4,14.8,14.8,0,0,1,3.4-3.2,13.2,13.2,0,0,1,3.9-1.5h.9a12,12,0,0,1,3.8.1,13.2,13.2,0,0,1,3.9,1.5,13.4,13.4,0,0,1,3.5,3.2,12,12,0,0,1,1.8,4,4.1,4.1,0,0,1,.3,1.6A17.1,17.1,0,0,1,930.7,339.6Zm-4.4-2.7a8.3,8.3,0,0,0-.6-2.1l-.3-.7a7.9,7.9,0,0,0-3.6-3.2l-.6-.2a6.9,6.9,0,0,0-3.2-.3,4,4,0,0,0-1.5.3l-.6.2a7.8,7.8,0,0,0-3.5,3.2,2.5,2.5,0,0,0-.4.7,8.4,8.4,0,0,0-.6,3.9c.1.3.1.6.2.9a3.6,3.6,0,0,0,.4,1.1,7.8,7.8,0,0,0,3.1,3.6l1.4.6a7.2,7.2,0,0,0,3.3.3,5.8,5.8,0,0,0,1.4-.3l1.4-.6a8,8,0,0,0,3.2-3.6l.3-1.1A6.2,6.2,0,0,0,926.3,336.9Z"/><path class="cls-5" d="M926.1,339.6l-.3,1.1a8,8,0,0,1-3.2,3.6l-1.4.6a5.8,5.8,0,0,1-1.4.3,7.2,7.2,0,0,1-3.3-.3l-1.4-.6a7.8,7.8,0,0,1-3.1-3.6,3.6,3.6,0,0,1-.4-1.1c-.1-.3-.1-.6-.2-.9a8.4,8.4,0,0,1,.6-3.9,2.5,2.5,0,0,1,.4-.7,7.8,7.8,0,0,1,3.5-3.2l.6-.2a4,4,0,0,1,1.5-.3,6.9,6.9,0,0,1,3.2.3l.6.2a7.9,7.9,0,0,1,3.6,3.2l.3.7a8.3,8.3,0,0,1,.6,2.1A6.2,6.2,0,0,1,926.1,339.6Z"/><path class="cls-5" d="M37.4,334.8v4.8h-3a19.4,19.4,0,0,1-3.8,9.9l1.9,2-3.4,3.3L27.3,353a20.5,20.5,0,0,1-10.1,4.3v2.4H12.5v-2.4a20,20,0,0,1-10-4.3L.6,354.8l-3.3-3.3,1.9-2a18.8,18.8,0,0,1-3.8-9.3v-.6H-7.7v-4.8h3.2a19.2,19.2,0,0,1,4.2-9.4l-2.4-2.5,3.3-3.3,2.5,2.5a20.6,20.6,0,0,1,9.4-3.8v-3.6h4.7v3.6a20.6,20.6,0,0,1,9.4,3.8l2.5-2.5,3.4,3.3L30,325.4a18.4,18.4,0,0,1,4.2,9.4Zm-7.1,1.1c-.1-.3-.1-.7-.2-1.1a14.9,14.9,0,0,0-3-6.5,13.3,13.3,0,0,0-3.4-3.3,16.2,16.2,0,0,0-6.5-2.6,14.8,14.8,0,0,0-4.2,0h-.5A16.2,16.2,0,0,0,6,325a15.2,15.2,0,0,0-3.4,3.3,15.5,15.5,0,0,0-3,6.5,19.1,19.1,0,0,0-.2,4.8h.1a14.8,14.8,0,0,0,2.6,6.9,17.8,17.8,0,0,0,3.2,3.5,17.2,17.2,0,0,0,7.2,3.1,14.8,14.8,0,0,0,4.2,0h.5a16,16,0,0,0,7.2-3,18.3,18.3,0,0,0,3.3-3.5,15.6,15.6,0,0,0,2.6-7A22.8,22.8,0,0,0,30.3,335.9Z"/><path class="cls-3" d="M30.3,339.6a15.6,15.6,0,0,1-2.6,7,18.3,18.3,0,0,1-3.3,3.5,16,16,0,0,1-7.2,3h-.5a14.8,14.8,0,0,1-4.2,0,17.2,17.2,0,0,1-7.2-3.1,17.8,17.8,0,0,1-3.2-3.5,14.8,14.8,0,0,1-2.6-6.9H-.6a19.1,19.1,0,0,1,.2-4.8,15.5,15.5,0,0,1,3-6.5A15.2,15.2,0,0,1,6,325a16.2,16.2,0,0,1,6.5-2.6H13a14.8,14.8,0,0,1,4.2,0,16.2,16.2,0,0,1,6.5,2.6,13.3,13.3,0,0,1,3.4,3.3,14.9,14.9,0,0,1,3,6.5c.1.4.1.8.2,1.1A22.8,22.8,0,0,1,30.3,339.6Zm-3.6-3.2a4.1,4.1,0,0,0-.3-1.6,12,12,0,0,0-1.8-4,13.4,13.4,0,0,0-3.5-3.2,13.2,13.2,0,0,0-3.9-1.5,12,12,0,0,0-3.8-.1h-.9a13.2,13.2,0,0,0-3.9,1.5,14.8,14.8,0,0,0-3.4,3.2,12.3,12.3,0,0,0-1.9,4,12.9,12.9,0,0,0-.3,4.4c0,.1.1.3.1.4A11.1,11.1,0,0,0,4.7,344a10.7,10.7,0,0,0,3.2,3.5,11.2,11.2,0,0,0,4.6,2,12,12,0,0,0,3.8.1h.9a11.9,11.9,0,0,0,4.6-2A10.7,10.7,0,0,0,25,344a11.2,11.2,0,0,0,1.7-4.4A17.1,17.1,0,0,0,26.7,336.4Z"/><path class="cls-3" d="M26.7,339.6A11.2,11.2,0,0,1,25,344a10.7,10.7,0,0,1-3.2,3.5,11.9,11.9,0,0,1-4.6,2h-.9a12,12,0,0,1-3.8-.1,11.2,11.2,0,0,1-4.6-2A10.7,10.7,0,0,1,4.7,344a11.1,11.1,0,0,1-1.6-4.4c0-.1-.1-.3-.1-.4a12.9,12.9,0,0,1,.3-4.4,12.3,12.3,0,0,1,1.9-4,14.8,14.8,0,0,1,3.4-3.2,13.2,13.2,0,0,1,3.9-1.5h.9a12,12,0,0,1,3.8.1,13.2,13.2,0,0,1,3.9,1.5,13.4,13.4,0,0,1,3.5,3.2,12,12,0,0,1,1.8,4,4.1,4.1,0,0,1,.3,1.6A17.1,17.1,0,0,1,26.7,339.6Zm-4.4-2.7a8.3,8.3,0,0,0-.6-2.1l-.3-.7a7.9,7.9,0,0,0-3.6-3.2l-.6-.2a6.9,6.9,0,0,0-3.2-.3,4,4,0,0,0-1.5.3l-.6.2a7.8,7.8,0,0,0-3.5,3.2,2.5,2.5,0,0,0-.4.7,8.4,8.4,0,0,0-.6,3.9c.1.3.1.6.2.9a3.6,3.6,0,0,0,.4,1.1,7.8,7.8,0,0,0,3.1,3.6l1.4.6a7.2,7.2,0,0,0,3.3.3,5.8,5.8,0,0,0,1.4-.3l1.4-.6a8,8,0,0,0,3.2-3.6l.3-1.1A6.2,6.2,0,0,0,22.3,336.9Z"/><path class="cls-5" d="M22.1,339.6l-.3,1.1a8,8,0,0,1-3.2,3.6l-1.4.6a5.8,5.8,0,0,1-1.4.3,7.2,7.2,0,0,1-3.3-.3l-1.4-.6A7.8,7.8,0,0,1,8,340.7a3.6,3.6,0,0,1-.4-1.1c-.1-.3-.1-.6-.2-.9a8.4,8.4,0,0,1,.6-3.9,2.5,2.5,0,0,1,.4-.7,7.8,7.8,0,0,1,3.5-3.2l.6-.2a4,4,0,0,1,1.5-.3,6.9,6.9,0,0,1,3.2.3l.6.2a7.9,7.9,0,0,1,3.6,3.2l.3.7a8.3,8.3,0,0,1,.6,2.1A6.2,6.2,0,0,1,22.1,339.6Z"/><line class="cls-16" x1="856.6" y1="336.6" x2="897.2" y2="336.6"/><path class="cls-18" d="M512.7,45.1V28.2A20.1,20.1,0,0,1,532.8,8.1H657a20.3,20.3,0,0,1,20.3,20.4V92"/><polyline class="cls-3" points="591 8.6 591 0.5 591 -10.9"/><polyline class="cls-3" points="591 686.6 591 678.5 591 667.1"/><polygon class="cls-3" points="345.6 413.5 345.6 418.2 286.8 418.2 286.8 456.7 279.6 456.7 279.6 413.5 345.6 413.5"/><rect class="cls-3" x="286.8" y="418.2" width="65.9" height="43.2"/><path class="cls-3" d="M287.9,460l8.8-11a10.4,10.4,0,0,1,15.6-.8l2.4,2.5a3.7,3.7,0,0,0,5.7-.4l8-11.1a8.1,8.1,0,0,1,13.9,1.1l9.3,18.9a1.5,1.5,0,0,1-1.3,2.2H288.6A.8.8,0,0,1,287.9,460Z"/><circle class="cls-3" cx="304.3" cy="430.9" r="5.9"/><path class="cls-3" d="M319.7,462v22a15.7,15.7,0,0,0,15.8,15.7H395"/><line class="cls-3" x1="279.5" y1="438.1" x2="257.3" y2="438.1"/><line class="cls-3" x1="316.2" y1="377.8" x2="316.2" y2="413.5"/><path class="cls-19" d="M187.6,44.2A35.7,35.7,0,1,0,223.2,8.5"/><path class="cls-5" d="M251.9,45.3A28.7,28.7,0,0,1,223.2,74a27.5,27.5,0,0,1-9.5-1.7l10.2-27-.6-28.7A28.7,28.7,0,0,1,251.9,45.3Z"/><rect class="cls-17" x="59.4" y="37.7" width="48" height="14" rx="6.3" ry="6.3"/><line class="cls-17" x1="83.4" y1="52.6" x2="83.4" y2="72.9"/><polyline class="cls-17" points="92.5 52.6 92.5 65.4 96.7 69.7"/><polyline class="cls-17" points="75.2 52.6 75.2 65.4 71 69.7"/><circle class="cls-17" cx="83.4" cy="75.2" r="2.3"/><circle class="cls-17" cx="98.1" cy="70.6" r="2.3"/><circle class="cls-17" cx="69.7" cy="70.6" r="2.3"/><line class="cls-17" x1="85.8" y1="44.7" x2="98.2" y2="44.7"/><line class="cls-17" x1="68.6" y1="44.7" x2="79.3" y2="44.7"/><path class="cls-17" d="M23,494.2v35.3a6.4,6.4,0,0,1-6.4,6.4H15.3A6.4,6.4,0,0,1,9,529.5V494.2a6.3,6.3,0,0,1,6.3-6.3h1.3A6.4,6.4,0,0,1,23,494.2Z"/><line class="cls-17" x1="23.8" y1="511.9" x2="44.1" y2="511.9"/><polyline class="cls-17" points="23.8 502.8 36.6 502.8 40.9 498.5"/><polyline class="cls-17" points="23.8 520 36.6 520 40.9 524.3"/><circle class="cls-17" cx="46.4" cy="511.9" r="2.3"/><circle class="cls-17" cx="41.9" cy="497.2" r="2.3"/><circle class="cls-17" cx="41.9" cy="525.6" r="2.3"/><line class="cls-17" x1="16" y1="509.4" x2="16" y2="497"/><line class="cls-17" x1="16" y1="526.7" x2="16" y2="515.9"/><rect class="cls-17" x="831.3" y="278" width="48" height="14" rx="6.3" ry="6.3"/><line class="cls-17" x1="857.7" y1="285" x2="870.1" y2="285"/><line class="cls-17" x1="840.5" y1="285" x2="851.2" y2="285"/><path class="cls-17" d="M527,523.5h35.3a6.3,6.3,0,0,1,6.3,6.3v1.4a6.3,6.3,0,0,1-6.3,6.3H527a6.4,6.4,0,0,1-6.4-6.3v-1.4A6.4,6.4,0,0,1,527,523.5Z"/><line class="cls-17" x1="542.2" y1="530.5" x2="529.8" y2="530.5"/><line class="cls-17" x1="559.5" y1="530.5" x2="548.7" y2="530.5"/><path class="cls-3" d="M59.4,45"/><line class="cls-3" x1="183" y1="45" x2="108" y2="45"/><path class="cls-20" d="M59.4,45.4"/><path class="cls-3" d="M59.4,723.4H36.6a20.8,20.8,0,0,1-20.7-20.8V661.2"/><path class="cls-3" d="M59.4,45.4H36.6A20.8,20.8,0,0,1,15.9,24.6V-16.8"/><polyline class="cls-3" points="702.3 207.3 644.6 207.3 592.7 207.3"/><path class="cls-3" d="M644.6,211"/><polyline class="cls-3" points="669.8 211 682.4 211 686 214.3"/><polyline class="cls-3" points="644.6 210.7 663.4 210.7 668 215"/><ellipse class="cls-3" cx="704.9" cy="207.3" rx="2.6" ry="2.4"/><ellipse class="cls-3" cx="687.4" cy="216.5" rx="2.6" ry="2.4"/><polyline class="cls-3" points="669.8 204.1 682.4 204.1 686 200.7"/><ellipse class="cls-3" cx="687.4" cy="198.6" rx="2.6" ry="2.4"/><ellipse class="cls-3" cx="670.3" cy="217" rx="2.6" ry="2.4"/><polyline class="cls-3" points="644.6 203.6 663.4 203.6 668 199.2"/><ellipse class="cls-3" cx="669.9" cy="197.5" rx="2.6" ry="2.4"/><polygon class="cls-3" points="712.6 190.2 643.7 190.2 643.7 224.7 712.6 224.7 712.6 190.2"/><polygon class="cls-3" points="718.4 204.5 712.6 204.5 712.6 210.4 718.4 210.4 718.4 204.5"/><polygon class="cls-3" points="718.4 215 712.6 215 712.6 220.8 718.4 220.8 718.4 215"/><polygon class="cls-3" points="718.4 194.1 712.6 194.1 712.6 200 718.4 200 718.4 194.1"/><path class="cls-3" d="M643.3,215h-2.9a3,3,0,0,0-3,3h0a2.8,2.8,0,0,0,2.9,2.8h3Z"/><path class="cls-3" d="M643.3,194.1h-2.9a3,3,0,0,0-3,3h0a2.9,2.9,0,0,0,3,2.9h2.9Z"/><path class="cls-3" d="M718.4,207.5h22.2a32.2,32.2,0,0,1,32.3,32.3v67.3"/><rect class="cls-21" x="287" y="244.7" width="58.2" height="40.97"/><path class="cls-22" d="M282.8,250.6H287a0,0,0,0,1,0,0v8.2a0,0,0,0,1,0,0h-4a4.2,4.2,0,0,1-4.2-4.2v0a4,4,0,0,1,4-4Z"/><path class="cls-22" d="M282.8,271.3H287a0,0,0,0,1,0,0v8.2a0,0,0,0,1,0,0h-4a4.2,4.2,0,0,1-4.2-4.2v0A4,4,0,0,1,282.8,271.3Z"/><rect class="cls-22" x="345.2" y="261.1" width="8.2" height="8.2"/><rect class="cls-23" x="293.1" y="250.6" width="45" height="14.19"/><circle class="cls-5" cx="297.9" cy="275.4" r="4.7"/><circle class="cls-5" cx="315.3" cy="275.4" r="4.7"/><circle class="cls-5" cx="332.7" cy="275.4" r="4.7"/><path class="cls-17" d="M286.4,264.8H274.9a12.4,12.4,0,0,0-12.5,12.4v50.1A30.5,30.5,0,0,1,232,357.8H220.4"/><path class="cls-3" d="M353.4,265.2h13.2a10.7,10.7,0,0,0,10.6-10.6v-26"/><line class="cls-3" x1="377.6" y1="183.3" x2="377.6" y2="157.5"/><path class="cls-3" d="M718.2,477.6a45.9,45.9,0,0,1,8.7,17.4,23.4,23.4,0,0,0-21.9-2.6A45.6,45.6,0,0,1,718.2,477.6Z"/><path class="cls-3" d="M721.4,519.6a8.8,8.8,0,0,1-17.4-2.3,8.8,8.8,0,1,1,17.4,2.3Z"/><path class="cls-3" d="M695.8,540.1a56.7,56.7,0,0,0,5.4,18.3c-8.5-.6-16.3-.2-22.2,1.2A28.1,28.1,0,0,1,695.8,540.1Z"/><path class="cls-3" d="M734.9,567c-5.3-2.8-12.8-5.3-21.5-7a60,60,0,0,0,10.1-16.4A28.3,28.3,0,0,1,734.9,567Z"/><path class="cls-3" d="M728.2,527a50.5,50.5,0,0,1-1.2,5.6,70.8,70.8,0,0,1-3.5,11A60,60,0,0,1,713.4,560l-2.1-.4-10.1-1.2a56.7,56.7,0,0,1-5.4-18.3,80.4,80.4,0,0,1-.6-12.1,85.1,85.1,0,0,1,1.1-11.1,71.8,71.8,0,0,1,8.7-24.5,22.6,22.6,0,0,1,11.6-1.4,23.2,23.2,0,0,1,10.3,4A75.3,75.3,0,0,1,728.2,527Zm-16.6.1a8.6,8.6,0,0,0,9.8-7.5,8.8,8.8,0,1,0-9.8,7.5Z"/><path class="cls-3" d="M721.4,519.6a8.8,8.8,0,0,1-17.4-2.3,8.8,8.8,0,1,1,17.4,2.3Z"/><line class="cls-3" x1="706.3" y1="568.1" x2="704.7" y2="580.5"/><line class="cls-3" x1="702.5" y1="567.1" x2="695.8" y2="577.7"/><line class="cls-3" x1="710.3" y1="568.2" x2="714" y2="580.1"/><path class="cls-3" d="M459,53.7a13.9,13.9,0,0,1-5.2,1.1H397.1A12.7,12.7,0,1,1,396,29.3a17.3,17.3,0,0,1,32-13,12.1,12.1,0,0,1,20.1,13.3A13.2,13.2,0,0,1,459,53.7Z"/><rect class="cls-5" x="412.9" y="44.4" width="20.5" height="20.54"/><polyline class="cls-3" points="416.9 42.3 416.9 32 413.7 28.8"/><line class="cls-3" x1="423.1" y1="29.6" x2="423.1" y2="42.3"/><polyline class="cls-3" points="429.3 42.3 429.3 32 432.7 28.7"/><circle class="cls-3" cx="411.9" cy="27.2" r="2.4" transform="translate(17.3 148.3) rotate(-20.8)"/><circle class="cls-3" cx="434.3" cy="27.2" r="2.4" transform="translate(18.7 156.3) rotate(-20.8)"/><circle class="cls-3" cx="423.1" cy="27.2" r="2.4" transform="translate(18 152.3) rotate(-20.8)"/><polyline class="cls-3" points="416.9 67.2 416.9 77.5 413.7 80.7"/><line class="cls-3" x1="423.1" y1="79.9" x2="423.1" y2="67.2"/><polyline class="cls-3" points="429.3 67.2 429.3 77.5 432.7 80.9"/><circle class="cls-3" cx="411.9" cy="82.3" r="2.4" transform="translate(188.4 437.9) rotate(-69.2)"/><circle class="cls-3" cx="434.3" cy="82.3" r="2.4" transform="translate(202.9 458.9) rotate(-69.2)"/><circle class="cls-3" cx="423.1" cy="82.3" r="2.4" transform="translate(195.7 448.4) rotate(-69.2)"/><polyline class="cls-3" points="410.7 60.9 400.4 60.9 397.1 64.2"/><polyline class="cls-3" points="410.7 48.6 400.4 48.6 397 45.2"/><circle class="cls-3" cx="395.6" cy="66" r="2.4" transform="translate(2.4 145) rotate(-20.8)"/><circle class="cls-3" cx="395.6" cy="43.5" r="2.4" transform="translate(10.4 143.6) rotate(-20.8)"/><polyline class="cls-3" points="435.5 60.9 445.9 60.9 449.1 64.2"/><polyline class="cls-3" points="435.5 48.6 445.9 48.6 449.2 45.2"/><circle class="cls-3" cx="450.6" cy="66" r="2.4" transform="translate(228.6 463.7) rotate(-69.2)"/><circle class="cls-3" cx="450.6" cy="43.5" r="2.4" transform="translate(249.6 449.2) rotate(-69.2)"/><circle class="cls-5" cx="323.1" cy="45.6" r="12.1" transform="translate(62.4 241.8) rotate(-45)"/><circle class="cls-3" cx="323.3" cy="45.6" r="19.4"/><path class="cls-3" d="M319.3,20.9A24.9,24.9,0,0,0,323,70.5"/><path class="cls-3" d="M332,68.9a24.9,24.9,0,0,0-4.4-47.8"/><polyline class="cls-3" points="322.2 70.4 322.2 78.9 328.7 85.4 328.7 94.2"/><polyline class="cls-3" points="306.3 705.1 300.9 699.7 300.9 668.3"/><polyline class="cls-3" points="306.3 27.1 300.9 21.7 300.9 -9.7"/><circle class="cls-5" cx="328.7" cy="96.4" r="2.8"/><polyline class="cls-3" points="343 31.5 349.1 25.5 349.1 16.3 355.2 10.1"/><circle class="cls-5" cx="356.8" cy="8.5" r="2.8"/><line class="cls-3" x1="298.1" y1="44.3" x2="257.7" y2="44.3"/><line class="cls-3" x1="664" y1="505.9" x2="614.5" y2="505.9"/><line class="cls-3" x1="664" y1="486.9" x2="614.5" y2="486.9"/><line class="cls-3" x1="614.5" y1="467" x2="664" y2="467"/><polyline class="cls-3" points="619.6 464.8 659.2 487.1 619.6 506.4"/><polyline class="cls-3" points="659.2 507.8 619 486.9 658.1 466.4 619.6 507.8"/><line class="cls-3" x1="618.5" y1="505.9" x2="569" y2="505.9"/><line class="cls-3" x1="618.5" y1="486.9" x2="569" y2="486.9"/><line class="cls-3" x1="569" y1="467" x2="618.5" y2="467"/><polyline class="cls-3" points="574.1 464.8 613.7 487.1 574.1 506.4"/><polyline class="cls-3" points="613.7 507.8 573.5 486.9 612.6 466.4 574.1 507.8"/><circle class="cls-5" cx="660.9" cy="505.5" r="6.7" transform="matrix(0.52, -0.86, 0.86, 0.52, -113.32, 810.37)"/><circle class="cls-5" cx="660.9" cy="486.4" r="6.7" transform="matrix(0.52, -0.86, 0.86, 0.52, -96.98, 801.14)"/><circle class="cls-5" cx="660.9" cy="467.4" r="6.7" transform="translate(-80.6 791.9) rotate(-58.9)"/><circle class="cls-5" cx="616.1" cy="505.5" r="6.7" transform="translate(-135 772) rotate(-58.9)"/><circle class="cls-5" cx="616.1" cy="486.4" r="6.7" transform="translate(-118.6 762.8) rotate(-58.9)"/><circle class="cls-5" cx="616.1" cy="467.4" r="6.7" transform="translate(-102.3 753.5) rotate(-58.9)"/><circle class="cls-5" cx="571.3" cy="505.5" r="6.7" transform="translate(-156.7 733.6) rotate(-58.9)"/><circle class="cls-5" cx="571.3" cy="486.4" r="6.7" transform="translate(-140.3 724.4) rotate(-58.9)"/><circle class="cls-5" cx="571.3" cy="467.4" r="6.7" transform="matrix(0.52, -0.86, 0.86, 0.52, -123.97, 715.18)"/><line class="cls-3" x1="574.4" y1="505.9" x2="524.9" y2="505.9"/><line class="cls-3" x1="574.4" y1="486.9" x2="524.9" y2="486.9"/><line class="cls-3" x1="524.9" y1="467" x2="574.4" y2="467"/><polyline class="cls-3" points="530 464.8 569.6 487.1 530 506.4"/><polyline class="cls-3" points="569.6 507.8 529.4 486.9 568.5 466.4 530 507.8"/><circle class="cls-5" cx="527.2" cy="505.5" r="6.7" transform="translate(-178 695.9) rotate(-58.9)"/><circle class="cls-5" cx="527.2" cy="486.4" r="6.7" transform="translate(-161.6 686.6) rotate(-58.9)"/><circle class="cls-5" cx="527.2" cy="467.4" r="6.7" transform="translate(-145.3 677.4) rotate(-58.9)"/><path class="cls-3" d="M775.4,144.6l-.3,16.6a4.5,4.5,0,0,1-4.7,4.5,5.1,5.1,0,0,1-5.1-5.3l.2-10.6a5.4,5.4,0,0,0-5.2-5.5Z"/><path class="cls-3" d="M754.9,165.4l-.3,16.6a4.6,4.6,0,0,1-4.7,4.5,5.1,5.1,0,0,1-5.1-5.3l.3-16Z"/><path class="cls-3" d="M814.1,124.1l-.7,37.9a4.7,4.7,0,0,1-4.7,4.5l-38.3-.8a4.5,4.5,0,0,0,4.7-4.5l.7-37.8Z"/><path class="cls-3" d="M793.2,166.2l-.4,16.7a4.4,4.4,0,0,1-4.5,4.4l-38.4-.8a4.6,4.6,0,0,0,4.7-4.5l.6-33.1a4.8,4.8,0,0,1,4.8-4.6h.3a5.4,5.4,0,0,1,5.2,5.5l-.2,10.6a5.1,5.1,0,0,0,5.1,5.3Z"/><line class="cls-3" x1="780" y1="130.4" x2="808.5" y2="130.9"/><line class="cls-3" x1="779.9" y1="135.1" x2="808.4" y2="135.6"/><line class="cls-3" x1="779.9" y1="139.8" x2="808.3" y2="140.3"/><line class="cls-3" x1="779.8" y1="144.5" x2="808.2" y2="145"/><line class="cls-3" x1="779.7" y1="149.2" x2="808.1" y2="149.8"/><line class="cls-3" x1="779.6" y1="153.9" x2="808" y2="154.5"/><line class="cls-3" x1="779.5" y1="158.6" x2="807.9" y2="159.2"/><path class="cls-24" d="M666.1,526.4c0,.2.1.3,0,.5v41.3h0a5.6,5.6,0,0,0-5.7-5.7,5.7,5.7,0,0,0-5.7,5.7v-42a5.7,5.7,0,0,1,11.4.1Z"/><path class="cls-16" d="M666,568.3a5.8,5.8,0,0,1-5.4,5.7H603V526.3h51.7v41.9a5.7,5.7,0,0,1,5.7-5.7A5.6,5.6,0,0,1,666,568.3Z"/><rect class="cls-16" x="610.5" y="543.6" width="4.1" height="19.71"/><rect class="cls-16" x="619" y="550.3" width="4.1" height="13.06"/><rect class="cls-16" x="627.5" y="543.8" width="4.1" height="19.49"/><rect class="cls-16" x="636" y="540.9" width="4.1" height="22.46"/><rect class="cls-16" x="644.5" y="536.7" width="4.1" height="26.66"/><path class="cls-25" d="M308.6,136.2c0,.6-3.2,1.2-7.2,1.2s-7.2-.6-7.2-1.2,3.2-1.3,7.2-1.3S308.6,135.5,308.6,136.2Z"/><path class="cls-5" d="M312.2,138.3v.4c0,1.1-5.2,1.9-11.5,1.9s-11.6-.8-11.6-1.9v-7h23.1Z"/><path class="cls-16" d="M317.3,119.1v10.2c0,1.5-7.4,2.8-16.6,2.8s-16.7-1.3-16.7-2.8V119.1"/><path class="cls-16" d="M317.6,118.9c0,1.9-7.6,3.4-16.9,3.4s-17-1.5-17-3.4,7.6-3.5,17-3.5S317.6,116.9,317.6,118.9Z"/><path class="cls-16" d="M317.3,136.9v10.2c0,1.5-7.4,2.8-16.6,2.8s-16.7-1.3-16.7-2.8V136.9"/><path class="cls-16" d="M317.6,136.6c0,2-7.6,3.5-16.9,3.5s-17-1.5-17-3.5,7.6-3.4,17-3.4S317.6,134.7,317.6,136.6Z"/><ellipse class="cls-25" cx="300.7" cy="120.2" rx="7.2" ry="1.2"/><path class="cls-5" d="M312.2,120.2v.5c0,1-5.2,1.9-11.5,1.9s-11.6-.9-11.6-1.9v-7.1h23.1Z"/><path class="cls-16" d="M317.3,111.6v.6c0,1.6-7.4,2.8-16.6,2.8s-16.7-1.2-16.7-2.8V102h33.3Z"/><ellipse class="cls-26" cx="300.7" cy="101.6" rx="17" ry="3.3"/><path class="cls-3" d="M885.1,144a2.9,2.9,0,0,1,2.9,2.9v86.9a2.9,2.9,0,0,0,2.9,2.9H893"/><line class="cls-3" x1="813.7" y1="144" x2="837.3" y2="144"/><path class="cls-3" d="M469.2,511.6v8.3a27.2,27.2,0,0,0,27.2,27.2H602.3"/><path class="cls-27" d="M548.7,347H545l8.4,18.7-1.3,2.6-.5.9a4.4,4.4,0,0,1-.8,1.1,2.8,2.8,0,0,1-1,.9,1.9,1.9,0,0,1-1.2.4H547l-.6,2.7h2.1a4.3,4.3,0,0,0,2.3-.5,5.7,5.7,0,0,0,1.8-1.2l1.3-1.5a9.5,9.5,0,0,0,.9-1.7l9.9-22.6H561l-6,15-.9-2.4Z"/><path class="cls-2" d="M857.4,634.9H855l5.5,12.2-.9,1.7-.3.6a1.8,1.8,0,0,1-.5.7,1.3,1.3,0,0,1-.7.6,1.1,1.1,0,0,1-.8.3h-1l-.4,1.8h1.4a4,4,0,0,0,1.5-.3l1.1-.8a3.1,3.1,0,0,0,.9-1.1l.6-1,6.5-14.8h-2.5l-3.9,9.8-.6-1.5Z"/><path class="cls-2" d="M190.6,351.1h-2.9l6.7,14.9-1.1,2-.4.8-.6.8a3,3,0,0,1-.8.8,1.7,1.7,0,0,1-1,.3h-1.3l-.4,2.2h1.6a3.8,3.8,0,0,0,1.9-.4,7.1,7.1,0,0,0,1.4-1,3.8,3.8,0,0,0,1-1.2,5.6,5.6,0,0,0,.7-1.3l7.9-18h-2.9l-4.8,12-.7-1.9Z"/><path class="cls-6" d="M375.9,440.9h-3.8l8.3,16.8v10h3.1v-10l8.3-16.8h-3.9L382,454.4Z"/><path class="cls-26" d="M381.8,429.8l.2-1,.2,1,2.7,6.5h2.3l-4.3-10.5h-1.8l-4.3,10.5h2.3Z"/><rect class="cls-5" x="861.4" y="485.7" width="8" height="8"/><rect class="cls-5" x="853.4" y="501.9" width="8" height="8"/><rect class="cls-5" x="869.4" y="501.9" width="8" height="8"/><rect class="cls-5" x="885.4" y="501.9" width="8" height="8"/><rect class="cls-5" x="877.4" y="485.7" width="8" height="8"/><rect class="cls-5" x="861.4" y="517.7" width="8" height="8"/><rect class="cls-5" x="877.4" y="517.7" width="8" height="8"/><path class="cls-3" d="M717.7,284.4v1.3a7.1,7.1,0,0,0,7.1,7.1h0a7.1,7.1,0,0,0,7.2-7.1V247.4a7.1,7.1,0,0,0-7.2-7.1h0a7.1,7.1,0,0,0-7.1,7.1v1.5"/><path class="cls-3" d="M709.7,274.7v2.5a7.1,7.1,0,0,0,7.1,7.2h0a7.1,7.1,0,0,0,7.1-7.2"/><path class="cls-3" d="M723.9,255.9a7.1,7.1,0,0,0-7.1-7.1h0a7.1,7.1,0,0,0-7.1,7.1v5.3"/><path class="cls-3" d="M712.5,260.8h-.4a7.1,7.1,0,0,0-7.1,7.1h0a7.1,7.1,0,0,0,7.1,7.2"/><path class="cls-3" d="M726.2,262.1h-.3a4.9,4.9,0,0,0-4.8,4.9h0a4.8,4.8,0,0,0,4.8,4.8"/><path class="cls-3" d="M746.7,248.3V247a7.1,7.1,0,0,0-7.1-7.1h0a7.1,7.1,0,0,0-7.1,7.1v38.2a7.1,7.1,0,0,0,7.1,7.2h0a7.1,7.1,0,0,0,7.1-7.2v-1.4"/><path class="cls-3" d="M754.8,258v-2.6a7.1,7.1,0,0,0-7.1-7.1h0a7.1,7.1,0,0,0-7.2,7.1"/><path class="cls-3" d="M740.5,276.7a7.2,7.2,0,0,0,7.2,7.2h0a7.1,7.1,0,0,0,7.1-7.2v-5.3"/><path class="cls-3" d="M751.9,271.8h.4a7.1,7.1,0,0,0,7.2-7.1h0a7.1,7.1,0,0,0-7.2-7.1"/><path class="cls-3" d="M738.2,270.5h.3a4.9,4.9,0,0,0,4.9-4.8h0a4.9,4.9,0,0,0-4.9-4.9"/><polyline class="cls-10" points="869 194.8 861.4 202.4 853.9 194.8"/><polyline class="cls-10" points="869 202.4 861.4 210 853.9 202.4"/><polyline class="cls-10" points="869 210 861.4 217.5 853.9 210"/><polyline class="cls-10" points="869 217.5 861.4 225.1 853.9 217.5"/><polyline class="cls-10" points="869 225.1 861.4 232.7 853.9 225.1"/><polyline class="cls-10" points="50.2 379.5 57.8 387 50.2 394.6"/><polyline class="cls-10" points="57.8 379.5 65.3 387 57.8 394.6"/><polyline class="cls-10" points="65.3 379.5 72.9 387 65.3 394.6"/><polyline class="cls-10" points="72.9 379.5 80.5 387 72.9 394.6"/><polyline class="cls-10" points="80.5 379.5 88.1 387 80.5 394.6"/><polyline class="cls-10" points="524.8 559.3 532.4 566.9 524.8 574.4"/><polyline class="cls-10" points="532.4 559.3 540 566.9 532.4 574.4"/><polyline class="cls-10" points="540 559.3 547.6 566.9 540 574.4"/><polyline class="cls-10" points="547.6 559.3 555.2 566.9 547.6 574.4"/><polyline class="cls-10" points="555.2 559.3 562.8 566.9 555.2 574.4"/><polyline class="cls-10" points="172.2 262.3 164.6 269.9 157 262.3"/><polyline class="cls-10" points="172.2 269.9 164.6 277.5 157 269.9"/><polyline class="cls-10" points="172.2 277.5 164.6 285.1 157 277.5"/><polyline class="cls-10" points="172.2 285.1 164.6 292.6 157 285.1"/><polyline class="cls-10" points="172.2 292.6 164.6 300.2 157 292.6"/><polyline class="cls-10" points="202.8 507.7 195.2 515.3 187.7 507.7"/><polyline class="cls-10" points="202.8 515.3 195.2 522.9 187.7 515.3"/><polyline class="cls-10" points="202.8 522.9 195.2 530.5 187.7 522.9"/><polyline class="cls-10" points="202.8 530.5 195.2 538.1 187.7 530.5"/><polyline class="cls-10" points="202.8 538.1 195.2 545.7 187.7 538.1"/><polyline class="cls-10" points="353.9 104.1 346.3 111.7 338.8 104.1"/><polyline class="cls-10" points="353.9 111.7 346.3 119.3 338.8 111.7"/><polyline class="cls-10" points="353.9 119.3 346.3 126.9 338.8 119.3"/><polyline class="cls-10" points="353.9 126.9 346.3 134.4 338.8 126.9"/><polyline class="cls-10" points="353.9 134.4 346.3 142 338.8 134.4"/><polyline class="cls-10" points="7.6 547.1 0 554.6 -7.6 547.1"/><polyline class="cls-10" points="7.6 554.6 0 562.2 -7.6 554.6"/><polyline class="cls-10" points="7.6 562.2 0 569.8 -7.6 562.2"/><polyline class="cls-10" points="7.6 569.8 0 577.4 -7.6 569.8"/><polyline class="cls-10" points="7.6 577.4 0 585 -7.6 577.4"/><polyline class="cls-10" points="911.6 547.1 904 554.6 896.4 547.1"/><polyline class="cls-10" points="911.6 554.6 904 562.2 896.4 554.6"/><polyline class="cls-10" points="911.6 562.2 904 569.8 896.4 562.2"/><polyline class="cls-10" points="911.6 569.8 904 577.4 896.4 569.8"/><polyline class="cls-10" points="911.6 577.4 904 585 896.4 577.4"/><line class="cls-3" x1="814.6" y1="7.3" x2="920.6" y2="7.3"/><line class="cls-3" x1="813.9" y1="17.8" x2="813.9" y2="-3.3"/><line class="cls-3" x1="814.6" y1="685.3" x2="920.6" y2="685.3"/><line class="cls-3" x1="813.9" y1="695.8" x2="813.9" y2="674.8"/><circle class="cls-3" cx="761.3" cy="496.9" r="8.9" transform="translate(-111.3 241.9) rotate(-16.8)"/><circle class="cls-3" cx="118.7" cy="386.8" r="8.9" transform="translate(-107 51) rotate(-16.8)"/><circle class="cls-3" cx="549.3" cy="322.3" r="8.9" transform="translate(-69.8 173) rotate(-16.8)"/><circle class="cls-3" cx="510.4" cy="300.2" r="8.9" transform="translate(-65.1 160.8) rotate(-16.8)"/><circle class="cls-3" cx="729.3" cy="140.5" r="8.9" transform="translate(-9.4 217.4) rotate(-16.8)"/><circle class="cls-3" cx="67.4" cy="292.2" r="5.3" transform="translate(-81.8 32.1) rotate(-16.8)"/><circle class="cls-3" cx="67.4" cy="171.9" r="5.3" transform="translate(-46.9 26.9) rotate(-16.8)"/><circle class="cls-3" cx="480.7" cy="412.8" r="5.3" transform="translate(-99 157) rotate(-16.8)"/><circle class="cls-3" cx="419.4" cy="412.8" r="5.3" transform="matrix(0.96, -0.29, 0.29, 0.96, -101.64, 139.26)"/><path class="cls-2" d="M759.9,401.2a2.8,2.8,0,0,0,3.3-2.2,2.8,2.8,0,0,0-2.1-3.4,2.9,2.9,0,0,0-3.4,2.2A2.8,2.8,0,0,0,759.9,401.2Z"/><path class="cls-2" d="M747.5,411.3a2.7,2.7,0,0,0,3.3-2.2,2.8,2.8,0,1,0-5.5-1.2A2.7,2.7,0,0,0,747.5,411.3Z"/><path class="cls-2" d="M771.9,412.6a2.9,2.9,0,0,0,3.4-2.2,2.7,2.7,0,0,0-2.2-3.4,2.9,2.9,0,0,0-3.4,2.2A3,3,0,0,0,771.9,412.6Z"/><polyline class="cls-3" points="772.5 409.8 760.5 398.4 748 408.5"/><path class="cls-4" d="M849.9,405l.6-.6,3.4,3.8a1.2,1.2,0,0,0,1.7.1h.2l2.1-2.5a2,2,0,0,1,2.8-.3l.3.3,2.1,2.5a1.2,1.2,0,0,0,1.7.1h.2l2.1-2.5a2,2,0,0,1,2.8-.3l.3.3,2.1,2.5a1.2,1.2,0,0,0,1.7.1h.2l3.3-4,.6.5-3.3,4a2.2,2.2,0,0,1-2.9.2l-.2-.2-2.1-2.5a1.4,1.4,0,0,0-1.8-.2c0,.1,0,.1-.1.2l-2.1,2.5a2.1,2.1,0,0,1-2.9.2l-.2-.2-2.1-2.5a1.3,1.3,0,0,0-1.7-.2l-.2.2-2.1,2.5a2,2,0,0,1-2.8.2l-.3-.2Z"/><path class="cls-4" d="M793.5,299.2l-.5-.6,3.7-3.4a1.2,1.2,0,0,0,.2-1.7l-.2-.2-2.5-2.1a2.1,2.1,0,0,1-.2-2.9l.2-.2,2.5-2.1a1.2,1.2,0,0,0,.2-1.7l-.2-.2-2.5-2.1a2,2,0,0,1-.2-2.8c.1-.1.2-.2.2-.3l2.5-2.1a1.2,1.2,0,0,0,.2-1.7l-.2-.2-3.9-3.3.5-.6,4,3.3a2.1,2.1,0,0,1,.2,2.9l-.2.2-2.6,2.1a1.2,1.2,0,0,0-.1,1.7v.2l2.6,2.1a2,2,0,0,1,.2,2.8c-.1.1-.2.2-.2.3l-2.6,2.1a1.2,1.2,0,0,0-.1,1.7c.1.1.1.1.1.2l2.6,2.1a2,2,0,0,1,.2,2.8c-.1.1-.2.2-.2.3Z"/><path class="cls-4" d="M749,370.5l-.6.6c0-.1-3.4-3.8-3.4-3.8a1.2,1.2,0,0,0-1.7-.1c-.1,0-.1,0-.1.1l-2.2,2.5a2,2,0,0,1-2.8.2.2.2,0,0,1-.2-.2l-2.2-2.5a1.2,1.2,0,0,0-1.7-.1c-.1,0-.1,0-.1.1l-2.2,2.5a2,2,0,0,1-2.8.2.2.2,0,0,1-.2-.2l-2.2-2.5a1.2,1.2,0,0,0-1.7-.1.1.1,0,0,0-.1.1l-3.4,3.9-.6-.5,3.4-3.9a1.9,1.9,0,0,1,2.8-.2c.1,0,.1.1.2.2l2.2,2.5a1.2,1.2,0,0,0,1.7.1h.1l2.2-2.5a1.9,1.9,0,0,1,2.8-.2l.2.2,2.2,2.5a1.2,1.2,0,0,0,1.7.1h.1l2.2-2.5a1.9,1.9,0,0,1,2.8-.2c.1,0,.1.1.2.2Z"/><path class="cls-4" d="M428.4,219.7l-.6.6-3.4-3.8a1.2,1.2,0,0,0-1.7-.1h-.2l-2.1,2.5a2,2,0,0,1-2.8.3l-.2-.3-2.2-2.5a1.2,1.2,0,0,0-1.7-.1h-.2l-2.1,2.5a2,2,0,0,1-2.8.3l-.2-.3-2.2-2.5a1.2,1.2,0,0,0-1.7-.1h-.1l-3.4,4-.6-.5,3.3-4a2.2,2.2,0,0,1,2.9-.2l.2.2,2.1,2.5a1.4,1.4,0,0,0,1.8.2v-.2l2.1-2.5a2.2,2.2,0,0,1,2.9-.2l.2.2,2.1,2.5a1.4,1.4,0,0,0,1.8.2v-.2l2.1-2.5a2.2,2.2,0,0,1,2.9-.2l.2.2Z"/><path class="cls-4" d="M427.8,198.9l-.5.5c-.1,0-3.5-3.7-3.5-3.7a1.2,1.2,0,0,0-1.7-.2v.2l-2.2,2.5a2,2,0,0,1-2.8.2l-.2-.2-2.2-2.5a1.2,1.2,0,0,0-1.7-.2v.2l-2.2,2.5a2,2,0,0,1-2.8.2l-.2-.2-2.1-2.5a1.4,1.4,0,0,0-1.8-.2v.2l-3.4,3.9-.6-.5,3.4-3.9a2,2,0,0,1,2.8-.3l.2.3,2.2,2.5a1.2,1.2,0,0,0,1.7.1.1.1,0,0,0,.1-.1l2.2-2.5a2,2,0,0,1,2.8-.3l.2.3,2.2,2.5a1.2,1.2,0,0,0,1.7.1h.1l2.2-2.5a2,2,0,0,1,2.8-.3l.2.3Z"/><path class="cls-4" d="M565.2,26.7l-.6.5-3.4-3.7a1.2,1.2,0,0,0-1.7-.2l-.2.2L557.2,26a2,2,0,0,1-2.8.2c-.1-.1-.2-.1-.2-.2L552,23.5a1.2,1.2,0,0,0-1.7-.2c-.1.1-.1.1-.1.2L548,26a2,2,0,0,1-2.8.2c-.1-.1-.2-.1-.2-.2l-2.2-2.5a1.2,1.2,0,0,0-1.7-.2c-.1.1-.1.1-.1.2l-3.4,3.9-.6-.5,3.4-3.9a1.9,1.9,0,0,1,2.8-.3l.2.3,2.1,2.5a1.4,1.4,0,0,0,1.8.1h.1l2.2-2.5a1.9,1.9,0,0,1,2.8-.3l.2.3,2.1,2.5a1.4,1.4,0,0,0,1.8.1h.1l2.1-2.5a2.1,2.1,0,0,1,2.9-.3c0,.1.1.2.2.3Z"/><path class="cls-4" d="M656.8,77.3l-.6.6c0-.1-3.4-3.8-3.4-3.8a1.2,1.2,0,0,0-1.7-.1H651l-2.2,2.5a1.9,1.9,0,0,1-2.8.2.2.2,0,0,1-.2-.2l-2.2-2.5a1.2,1.2,0,0,0-1.7-.1h-.1l-2.2,2.5a1.9,1.9,0,0,1-2.8.2.2.2,0,0,1-.2-.2l-2.2-2.5a1.2,1.2,0,0,0-1.7-.1h-.1l-3.4,4-.6-.6,3.4-3.9a2,2,0,0,1,2.8-.2l.2.2,2.2,2.5a1.2,1.2,0,0,0,1.7.1.1.1,0,0,0,.1-.1l2.2-2.5a2,2,0,0,1,2.8-.2l.2.2,2.2,2.5a1.2,1.2,0,0,0,1.7.1.1.1,0,0,0,.1-.1l2.2-2.5a2,2,0,0,1,2.8-.2l.2.2Z"/><path class="cls-3" d="M494.6,10a3,3,0,0,1,1,2.3h6.3v6.3a3.2,3.2,0,0,0-2.3.9,3.3,3.3,0,0,0,0,4.7,3.2,3.2,0,0,0,2.3.9v6.3h-6.3a3.3,3.3,0,0,1-5.6,2.3,3.3,3.3,0,0,1-.9-2.3h-6.3V25.1a3,3,0,0,0,2.3-1,3.2,3.2,0,0,0,0-4.6,3.3,3.3,0,0,0-2.3-.9V12.3h6.3A3.3,3.3,0,0,1,490,10,3.2,3.2,0,0,1,494.6,10Z"/><path class="cls-3" d="M831.9,189.6a3.3,3.3,0,0,1-2.3.9v6.3h-6.3a3.3,3.3,0,0,0-.9-2.3,3.2,3.2,0,0,0-4.6,0,3,3,0,0,0-1,2.3h-6.3v-6.3a3.5,3.5,0,0,1-2.3-.9,3.3,3.3,0,0,1,2.3-5.6v-6.3h6.3a2.9,2.9,0,0,0,1,2.3,3.2,3.2,0,0,0,4.6,0,3.2,3.2,0,0,0,.9-2.3h6.3V184a3,3,0,0,1,2.3,1A3.2,3.2,0,0,1,831.9,189.6Z"/><path class="cls-3" d="M573.8,219.2a3.5,3.5,0,0,1-.9-2.3h-6.3v-6.3a3,3,0,0,0,2.3-1,3.2,3.2,0,0,0,0-4.6,3.3,3.3,0,0,0-2.3-.9v-6.3h6.3a3.3,3.3,0,0,1,.9-2.3,3.2,3.2,0,0,1,4.6,0,3,3,0,0,1,1,2.3h6.3v6.3a3.2,3.2,0,0,0-2.3.9,3.2,3.2,0,0,0,0,4.6,2.9,2.9,0,0,0,2.3,1v6.3h-6.3a3.2,3.2,0,0,1-1,2.3A3.4,3.4,0,0,1,573.8,219.2Z"/><path class="cls-3" d="M507,430.5a3.4,3.4,0,0,1,2.3-1v-6.2h6.3a3.5,3.5,0,0,0,.9,2.3,3.3,3.3,0,0,0,4.6,0,3.2,3.2,0,0,0,1-2.3h6.3v6.2a3.7,3.7,0,0,1,2.3,1,3.4,3.4,0,0,1,0,4.6,3.7,3.7,0,0,1-2.3,1v6.2h-6.3a3.2,3.2,0,0,0-1-2.3,3.4,3.4,0,0,0-4.6,0,3.5,3.5,0,0,0-.9,2.3h-6.3v-6.2a3.4,3.4,0,0,1-2.3-1A3.2,3.2,0,0,1,507,430.5Z"/><polygon class="cls-17" points="663.3 273.6 663.3 285.5 652.9 291.5 642.6 285.5 642.6 273.6 652.9 267.6 663.3 273.6"/><polygon class="cls-17" points="652.5 291.7 652.5 303.7 642.1 309.7 631.7 303.7 631.7 291.7 642.1 285.8 652.5 291.7"/><polygon class="cls-17" points="205.9 572.7 205.9 584.7 195.5 590.7 185.2 584.7 185.2 572.7 195.5 566.8 205.9 572.7"/><polygon class="cls-17" points="47 568.4 47 580.4 36.6 586.4 26.3 580.4 26.3 568.4 36.6 562.5 47 568.4"/><polygon class="cls-17" points="195.5 590.8 195.5 602.7 185.2 608.7 174.8 602.7 174.8 590.8 185.2 584.8 195.5 590.8"/><line class="cls-3" x1="643.3" y1="136.3" x2="643.3" y2="177.5"/><path class="cls-3" d="M646.1,177.5"/><polyline class="cls-3" points="646.1 159.5 646.1 150.5 648.7 147.9"/><polyline class="cls-3" points="640.5 159.5 640.5 147 635.7 142.1"/><polyline class="cls-3" points="646.1 177.1 646.1 163.7 649.4 160.4"/><polyline class="cls-3" points="640.5 177.1 640.5 163.7 631.8 155"/><circle class="cls-3" cx="643.3" cy="134.4" r="1.9"/><circle class="cls-3" cx="634.2" cy="141" r="1.9"/><circle class="cls-3" cx="650.3" cy="147" r="1.9"/><circle class="cls-3" cx="650.7" cy="159.1" r="1.9"/><circle class="cls-3" cx="630.1" cy="153.9" r="1.9"/><path class="cls-2" d="M646,378.1a4.4,4.4,0,0,0-1.8,6,4.4,4.4,0,0,0,5.9,1.8,4.4,4.4,0,0,0-4.1-7.8Z"/><path class="cls-2" d="M629.6,344.5a4.4,4.4,0,0,0,4.2,7.7,4.4,4.4,0,1,0-4.2-7.7Z"/><path class="cls-2" d="M627,367.9a4.3,4.3,0,0,0-1.7,5.9,4.4,4.4,0,0,0,5.9,1.8,4.5,4.5,0,0,0,1.8-6A4.4,4.4,0,0,0,627,367.9Z"/><polygon class="cls-3" points="631.7 348.3 648.1 382 629.1 371.7 631.7 348.3"/><circle class="cls-3" cx="760.3" cy="125.7" r="5.3" transform="translate(-3.8 225.7) rotate(-16.8)"/><circle class="cls-3" cx="635.7" cy="111.2" r="5.3" transform="translate(-5 189) rotate(-16.8)"/><circle class="cls-3" cx="695.1" cy="11.3" r="5.3" transform="translate(26.6 201.9) rotate(-16.8)"/><circle class="cls-3" cx="878.1" cy="391.6" r="5.3" transform="translate(-75.8 271.3) rotate(-16.8)"/><circle class="cls-3" cx="849.3" cy="392" r="5.3" transform="translate(-77.2 262.9) rotate(-16.8)"/><path class="cls-4" d="M525.9,281.1l.6-.6,3.4,3.8a1.2,1.2,0,0,0,1.7.1h.2l2.1-2.5a2,2,0,0,1,2.8-.3c.1.1.2.2.2.3l2.2,2.5a1.2,1.2,0,0,0,1.7.1h.1l2.2-2.5a2,2,0,0,1,2.8-.3c.1.1.2.2.2.3l2.2,2.5a1.2,1.2,0,0,0,1.7.1h.1l3.4-4,.6.5-3.4,4a2,2,0,0,1-2.8.2l-.2-.2-2.1-2.5a1.4,1.4,0,0,0-1.8-.2c0,.1-.1.1-.1.2l-2.2,2.5a2,2,0,0,1-2.8.2l-.2-.2-2.1-2.5a1.4,1.4,0,0,0-1.8-.2c0,.1-.1.1-.1.2l-2.1,2.5a2.2,2.2,0,0,1-2.9.2c0-.1-.1-.1-.2-.2Z"/><circle class="cls-3" cx="187.6" cy="322.7" r="5.3" transform="translate(-85.5 68.2) rotate(-16.8)"/><circle class="cls-3" cx="249.4" cy="367.3" r="5.3" transform="translate(-95.7 88) rotate(-16.8)"/><circle class="cls-3" cx="274.9" cy="79.8" r="5.3" transform="translate(-11.3 83.1) rotate(-16.8)"/><circle class="cls-3" cx="414.3" cy="171.9" r="5.3" transform="translate(-32 127.4) rotate(-16.8)"/><circle class="cls-3" cx="155.4" cy="387" r="5.3" transform="translate(-105.5 61.6) rotate(-16.8)"/><circle class="cls-3" cx="349.3" cy="481.7" r="5.3" transform="translate(-124.6 121.9) rotate(-16.8)"/><circle class="cls-3" cx="760.3" cy="469.7" r="5.3" transform="translate(-103.5 240.5) rotate(-16.8)"/><circle class="cls-3" cx="686.9" cy="485.6" r="5.3" transform="translate(-111.3 219.9) rotate(-16.8)"/><circle class="cls-3" cx="392.8" cy="365.2" r="5.3" transform="translate(-89 129.5) rotate(-16.8)"/><circle class="cls-3" cx="370" cy="365.2" r="5.3" transform="translate(-89.9 122.9) rotate(-16.8)"/><path class="cls-3" d="M370,360.1l4.1-6.1a8.9,8.9,0,0,1,14.8.1l3.9,5.8"/><path class="cls-2" d="M297.5,394.8v1.7h-1.1a8.1,8.1,0,0,1-1.5,3.7l.8.7-1.3,1.2-.7-.6A6.8,6.8,0,0,1,290,403v1h-1.7v-1a7.5,7.5,0,0,1-3.8-1.5l-.6.6-1.3-1.2.7-.7a8.3,8.3,0,0,1-1.4-3.5v-.2h-1.1v-1.7H282a6.9,6.9,0,0,1,1.5-3.5l-.9-.9,1.3-1.3.9.9a7.1,7.1,0,0,1,3.5-1.3v-1.4H290v1.4a7.1,7.1,0,0,1,3.5,1.3l.9-.9,1.3,1.3-.9.9a6.6,6.6,0,0,1,1.5,3.5Zm-2.7.4v-.4a6.4,6.4,0,0,0-1.1-2.5l-1.3-1.2a5,5,0,0,0-2.4-.9h-1.7a5,5,0,0,0-2.4.9l-1.3,1.2a7.1,7.1,0,0,0-1.1,2.5,9.1,9.1,0,0,0-.1,1.7h0a6.7,6.7,0,0,0,1,2.6l1.2,1.3a5.4,5.4,0,0,0,2.7,1.1H290a5.4,5.4,0,0,0,2.7-1.1l1.2-1.3a6.7,6.7,0,0,0,1-2.6A5.7,5.7,0,0,0,294.8,395.2Z"/><path class="cls-2" d="M291.8,396.5c0,.2-.1.3-.1.4a2.5,2.5,0,0,1-1.2,1.3l-.5.3h-1.7l-.5-.3a2,2,0,0,1-1.2-1.3c-.1-.1-.1-.2-.1-.4a.4.4,0,0,1-.1-.3,2.2,2.2,0,0,1,.2-1.4c0-.1.1-.2.1-.3a2.8,2.8,0,0,1,1.4-1.2h2.1a2.2,2.2,0,0,1,1.3,1.2l.2.3a1.4,1.4,0,0,1,.2.7A3.1,3.1,0,0,1,291.8,396.5Z"/><polygon class="cls-3" points="211.1 433 215.5 433 215.5 445.5 207 445.5 207 441.1 211.1 441.1 211.1 433"/><polygon class="cls-3" points="241 441.1 241 445.5 223.9 445.5 223.9 441.1 241 441.1"/><polygon class="cls-3" points="218.6 416.5 222.9 416.5 222.9 420.8 227.3 420.8 227.3 425.1 222.9 425.1 222.9 429.4 218.6 429.4 218.6 416.5"/><polygon class="cls-3" points="200 424.2 200 415.7 204.4 415.7 204.4 411.4 208.8 411.4 208.8 419.9 204.4 419.9 204.4 424.2 200 424.2"/><line class="cls-3" x1="118.1" y1="564.8" x2="118.1" y2="598.4"/><line class="cls-17" x1="544.6" y1="537.5" x2="544.6" y2="547.1"/><line class="cls-17" x1="854.6" y1="278" x2="854.6" y2="250.4"/></pattern></defs><title>rojo</title><rect class="cls-28" x="-8" y="-6" width="535" height="312"/><rect class="cls-28" x="-8" y="-6" width="535" height="312"/><rect class="cls-28" x="-8" y="-6" width="535" height="312"/><rect class="cls-29" width="520" height="300"/></svg>